<mxfile host="drawio-plugin" modified="2024-04-16T00:47:24.969Z" agent="5.0 (X11; Linux x86_64) AppleWebKit/537.36 (KHTML, like Gecko) Chrome/119.0.0.0 Safari/537.36" etag="mOmZ4FLRyMf2w-KAd_xo" version="20.5.3" type="embed"><diagram name="第 1 页" id="0-qDsPZWwxQqo_01VZha"><mxGraphModel dx="1786" dy="744" grid="1" gridSize="10" guides="1" tooltips="1" connect="1" arrows="1" fold="1" page="1" pageScale="1" pageWidth="827" pageHeight="1169" math="0" shadow="0"><root><mxCell id="0"/><mxCell id="1" parent="0"/><UserObject label="" plantUmlData="{&#10;  &quot;data&quot;: &quot;@startuml\nautonumber\n\nactor 志愿者\nparticipant 前端页面\nparticipant TaskController\nparticipant TaskServiceImpl\nparticipant TaskRepository\n\n志愿者 -&gt; 前端页面: 点击“领取任务”按钮\nactivate 前端页面\n前端页面 -&gt; TaskController: 发送领取任务请求 (taskId, volunteerId)\nactivate TaskController\nTaskController -&gt; TaskServiceImpl: 调用 assignTask(taskId, volunteerId) 方法\nactivate TaskServiceImpl\nTaskServiceImpl -&gt; TaskRepository: 更新任务状态和负责人\nactivate TaskRepository\nTaskRepository --&gt; TaskServiceImpl: 返回更新结果\ndeactivate TaskRepository\nTaskServiceImpl --&gt; TaskController: 返回操作结果\ndeactivate TaskServiceImpl\nTaskController --&gt; 前端页面: 返回操作结果\ndeactivate TaskController\n前端页面 --&gt; 志愿者: 显示操作结果\ndeactivate 前端页面\n@enduml&quot;,&#10;  &quot;format&quot;: &quot;svg&quot;&#10;}" id="AG9e61MuKz-lgSlKQN2f-1"><mxCell style="shape=image;noLabel=1;verticalAlign=top;aspect=fixed;imageAspect=0;image=data:image/svg+xml,PD94bWwgdmVyc2lvbj0iMS4wIiBlbmNvZGluZz0idXMtYXNjaWkiIHN0YW5kYWxvbmU9Im5vIj8+PHN2ZyB4bWxucz0iaHR0cDovL3d3dy53My5vcmcvMjAwMC9zdmciIHhtbG5zOnhsaW5rPSJodHRwOi8vd3d3LnczLm9yZy8xOTk5L3hsaW5rIiBjb250ZW50U3R5bGVUeXBlPSJ0ZXh0L2NzcyIgaGVpZ2h0PSI0MDJweCIgcHJlc2VydmVBc3BlY3RSYXRpbz0ibm9uZSIgc3R5bGU9IndpZHRoOjEwMTdweDtoZWlnaHQ6NDAycHg7YmFja2dyb3VuZDojRkZGRkZGOyIgdmVyc2lvbj0iMS4xIiB2aWV3Qm94PSIwIDAgMTAxNyA0MDIiIHdpZHRoPSIxMDE3cHgiIHpvb21BbmRQYW49Im1hZ25pZnkiPjxkZWZzLz48Zz48cmVjdCBmaWxsPSIjRkZGRkZGIiBoZWlnaHQ9IjE5NS4zOTg0IiBzdHlsZT0ic3Ryb2tlOiMxODE4MTg7c3Ryb2tlLXdpZHRoOjEuMDsiIHdpZHRoPSIxMCIgeD0iMTc3IiB5PSIxMDkuODk4NCIvPjxyZWN0IGZpbGw9IiNGRkZGRkYiIGhlaWdodD0iMTM5LjU3MDMiIHN0eWxlPSJzdHJva2U6IzE4MTgxODtzdHJva2Utd2lkdGg6MS4wOyIgd2lkdGg9IjEwIiB4PSI0NjciIHk9IjEzNy44MTI1Ii8+PHJlY3QgZmlsbD0iI0ZGRkZGRiIgaGVpZ2h0PSI4My43NDIyIiBzdHlsZT0ic3Ryb2tlOiMxODE4MTg7c3Ryb2tlLXdpZHRoOjEuMDsiIHdpZHRoPSIxMCIgeD0iNzgwIiB5PSIxNjUuNzI2NiIvPjxyZWN0IGZpbGw9IiNGRkZGRkYiIGhlaWdodD0iMjcuOTE0MSIgc3R5bGU9InN0cm9rZTojMTgxODE4O3N0cm9rZS13aWR0aDoxLjA7IiB3aWR0aD0iMTAiIHg9Ijk1MCIgeT0iMTkzLjY0MDYiLz48bGluZSBzdHlsZT0ic3Ryb2tlOiMxODE4MTg7c3Ryb2tlLXdpZHRoOjAuNTtzdHJva2UtZGFzaGFycmF5OjUuMCw1LjA7IiB4MT0iMjkiIHgyPSIyOSIgeTE9Ijc5Ljk4NDQiIHkyPSIzMjMuMjk2OSIvPjxsaW5lIHN0eWxlPSJzdHJva2U6IzE4MTgxODtzdHJva2Utd2lkdGg6MC41O3N0cm9rZS1kYXNoYXJyYXk6NS4wLDUuMDsiIHgxPSIxODIiIHgyPSIxODIiIHkxPSI3OS45ODQ0IiB5Mj0iMzIzLjI5NjkiLz48bGluZSBzdHlsZT0ic3Ryb2tlOiMxODE4MTg7c3Ryb2tlLXdpZHRoOjAuNTtzdHJva2UtZGFzaGFycmF5OjUuMCw1LjA7IiB4MT0iNDcyIiB4Mj0iNDcyIiB5MT0iNzkuOTg0NCIgeTI9IjMyMy4yOTY5Ii8+PGxpbmUgc3R5bGU9InN0cm9rZTojMTgxODE4O3N0cm9rZS13aWR0aDowLjU7c3Ryb2tlLWRhc2hhcnJheTo1LjAsNS4wOyIgeDE9Ijc4NSIgeDI9Ijc4NSIgeTE9Ijc5Ljk4NDQiIHkyPSIzMjMuMjk2OSIvPjxsaW5lIHN0eWxlPSJzdHJva2U6IzE4MTgxODtzdHJva2Utd2lkdGg6MC41O3N0cm9rZS1kYXNoYXJyYXk6NS4wLDUuMDsiIHgxPSI5NTUiIHgyPSI5NTUiIHkxPSI3OS45ODQ0IiB5Mj0iMzIzLjI5NjkiLz48dGV4dCBmaWxsPSIjMDAwMDAwIiBmb250LWZhbWlseT0ic2Fucy1zZXJpZiIgZm9udC1zaXplPSIxNCIgbGVuZ3RoQWRqdXN0PSJzcGFjaW5nIiB0ZXh0TGVuZ3RoPSI0MiIgeD0iNSIgeT0iNzguMjM0NCI+JiMyNDUzNTsmIzI0ODk1OyYjMzI3NzM7PC90ZXh0PjxlbGxpcHNlIGN4PSIyOSIgY3k9IjEzLjUiIGZpbGw9IiNFMkUyRjAiIHJ4PSI4IiByeT0iOCIgc3R5bGU9InN0cm9rZTojMTgxODE4O3N0cm9rZS13aWR0aDowLjU7Ii8+PHBhdGggZD0iTTI5LDIxLjUgTDI5LDQ4LjUgTTE2LDI5LjUgTDQyLDI5LjUgTTI5LDQ4LjUgTDE2LDYzLjUgTTI5LDQ4LjUgTDQyLDYzLjUgIiBmaWxsPSJub25lIiBzdHlsZT0ic3Ryb2tlOiMxODE4MTg7c3Ryb2tlLXdpZHRoOjAuNTsiLz48dGV4dCBmaWxsPSIjMDAwMDAwIiBmb250LWZhbWlseT0ic2Fucy1zZXJpZiIgZm9udC1zaXplPSIxNCIgbGVuZ3RoQWRqdXN0PSJzcGFjaW5nIiB0ZXh0TGVuZ3RoPSI0MiIgeD0iNSIgeT0iMzM1LjUzMTMiPiYjMjQ1MzU7JiMyNDg5NTsmIzMyNzczOzwvdGV4dD48ZWxsaXBzZSBjeD0iMjkiIGN5PSIzNDUuNzgxMyIgZmlsbD0iI0UyRTJGMCIgcng9IjgiIHJ5PSI4IiBzdHlsZT0ic3Ryb2tlOiMxODE4MTg7c3Ryb2tlLXdpZHRoOjAuNTsiLz48cGF0aCBkPSJNMjksMzUzLjc4MTMgTDI5LDM4MC43ODEzIE0xNiwzNjEuNzgxMyBMNDIsMzYxLjc4MTMgTTI5LDM4MC43ODEzIEwxNiwzOTUuNzgxMyBNMjksMzgwLjc4MTMgTDQyLDM5NS43ODEzICIgZmlsbD0ibm9uZSIgc3R5bGU9InN0cm9rZTojMTgxODE4O3N0cm9rZS13aWR0aDowLjU7Ii8+PHJlY3QgZmlsbD0iI0UyRTJGMCIgaGVpZ2h0PSIyOC45ODQ0IiByeD0iMi41IiByeT0iMi41IiBzdHlsZT0ic3Ryb2tlOiMxODE4MTg7c3Ryb2tlLXdpZHRoOjAuNTsiIHdpZHRoPSI3MCIgeD0iMTQ3IiB5PSI1MCIvPjx0ZXh0IGZpbGw9IiMwMDAwMDAiIGZvbnQtZmFtaWx5PSJzYW5zLXNlcmlmIiBmb250LXNpemU9IjE0IiBsZW5ndGhBZGp1c3Q9InNwYWNpbmciIHRleHRMZW5ndGg9IjU2IiB4PSIxNTQiIHk9IjcwLjIzNDQiPiYjMjEwNjk7JiMzMTQ3MTsmIzM5MDI5OyYjMzg3NTQ7PC90ZXh0PjxyZWN0IGZpbGw9IiNFMkUyRjAiIGhlaWdodD0iMjguOTg0NCIgcng9IjIuNSIgcnk9IjIuNSIgc3R5bGU9InN0cm9rZTojMTgxODE4O3N0cm9rZS13aWR0aDowLjU7IiB3aWR0aD0iNzAiIHg9IjE0NyIgeT0iMzIyLjI5NjkiLz48dGV4dCBmaWxsPSIjMDAwMDAwIiBmb250LWZhbWlseT0ic2Fucy1zZXJpZiIgZm9udC1zaXplPSIxNCIgbGVuZ3RoQWRqdXN0PSJzcGFjaW5nIiB0ZXh0TGVuZ3RoPSI1NiIgeD0iMTU0IiB5PSIzNDIuNTMxMyI+JiMyMTA2OTsmIzMxNDcxOyYjMzkwMjk7JiMzODc1NDs8L3RleHQ+PHJlY3QgZmlsbD0iI0UyRTJGMCIgaGVpZ2h0PSIyOC45ODQ0IiByeD0iMi41IiByeT0iMi41IiBzdHlsZT0ic3Ryb2tlOiMxODE4MTg7c3Ryb2tlLXdpZHRoOjAuNTsiIHdpZHRoPSIxMTIiIHg9IjQxNiIgeT0iNTAiLz48dGV4dCBmaWxsPSIjMDAwMDAwIiBmb250LWZhbWlseT0ic2Fucy1zZXJpZiIgZm9udC1zaXplPSIxNCIgbGVuZ3RoQWRqdXN0PSJzcGFjaW5nIiB0ZXh0TGVuZ3RoPSI5OCIgeD0iNDIzIiB5PSI3MC4yMzQ0Ij5UYXNrQ29udHJvbGxlcjwvdGV4dD48cmVjdCBmaWxsPSIjRTJFMkYwIiBoZWlnaHQ9IjI4Ljk4NDQiIHJ4PSIyLjUiIHJ5PSIyLjUiIHN0eWxlPSJzdHJva2U6IzE4MTgxODtzdHJva2Utd2lkdGg6MC41OyIgd2lkdGg9IjExMiIgeD0iNDE2IiB5PSIzMjIuMjk2OSIvPjx0ZXh0IGZpbGw9IiMwMDAwMDAiIGZvbnQtZmFtaWx5PSJzYW5zLXNlcmlmIiBmb250LXNpemU9IjE0IiBsZW5ndGhBZGp1c3Q9InNwYWNpbmciIHRleHRMZW5ndGg9Ijk4IiB4PSI0MjMiIHk9IjM0Mi41MzEzIj5UYXNrQ29udHJvbGxlcjwvdGV4dD48cmVjdCBmaWxsPSIjRTJFMkYwIiBoZWlnaHQ9IjI4Ljk4NDQiIHJ4PSIyLjUiIHJ5PSIyLjUiIHN0eWxlPSJzdHJva2U6IzE4MTgxODtzdHJva2Utd2lkdGg6MC41OyIgd2lkdGg9IjEyMCIgeD0iNzI1IiB5PSI1MCIvPjx0ZXh0IGZpbGw9IiMwMDAwMDAiIGZvbnQtZmFtaWx5PSJzYW5zLXNlcmlmIiBmb250LXNpemU9IjE0IiBsZW5ndGhBZGp1c3Q9InNwYWNpbmciIHRleHRMZW5ndGg9IjEwNiIgeD0iNzMyIiB5PSI3MC4yMzQ0Ij5UYXNrU2VydmljZUltcGw8L3RleHQ+PHJlY3QgZmlsbD0iI0UyRTJGMCIgaGVpZ2h0PSIyOC45ODQ0IiByeD0iMi41IiByeT0iMi41IiBzdHlsZT0ic3Ryb2tlOiMxODE4MTg7c3Ryb2tlLXdpZHRoOjAuNTsiIHdpZHRoPSIxMjAiIHg9IjcyNSIgeT0iMzIyLjI5NjkiLz48dGV4dCBmaWxsPSIjMDAwMDAwIiBmb250LWZhbWlseT0ic2Fucy1zZXJpZiIgZm9udC1zaXplPSIxNCIgbGVuZ3RoQWRqdXN0PSJzcGFjaW5nIiB0ZXh0TGVuZ3RoPSIxMDYiIHg9IjczMiIgeT0iMzQyLjUzMTMiPlRhc2tTZXJ2aWNlSW1wbDwvdGV4dD48cmVjdCBmaWxsPSIjRTJFMkYwIiBoZWlnaHQ9IjI4Ljk4NDQiIHJ4PSIyLjUiIHJ5PSIyLjUiIHN0eWxlPSJzdHJva2U6IzE4MTgxODtzdHJva2Utd2lkdGg6MC41OyIgd2lkdGg9IjExMiIgeD0iODk5IiB5PSI1MCIvPjx0ZXh0IGZpbGw9IiMwMDAwMDAiIGZvbnQtZmFtaWx5PSJzYW5zLXNlcmlmIiBmb250LXNpemU9IjE0IiBsZW5ndGhBZGp1c3Q9InNwYWNpbmciIHRleHRMZW5ndGg9Ijk4IiB4PSI5MDYiIHk9IjcwLjIzNDQiPlRhc2tSZXBvc2l0b3J5PC90ZXh0PjxyZWN0IGZpbGw9IiNFMkUyRjAiIGhlaWdodD0iMjguOTg0NCIgcng9IjIuNSIgcnk9IjIuNSIgc3R5bGU9InN0cm9rZTojMTgxODE4O3N0cm9rZS13aWR0aDowLjU7IiB3aWR0aD0iMTEyIiB4PSI4OTkiIHk9IjMyMi4yOTY5Ii8+PHRleHQgZmlsbD0iIzAwMDAwMCIgZm9udC1mYW1pbHk9InNhbnMtc2VyaWYiIGZvbnQtc2l6ZT0iMTQiIGxlbmd0aEFkanVzdD0ic3BhY2luZyIgdGV4dExlbmd0aD0iOTgiIHg9IjkwNiIgeT0iMzQyLjUzMTMiPlRhc2tSZXBvc2l0b3J5PC90ZXh0PjxyZWN0IGZpbGw9IiNGRkZGRkYiIGhlaWdodD0iMTk1LjM5ODQiIHN0eWxlPSJzdHJva2U6IzE4MTgxODtzdHJva2Utd2lkdGg6MS4wOyIgd2lkdGg9IjEwIiB4PSIxNzciIHk9IjEwOS44OTg0Ii8+PHJlY3QgZmlsbD0iI0ZGRkZGRiIgaGVpZ2h0PSIxMzkuNTcwMyIgc3R5bGU9InN0cm9rZTojMTgxODE4O3N0cm9rZS13aWR0aDoxLjA7IiB3aWR0aD0iMTAiIHg9IjQ2NyIgeT0iMTM3LjgxMjUiLz48cmVjdCBmaWxsPSIjRkZGRkZGIiBoZWlnaHQ9IjgzLjc0MjIiIHN0eWxlPSJzdHJva2U6IzE4MTgxODtzdHJva2Utd2lkdGg6MS4wOyIgd2lkdGg9IjEwIiB4PSI3ODAiIHk9IjE2NS43MjY2Ii8+PHJlY3QgZmlsbD0iI0ZGRkZGRiIgaGVpZ2h0PSIyNy45MTQxIiBzdHlsZT0ic3Ryb2tlOiMxODE4MTg7c3Ryb2tlLXdpZHRoOjEuMDsiIHdpZHRoPSIxMCIgeD0iOTUwIiB5PSIxOTMuNjQwNiIvPjxwb2x5Z29uIGZpbGw9IiMxODE4MTgiIHBvaW50cz0iMTY1LDEwNS44OTg0LDE3NSwxMDkuODk4NCwxNjUsMTEzLjg5ODQsMTY5LDEwOS44OTg0IiBzdHlsZT0ic3Ryb2tlOiMxODE4MTg7c3Ryb2tlLXdpZHRoOjEuMDsiLz48bGluZSBzdHlsZT0ic3Ryb2tlOiMxODE4MTg7c3Ryb2tlLXdpZHRoOjEuMDsiIHgxPSIyOSIgeDI9IjE3MSIgeTE9IjEwOS44OTg0IiB5Mj0iMTA5Ljg5ODQiLz48dGV4dCBmaWxsPSIjMDAwMDAwIiBmb250LWZhbWlseT0ic2Fucy1zZXJpZiIgZm9udC1zaXplPSIxMyIgZm9udC13ZWlnaHQ9ImJvbGQiIGxlbmd0aEFkanVzdD0ic3BhY2luZyIgdGV4dExlbmd0aD0iNyIgeD0iMzYiIHk9IjEwNi4yNzM0Ij4xPC90ZXh0Pjx0ZXh0IGZpbGw9IiMwMDAwMDAiIGZvbnQtZmFtaWx5PSJzYW5zLXNlcmlmIiBmb250LXNpemU9IjEzIiBsZW5ndGhBZGp1c3Q9InNwYWNpbmciIHRleHRMZW5ndGg9IjExOCIgeD0iNDciIHk9IjEwNi4yNzM0Ij4mIzI4ODU3OyYjMjA5ODc7JiM4MjIwOyYjMzkwNDY7JiMyMTQ2MjsmIzIwMjE5OyYjMjExNTM7JiM4MjIxOyYjMjUzNTM7JiMzODA2Mjs8L3RleHQ+PHBvbHlnb24gZmlsbD0iIzE4MTgxOCIgcG9pbnRzPSI0NTUsMTMzLjgxMjUsNDY1LDEzNy44MTI1LDQ1NSwxNDEuODEyNSw0NTksMTM3LjgxMjUiIHN0eWxlPSJzdHJva2U6IzE4MTgxODtzdHJva2Utd2lkdGg6MS4wOyIvPjxsaW5lIHN0eWxlPSJzdHJva2U6IzE4MTgxODtzdHJva2Utd2lkdGg6MS4wOyIgeDE9IjE4NyIgeDI9IjQ2MSIgeTE9IjEzNy44MTI1IiB5Mj0iMTM3LjgxMjUiLz48dGV4dCBmaWxsPSIjMDAwMDAwIiBmb250LWZhbWlseT0ic2Fucy1zZXJpZiIgZm9udC1zaXplPSIxMyIgZm9udC13ZWlnaHQ9ImJvbGQiIGxlbmd0aEFkanVzdD0ic3BhY2luZyIgdGV4dExlbmd0aD0iNyIgeD0iMTk0IiB5PSIxMzQuMTg3NSI+MjwvdGV4dD48dGV4dCBmaWxsPSIjMDAwMDAwIiBmb250LWZhbWlseT0ic2Fucy1zZXJpZiIgZm9udC1zaXplPSIxMyIgbGVuZ3RoQWRqdXN0PSJzcGFjaW5nIiB0ZXh0TGVuZ3RoPSIyNTAiIHg9IjIwNSIgeT0iMTM0LjE4NzUiPiYjMjE0NTc7JiMzNjg2NTsmIzM5MDQ2OyYjMjE0NjI7JiMyMDIxOTsmIzIxMTUzOyYjMzU4MzE7JiMyNzcxNDsgKHRhc2tJZCwgdm9sdW50ZWVySWQpPC90ZXh0Pjxwb2x5Z29uIGZpbGw9IiMxODE4MTgiIHBvaW50cz0iNzY4LDE2MS43MjY2LDc3OCwxNjUuNzI2Niw3NjgsMTY5LjcyNjYsNzcyLDE2NS43MjY2IiBzdHlsZT0ic3Ryb2tlOiMxODE4MTg7c3Ryb2tlLXdpZHRoOjEuMDsiLz48bGluZSBzdHlsZT0ic3Ryb2tlOiMxODE4MTg7c3Ryb2tlLXdpZHRoOjEuMDsiIHgxPSI0NzciIHgyPSI3NzQiIHkxPSIxNjUuNzI2NiIgeTI9IjE2NS43MjY2Ii8+PHRleHQgZmlsbD0iIzAwMDAwMCIgZm9udC1mYW1pbHk9InNhbnMtc2VyaWYiIGZvbnQtc2l6ZT0iMTMiIGZvbnQtd2VpZ2h0PSJib2xkIiBsZW5ndGhBZGp1c3Q9InNwYWNpbmciIHRleHRMZW5ndGg9IjciIHg9IjQ4NCIgeT0iMTYyLjEwMTYiPjM8L3RleHQ+PHRleHQgZmlsbD0iIzAwMDAwMCIgZm9udC1mYW1pbHk9InNhbnMtc2VyaWYiIGZvbnQtc2l6ZT0iMTMiIGxlbmd0aEFkanVzdD0ic3BhY2luZyIgdGV4dExlbmd0aD0iMjczIiB4PSI0OTUiIHk9IjE2Mi4xMDE2Ij4mIzM1ODQzOyYjMjk5OTI7IGFzc2lnblRhc2sodGFza0lkLCB2b2x1bnRlZXJJZCkgJiMyNjA0MTsmIzI3ODYxOzwvdGV4dD48cG9seWdvbiBmaWxsPSIjMTgxODE4IiBwb2ludHM9IjkzOCwxODkuNjQwNiw5NDgsMTkzLjY0MDYsOTM4LDE5Ny42NDA2LDk0MiwxOTMuNjQwNiIgc3R5bGU9InN0cm9rZTojMTgxODE4O3N0cm9rZS13aWR0aDoxLjA7Ii8+PGxpbmUgc3R5bGU9InN0cm9rZTojMTgxODE4O3N0cm9rZS13aWR0aDoxLjA7IiB4MT0iNzkwIiB4Mj0iOTQ0IiB5MT0iMTkzLjY0MDYiIHkyPSIxOTMuNjQwNiIvPjx0ZXh0IGZpbGw9IiMwMDAwMDAiIGZvbnQtZmFtaWx5PSJzYW5zLXNlcmlmIiBmb250LXNpemU9IjEzIiBmb250LXdlaWdodD0iYm9sZCIgbGVuZ3RoQWRqdXN0PSJzcGFjaW5nIiB0ZXh0TGVuZ3RoPSI3IiB4PSI3OTciIHk9IjE5MC4wMTU2Ij40PC90ZXh0Pjx0ZXh0IGZpbGw9IiMwMDAwMDAiIGZvbnQtZmFtaWx5PSJzYW5zLXNlcmlmIiBmb250LXNpemU9IjEzIiBsZW5ndGhBZGp1c3Q9InNwYWNpbmciIHRleHRMZW5ndGg9IjEzMCIgeD0iODA4IiB5PSIxOTAuMDE1NiI+JiMyNjM1NjsmIzI2MDMyOyYjMjAyMTk7JiMyMTE1MzsmIzI5MzY2OyYjMjQ1Nzc7JiMyMTY0NDsmIzM2MTI3OyYjMzYxMzE7JiMyMDE1NDs8L3RleHQ+PHBvbHlnb24gZmlsbD0iIzE4MTgxOCIgcG9pbnRzPSI4MDEsMjE3LjU1NDcsNzkxLDIyMS41NTQ3LDgwMSwyMjUuNTU0Nyw3OTcsMjIxLjU1NDciIHN0eWxlPSJzdHJva2U6IzE4MTgxODtzdHJva2Utd2lkdGg6MS4wOyIvPjxsaW5lIHN0eWxlPSJzdHJva2U6IzE4MTgxODtzdHJva2Utd2lkdGg6MS4wO3N0cm9rZS1kYXNoYXJyYXk6Mi4wLDIuMDsiIHgxPSI3OTUiIHgyPSI5NTQiIHkxPSIyMjEuNTU0NyIgeTI9IjIyMS41NTQ3Ii8+PHRleHQgZmlsbD0iIzAwMDAwMCIgZm9udC1mYW1pbHk9InNhbnMtc2VyaWYiIGZvbnQtc2l6ZT0iMTMiIGZvbnQtd2VpZ2h0PSJib2xkIiBsZW5ndGhBZGp1c3Q9InNwYWNpbmciIHRleHRMZW5ndGg9IjciIHg9IjgwNyIgeT0iMjE3LjkyOTciPjU8L3RleHQ+PHRleHQgZmlsbD0iIzAwMDAwMCIgZm9udC1mYW1pbHk9InNhbnMtc2VyaWYiIGZvbnQtc2l6ZT0iMTMiIGxlbmd0aEFkanVzdD0ic3BhY2luZyIgdGV4dExlbmd0aD0iNzgiIHg9IjgxOCIgeT0iMjE3LjkyOTciPiYjMzY4MjA7JiMyMjIzODsmIzI2MzU2OyYjMjYwMzI7JiMzMjQ2NzsmIzI2NTI0OzwvdGV4dD48cG9seWdvbiBmaWxsPSIjMTgxODE4IiBwb2ludHM9IjQ4OCwyNDUuNDY4OCw0NzgsMjQ5LjQ2ODgsNDg4LDI1My40Njg4LDQ4NCwyNDkuNDY4OCIgc3R5bGU9InN0cm9rZTojMTgxODE4O3N0cm9rZS13aWR0aDoxLjA7Ii8+PGxpbmUgc3R5bGU9InN0cm9rZTojMTgxODE4O3N0cm9rZS13aWR0aDoxLjA7c3Ryb2tlLWRhc2hhcnJheToyLjAsMi4wOyIgeDE9IjQ4MiIgeDI9Ijc4NCIgeTE9IjI0OS40Njg4IiB5Mj0iMjQ5LjQ2ODgiLz48dGV4dCBmaWxsPSIjMDAwMDAwIiBmb250LWZhbWlseT0ic2Fucy1zZXJpZiIgZm9udC1zaXplPSIxMyIgZm9udC13ZWlnaHQ9ImJvbGQiIGxlbmd0aEFkanVzdD0ic3BhY2luZyIgdGV4dExlbmd0aD0iNyIgeD0iNDk0IiB5PSIyNDUuODQzOCI+NjwvdGV4dD48dGV4dCBmaWxsPSIjMDAwMDAwIiBmb250LWZhbWlseT0ic2Fucy1zZXJpZiIgZm9udC1zaXplPSIxMyIgbGVuZ3RoQWRqdXN0PSJzcGFjaW5nIiB0ZXh0TGVuZ3RoPSI3OCIgeD0iNTA1IiB5PSIyNDUuODQzOCI+JiMzNjgyMDsmIzIyMjM4OyYjMjU4MDU7JiMyMDMxNjsmIzMyNDY3OyYjMjY1MjQ7PC90ZXh0Pjxwb2x5Z29uIGZpbGw9IiMxODE4MTgiIHBvaW50cz0iMTk4LDI3My4zODI4LDE4OCwyNzcuMzgyOCwxOTgsMjgxLjM4MjgsMTk0LDI3Ny4zODI4IiBzdHlsZT0ic3Ryb2tlOiMxODE4MTg7c3Ryb2tlLXdpZHRoOjEuMDsiLz48bGluZSBzdHlsZT0ic3Ryb2tlOiMxODE4MTg7c3Ryb2tlLXdpZHRoOjEuMDtzdHJva2UtZGFzaGFycmF5OjIuMCwyLjA7IiB4MT0iMTkyIiB4Mj0iNDcxIiB5MT0iMjc3LjM4MjgiIHkyPSIyNzcuMzgyOCIvPjx0ZXh0IGZpbGw9IiMwMDAwMDAiIGZvbnQtZmFtaWx5PSJzYW5zLXNlcmlmIiBmb250LXNpemU9IjEzIiBmb250LXdlaWdodD0iYm9sZCIgbGVuZ3RoQWRqdXN0PSJzcGFjaW5nIiB0ZXh0TGVuZ3RoPSI3IiB4PSIyMDQiIHk9IjI3My43NTc4Ij43PC90ZXh0Pjx0ZXh0IGZpbGw9IiMwMDAwMDAiIGZvbnQtZmFtaWx5PSJzYW5zLXNlcmlmIiBmb250LXNpemU9IjEzIiBsZW5ndGhBZGp1c3Q9InNwYWNpbmciIHRleHRMZW5ndGg9Ijc4IiB4PSIyMTUiIHk9IjI3My43NTc4Ij4mIzM2ODIwOyYjMjIyMzg7JiMyNTgwNTsmIzIwMzE2OyYjMzI0Njc7JiMyNjUyNDs8L3RleHQ+PHBvbHlnb24gZmlsbD0iIzE4MTgxOCIgcG9pbnRzPSI0MCwzMDEuMjk2OSwzMCwzMDUuMjk2OSw0MCwzMDkuMjk2OSwzNiwzMDUuMjk2OSIgc3R5bGU9InN0cm9rZTojMTgxODE4O3N0cm9rZS13aWR0aDoxLjA7Ii8+PGxpbmUgc3R5bGU9InN0cm9rZTojMTgxODE4O3N0cm9rZS13aWR0aDoxLjA7c3Ryb2tlLWRhc2hhcnJheToyLjAsMi4wOyIgeDE9IjM0IiB4Mj0iMTgxIiB5MT0iMzA1LjI5NjkiIHkyPSIzMDUuMjk2OSIvPjx0ZXh0IGZpbGw9IiMwMDAwMDAiIGZvbnQtZmFtaWx5PSJzYW5zLXNlcmlmIiBmb250LXNpemU9IjEzIiBmb250LXdlaWdodD0iYm9sZCIgbGVuZ3RoQWRqdXN0PSJzcGFjaW5nIiB0ZXh0TGVuZ3RoPSI3IiB4PSI0NiIgeT0iMzAxLjY3MTkiPjg8L3RleHQ+PHRleHQgZmlsbD0iIzAwMDAwMCIgZm9udC1mYW1pbHk9InNhbnMtc2VyaWYiIGZvbnQtc2l6ZT0iMTMiIGxlbmd0aEFkanVzdD0ic3BhY2luZyIgdGV4dExlbmd0aD0iNzgiIHg9IjU3IiB5PSIzMDEuNjcxOSI+JiMyNjE3NDsmIzMxMDM0OyYjMjU4MDU7JiMyMDMxNjsmIzMyNDY3OyYjMjY1MjQ7PC90ZXh0PjwhLS1TUkM9W1hQQkRKaTkwNThOdFZPZlBRWThscThLUkxzcEw1blhYT1hmQnN4RzNZUmsyVnU1MFk4MWVHaTYwQmFuQzEyRGdRQUR6NXpBUGpjelg2cUhjSWpOYnBVYnl2dnhKMnVqT0xPZzUwd0dCMGluWExHVjRsUVFkUmMyVTJIaEtpUElKREFYV0dBZURfdDRTM2JfM19lV0p6ZzVuakFDZ001VGJFTzhhZkpzYWJ3R1NvWE9xVUt0UkhQZmdJOTdkaUkzeWs4QkNEY1NjMGh5bzhuVkV0QkoycUpiZlRadDc4Uk5YdEVwSlVaTGlGU0xSSW9NODRSeVlFeUg4VmFxSGFFUGJROVBQT1oxLWZ5eUxpODZaQnhGdkJMMUl2UUEyNFRBcC1Tc0xJSThrRm93RGNEMFkyMk9kVmtTMUdDRUczZkxPSk5LMGoza1pCclV5NExqVU9idlFoSmVLMFVyRFFOVW9JRUZOdGdYUDlncndDQnFEZmRVVVJWRGVmZGotMTlkSzQ2dzd6ME9CMHp6ZnF1NGJ2RDVWRzZ4TGJGd19XVXM2enM2YjB2RlhzUGhOUmtIXzdGRkotRGs4TVNsWllwZ3ktVkpseFR6MHhDaWxdLS0+PC9nPjwvc3ZnPg==;" parent="1" vertex="1"><mxGeometry x="-100" y="5880" width="1017" height="402" as="geometry"/></mxCell></UserObject><UserObject label="" plantUmlData="{&#10;  &quot;data&quot;: &quot;@startuml\nautonumber\n\nactor 用户\nparticipant 前端页面\nparticipant CatController\nparticipant CatServiceImpl\nparticipant CatRepository\n\n用户 -&gt; 前端页面: 填写求助信息并点击“发布”按钮 \nactivate 前端页面\n前端页面 -&gt; CatController: 发送发布求助信息请求 (requestInfo)\nactivate CatController\nCatController -&gt; CatServiceImpl: 调用 createRequest(requestInfo) 方法\nactivate CatServiceImpl\nCatServiceImpl -&gt; CatRepository: 保存求助信息\nactivate CatRepository\nCatRepository --&gt; CatServiceImpl: 返回保存结果\ndeactivate CatRepository\nCatServiceImpl --&gt; CatController: 返回操作结果\ndeactivate CatServiceImpl\nCatController --&gt; 前端页面: 返回操作结果\ndeactivate CatController\n前端页面 --&gt; 用户: 显示操作结果 \ndeactivate 前端页面\n@enduml&quot;,&#10;  &quot;format&quot;: &quot;svg&quot;&#10;}" id="AG9e61MuKz-lgSlKQN2f-3"><mxCell style="shape=image;noLabel=1;verticalAlign=top;aspect=fixed;imageAspect=0;image=data:image/svg+xml,PD94bWwgdmVyc2lvbj0iMS4wIiBlbmNvZGluZz0idXMtYXNjaWkiIHN0YW5kYWxvbmU9Im5vIj8+PHN2ZyB4bWxucz0iaHR0cDovL3d3dy53My5vcmcvMjAwMC9zdmciIHhtbG5zOnhsaW5rPSJodHRwOi8vd3d3LnczLm9yZy8xOTk5L3hsaW5rIiBjb250ZW50U3R5bGVUeXBlPSJ0ZXh0L2NzcyIgaGVpZ2h0PSI0MDJweCIgcHJlc2VydmVBc3BlY3RSYXRpbz0ibm9uZSIgc3R5bGU9IndpZHRoOjk2NXB4O2hlaWdodDo0MDJweDtiYWNrZ3JvdW5kOiNGRkZGRkY7IiB2ZXJzaW9uPSIxLjEiIHZpZXdCb3g9IjAgMCA5NjUgNDAyIiB3aWR0aD0iOTY1cHgiIHpvb21BbmRQYW49Im1hZ25pZnkiPjxkZWZzLz48Zz48cmVjdCBmaWxsPSIjRkZGRkZGIiBoZWlnaHQ9IjE5NS4zOTg0IiBzdHlsZT0ic3Ryb2tlOiMxODE4MTg7c3Ryb2tlLXdpZHRoOjEuMDsiIHdpZHRoPSIxMCIgeD0iMjM1IiB5PSIxMDkuODk4NCIvPjxyZWN0IGZpbGw9IiNGRkZGRkYiIGhlaWdodD0iMTM5LjU3MDMiIHN0eWxlPSJzdHJva2U6IzE4MTgxODtzdHJva2Utd2lkdGg6MS4wOyIgd2lkdGg9IjEwIiB4PSI0OTgiIHk9IjEzNy44MTI1Ii8+PHJlY3QgZmlsbD0iI0ZGRkZGRiIgaGVpZ2h0PSI4My43NDIyIiBzdHlsZT0ic3Ryb2tlOiMxODE4MTg7c3Ryb2tlLXdpZHRoOjEuMDsiIHdpZHRoPSIxMCIgeD0iNzc5IiB5PSIxNjUuNzI2NiIvPjxyZWN0IGZpbGw9IiNGRkZGRkYiIGhlaWdodD0iMjcuOTE0MSIgc3R5bGU9InN0cm9rZTojMTgxODE4O3N0cm9rZS13aWR0aDoxLjA7IiB3aWR0aD0iMTAiIHg9IjkwMiIgeT0iMTkzLjY0MDYiLz48bGluZSBzdHlsZT0ic3Ryb2tlOiMxODE4MTg7c3Ryb2tlLXdpZHRoOjAuNTtzdHJva2UtZGFzaGFycmF5OjUuMCw1LjA7IiB4MT0iMjIiIHgyPSIyMiIgeTE9Ijc5Ljk4NDQiIHkyPSIzMjMuMjk2OSIvPjxsaW5lIHN0eWxlPSJzdHJva2U6IzE4MTgxODtzdHJva2Utd2lkdGg6MC41O3N0cm9rZS1kYXNoYXJyYXk6NS4wLDUuMDsiIHgxPSIyNDAiIHgyPSIyNDAiIHkxPSI3OS45ODQ0IiB5Mj0iMzIzLjI5NjkiLz48bGluZSBzdHlsZT0ic3Ryb2tlOiMxODE4MTg7c3Ryb2tlLXdpZHRoOjAuNTtzdHJva2UtZGFzaGFycmF5OjUuMCw1LjA7IiB4MT0iNTAyLjUiIHgyPSI1MDIuNSIgeTE9Ijc5Ljk4NDQiIHkyPSIzMjMuMjk2OSIvPjxsaW5lIHN0eWxlPSJzdHJva2U6IzE4MTgxODtzdHJva2Utd2lkdGg6MC41O3N0cm9rZS1kYXNoYXJyYXk6NS4wLDUuMDsiIHgxPSI3ODMuNSIgeDI9Ijc4My41IiB5MT0iNzkuOTg0NCIgeTI9IjMyMy4yOTY5Ii8+PGxpbmUgc3R5bGU9InN0cm9rZTojMTgxODE4O3N0cm9rZS13aWR0aDowLjU7c3Ryb2tlLWRhc2hhcnJheTo1LjAsNS4wOyIgeDE9IjkwNi41IiB4Mj0iOTA2LjUiIHkxPSI3OS45ODQ0IiB5Mj0iMzIzLjI5NjkiLz48dGV4dCBmaWxsPSIjMDAwMDAwIiBmb250LWZhbWlseT0ic2Fucy1zZXJpZiIgZm9udC1zaXplPSIxNCIgbGVuZ3RoQWRqdXN0PSJzcGFjaW5nIiB0ZXh0TGVuZ3RoPSIyOCIgeD0iNSIgeT0iNzguMjM0NCI+JiMyOTk5MjsmIzI1MTQzOzwvdGV4dD48ZWxsaXBzZSBjeD0iMjIiIGN5PSIxMy41IiBmaWxsPSIjRTJFMkYwIiByeD0iOCIgcnk9IjgiIHN0eWxlPSJzdHJva2U6IzE4MTgxODtzdHJva2Utd2lkdGg6MC41OyIvPjxwYXRoIGQ9Ik0yMiwyMS41IEwyMiw0OC41IE05LDI5LjUgTDM1LDI5LjUgTTIyLDQ4LjUgTDksNjMuNSBNMjIsNDguNSBMMzUsNjMuNSAiIGZpbGw9Im5vbmUiIHN0eWxlPSJzdHJva2U6IzE4MTgxODtzdHJva2Utd2lkdGg6MC41OyIvPjx0ZXh0IGZpbGw9IiMwMDAwMDAiIGZvbnQtZmFtaWx5PSJzYW5zLXNlcmlmIiBmb250LXNpemU9IjE0IiBsZW5ndGhBZGp1c3Q9InNwYWNpbmciIHRleHRMZW5ndGg9IjI4IiB4PSI1IiB5PSIzMzUuNTMxMyI+JiMyOTk5MjsmIzI1MTQzOzwvdGV4dD48ZWxsaXBzZSBjeD0iMjIiIGN5PSIzNDUuNzgxMyIgZmlsbD0iI0UyRTJGMCIgcng9IjgiIHJ5PSI4IiBzdHlsZT0ic3Ryb2tlOiMxODE4MTg7c3Ryb2tlLXdpZHRoOjAuNTsiLz48cGF0aCBkPSJNMjIsMzUzLjc4MTMgTDIyLDM4MC43ODEzIE05LDM2MS43ODEzIEwzNSwzNjEuNzgxMyBNMjIsMzgwLjc4MTMgTDksMzk1Ljc4MTMgTTIyLDM4MC43ODEzIEwzNSwzOTUuNzgxMyAiIGZpbGw9Im5vbmUiIHN0eWxlPSJzdHJva2U6IzE4MTgxODtzdHJva2Utd2lkdGg6MC41OyIvPjxyZWN0IGZpbGw9IiNFMkUyRjAiIGhlaWdodD0iMjguOTg0NCIgcng9IjIuNSIgcnk9IjIuNSIgc3R5bGU9InN0cm9rZTojMTgxODE4O3N0cm9rZS13aWR0aDowLjU7IiB3aWR0aD0iNzAiIHg9IjIwNSIgeT0iNTAiLz48dGV4dCBmaWxsPSIjMDAwMDAwIiBmb250LWZhbWlseT0ic2Fucy1zZXJpZiIgZm9udC1zaXplPSIxNCIgbGVuZ3RoQWRqdXN0PSJzcGFjaW5nIiB0ZXh0TGVuZ3RoPSI1NiIgeD0iMjEyIiB5PSI3MC4yMzQ0Ij4mIzIxMDY5OyYjMzE0NzE7JiMzOTAyOTsmIzM4NzU0OzwvdGV4dD48cmVjdCBmaWxsPSIjRTJFMkYwIiBoZWlnaHQ9IjI4Ljk4NDQiIHJ4PSIyLjUiIHJ5PSIyLjUiIHN0eWxlPSJzdHJva2U6IzE4MTgxODtzdHJva2Utd2lkdGg6MC41OyIgd2lkdGg9IjcwIiB4PSIyMDUiIHk9IjMyMi4yOTY5Ii8+PHRleHQgZmlsbD0iIzAwMDAwMCIgZm9udC1mYW1pbHk9InNhbnMtc2VyaWYiIGZvbnQtc2l6ZT0iMTQiIGxlbmd0aEFkanVzdD0ic3BhY2luZyIgdGV4dExlbmd0aD0iNTYiIHg9IjIxMiIgeT0iMzQyLjUzMTMiPiYjMjEwNjk7JiMzMTQ3MTsmIzM5MDI5OyYjMzg3NTQ7PC90ZXh0PjxyZWN0IGZpbGw9IiNFMkUyRjAiIGhlaWdodD0iMjguOTg0NCIgcng9IjIuNSIgcnk9IjIuNSIgc3R5bGU9InN0cm9rZTojMTgxODE4O3N0cm9rZS13aWR0aDowLjU7IiB3aWR0aD0iMTA1IiB4PSI0NTAuNSIgeT0iNTAiLz48dGV4dCBmaWxsPSIjMDAwMDAwIiBmb250LWZhbWlseT0ic2Fucy1zZXJpZiIgZm9udC1zaXplPSIxNCIgbGVuZ3RoQWRqdXN0PSJzcGFjaW5nIiB0ZXh0TGVuZ3RoPSI5MSIgeD0iNDU3LjUiIHk9IjcwLjIzNDQiPkNhdENvbnRyb2xsZXI8L3RleHQ+PHJlY3QgZmlsbD0iI0UyRTJGMCIgaGVpZ2h0PSIyOC45ODQ0IiByeD0iMi41IiByeT0iMi41IiBzdHlsZT0ic3Ryb2tlOiMxODE4MTg7c3Ryb2tlLXdpZHRoOjAuNTsiIHdpZHRoPSIxMDUiIHg9IjQ1MC41IiB5PSIzMjIuMjk2OSIvPjx0ZXh0IGZpbGw9IiMwMDAwMDAiIGZvbnQtZmFtaWx5PSJzYW5zLXNlcmlmIiBmb250LXNpemU9IjE0IiBsZW5ndGhBZGp1c3Q9InNwYWNpbmciIHRleHRMZW5ndGg9IjkxIiB4PSI0NTcuNSIgeT0iMzQyLjUzMTMiPkNhdENvbnRyb2xsZXI8L3RleHQ+PHJlY3QgZmlsbD0iI0UyRTJGMCIgaGVpZ2h0PSIyOC45ODQ0IiByeD0iMi41IiByeT0iMi41IiBzdHlsZT0ic3Ryb2tlOiMxODE4MTg7c3Ryb2tlLXdpZHRoOjAuNTsiIHdpZHRoPSIxMTMiIHg9IjcyNy41IiB5PSI1MCIvPjx0ZXh0IGZpbGw9IiMwMDAwMDAiIGZvbnQtZmFtaWx5PSJzYW5zLXNlcmlmIiBmb250LXNpemU9IjE0IiBsZW5ndGhBZGp1c3Q9InNwYWNpbmciIHRleHRMZW5ndGg9Ijk5IiB4PSI3MzQuNSIgeT0iNzAuMjM0NCI+Q2F0U2VydmljZUltcGw8L3RleHQ+PHJlY3QgZmlsbD0iI0UyRTJGMCIgaGVpZ2h0PSIyOC45ODQ0IiByeD0iMi41IiByeT0iMi41IiBzdHlsZT0ic3Ryb2tlOiMxODE4MTg7c3Ryb2tlLXdpZHRoOjAuNTsiIHdpZHRoPSIxMTMiIHg9IjcyNy41IiB5PSIzMjIuMjk2OSIvPjx0ZXh0IGZpbGw9IiMwMDAwMDAiIGZvbnQtZmFtaWx5PSJzYW5zLXNlcmlmIiBmb250LXNpemU9IjE0IiBsZW5ndGhBZGp1c3Q9InNwYWNpbmciIHRleHRMZW5ndGg9Ijk5IiB4PSI3MzQuNSIgeT0iMzQyLjUzMTMiPkNhdFNlcnZpY2VJbXBsPC90ZXh0PjxyZWN0IGZpbGw9IiNFMkUyRjAiIGhlaWdodD0iMjguOTg0NCIgcng9IjIuNSIgcnk9IjIuNSIgc3R5bGU9InN0cm9rZTojMTgxODE4O3N0cm9rZS13aWR0aDowLjU7IiB3aWR0aD0iMTA1IiB4PSI4NTQuNSIgeT0iNTAiLz48dGV4dCBmaWxsPSIjMDAwMDAwIiBmb250LWZhbWlseT0ic2Fucy1zZXJpZiIgZm9udC1zaXplPSIxNCIgbGVuZ3RoQWRqdXN0PSJzcGFjaW5nIiB0ZXh0TGVuZ3RoPSI5MSIgeD0iODYxLjUiIHk9IjcwLjIzNDQiPkNhdFJlcG9zaXRvcnk8L3RleHQ+PHJlY3QgZmlsbD0iI0UyRTJGMCIgaGVpZ2h0PSIyOC45ODQ0IiByeD0iMi41IiByeT0iMi41IiBzdHlsZT0ic3Ryb2tlOiMxODE4MTg7c3Ryb2tlLXdpZHRoOjAuNTsiIHdpZHRoPSIxMDUiIHg9Ijg1NC41IiB5PSIzMjIuMjk2OSIvPjx0ZXh0IGZpbGw9IiMwMDAwMDAiIGZvbnQtZmFtaWx5PSJzYW5zLXNlcmlmIiBmb250LXNpemU9IjE0IiBsZW5ndGhBZGp1c3Q9InNwYWNpbmciIHRleHRMZW5ndGg9IjkxIiB4PSI4NjEuNSIgeT0iMzQyLjUzMTMiPkNhdFJlcG9zaXRvcnk8L3RleHQ+PHJlY3QgZmlsbD0iI0ZGRkZGRiIgaGVpZ2h0PSIxOTUuMzk4NCIgc3R5bGU9InN0cm9rZTojMTgxODE4O3N0cm9rZS13aWR0aDoxLjA7IiB3aWR0aD0iMTAiIHg9IjIzNSIgeT0iMTA5Ljg5ODQiLz48cmVjdCBmaWxsPSIjRkZGRkZGIiBoZWlnaHQ9IjEzOS41NzAzIiBzdHlsZT0ic3Ryb2tlOiMxODE4MTg7c3Ryb2tlLXdpZHRoOjEuMDsiIHdpZHRoPSIxMCIgeD0iNDk4IiB5PSIxMzcuODEyNSIvPjxyZWN0IGZpbGw9IiNGRkZGRkYiIGhlaWdodD0iODMuNzQyMiIgc3R5bGU9InN0cm9rZTojMTgxODE4O3N0cm9rZS13aWR0aDoxLjA7IiB3aWR0aD0iMTAiIHg9Ijc3OSIgeT0iMTY1LjcyNjYiLz48cmVjdCBmaWxsPSIjRkZGRkZGIiBoZWlnaHQ9IjI3LjkxNDEiIHN0eWxlPSJzdHJva2U6IzE4MTgxODtzdHJva2Utd2lkdGg6MS4wOyIgd2lkdGg9IjEwIiB4PSI5MDIiIHk9IjE5My42NDA2Ii8+PHBvbHlnb24gZmlsbD0iIzE4MTgxOCIgcG9pbnRzPSIyMjMsMTA1Ljg5ODQsMjMzLDEwOS44OTg0LDIyMywxMTMuODk4NCwyMjcsMTA5Ljg5ODQiIHN0eWxlPSJzdHJva2U6IzE4MTgxODtzdHJva2Utd2lkdGg6MS4wOyIvPjxsaW5lIHN0eWxlPSJzdHJva2U6IzE4MTgxODtzdHJva2Utd2lkdGg6MS4wOyIgeDE9IjIyIiB4Mj0iMjI5IiB5MT0iMTA5Ljg5ODQiIHkyPSIxMDkuODk4NCIvPjx0ZXh0IGZpbGw9IiMwMDAwMDAiIGZvbnQtZmFtaWx5PSJzYW5zLXNlcmlmIiBmb250LXNpemU9IjEzIiBmb250LXdlaWdodD0iYm9sZCIgbGVuZ3RoQWRqdXN0PSJzcGFjaW5nIiB0ZXh0TGVuZ3RoPSI3IiB4PSIyOSIgeT0iMTA2LjI3MzQiPjE8L3RleHQ+PHRleHQgZmlsbD0iIzAwMDAwMCIgZm9udC1mYW1pbHk9InNhbnMtc2VyaWYiIGZvbnQtc2l6ZT0iMTMiIGxlbmd0aEFkanVzdD0ic3BhY2luZyIgdGV4dExlbmd0aD0iMTgzIiB4PSI0MCIgeT0iMTA2LjI3MzQiPiYjMjI2MzU7JiMyMDg4OTsmIzI3NzE0OyYjMjExNjE7JiMyMDQ0OTsmIzI0Njg3OyYjMjQxODI7JiMyODg1NzsmIzIwOTg3OyYjODIyMDsmIzIxNDU3OyYjMjQwNjc7JiM4MjIxOyYjMjUzNTM7JiMzODA2Mjs8L3RleHQ+PHBvbHlnb24gZmlsbD0iIzE4MTgxOCIgcG9pbnRzPSI0ODYsMTMzLjgxMjUsNDk2LDEzNy44MTI1LDQ4NiwxNDEuODEyNSw0OTAsMTM3LjgxMjUiIHN0eWxlPSJzdHJva2U6IzE4MTgxODtzdHJva2Utd2lkdGg6MS4wOyIvPjxsaW5lIHN0eWxlPSJzdHJva2U6IzE4MTgxODtzdHJva2Utd2lkdGg6MS4wOyIgeDE9IjI0NSIgeDI9IjQ5MiIgeTE9IjEzNy44MTI1IiB5Mj0iMTM3LjgxMjUiLz48dGV4dCBmaWxsPSIjMDAwMDAwIiBmb250LWZhbWlseT0ic2Fucy1zZXJpZiIgZm9udC1zaXplPSIxMyIgZm9udC13ZWlnaHQ9ImJvbGQiIGxlbmd0aEFkanVzdD0ic3BhY2luZyIgdGV4dExlbmd0aD0iNyIgeD0iMjUyIiB5PSIxMzQuMTg3NSI+MjwvdGV4dD48dGV4dCBmaWxsPSIjMDAwMDAwIiBmb250LWZhbWlseT0ic2Fucy1zZXJpZiIgZm9udC1zaXplPSIxMyIgbGVuZ3RoQWRqdXN0PSJzcGFjaW5nIiB0ZXh0TGVuZ3RoPSIyMjMiIHg9IjI2MyIgeT0iMTM0LjE4NzUiPiYjMjE0NTc7JiMzNjg2NTsmIzIxNDU3OyYjMjQwNjc7JiMyNzcxNDsmIzIxMTYxOyYjMjA0NDk7JiMyNDY4NzsmIzM1ODMxOyYjMjc3MTQ7IChyZXF1ZXN0SW5mbyk8L3RleHQ+PHBvbHlnb24gZmlsbD0iIzE4MTgxOCIgcG9pbnRzPSI3NjcsMTYxLjcyNjYsNzc3LDE2NS43MjY2LDc2NywxNjkuNzI2Niw3NzEsMTY1LjcyNjYiIHN0eWxlPSJzdHJva2U6IzE4MTgxODtzdHJva2Utd2lkdGg6MS4wOyIvPjxsaW5lIHN0eWxlPSJzdHJva2U6IzE4MTgxODtzdHJva2Utd2lkdGg6MS4wOyIgeDE9IjUwOCIgeDI9Ijc3MyIgeTE9IjE2NS43MjY2IiB5Mj0iMTY1LjcyNjYiLz48dGV4dCBmaWxsPSIjMDAwMDAwIiBmb250LWZhbWlseT0ic2Fucy1zZXJpZiIgZm9udC1zaXplPSIxMyIgZm9udC13ZWlnaHQ9ImJvbGQiIGxlbmd0aEFkanVzdD0ic3BhY2luZyIgdGV4dExlbmd0aD0iNyIgeD0iNTE1IiB5PSIxNjIuMTAxNiI+MzwvdGV4dD48dGV4dCBmaWxsPSIjMDAwMDAwIiBmb250LWZhbWlseT0ic2Fucy1zZXJpZiIgZm9udC1zaXplPSIxMyIgbGVuZ3RoQWRqdXN0PSJzcGFjaW5nIiB0ZXh0TGVuZ3RoPSIyNDEiIHg9IjUyNiIgeT0iMTYyLjEwMTYiPiYjMzU4NDM7JiMyOTk5MjsgY3JlYXRlUmVxdWVzdChyZXF1ZXN0SW5mbykgJiMyNjA0MTsmIzI3ODYxOzwvdGV4dD48cG9seWdvbiBmaWxsPSIjMTgxODE4IiBwb2ludHM9Ijg5MCwxODkuNjQwNiw5MDAsMTkzLjY0MDYsODkwLDE5Ny42NDA2LDg5NCwxOTMuNjQwNiIgc3R5bGU9InN0cm9rZTojMTgxODE4O3N0cm9rZS13aWR0aDoxLjA7Ii8+PGxpbmUgc3R5bGU9InN0cm9rZTojMTgxODE4O3N0cm9rZS13aWR0aDoxLjA7IiB4MT0iNzg5IiB4Mj0iODk2IiB5MT0iMTkzLjY0MDYiIHkyPSIxOTMuNjQwNiIvPjx0ZXh0IGZpbGw9IiMwMDAwMDAiIGZvbnQtZmFtaWx5PSJzYW5zLXNlcmlmIiBmb250LXNpemU9IjEzIiBmb250LXdlaWdodD0iYm9sZCIgbGVuZ3RoQWRqdXN0PSJzcGFjaW5nIiB0ZXh0TGVuZ3RoPSI3IiB4PSI3OTYiIHk9IjE5MC4wMTU2Ij40PC90ZXh0Pjx0ZXh0IGZpbGw9IiMwMDAwMDAiIGZvbnQtZmFtaWx5PSJzYW5zLXNlcmlmIiBmb250LXNpemU9IjEzIiBsZW5ndGhBZGp1c3Q9InNwYWNpbmciIHRleHRMZW5ndGg9Ijc4IiB4PSI4MDciIHk9IjE5MC4wMTU2Ij4mIzIwNDQ1OyYjMjMzODQ7JiMyNzcxNDsmIzIxMTYxOyYjMjA0NDk7JiMyNDY4Nzs8L3RleHQ+PHBvbHlnb24gZmlsbD0iIzE4MTgxOCIgcG9pbnRzPSI4MDAsMjE3LjU1NDcsNzkwLDIyMS41NTQ3LDgwMCwyMjUuNTU0Nyw3OTYsMjIxLjU1NDciIHN0eWxlPSJzdHJva2U6IzE4MTgxODtzdHJva2Utd2lkdGg6MS4wOyIvPjxsaW5lIHN0eWxlPSJzdHJva2U6IzE4MTgxODtzdHJva2Utd2lkdGg6MS4wO3N0cm9rZS1kYXNoYXJyYXk6Mi4wLDIuMDsiIHgxPSI3OTQiIHgyPSI5MDYiIHkxPSIyMjEuNTU0NyIgeTI9IjIyMS41NTQ3Ii8+PHRleHQgZmlsbD0iIzAwMDAwMCIgZm9udC1mYW1pbHk9InNhbnMtc2VyaWYiIGZvbnQtc2l6ZT0iMTMiIGZvbnQtd2VpZ2h0PSJib2xkIiBsZW5ndGhBZGp1c3Q9InNwYWNpbmciIHRleHRMZW5ndGg9IjciIHg9IjgwNiIgeT0iMjE3LjkyOTciPjU8L3RleHQ+PHRleHQgZmlsbD0iIzAwMDAwMCIgZm9udC1mYW1pbHk9InNhbnMtc2VyaWYiIGZvbnQtc2l6ZT0iMTMiIGxlbmd0aEFkanVzdD0ic3BhY2luZyIgdGV4dExlbmd0aD0iNzgiIHg9IjgxNyIgeT0iMjE3LjkyOTciPiYjMzY4MjA7JiMyMjIzODsmIzIwNDQ1OyYjMjMzODQ7JiMzMjQ2NzsmIzI2NTI0OzwvdGV4dD48cG9seWdvbiBmaWxsPSIjMTgxODE4IiBwb2ludHM9IjUxOSwyNDUuNDY4OCw1MDksMjQ5LjQ2ODgsNTE5LDI1My40Njg4LDUxNSwyNDkuNDY4OCIgc3R5bGU9InN0cm9rZTojMTgxODE4O3N0cm9rZS13aWR0aDoxLjA7Ii8+PGxpbmUgc3R5bGU9InN0cm9rZTojMTgxODE4O3N0cm9rZS13aWR0aDoxLjA7c3Ryb2tlLWRhc2hhcnJheToyLjAsMi4wOyIgeDE9IjUxMyIgeDI9Ijc4MyIgeTE9IjI0OS40Njg4IiB5Mj0iMjQ5LjQ2ODgiLz48dGV4dCBmaWxsPSIjMDAwMDAwIiBmb250LWZhbWlseT0ic2Fucy1zZXJpZiIgZm9udC1zaXplPSIxMyIgZm9udC13ZWlnaHQ9ImJvbGQiIGxlbmd0aEFkanVzdD0ic3BhY2luZyIgdGV4dExlbmd0aD0iNyIgeD0iNTI1IiB5PSIyNDUuODQzOCI+NjwvdGV4dD48dGV4dCBmaWxsPSIjMDAwMDAwIiBmb250LWZhbWlseT0ic2Fucy1zZXJpZiIgZm9udC1zaXplPSIxMyIgbGVuZ3RoQWRqdXN0PSJzcGFjaW5nIiB0ZXh0TGVuZ3RoPSI3OCIgeD0iNTM2IiB5PSIyNDUuODQzOCI+JiMzNjgyMDsmIzIyMjM4OyYjMjU4MDU7JiMyMDMxNjsmIzMyNDY3OyYjMjY1MjQ7PC90ZXh0Pjxwb2x5Z29uIGZpbGw9IiMxODE4MTgiIHBvaW50cz0iMjU2LDI3My4zODI4LDI0NiwyNzcuMzgyOCwyNTYsMjgxLjM4MjgsMjUyLDI3Ny4zODI4IiBzdHlsZT0ic3Ryb2tlOiMxODE4MTg7c3Ryb2tlLXdpZHRoOjEuMDsiLz48bGluZSBzdHlsZT0ic3Ryb2tlOiMxODE4MTg7c3Ryb2tlLXdpZHRoOjEuMDtzdHJva2UtZGFzaGFycmF5OjIuMCwyLjA7IiB4MT0iMjUwIiB4Mj0iNTAyIiB5MT0iMjc3LjM4MjgiIHkyPSIyNzcuMzgyOCIvPjx0ZXh0IGZpbGw9IiMwMDAwMDAiIGZvbnQtZmFtaWx5PSJzYW5zLXNlcmlmIiBmb250LXNpemU9IjEzIiBmb250LXdlaWdodD0iYm9sZCIgbGVuZ3RoQWRqdXN0PSJzcGFjaW5nIiB0ZXh0TGVuZ3RoPSI3IiB4PSIyNjIiIHk9IjI3My43NTc4Ij43PC90ZXh0Pjx0ZXh0IGZpbGw9IiMwMDAwMDAiIGZvbnQtZmFtaWx5PSJzYW5zLXNlcmlmIiBmb250LXNpemU9IjEzIiBsZW5ndGhBZGp1c3Q9InNwYWNpbmciIHRleHRMZW5ndGg9Ijc4IiB4PSIyNzMiIHk9IjI3My43NTc4Ij4mIzM2ODIwOyYjMjIyMzg7JiMyNTgwNTsmIzIwMzE2OyYjMzI0Njc7JiMyNjUyNDs8L3RleHQ+PHBvbHlnb24gZmlsbD0iIzE4MTgxOCIgcG9pbnRzPSIzMywzMDEuMjk2OSwyMywzMDUuMjk2OSwzMywzMDkuMjk2OSwyOSwzMDUuMjk2OSIgc3R5bGU9InN0cm9rZTojMTgxODE4O3N0cm9rZS13aWR0aDoxLjA7Ii8+PGxpbmUgc3R5bGU9InN0cm9rZTojMTgxODE4O3N0cm9rZS13aWR0aDoxLjA7c3Ryb2tlLWRhc2hhcnJheToyLjAsMi4wOyIgeDE9IjI3IiB4Mj0iMjM5IiB5MT0iMzA1LjI5NjkiIHkyPSIzMDUuMjk2OSIvPjx0ZXh0IGZpbGw9IiMwMDAwMDAiIGZvbnQtZmFtaWx5PSJzYW5zLXNlcmlmIiBmb250LXNpemU9IjEzIiBmb250LXdlaWdodD0iYm9sZCIgbGVuZ3RoQWRqdXN0PSJzcGFjaW5nIiB0ZXh0TGVuZ3RoPSI3IiB4PSIzOSIgeT0iMzAxLjY3MTkiPjg8L3RleHQ+PHRleHQgZmlsbD0iIzAwMDAwMCIgZm9udC1mYW1pbHk9InNhbnMtc2VyaWYiIGZvbnQtc2l6ZT0iMTMiIGxlbmd0aEFkanVzdD0ic3BhY2luZyIgdGV4dExlbmd0aD0iNzgiIHg9IjUwIiB5PSIzMDEuNjcxOSI+JiMyNjE3NDsmIzMxMDM0OyYjMjU4MDU7JiMyMDMxNjsmIzMyNDY3OyYjMjY1MjQ7PC90ZXh0PjwhLS1TUkM9W1hQQkZJbTkxNUNWbC1yVXlPbnR5MV9SR25QRE4tbWtzUk84NXRUZDZLVVlzQWJINjhnUTVhR2Y2WHE5QTh5ZkNvbHo1ZDVkdGxzWGExVVVqSGlWN09weFY3cy1pRkFUa0ZkajBjNjVPRGdTQ1drUVpGMXlQZGlNdU9wa1V2TjhHYk1oRzd1SXp6eDFwWm5QOVlvVWZvbmREUDFHV2pqYWRoRTNPOTlOckNsNUxjZFdxdm9ZcjR5RTh6MjJuWHNIQzRCcy1FQnNMaG9MbnlKSVZ6Y0huOENPVkdNYWlwWU9wbG9yZ1RWNVBkbGFUVUxhOWhydldRVHVmTTluV2lfZ21iNDI2YktRajdsaDVZQUtoQkdPWkRTOEU4eVR2YWtDZnp1WmtoWExtUVpJakRCSmU5WW82UFBLSFI0Ukt1dEg0SDZJR0RzRnZUZXE0ekZCbWs5OU9Mc1oyVkRlSHBvcXowNjlmUlFDOTRqbFNKZmxZaFhpSFdxYjNUamw2OFZjUlhlbmo1WHBIUEFDd19zdmxmU0xvd2Fya184WF9PVGZMeUU0TEFsZmM5aVpNSl8zbWZLRDBmLVpsVlc0MF0tLT48L2c+PC9zdmc+;" parent="1" vertex="1"><mxGeometry x="-141.5" y="5360" width="965" height="402" as="geometry"/></mxCell></UserObject><UserObject label="" plantUmlData="{&#10;  &quot;data&quot;: &quot;@startuml\nautonumber\n\nactor 志愿者\nparticipant 前端页面\nparticipant TaskController\nparticipant TaskServiceImpl\nparticipant TaskRepository\n\n志愿者 -&gt; 前端页面: 填写任务进展并点击“提交”按钮 \nactivate 前端页面\n前端页面 -&gt; TaskController: 发送更新任务进展请求 (taskId, progressInfo)\nactivate TaskController\nTaskController -&gt; TaskServiceImpl: 调用 updateTaskProgress(taskId, progressInfo) 方法\nactivate TaskServiceImpl\nTaskServiceImpl -&gt; TaskRepository: 更新任务进展信息\nactivate TaskRepository\nTaskRepository --&gt; TaskServiceImpl: 返回更新结果\ndeactivate TaskRepository\nTaskServiceImpl --&gt; TaskController: 返回操作结果\ndeactivate TaskServiceImpl\nTaskController --&gt; 前端页面: 返回操作结果\ndeactivate TaskController\n前端页面 --&gt; 志愿者: 显示操作结果 \ndeactivate 前端页面\n@enduml&quot;,&#10;  &quot;format&quot;: &quot;svg&quot;&#10;}" id="AG9e61MuKz-lgSlKQN2f-4"><mxCell style="shape=image;noLabel=1;verticalAlign=top;aspect=fixed;imageAspect=0;image=data:image/svg+xml,PD94bWwgdmVyc2lvbj0iMS4wIiBlbmNvZGluZz0idXMtYXNjaWkiIHN0YW5kYWxvbmU9Im5vIj8+PHN2ZyB4bWxucz0iaHR0cDovL3d3dy53My5vcmcvMjAwMC9zdmciIHhtbG5zOnhsaW5rPSJodHRwOi8vd3d3LnczLm9yZy8xOTk5L3hsaW5rIiBjb250ZW50U3R5bGVUeXBlPSJ0ZXh0L2NzcyIgaGVpZ2h0PSI0MDJweCIgcHJlc2VydmVBc3BlY3RSYXRpbz0ibm9uZSIgc3R5bGU9IndpZHRoOjExNTRweDtoZWlnaHQ6NDAycHg7YmFja2dyb3VuZDojRkZGRkZGOyIgdmVyc2lvbj0iMS4xIiB2aWV3Qm94PSIwIDAgMTE1NCA0MDIiIHdpZHRoPSIxMTU0cHgiIHpvb21BbmRQYW49Im1hZ25pZnkiPjxkZWZzLz48Zz48cmVjdCBmaWxsPSIjRkZGRkZGIiBoZWlnaHQ9IjE5NS4zOTg0IiBzdHlsZT0ic3Ryb2tlOiMxODE4MTg7c3Ryb2tlLXdpZHRoOjEuMDsiIHdpZHRoPSIxMCIgeD0iMjQyIiB5PSIxMDkuODk4NCIvPjxyZWN0IGZpbGw9IiNGRkZGRkYiIGhlaWdodD0iMTM5LjU3MDMiIHN0eWxlPSJzdHJva2U6IzE4MTgxODtzdHJva2Utd2lkdGg6MS4wOyIgd2lkdGg9IjEwIiB4PSI1NjYiIHk9IjEzNy44MTI1Ii8+PHJlY3QgZmlsbD0iI0ZGRkZGRiIgaGVpZ2h0PSI4My43NDIyIiBzdHlsZT0ic3Ryb2tlOiMxODE4MTg7c3Ryb2tlLXdpZHRoOjEuMDsiIHdpZHRoPSIxMCIgeD0iOTQzIiB5PSIxNjUuNzI2NiIvPjxyZWN0IGZpbGw9IiNGRkZGRkYiIGhlaWdodD0iMjcuOTE0MSIgc3R5bGU9InN0cm9rZTojMTgxODE4O3N0cm9rZS13aWR0aDoxLjA7IiB3aWR0aD0iMTAiIHg9IjEwODciIHk9IjE5My42NDA2Ii8+PGxpbmUgc3R5bGU9InN0cm9rZTojMTgxODE4O3N0cm9rZS13aWR0aDowLjU7c3Ryb2tlLWRhc2hhcnJheTo1LjAsNS4wOyIgeDE9IjI5IiB4Mj0iMjkiIHkxPSI3OS45ODQ0IiB5Mj0iMzIzLjI5NjkiLz48bGluZSBzdHlsZT0ic3Ryb2tlOiMxODE4MTg7c3Ryb2tlLXdpZHRoOjAuNTtzdHJva2UtZGFzaGFycmF5OjUuMCw1LjA7IiB4MT0iMjQ3IiB4Mj0iMjQ3IiB5MT0iNzkuOTg0NCIgeTI9IjMyMy4yOTY5Ii8+PGxpbmUgc3R5bGU9InN0cm9rZTojMTgxODE4O3N0cm9rZS13aWR0aDowLjU7c3Ryb2tlLWRhc2hhcnJheTo1LjAsNS4wOyIgeDE9IjU3MSIgeDI9IjU3MSIgeTE9Ijc5Ljk4NDQiIHkyPSIzMjMuMjk2OSIvPjxsaW5lIHN0eWxlPSJzdHJva2U6IzE4MTgxODtzdHJva2Utd2lkdGg6MC41O3N0cm9rZS1kYXNoYXJyYXk6NS4wLDUuMDsiIHgxPSI5NDgiIHgyPSI5NDgiIHkxPSI3OS45ODQ0IiB5Mj0iMzIzLjI5NjkiLz48bGluZSBzdHlsZT0ic3Ryb2tlOiMxODE4MTg7c3Ryb2tlLXdpZHRoOjAuNTtzdHJva2UtZGFzaGFycmF5OjUuMCw1LjA7IiB4MT0iMTA5MiIgeDI9IjEwOTIiIHkxPSI3OS45ODQ0IiB5Mj0iMzIzLjI5NjkiLz48dGV4dCBmaWxsPSIjMDAwMDAwIiBmb250LWZhbWlseT0ic2Fucy1zZXJpZiIgZm9udC1zaXplPSIxNCIgbGVuZ3RoQWRqdXN0PSJzcGFjaW5nIiB0ZXh0TGVuZ3RoPSI0MiIgeD0iNSIgeT0iNzguMjM0NCI+JiMyNDUzNTsmIzI0ODk1OyYjMzI3NzM7PC90ZXh0PjxlbGxpcHNlIGN4PSIyOSIgY3k9IjEzLjUiIGZpbGw9IiNFMkUyRjAiIHJ4PSI4IiByeT0iOCIgc3R5bGU9InN0cm9rZTojMTgxODE4O3N0cm9rZS13aWR0aDowLjU7Ii8+PHBhdGggZD0iTTI5LDIxLjUgTDI5LDQ4LjUgTTE2LDI5LjUgTDQyLDI5LjUgTTI5LDQ4LjUgTDE2LDYzLjUgTTI5LDQ4LjUgTDQyLDYzLjUgIiBmaWxsPSJub25lIiBzdHlsZT0ic3Ryb2tlOiMxODE4MTg7c3Ryb2tlLXdpZHRoOjAuNTsiLz48dGV4dCBmaWxsPSIjMDAwMDAwIiBmb250LWZhbWlseT0ic2Fucy1zZXJpZiIgZm9udC1zaXplPSIxNCIgbGVuZ3RoQWRqdXN0PSJzcGFjaW5nIiB0ZXh0TGVuZ3RoPSI0MiIgeD0iNSIgeT0iMzM1LjUzMTMiPiYjMjQ1MzU7JiMyNDg5NTsmIzMyNzczOzwvdGV4dD48ZWxsaXBzZSBjeD0iMjkiIGN5PSIzNDUuNzgxMyIgZmlsbD0iI0UyRTJGMCIgcng9IjgiIHJ5PSI4IiBzdHlsZT0ic3Ryb2tlOiMxODE4MTg7c3Ryb2tlLXdpZHRoOjAuNTsiLz48cGF0aCBkPSJNMjksMzUzLjc4MTMgTDI5LDM4MC43ODEzIE0xNiwzNjEuNzgxMyBMNDIsMzYxLjc4MTMgTTI5LDM4MC43ODEzIEwxNiwzOTUuNzgxMyBNMjksMzgwLjc4MTMgTDQyLDM5NS43ODEzICIgZmlsbD0ibm9uZSIgc3R5bGU9InN0cm9rZTojMTgxODE4O3N0cm9rZS13aWR0aDowLjU7Ii8+PHJlY3QgZmlsbD0iI0UyRTJGMCIgaGVpZ2h0PSIyOC45ODQ0IiByeD0iMi41IiByeT0iMi41IiBzdHlsZT0ic3Ryb2tlOiMxODE4MTg7c3Ryb2tlLXdpZHRoOjAuNTsiIHdpZHRoPSI3MCIgeD0iMjEyIiB5PSI1MCIvPjx0ZXh0IGZpbGw9IiMwMDAwMDAiIGZvbnQtZmFtaWx5PSJzYW5zLXNlcmlmIiBmb250LXNpemU9IjE0IiBsZW5ndGhBZGp1c3Q9InNwYWNpbmciIHRleHRMZW5ndGg9IjU2IiB4PSIyMTkiIHk9IjcwLjIzNDQiPiYjMjEwNjk7JiMzMTQ3MTsmIzM5MDI5OyYjMzg3NTQ7PC90ZXh0PjxyZWN0IGZpbGw9IiNFMkUyRjAiIGhlaWdodD0iMjguOTg0NCIgcng9IjIuNSIgcnk9IjIuNSIgc3R5bGU9InN0cm9rZTojMTgxODE4O3N0cm9rZS13aWR0aDowLjU7IiB3aWR0aD0iNzAiIHg9IjIxMiIgeT0iMzIyLjI5NjkiLz48dGV4dCBmaWxsPSIjMDAwMDAwIiBmb250LWZhbWlseT0ic2Fucy1zZXJpZiIgZm9udC1zaXplPSIxNCIgbGVuZ3RoQWRqdXN0PSJzcGFjaW5nIiB0ZXh0TGVuZ3RoPSI1NiIgeD0iMjE5IiB5PSIzNDIuNTMxMyI+JiMyMTA2OTsmIzMxNDcxOyYjMzkwMjk7JiMzODc1NDs8L3RleHQ+PHJlY3QgZmlsbD0iI0UyRTJGMCIgaGVpZ2h0PSIyOC45ODQ0IiByeD0iMi41IiByeT0iMi41IiBzdHlsZT0ic3Ryb2tlOiMxODE4MTg7c3Ryb2tlLXdpZHRoOjAuNTsiIHdpZHRoPSIxMTIiIHg9IjUxNSIgeT0iNTAiLz48dGV4dCBmaWxsPSIjMDAwMDAwIiBmb250LWZhbWlseT0ic2Fucy1zZXJpZiIgZm9udC1zaXplPSIxNCIgbGVuZ3RoQWRqdXN0PSJzcGFjaW5nIiB0ZXh0TGVuZ3RoPSI5OCIgeD0iNTIyIiB5PSI3MC4yMzQ0Ij5UYXNrQ29udHJvbGxlcjwvdGV4dD48cmVjdCBmaWxsPSIjRTJFMkYwIiBoZWlnaHQ9IjI4Ljk4NDQiIHJ4PSIyLjUiIHJ5PSIyLjUiIHN0eWxlPSJzdHJva2U6IzE4MTgxODtzdHJva2Utd2lkdGg6MC41OyIgd2lkdGg9IjExMiIgeD0iNTE1IiB5PSIzMjIuMjk2OSIvPjx0ZXh0IGZpbGw9IiMwMDAwMDAiIGZvbnQtZmFtaWx5PSJzYW5zLXNlcmlmIiBmb250LXNpemU9IjE0IiBsZW5ndGhBZGp1c3Q9InNwYWNpbmciIHRleHRMZW5ndGg9Ijk4IiB4PSI1MjIiIHk9IjM0Mi41MzEzIj5UYXNrQ29udHJvbGxlcjwvdGV4dD48cmVjdCBmaWxsPSIjRTJFMkYwIiBoZWlnaHQ9IjI4Ljk4NDQiIHJ4PSIyLjUiIHJ5PSIyLjUiIHN0eWxlPSJzdHJva2U6IzE4MTgxODtzdHJva2Utd2lkdGg6MC41OyIgd2lkdGg9IjEyMCIgeD0iODg4IiB5PSI1MCIvPjx0ZXh0IGZpbGw9IiMwMDAwMDAiIGZvbnQtZmFtaWx5PSJzYW5zLXNlcmlmIiBmb250LXNpemU9IjE0IiBsZW5ndGhBZGp1c3Q9InNwYWNpbmciIHRleHRMZW5ndGg9IjEwNiIgeD0iODk1IiB5PSI3MC4yMzQ0Ij5UYXNrU2VydmljZUltcGw8L3RleHQ+PHJlY3QgZmlsbD0iI0UyRTJGMCIgaGVpZ2h0PSIyOC45ODQ0IiByeD0iMi41IiByeT0iMi41IiBzdHlsZT0ic3Ryb2tlOiMxODE4MTg7c3Ryb2tlLXdpZHRoOjAuNTsiIHdpZHRoPSIxMjAiIHg9Ijg4OCIgeT0iMzIyLjI5NjkiLz48dGV4dCBmaWxsPSIjMDAwMDAwIiBmb250LWZhbWlseT0ic2Fucy1zZXJpZiIgZm9udC1zaXplPSIxNCIgbGVuZ3RoQWRqdXN0PSJzcGFjaW5nIiB0ZXh0TGVuZ3RoPSIxMDYiIHg9Ijg5NSIgeT0iMzQyLjUzMTMiPlRhc2tTZXJ2aWNlSW1wbDwvdGV4dD48cmVjdCBmaWxsPSIjRTJFMkYwIiBoZWlnaHQ9IjI4Ljk4NDQiIHJ4PSIyLjUiIHJ5PSIyLjUiIHN0eWxlPSJzdHJva2U6IzE4MTgxODtzdHJva2Utd2lkdGg6MC41OyIgd2lkdGg9IjExMiIgeD0iMTAzNiIgeT0iNTAiLz48dGV4dCBmaWxsPSIjMDAwMDAwIiBmb250LWZhbWlseT0ic2Fucy1zZXJpZiIgZm9udC1zaXplPSIxNCIgbGVuZ3RoQWRqdXN0PSJzcGFjaW5nIiB0ZXh0TGVuZ3RoPSI5OCIgeD0iMTA0MyIgeT0iNzAuMjM0NCI+VGFza1JlcG9zaXRvcnk8L3RleHQ+PHJlY3QgZmlsbD0iI0UyRTJGMCIgaGVpZ2h0PSIyOC45ODQ0IiByeD0iMi41IiByeT0iMi41IiBzdHlsZT0ic3Ryb2tlOiMxODE4MTg7c3Ryb2tlLXdpZHRoOjAuNTsiIHdpZHRoPSIxMTIiIHg9IjEwMzYiIHk9IjMyMi4yOTY5Ii8+PHRleHQgZmlsbD0iIzAwMDAwMCIgZm9udC1mYW1pbHk9InNhbnMtc2VyaWYiIGZvbnQtc2l6ZT0iMTQiIGxlbmd0aEFkanVzdD0ic3BhY2luZyIgdGV4dExlbmd0aD0iOTgiIHg9IjEwNDMiIHk9IjM0Mi41MzEzIj5UYXNrUmVwb3NpdG9yeTwvdGV4dD48cmVjdCBmaWxsPSIjRkZGRkZGIiBoZWlnaHQ9IjE5NS4zOTg0IiBzdHlsZT0ic3Ryb2tlOiMxODE4MTg7c3Ryb2tlLXdpZHRoOjEuMDsiIHdpZHRoPSIxMCIgeD0iMjQyIiB5PSIxMDkuODk4NCIvPjxyZWN0IGZpbGw9IiNGRkZGRkYiIGhlaWdodD0iMTM5LjU3MDMiIHN0eWxlPSJzdHJva2U6IzE4MTgxODtzdHJva2Utd2lkdGg6MS4wOyIgd2lkdGg9IjEwIiB4PSI1NjYiIHk9IjEzNy44MTI1Ii8+PHJlY3QgZmlsbD0iI0ZGRkZGRiIgaGVpZ2h0PSI4My43NDIyIiBzdHlsZT0ic3Ryb2tlOiMxODE4MTg7c3Ryb2tlLXdpZHRoOjEuMDsiIHdpZHRoPSIxMCIgeD0iOTQzIiB5PSIxNjUuNzI2NiIvPjxyZWN0IGZpbGw9IiNGRkZGRkYiIGhlaWdodD0iMjcuOTE0MSIgc3R5bGU9InN0cm9rZTojMTgxODE4O3N0cm9rZS13aWR0aDoxLjA7IiB3aWR0aD0iMTAiIHg9IjEwODciIHk9IjE5My42NDA2Ii8+PHBvbHlnb24gZmlsbD0iIzE4MTgxOCIgcG9pbnRzPSIyMzAsMTA1Ljg5ODQsMjQwLDEwOS44OTg0LDIzMCwxMTMuODk4NCwyMzQsMTA5Ljg5ODQiIHN0eWxlPSJzdHJva2U6IzE4MTgxODtzdHJva2Utd2lkdGg6MS4wOyIvPjxsaW5lIHN0eWxlPSJzdHJva2U6IzE4MTgxODtzdHJva2Utd2lkdGg6MS4wOyIgeDE9IjI5IiB4Mj0iMjM2IiB5MT0iMTA5Ljg5ODQiIHkyPSIxMDkuODk4NCIvPjx0ZXh0IGZpbGw9IiMwMDAwMDAiIGZvbnQtZmFtaWx5PSJzYW5zLXNlcmlmIiBmb250LXNpemU9IjEzIiBmb250LXdlaWdodD0iYm9sZCIgbGVuZ3RoQWRqdXN0PSJzcGFjaW5nIiB0ZXh0TGVuZ3RoPSI3IiB4PSIzNiIgeT0iMTA2LjI3MzQiPjE8L3RleHQ+PHRleHQgZmlsbD0iIzAwMDAwMCIgZm9udC1mYW1pbHk9InNhbnMtc2VyaWYiIGZvbnQtc2l6ZT0iMTMiIGxlbmd0aEFkanVzdD0ic3BhY2luZyIgdGV4dExlbmd0aD0iMTgzIiB4PSI0NyIgeT0iMTA2LjI3MzQiPiYjMjI2MzU7JiMyMDg4OTsmIzIwMjE5OyYjMjExNTM7JiMzNjgyNzsmIzIzNjM3OyYjMjQxODI7JiMyODg1NzsmIzIwOTg3OyYjODIyMDsmIzI1NTUyOyYjMjAxMzI7JiM4MjIxOyYjMjUzNTM7JiMzODA2Mjs8L3RleHQ+PHBvbHlnb24gZmlsbD0iIzE4MTgxOCIgcG9pbnRzPSI1NTQsMTMzLjgxMjUsNTY0LDEzNy44MTI1LDU1NCwxNDEuODEyNSw1NTgsMTM3LjgxMjUiIHN0eWxlPSJzdHJva2U6IzE4MTgxODtzdHJva2Utd2lkdGg6MS4wOyIvPjxsaW5lIHN0eWxlPSJzdHJva2U6IzE4MTgxODtzdHJva2Utd2lkdGg6MS4wOyIgeDE9IjI1MiIgeDI9IjU2MCIgeTE9IjEzNy44MTI1IiB5Mj0iMTM3LjgxMjUiLz48dGV4dCBmaWxsPSIjMDAwMDAwIiBmb250LWZhbWlseT0ic2Fucy1zZXJpZiIgZm9udC1zaXplPSIxMyIgZm9udC13ZWlnaHQ9ImJvbGQiIGxlbmd0aEFkanVzdD0ic3BhY2luZyIgdGV4dExlbmd0aD0iNyIgeD0iMjU5IiB5PSIxMzQuMTg3NSI+MjwvdGV4dD48dGV4dCBmaWxsPSIjMDAwMDAwIiBmb250LWZhbWlseT0ic2Fucy1zZXJpZiIgZm9udC1zaXplPSIxMyIgbGVuZ3RoQWRqdXN0PSJzcGFjaW5nIiB0ZXh0TGVuZ3RoPSIyODQiIHg9IjI3MCIgeT0iMTM0LjE4NzUiPiYjMjE0NTc7JiMzNjg2NTsmIzI2MzU2OyYjMjYwMzI7JiMyMDIxOTsmIzIxMTUzOyYjMzY4Mjc7JiMyMzYzNzsmIzM1ODMxOyYjMjc3MTQ7ICh0YXNrSWQsIHByb2dyZXNzSW5mbyk8L3RleHQ+PHBvbHlnb24gZmlsbD0iIzE4MTgxOCIgcG9pbnRzPSI5MzEsMTYxLjcyNjYsOTQxLDE2NS43MjY2LDkzMSwxNjkuNzI2Niw5MzUsMTY1LjcyNjYiIHN0eWxlPSJzdHJva2U6IzE4MTgxODtzdHJva2Utd2lkdGg6MS4wOyIvPjxsaW5lIHN0eWxlPSJzdHJva2U6IzE4MTgxODtzdHJva2Utd2lkdGg6MS4wOyIgeDE9IjU3NiIgeDI9IjkzNyIgeTE9IjE2NS43MjY2IiB5Mj0iMTY1LjcyNjYiLz48dGV4dCBmaWxsPSIjMDAwMDAwIiBmb250LWZhbWlseT0ic2Fucy1zZXJpZiIgZm9udC1zaXplPSIxMyIgZm9udC13ZWlnaHQ9ImJvbGQiIGxlbmd0aEFkanVzdD0ic3BhY2luZyIgdGV4dExlbmd0aD0iNyIgeD0iNTgzIiB5PSIxNjIuMTAxNiI+MzwvdGV4dD48dGV4dCBmaWxsPSIjMDAwMDAwIiBmb250LWZhbWlseT0ic2Fucy1zZXJpZiIgZm9udC1zaXplPSIxMyIgbGVuZ3RoQWRqdXN0PSJzcGFjaW5nIiB0ZXh0TGVuZ3RoPSIzMzciIHg9IjU5NCIgeT0iMTYyLjEwMTYiPiYjMzU4NDM7JiMyOTk5MjsgdXBkYXRlVGFza1Byb2dyZXNzKHRhc2tJZCwgcHJvZ3Jlc3NJbmZvKSAmIzI2MDQxOyYjMjc4NjE7PC90ZXh0Pjxwb2x5Z29uIGZpbGw9IiMxODE4MTgiIHBvaW50cz0iMTA3NSwxODkuNjQwNiwxMDg1LDE5My42NDA2LDEwNzUsMTk3LjY0MDYsMTA3OSwxOTMuNjQwNiIgc3R5bGU9InN0cm9rZTojMTgxODE4O3N0cm9rZS13aWR0aDoxLjA7Ii8+PGxpbmUgc3R5bGU9InN0cm9rZTojMTgxODE4O3N0cm9rZS13aWR0aDoxLjA7IiB4MT0iOTUzIiB4Mj0iMTA4MSIgeTE9IjE5My42NDA2IiB5Mj0iMTkzLjY0MDYiLz48dGV4dCBmaWxsPSIjMDAwMDAwIiBmb250LWZhbWlseT0ic2Fucy1zZXJpZiIgZm9udC1zaXplPSIxMyIgZm9udC13ZWlnaHQ9ImJvbGQiIGxlbmd0aEFkanVzdD0ic3BhY2luZyIgdGV4dExlbmd0aD0iNyIgeD0iOTYwIiB5PSIxOTAuMDE1NiI+NDwvdGV4dD48dGV4dCBmaWxsPSIjMDAwMDAwIiBmb250LWZhbWlseT0ic2Fucy1zZXJpZiIgZm9udC1zaXplPSIxMyIgbGVuZ3RoQWRqdXN0PSJzcGFjaW5nIiB0ZXh0TGVuZ3RoPSIxMDQiIHg9Ijk3MSIgeT0iMTkwLjAxNTYiPiYjMjYzNTY7JiMyNjAzMjsmIzIwMjE5OyYjMjExNTM7JiMzNjgyNzsmIzIzNjM3OyYjMjA0NDk7JiMyNDY4Nzs8L3RleHQ+PHBvbHlnb24gZmlsbD0iIzE4MTgxOCIgcG9pbnRzPSI5NjQsMjE3LjU1NDcsOTU0LDIyMS41NTQ3LDk2NCwyMjUuNTU0Nyw5NjAsMjIxLjU1NDciIHN0eWxlPSJzdHJva2U6IzE4MTgxODtzdHJva2Utd2lkdGg6MS4wOyIvPjxsaW5lIHN0eWxlPSJzdHJva2U6IzE4MTgxODtzdHJva2Utd2lkdGg6MS4wO3N0cm9rZS1kYXNoYXJyYXk6Mi4wLDIuMDsiIHgxPSI5NTgiIHgyPSIxMDkxIiB5MT0iMjIxLjU1NDciIHkyPSIyMjEuNTU0NyIvPjx0ZXh0IGZpbGw9IiMwMDAwMDAiIGZvbnQtZmFtaWx5PSJzYW5zLXNlcmlmIiBmb250LXNpemU9IjEzIiBmb250LXdlaWdodD0iYm9sZCIgbGVuZ3RoQWRqdXN0PSJzcGFjaW5nIiB0ZXh0TGVuZ3RoPSI3IiB4PSI5NzAiIHk9IjIxNy45Mjk3Ij41PC90ZXh0Pjx0ZXh0IGZpbGw9IiMwMDAwMDAiIGZvbnQtZmFtaWx5PSJzYW5zLXNlcmlmIiBmb250LXNpemU9IjEzIiBsZW5ndGhBZGp1c3Q9InNwYWNpbmciIHRleHRMZW5ndGg9Ijc4IiB4PSI5ODEiIHk9IjIxNy45Mjk3Ij4mIzM2ODIwOyYjMjIyMzg7JiMyNjM1NjsmIzI2MDMyOyYjMzI0Njc7JiMyNjUyNDs8L3RleHQ+PHBvbHlnb24gZmlsbD0iIzE4MTgxOCIgcG9pbnRzPSI1ODcsMjQ1LjQ2ODgsNTc3LDI0OS40Njg4LDU4NywyNTMuNDY4OCw1ODMsMjQ5LjQ2ODgiIHN0eWxlPSJzdHJva2U6IzE4MTgxODtzdHJva2Utd2lkdGg6MS4wOyIvPjxsaW5lIHN0eWxlPSJzdHJva2U6IzE4MTgxODtzdHJva2Utd2lkdGg6MS4wO3N0cm9rZS1kYXNoYXJyYXk6Mi4wLDIuMDsiIHgxPSI1ODEiIHgyPSI5NDciIHkxPSIyNDkuNDY4OCIgeTI9IjI0OS40Njg4Ii8+PHRleHQgZmlsbD0iIzAwMDAwMCIgZm9udC1mYW1pbHk9InNhbnMtc2VyaWYiIGZvbnQtc2l6ZT0iMTMiIGZvbnQtd2VpZ2h0PSJib2xkIiBsZW5ndGhBZGp1c3Q9InNwYWNpbmciIHRleHRMZW5ndGg9IjciIHg9IjU5MyIgeT0iMjQ1Ljg0MzgiPjY8L3RleHQ+PHRleHQgZmlsbD0iIzAwMDAwMCIgZm9udC1mYW1pbHk9InNhbnMtc2VyaWYiIGZvbnQtc2l6ZT0iMTMiIGxlbmd0aEFkanVzdD0ic3BhY2luZyIgdGV4dExlbmd0aD0iNzgiIHg9IjYwNCIgeT0iMjQ1Ljg0MzgiPiYjMzY4MjA7JiMyMjIzODsmIzI1ODA1OyYjMjAzMTY7JiMzMjQ2NzsmIzI2NTI0OzwvdGV4dD48cG9seWdvbiBmaWxsPSIjMTgxODE4IiBwb2ludHM9IjI2MywyNzMuMzgyOCwyNTMsMjc3LjM4MjgsMjYzLDI4MS4zODI4LDI1OSwyNzcuMzgyOCIgc3R5bGU9InN0cm9rZTojMTgxODE4O3N0cm9rZS13aWR0aDoxLjA7Ii8+PGxpbmUgc3R5bGU9InN0cm9rZTojMTgxODE4O3N0cm9rZS13aWR0aDoxLjA7c3Ryb2tlLWRhc2hhcnJheToyLjAsMi4wOyIgeDE9IjI1NyIgeDI9IjU3MCIgeTE9IjI3Ny4zODI4IiB5Mj0iMjc3LjM4MjgiLz48dGV4dCBmaWxsPSIjMDAwMDAwIiBmb250LWZhbWlseT0ic2Fucy1zZXJpZiIgZm9udC1zaXplPSIxMyIgZm9udC13ZWlnaHQ9ImJvbGQiIGxlbmd0aEFkanVzdD0ic3BhY2luZyIgdGV4dExlbmd0aD0iNyIgeD0iMjY5IiB5PSIyNzMuNzU3OCI+NzwvdGV4dD48dGV4dCBmaWxsPSIjMDAwMDAwIiBmb250LWZhbWlseT0ic2Fucy1zZXJpZiIgZm9udC1zaXplPSIxMyIgbGVuZ3RoQWRqdXN0PSJzcGFjaW5nIiB0ZXh0TGVuZ3RoPSI3OCIgeD0iMjgwIiB5PSIyNzMuNzU3OCI+JiMzNjgyMDsmIzIyMjM4OyYjMjU4MDU7JiMyMDMxNjsmIzMyNDY3OyYjMjY1MjQ7PC90ZXh0Pjxwb2x5Z29uIGZpbGw9IiMxODE4MTgiIHBvaW50cz0iNDAsMzAxLjI5NjksMzAsMzA1LjI5NjksNDAsMzA5LjI5NjksMzYsMzA1LjI5NjkiIHN0eWxlPSJzdHJva2U6IzE4MTgxODtzdHJva2Utd2lkdGg6MS4wOyIvPjxsaW5lIHN0eWxlPSJzdHJva2U6IzE4MTgxODtzdHJva2Utd2lkdGg6MS4wO3N0cm9rZS1kYXNoYXJyYXk6Mi4wLDIuMDsiIHgxPSIzNCIgeDI9IjI0NiIgeTE9IjMwNS4yOTY5IiB5Mj0iMzA1LjI5NjkiLz48dGV4dCBmaWxsPSIjMDAwMDAwIiBmb250LWZhbWlseT0ic2Fucy1zZXJpZiIgZm9udC1zaXplPSIxMyIgZm9udC13ZWlnaHQ9ImJvbGQiIGxlbmd0aEFkanVzdD0ic3BhY2luZyIgdGV4dExlbmd0aD0iNyIgeD0iNDYiIHk9IjMwMS42NzE5Ij44PC90ZXh0Pjx0ZXh0IGZpbGw9IiMwMDAwMDAiIGZvbnQtZmFtaWx5PSJzYW5zLXNlcmlmIiBmb250LXNpemU9IjEzIiBsZW5ndGhBZGp1c3Q9InNwYWNpbmciIHRleHRMZW5ndGg9Ijc4IiB4PSI1NyIgeT0iMzAxLjY3MTkiPiYjMjYxNzQ7JiMzMTAzNDsmIzI1ODA1OyYjMjAzMTY7JiMzMjQ2NzsmIzI2NTI0OzwvdGV4dD48IS0tU1JDPVtYUEJCSmk5MDU0M3RfT2ZQUVk4X21DQURBdFA2X081QUh6QzhkTU93YUJXaC0wZjZXaWYzM08tYVhlSzlZSzF5MUhoamx2M0VqRnFCc21Xb0tuZlR0am9QUy12QkJYMmE1VkJ4NDRrSWQySzgwLWhTaUxGN0R5eWFOU1A0cFFnd2gxNTBBckxsQzBvaWp3M3hBMkpzUEVEZTJzYTRlcm1rWENISmtuME5ySXBDdkZOU0ljdTd3aVhHRy1VbjlGclFHTWZKYUFLMWpHUnFfQzZyUk5mZi1Ld1JaZmpxeWt3TDlfSjJkZmFUTGhqc2Zfc1BzTUxOYlUzczZLSFRnNE1QR0I1YUZlV0tPamNYZjdPSmMyTk1WY01qNFFfb1huemlOMFBoOTdvVktKUTBaajRYWGVRSHFHeEctajhMY3U4T0JkcFNCREIwN3ZydVpJVEdxOU5tVnZKVGRmRUpMTzJyOWtvYkFIaHZ1U1JZWE5DdnVwSE94U3ZyQjVPUVliMWtBczg4S2ViekUwdFF4bHNXRlJsRVVYcjlXTnkxWEk4SkRaNDdyZ2xrUG9TUDY2LVJkX0pBelZvRnVfT2NOYWQ0TWZuYkVCdHhCd3lfdks2MDlfNVZsbTQwXS0tPjwvZz48L3N2Zz4=;" parent="1" vertex="1"><mxGeometry x="-151" y="6310" width="1154" height="402" as="geometry"/></mxCell></UserObject><UserObject label="" plantUmlData="{&#10;  &quot;data&quot;: &quot;@startuml\nautonumber\n\nactor 用户\nparticipant 前端页面\nparticipant PostController\nparticipant PostServiceImpl\nparticipant PostRepository\n\n用户 -&gt; 前端页面: 填写帖子内容并点击“发布”按钮 \nactivate 前端页面\n前端页面 -&gt; PostController: 发送发布帖子请求 (postInfo)\nactivate PostController\nPostController -&gt; PostServiceImpl: 调用 createPost(postInfo) 方法\nactivate PostServiceImpl\nPostServiceImpl -&gt; PostRepository: 保存帖子信息\nactivate PostRepository\nPostRepository --&gt; PostServiceImpl: 返回保存结果\ndeactivate PostRepository\nPostServiceImpl --&gt; PostController: 返回操作结果\ndeactivate PostServiceImpl\nPostController --&gt; 前端页面: 返回操作结果\ndeactivate PostController\n前端页面 --&gt; 用户: 显示操作结果 \ndeactivate 前端页面\n@enduml&quot;,&#10;  &quot;format&quot;: &quot;svg&quot;&#10;}" id="AG9e61MuKz-lgSlKQN2f-6"><mxCell style="shape=image;noLabel=1;verticalAlign=top;aspect=fixed;imageAspect=0;image=data:image/svg+xml,PD94bWwgdmVyc2lvbj0iMS4wIiBlbmNvZGluZz0idXMtYXNjaWkiIHN0YW5kYWxvbmU9Im5vIj8+PHN2ZyB4bWxucz0iaHR0cDovL3d3dy53My5vcmcvMjAwMC9zdmciIHhtbG5zOnhsaW5rPSJodHRwOi8vd3d3LnczLm9yZy8xOTk5L3hsaW5rIiBjb250ZW50U3R5bGVUeXBlPSJ0ZXh0L2NzcyIgaGVpZ2h0PSI0MDJweCIgcHJlc2VydmVBc3BlY3RSYXRpbz0ibm9uZSIgc3R5bGU9IndpZHRoOjg4M3B4O2hlaWdodDo0MDJweDtiYWNrZ3JvdW5kOiNGRkZGRkY7IiB2ZXJzaW9uPSIxLjEiIHZpZXdCb3g9IjAgMCA4ODMgNDAyIiB3aWR0aD0iODgzcHgiIHpvb21BbmRQYW49Im1hZ25pZnkiPjxkZWZzLz48Zz48cmVjdCBmaWxsPSIjRkZGRkZGIiBoZWlnaHQ9IjE5NS4zOTg0IiBzdHlsZT0ic3Ryb2tlOiMxODE4MTg7c3Ryb2tlLXdpZHRoOjEuMDsiIHdpZHRoPSIxMCIgeD0iMjM1IiB5PSIxMDkuODk4NCIvPjxyZWN0IGZpbGw9IiNGRkZGRkYiIGhlaWdodD0iMTM5LjU3MDMiIHN0eWxlPSJzdHJva2U6IzE4MTgxODtzdHJva2Utd2lkdGg6MS4wOyIgd2lkdGg9IjEwIiB4PSI0NTEiIHk9IjEzNy44MTI1Ii8+PHJlY3QgZmlsbD0iI0ZGRkZGRiIgaGVpZ2h0PSI4My43NDIyIiBzdHlsZT0ic3Ryb2tlOiMxODE4MTg7c3Ryb2tlLXdpZHRoOjEuMDsiIHdpZHRoPSIxMCIgeD0iNjkwIiB5PSIxNjUuNzI2NiIvPjxyZWN0IGZpbGw9IiNGRkZGRkYiIGhlaWdodD0iMjcuOTE0MSIgc3R5bGU9InN0cm9rZTojMTgxODE4O3N0cm9rZS13aWR0aDoxLjA7IiB3aWR0aD0iMTAiIHg9IjgxNiIgeT0iMTkzLjY0MDYiLz48bGluZSBzdHlsZT0ic3Ryb2tlOiMxODE4MTg7c3Ryb2tlLXdpZHRoOjAuNTtzdHJva2UtZGFzaGFycmF5OjUuMCw1LjA7IiB4MT0iMjIiIHgyPSIyMiIgeTE9Ijc5Ljk4NDQiIHkyPSIzMjMuMjk2OSIvPjxsaW5lIHN0eWxlPSJzdHJva2U6IzE4MTgxODtzdHJva2Utd2lkdGg6MC41O3N0cm9rZS1kYXNoYXJyYXk6NS4wLDUuMDsiIHgxPSIyNDAiIHgyPSIyNDAiIHkxPSI3OS45ODQ0IiB5Mj0iMzIzLjI5NjkiLz48bGluZSBzdHlsZT0ic3Ryb2tlOiMxODE4MTg7c3Ryb2tlLXdpZHRoOjAuNTtzdHJva2UtZGFzaGFycmF5OjUuMCw1LjA7IiB4MT0iNDU2IiB4Mj0iNDU2IiB5MT0iNzkuOTg0NCIgeTI9IjMyMy4yOTY5Ii8+PGxpbmUgc3R5bGU9InN0cm9rZTojMTgxODE4O3N0cm9rZS13aWR0aDowLjU7c3Ryb2tlLWRhc2hhcnJheTo1LjAsNS4wOyIgeDE9IjY5NSIgeDI9IjY5NSIgeTE9Ijc5Ljk4NDQiIHkyPSIzMjMuMjk2OSIvPjxsaW5lIHN0eWxlPSJzdHJva2U6IzE4MTgxODtzdHJva2Utd2lkdGg6MC41O3N0cm9rZS1kYXNoYXJyYXk6NS4wLDUuMDsiIHgxPSI4MjEiIHgyPSI4MjEiIHkxPSI3OS45ODQ0IiB5Mj0iMzIzLjI5NjkiLz48dGV4dCBmaWxsPSIjMDAwMDAwIiBmb250LWZhbWlseT0ic2Fucy1zZXJpZiIgZm9udC1zaXplPSIxNCIgbGVuZ3RoQWRqdXN0PSJzcGFjaW5nIiB0ZXh0TGVuZ3RoPSIyOCIgeD0iNSIgeT0iNzguMjM0NCI+JiMyOTk5MjsmIzI1MTQzOzwvdGV4dD48ZWxsaXBzZSBjeD0iMjIiIGN5PSIxMy41IiBmaWxsPSIjRTJFMkYwIiByeD0iOCIgcnk9IjgiIHN0eWxlPSJzdHJva2U6IzE4MTgxODtzdHJva2Utd2lkdGg6MC41OyIvPjxwYXRoIGQ9Ik0yMiwyMS41IEwyMiw0OC41IE05LDI5LjUgTDM1LDI5LjUgTTIyLDQ4LjUgTDksNjMuNSBNMjIsNDguNSBMMzUsNjMuNSAiIGZpbGw9Im5vbmUiIHN0eWxlPSJzdHJva2U6IzE4MTgxODtzdHJva2Utd2lkdGg6MC41OyIvPjx0ZXh0IGZpbGw9IiMwMDAwMDAiIGZvbnQtZmFtaWx5PSJzYW5zLXNlcmlmIiBmb250LXNpemU9IjE0IiBsZW5ndGhBZGp1c3Q9InNwYWNpbmciIHRleHRMZW5ndGg9IjI4IiB4PSI1IiB5PSIzMzUuNTMxMyI+JiMyOTk5MjsmIzI1MTQzOzwvdGV4dD48ZWxsaXBzZSBjeD0iMjIiIGN5PSIzNDUuNzgxMyIgZmlsbD0iI0UyRTJGMCIgcng9IjgiIHJ5PSI4IiBzdHlsZT0ic3Ryb2tlOiMxODE4MTg7c3Ryb2tlLXdpZHRoOjAuNTsiLz48cGF0aCBkPSJNMjIsMzUzLjc4MTMgTDIyLDM4MC43ODEzIE05LDM2MS43ODEzIEwzNSwzNjEuNzgxMyBNMjIsMzgwLjc4MTMgTDksMzk1Ljc4MTMgTTIyLDM4MC43ODEzIEwzNSwzOTUuNzgxMyAiIGZpbGw9Im5vbmUiIHN0eWxlPSJzdHJva2U6IzE4MTgxODtzdHJva2Utd2lkdGg6MC41OyIvPjxyZWN0IGZpbGw9IiNFMkUyRjAiIGhlaWdodD0iMjguOTg0NCIgcng9IjIuNSIgcnk9IjIuNSIgc3R5bGU9InN0cm9rZTojMTgxODE4O3N0cm9rZS13aWR0aDowLjU7IiB3aWR0aD0iNzAiIHg9IjIwNSIgeT0iNTAiLz48dGV4dCBmaWxsPSIjMDAwMDAwIiBmb250LWZhbWlseT0ic2Fucy1zZXJpZiIgZm9udC1zaXplPSIxNCIgbGVuZ3RoQWRqdXN0PSJzcGFjaW5nIiB0ZXh0TGVuZ3RoPSI1NiIgeD0iMjEyIiB5PSI3MC4yMzQ0Ij4mIzIxMDY5OyYjMzE0NzE7JiMzOTAyOTsmIzM4NzU0OzwvdGV4dD48cmVjdCBmaWxsPSIjRTJFMkYwIiBoZWlnaHQ9IjI4Ljk4NDQiIHJ4PSIyLjUiIHJ5PSIyLjUiIHN0eWxlPSJzdHJva2U6IzE4MTgxODtzdHJva2Utd2lkdGg6MC41OyIgd2lkdGg9IjcwIiB4PSIyMDUiIHk9IjMyMi4yOTY5Ii8+PHRleHQgZmlsbD0iIzAwMDAwMCIgZm9udC1mYW1pbHk9InNhbnMtc2VyaWYiIGZvbnQtc2l6ZT0iMTQiIGxlbmd0aEFkanVzdD0ic3BhY2luZyIgdGV4dExlbmd0aD0iNTYiIHg9IjIxMiIgeT0iMzQyLjUzMTMiPiYjMjEwNjk7JiMzMTQ3MTsmIzM5MDI5OyYjMzg3NTQ7PC90ZXh0PjxyZWN0IGZpbGw9IiNFMkUyRjAiIGhlaWdodD0iMjguOTg0NCIgcng9IjIuNSIgcnk9IjIuNSIgc3R5bGU9InN0cm9rZTojMTgxODE4O3N0cm9rZS13aWR0aDowLjU7IiB3aWR0aD0iMTEyIiB4PSI0MDAiIHk9IjUwIi8+PHRleHQgZmlsbD0iIzAwMDAwMCIgZm9udC1mYW1pbHk9InNhbnMtc2VyaWYiIGZvbnQtc2l6ZT0iMTQiIGxlbmd0aEFkanVzdD0ic3BhY2luZyIgdGV4dExlbmd0aD0iOTgiIHg9IjQwNyIgeT0iNzAuMjM0NCI+UG9zdENvbnRyb2xsZXI8L3RleHQ+PHJlY3QgZmlsbD0iI0UyRTJGMCIgaGVpZ2h0PSIyOC45ODQ0IiByeD0iMi41IiByeT0iMi41IiBzdHlsZT0ic3Ryb2tlOiMxODE4MTg7c3Ryb2tlLXdpZHRoOjAuNTsiIHdpZHRoPSIxMTIiIHg9IjQwMCIgeT0iMzIyLjI5NjkiLz48dGV4dCBmaWxsPSIjMDAwMDAwIiBmb250LWZhbWlseT0ic2Fucy1zZXJpZiIgZm9udC1zaXplPSIxNCIgbGVuZ3RoQWRqdXN0PSJzcGFjaW5nIiB0ZXh0TGVuZ3RoPSI5OCIgeD0iNDA3IiB5PSIzNDIuNTMxMyI+UG9zdENvbnRyb2xsZXI8L3RleHQ+PHJlY3QgZmlsbD0iI0UyRTJGMCIgaGVpZ2h0PSIyOC45ODQ0IiByeD0iMi41IiByeT0iMi41IiBzdHlsZT0ic3Ryb2tlOiMxODE4MTg7c3Ryb2tlLXdpZHRoOjAuNTsiIHdpZHRoPSIxMjAiIHg9IjYzNSIgeT0iNTAiLz48dGV4dCBmaWxsPSIjMDAwMDAwIiBmb250LWZhbWlseT0ic2Fucy1zZXJpZiIgZm9udC1zaXplPSIxNCIgbGVuZ3RoQWRqdXN0PSJzcGFjaW5nIiB0ZXh0TGVuZ3RoPSIxMDYiIHg9IjY0MiIgeT0iNzAuMjM0NCI+UG9zdFNlcnZpY2VJbXBsPC90ZXh0PjxyZWN0IGZpbGw9IiNFMkUyRjAiIGhlaWdodD0iMjguOTg0NCIgcng9IjIuNSIgcnk9IjIuNSIgc3R5bGU9InN0cm9rZTojMTgxODE4O3N0cm9rZS13aWR0aDowLjU7IiB3aWR0aD0iMTIwIiB4PSI2MzUiIHk9IjMyMi4yOTY5Ii8+PHRleHQgZmlsbD0iIzAwMDAwMCIgZm9udC1mYW1pbHk9InNhbnMtc2VyaWYiIGZvbnQtc2l6ZT0iMTQiIGxlbmd0aEFkanVzdD0ic3BhY2luZyIgdGV4dExlbmd0aD0iMTA2IiB4PSI2NDIiIHk9IjM0Mi41MzEzIj5Qb3N0U2VydmljZUltcGw8L3RleHQ+PHJlY3QgZmlsbD0iI0UyRTJGMCIgaGVpZ2h0PSIyOC45ODQ0IiByeD0iMi41IiByeT0iMi41IiBzdHlsZT0ic3Ryb2tlOiMxODE4MTg7c3Ryb2tlLXdpZHRoOjAuNTsiIHdpZHRoPSIxMTIiIHg9Ijc2NSIgeT0iNTAiLz48dGV4dCBmaWxsPSIjMDAwMDAwIiBmb250LWZhbWlseT0ic2Fucy1zZXJpZiIgZm9udC1zaXplPSIxNCIgbGVuZ3RoQWRqdXN0PSJzcGFjaW5nIiB0ZXh0TGVuZ3RoPSI5OCIgeD0iNzcyIiB5PSI3MC4yMzQ0Ij5Qb3N0UmVwb3NpdG9yeTwvdGV4dD48cmVjdCBmaWxsPSIjRTJFMkYwIiBoZWlnaHQ9IjI4Ljk4NDQiIHJ4PSIyLjUiIHJ5PSIyLjUiIHN0eWxlPSJzdHJva2U6IzE4MTgxODtzdHJva2Utd2lkdGg6MC41OyIgd2lkdGg9IjExMiIgeD0iNzY1IiB5PSIzMjIuMjk2OSIvPjx0ZXh0IGZpbGw9IiMwMDAwMDAiIGZvbnQtZmFtaWx5PSJzYW5zLXNlcmlmIiBmb250LXNpemU9IjE0IiBsZW5ndGhBZGp1c3Q9InNwYWNpbmciIHRleHRMZW5ndGg9Ijk4IiB4PSI3NzIiIHk9IjM0Mi41MzEzIj5Qb3N0UmVwb3NpdG9yeTwvdGV4dD48cmVjdCBmaWxsPSIjRkZGRkZGIiBoZWlnaHQ9IjE5NS4zOTg0IiBzdHlsZT0ic3Ryb2tlOiMxODE4MTg7c3Ryb2tlLXdpZHRoOjEuMDsiIHdpZHRoPSIxMCIgeD0iMjM1IiB5PSIxMDkuODk4NCIvPjxyZWN0IGZpbGw9IiNGRkZGRkYiIGhlaWdodD0iMTM5LjU3MDMiIHN0eWxlPSJzdHJva2U6IzE4MTgxODtzdHJva2Utd2lkdGg6MS4wOyIgd2lkdGg9IjEwIiB4PSI0NTEiIHk9IjEzNy44MTI1Ii8+PHJlY3QgZmlsbD0iI0ZGRkZGRiIgaGVpZ2h0PSI4My43NDIyIiBzdHlsZT0ic3Ryb2tlOiMxODE4MTg7c3Ryb2tlLXdpZHRoOjEuMDsiIHdpZHRoPSIxMCIgeD0iNjkwIiB5PSIxNjUuNzI2NiIvPjxyZWN0IGZpbGw9IiNGRkZGRkYiIGhlaWdodD0iMjcuOTE0MSIgc3R5bGU9InN0cm9rZTojMTgxODE4O3N0cm9rZS13aWR0aDoxLjA7IiB3aWR0aD0iMTAiIHg9IjgxNiIgeT0iMTkzLjY0MDYiLz48cG9seWdvbiBmaWxsPSIjMTgxODE4IiBwb2ludHM9IjIyMywxMDUuODk4NCwyMzMsMTA5Ljg5ODQsMjIzLDExMy44OTg0LDIyNywxMDkuODk4NCIgc3R5bGU9InN0cm9rZTojMTgxODE4O3N0cm9rZS13aWR0aDoxLjA7Ii8+PGxpbmUgc3R5bGU9InN0cm9rZTojMTgxODE4O3N0cm9rZS13aWR0aDoxLjA7IiB4MT0iMjIiIHgyPSIyMjkiIHkxPSIxMDkuODk4NCIgeTI9IjEwOS44OTg0Ii8+PHRleHQgZmlsbD0iIzAwMDAwMCIgZm9udC1mYW1pbHk9InNhbnMtc2VyaWYiIGZvbnQtc2l6ZT0iMTMiIGZvbnQtd2VpZ2h0PSJib2xkIiBsZW5ndGhBZGp1c3Q9InNwYWNpbmciIHRleHRMZW5ndGg9IjciIHg9IjI5IiB5PSIxMDYuMjczNCI+MTwvdGV4dD48dGV4dCBmaWxsPSIjMDAwMDAwIiBmb250LWZhbWlseT0ic2Fucy1zZXJpZiIgZm9udC1zaXplPSIxMyIgbGVuZ3RoQWRqdXN0PSJzcGFjaW5nIiB0ZXh0TGVuZ3RoPSIxODMiIHg9IjQwIiB5PSIxMDYuMjczNCI+JiMyMjYzNTsmIzIwODg5OyYjMjQwODY7JiMyMzM3NjsmIzIwODY5OyYjMjM0ODE7JiMyNDE4MjsmIzI4ODU3OyYjMjA5ODc7JiM4MjIwOyYjMjE0NTc7JiMyNDA2NzsmIzgyMjE7JiMyNTM1MzsmIzM4MDYyOzwvdGV4dD48cG9seWdvbiBmaWxsPSIjMTgxODE4IiBwb2ludHM9IjQzOSwxMzMuODEyNSw0NDksMTM3LjgxMjUsNDM5LDE0MS44MTI1LDQ0MywxMzcuODEyNSIgc3R5bGU9InN0cm9rZTojMTgxODE4O3N0cm9rZS13aWR0aDoxLjA7Ii8+PGxpbmUgc3R5bGU9InN0cm9rZTojMTgxODE4O3N0cm9rZS13aWR0aDoxLjA7IiB4MT0iMjQ1IiB4Mj0iNDQ1IiB5MT0iMTM3LjgxMjUiIHkyPSIxMzcuODEyNSIvPjx0ZXh0IGZpbGw9IiMwMDAwMDAiIGZvbnQtZmFtaWx5PSJzYW5zLXNlcmlmIiBmb250LXNpemU9IjEzIiBmb250LXdlaWdodD0iYm9sZCIgbGVuZ3RoQWRqdXN0PSJzcGFjaW5nIiB0ZXh0TGVuZ3RoPSI3IiB4PSIyNTIiIHk9IjEzNC4xODc1Ij4yPC90ZXh0Pjx0ZXh0IGZpbGw9IiMwMDAwMDAiIGZvbnQtZmFtaWx5PSJzYW5zLXNlcmlmIiBmb250LXNpemU9IjEzIiBsZW5ndGhBZGp1c3Q9InNwYWNpbmciIHRleHRMZW5ndGg9IjE3NiIgeD0iMjYzIiB5PSIxMzQuMTg3NSI+JiMyMTQ1NzsmIzM2ODY1OyYjMjE0NTc7JiMyNDA2NzsmIzI0MDg2OyYjMjMzNzY7JiMzNTgzMTsmIzI3NzE0OyAocG9zdEluZm8pPC90ZXh0Pjxwb2x5Z29uIGZpbGw9IiMxODE4MTgiIHBvaW50cz0iNjc4LDE2MS43MjY2LDY4OCwxNjUuNzI2Niw2NzgsMTY5LjcyNjYsNjgyLDE2NS43MjY2IiBzdHlsZT0ic3Ryb2tlOiMxODE4MTg7c3Ryb2tlLXdpZHRoOjEuMDsiLz48bGluZSBzdHlsZT0ic3Ryb2tlOiMxODE4MTg7c3Ryb2tlLXdpZHRoOjEuMDsiIHgxPSI0NjEiIHgyPSI2ODQiIHkxPSIxNjUuNzI2NiIgeTI9IjE2NS43MjY2Ii8+PHRleHQgZmlsbD0iIzAwMDAwMCIgZm9udC1mYW1pbHk9InNhbnMtc2VyaWYiIGZvbnQtc2l6ZT0iMTMiIGZvbnQtd2VpZ2h0PSJib2xkIiBsZW5ndGhBZGp1c3Q9InNwYWNpbmciIHRleHRMZW5ndGg9IjciIHg9IjQ2OCIgeT0iMTYyLjEwMTYiPjM8L3RleHQ+PHRleHQgZmlsbD0iIzAwMDAwMCIgZm9udC1mYW1pbHk9InNhbnMtc2VyaWYiIGZvbnQtc2l6ZT0iMTMiIGxlbmd0aEFkanVzdD0ic3BhY2luZyIgdGV4dExlbmd0aD0iMTk5IiB4PSI0NzkiIHk9IjE2Mi4xMDE2Ij4mIzM1ODQzOyYjMjk5OTI7IGNyZWF0ZVBvc3QocG9zdEluZm8pICYjMjYwNDE7JiMyNzg2MTs8L3RleHQ+PHBvbHlnb24gZmlsbD0iIzE4MTgxOCIgcG9pbnRzPSI4MDQsMTg5LjY0MDYsODE0LDE5My42NDA2LDgwNCwxOTcuNjQwNiw4MDgsMTkzLjY0MDYiIHN0eWxlPSJzdHJva2U6IzE4MTgxODtzdHJva2Utd2lkdGg6MS4wOyIvPjxsaW5lIHN0eWxlPSJzdHJva2U6IzE4MTgxODtzdHJva2Utd2lkdGg6MS4wOyIgeDE9IjcwMCIgeDI9IjgxMCIgeTE9IjE5My42NDA2IiB5Mj0iMTkzLjY0MDYiLz48dGV4dCBmaWxsPSIjMDAwMDAwIiBmb250LWZhbWlseT0ic2Fucy1zZXJpZiIgZm9udC1zaXplPSIxMyIgZm9udC13ZWlnaHQ9ImJvbGQiIGxlbmd0aEFkanVzdD0ic3BhY2luZyIgdGV4dExlbmd0aD0iNyIgeD0iNzA3IiB5PSIxOTAuMDE1NiI+NDwvdGV4dD48dGV4dCBmaWxsPSIjMDAwMDAwIiBmb250LWZhbWlseT0ic2Fucy1zZXJpZiIgZm9udC1zaXplPSIxMyIgbGVuZ3RoQWRqdXN0PSJzcGFjaW5nIiB0ZXh0TGVuZ3RoPSI3OCIgeD0iNzE4IiB5PSIxOTAuMDE1NiI+JiMyMDQ0NTsmIzIzMzg0OyYjMjQwODY7JiMyMzM3NjsmIzIwNDQ5OyYjMjQ2ODc7PC90ZXh0Pjxwb2x5Z29uIGZpbGw9IiMxODE4MTgiIHBvaW50cz0iNzExLDIxNy41NTQ3LDcwMSwyMjEuNTU0Nyw3MTEsMjI1LjU1NDcsNzA3LDIyMS41NTQ3IiBzdHlsZT0ic3Ryb2tlOiMxODE4MTg7c3Ryb2tlLXdpZHRoOjEuMDsiLz48bGluZSBzdHlsZT0ic3Ryb2tlOiMxODE4MTg7c3Ryb2tlLXdpZHRoOjEuMDtzdHJva2UtZGFzaGFycmF5OjIuMCwyLjA7IiB4MT0iNzA1IiB4Mj0iODIwIiB5MT0iMjIxLjU1NDciIHkyPSIyMjEuNTU0NyIvPjx0ZXh0IGZpbGw9IiMwMDAwMDAiIGZvbnQtZmFtaWx5PSJzYW5zLXNlcmlmIiBmb250LXNpemU9IjEzIiBmb250LXdlaWdodD0iYm9sZCIgbGVuZ3RoQWRqdXN0PSJzcGFjaW5nIiB0ZXh0TGVuZ3RoPSI3IiB4PSI3MTciIHk9IjIxNy45Mjk3Ij41PC90ZXh0Pjx0ZXh0IGZpbGw9IiMwMDAwMDAiIGZvbnQtZmFtaWx5PSJzYW5zLXNlcmlmIiBmb250LXNpemU9IjEzIiBsZW5ndGhBZGp1c3Q9InNwYWNpbmciIHRleHRMZW5ndGg9Ijc4IiB4PSI3MjgiIHk9IjIxNy45Mjk3Ij4mIzM2ODIwOyYjMjIyMzg7JiMyMDQ0NTsmIzIzMzg0OyYjMzI0Njc7JiMyNjUyNDs8L3RleHQ+PHBvbHlnb24gZmlsbD0iIzE4MTgxOCIgcG9pbnRzPSI0NzIsMjQ1LjQ2ODgsNDYyLDI0OS40Njg4LDQ3MiwyNTMuNDY4OCw0NjgsMjQ5LjQ2ODgiIHN0eWxlPSJzdHJva2U6IzE4MTgxODtzdHJva2Utd2lkdGg6MS4wOyIvPjxsaW5lIHN0eWxlPSJzdHJva2U6IzE4MTgxODtzdHJva2Utd2lkdGg6MS4wO3N0cm9rZS1kYXNoYXJyYXk6Mi4wLDIuMDsiIHgxPSI0NjYiIHgyPSI2OTQiIHkxPSIyNDkuNDY4OCIgeTI9IjI0OS40Njg4Ii8+PHRleHQgZmlsbD0iIzAwMDAwMCIgZm9udC1mYW1pbHk9InNhbnMtc2VyaWYiIGZvbnQtc2l6ZT0iMTMiIGZvbnQtd2VpZ2h0PSJib2xkIiBsZW5ndGhBZGp1c3Q9InNwYWNpbmciIHRleHRMZW5ndGg9IjciIHg9IjQ3OCIgeT0iMjQ1Ljg0MzgiPjY8L3RleHQ+PHRleHQgZmlsbD0iIzAwMDAwMCIgZm9udC1mYW1pbHk9InNhbnMtc2VyaWYiIGZvbnQtc2l6ZT0iMTMiIGxlbmd0aEFkanVzdD0ic3BhY2luZyIgdGV4dExlbmd0aD0iNzgiIHg9IjQ4OSIgeT0iMjQ1Ljg0MzgiPiYjMzY4MjA7JiMyMjIzODsmIzI1ODA1OyYjMjAzMTY7JiMzMjQ2NzsmIzI2NTI0OzwvdGV4dD48cG9seWdvbiBmaWxsPSIjMTgxODE4IiBwb2ludHM9IjI1NiwyNzMuMzgyOCwyNDYsMjc3LjM4MjgsMjU2LDI4MS4zODI4LDI1MiwyNzcuMzgyOCIgc3R5bGU9InN0cm9rZTojMTgxODE4O3N0cm9rZS13aWR0aDoxLjA7Ii8+PGxpbmUgc3R5bGU9InN0cm9rZTojMTgxODE4O3N0cm9rZS13aWR0aDoxLjA7c3Ryb2tlLWRhc2hhcnJheToyLjAsMi4wOyIgeDE9IjI1MCIgeDI9IjQ1NSIgeTE9IjI3Ny4zODI4IiB5Mj0iMjc3LjM4MjgiLz48dGV4dCBmaWxsPSIjMDAwMDAwIiBmb250LWZhbWlseT0ic2Fucy1zZXJpZiIgZm9udC1zaXplPSIxMyIgZm9udC13ZWlnaHQ9ImJvbGQiIGxlbmd0aEFkanVzdD0ic3BhY2luZyIgdGV4dExlbmd0aD0iNyIgeD0iMjYyIiB5PSIyNzMuNzU3OCI+NzwvdGV4dD48dGV4dCBmaWxsPSIjMDAwMDAwIiBmb250LWZhbWlseT0ic2Fucy1zZXJpZiIgZm9udC1zaXplPSIxMyIgbGVuZ3RoQWRqdXN0PSJzcGFjaW5nIiB0ZXh0TGVuZ3RoPSI3OCIgeD0iMjczIiB5PSIyNzMuNzU3OCI+JiMzNjgyMDsmIzIyMjM4OyYjMjU4MDU7JiMyMDMxNjsmIzMyNDY3OyYjMjY1MjQ7PC90ZXh0Pjxwb2x5Z29uIGZpbGw9IiMxODE4MTgiIHBvaW50cz0iMzMsMzAxLjI5NjksMjMsMzA1LjI5NjksMzMsMzA5LjI5NjksMjksMzA1LjI5NjkiIHN0eWxlPSJzdHJva2U6IzE4MTgxODtzdHJva2Utd2lkdGg6MS4wOyIvPjxsaW5lIHN0eWxlPSJzdHJva2U6IzE4MTgxODtzdHJva2Utd2lkdGg6MS4wO3N0cm9rZS1kYXNoYXJyYXk6Mi4wLDIuMDsiIHgxPSIyNyIgeDI9IjIzOSIgeTE9IjMwNS4yOTY5IiB5Mj0iMzA1LjI5NjkiLz48dGV4dCBmaWxsPSIjMDAwMDAwIiBmb250LWZhbWlseT0ic2Fucy1zZXJpZiIgZm9udC1zaXplPSIxMyIgZm9udC13ZWlnaHQ9ImJvbGQiIGxlbmd0aEFkanVzdD0ic3BhY2luZyIgdGV4dExlbmd0aD0iNyIgeD0iMzkiIHk9IjMwMS42NzE5Ij44PC90ZXh0Pjx0ZXh0IGZpbGw9IiMwMDAwMDAiIGZvbnQtZmFtaWx5PSJzYW5zLXNlcmlmIiBmb250LXNpemU9IjEzIiBsZW5ndGhBZGp1c3Q9InNwYWNpbmciIHRleHRMZW5ndGg9Ijc4IiB4PSI1MCIgeT0iMzAxLjY3MTkiPiYjMjYxNzQ7JiMzMTAzNDsmIzI1ODA1OyYjMjAzMTY7JiMzMjQ2NzsmIzI2NTI0OzwvdGV4dD48IS0tU1JDPVtYUEJGSmk5MDRDUmxWT2V2d2U0TndDNkI5c3Y2ZHczTURNYklrYXJQSUJwbjl3OGE0YUlHTzBHSVowU0owY1lDR1lOQWt2M2tiaHc1c3NtOGt1TmVTSkFQdF9WRERzRmEyN1BvY0xGYVFQZlg0a24xczdmWHJyRkRESm5ZY1BQaEUwSGVqSE9FOXo3VzgtZXpBT3FaZDJNN3MyNFVqY3JFSUJQRWE5VXRKOUpFa0ZQTXhuWXZFNmpubUdqRDR2QUdFYjJLVEEyMzhRcXlxNWNSWmN2ZnZQQUVWVWZfWFlNVk5pc05YSXdqRC1ZaWwycHFzNHFya1hqM3hEX0E2bUlmVmtLWWJiMHpTdjV3OG9lSzFLbjhoSVBKemJRMkZNd0dmOXJwbEJ5WDluUE1vcExUTWJrN3JNa1BobVVjWF9YeXREcldXUkx6emR3bHFrTkM0bE1RbHViRVhzM0hld0VFeTFxaTFnbXVLTjVJcDZlOWdQcms1b3R3czFWR1NEdmFfUXZzWGx1MkFsUHNmMmswaDVhQmxoa3hXU2M1dkpvdEZrOV9kN0dUelZBUzlWdkMxelJ2MlAtX1AwaDg2N2RrNW0wMF0tLT48L2c+PC9zdmc+;" parent="1" vertex="1"><mxGeometry x="-118" y="2730" width="883" height="402" as="geometry"/></mxCell></UserObject><UserObject label="" plantUmlData="{&#10;  &quot;data&quot;: &quot;@startuml\nautonumber\n\nactor 用户\nparticipant 前端页面\nparticipant AdoptionController\nparticipant AdoptionServiceImpl\nparticipant AdoptionRepository\n\n用户 -&gt; 前端页面: 点击“我的领养申请”\nactivate 前端页面\n前端页面 -&gt; AdoptionController: 发送获取领养申请状态请求 (userId)\nactivate AdoptionController\nAdoptionController -&gt; AdoptionServiceImpl: 调用 getAdoptionApplications(userId) 方法\nactivate AdoptionServiceImpl\nAdoptionServiceImpl -&gt; AdoptionRepository: 查询用户的领养申请\nactivate AdoptionRepository\nAdoptionRepository --&gt; AdoptionServiceImpl: 返回领养申请列表\ndeactivate AdoptionRepository\nAdoptionServiceImpl --&gt; AdoptionController: 返回领养申请列表\ndeactivate AdoptionServiceImpl\nAdoptionController --&gt; 前端页面: 返回领养申请列表\ndeactivate AdoptionController\n前端页面 --&gt; 用户: 显示领养申请列表及状态\ndeactivate 前端页面\n@enduml&quot;,&#10;  &quot;format&quot;: &quot;svg&quot;&#10;}" id="AG9e61MuKz-lgSlKQN2f-7"><mxCell style="shape=image;noLabel=1;verticalAlign=top;aspect=fixed;imageAspect=0;image=data:image/svg+xml,PD94bWwgdmVyc2lvbj0iMS4wIiBlbmNvZGluZz0idXMtYXNjaWkiIHN0YW5kYWxvbmU9Im5vIj8+PHN2ZyB4bWxucz0iaHR0cDovL3d3dy53My5vcmcvMjAwMC9zdmciIHhtbG5zOnhsaW5rPSJodHRwOi8vd3d3LnczLm9yZy8xOTk5L3hsaW5rIiBjb250ZW50U3R5bGVUeXBlPSJ0ZXh0L2NzcyIgaGVpZ2h0PSI0MDJweCIgcHJlc2VydmVBc3BlY3RSYXRpbz0ibm9uZSIgc3R5bGU9IndpZHRoOjEwMDdweDtoZWlnaHQ6NDAycHg7YmFja2dyb3VuZDojRkZGRkZGOyIgdmVyc2lvbj0iMS4xIiB2aWV3Qm94PSIwIDAgMTAwNyA0MDIiIHdpZHRoPSIxMDA3cHgiIHpvb21BbmRQYW49Im1hZ25pZnkiPjxkZWZzLz48Zz48cmVjdCBmaWxsPSIjRkZGRkZGIiBoZWlnaHQ9IjE5NS4zOTg0IiBzdHlsZT0ic3Ryb2tlOiMxODE4MTg7c3Ryb2tlLXdpZHRoOjEuMDsiIHdpZHRoPSIxMCIgeD0iMjAwIiB5PSIxMDkuODk4NCIvPjxyZWN0IGZpbGw9IiNGRkZGRkYiIGhlaWdodD0iMTM5LjU3MDMiIHN0eWxlPSJzdHJva2U6IzE4MTgxODtzdHJva2Utd2lkdGg6MS4wOyIgd2lkdGg9IjEwIiB4PSI0NTYiIHk9IjEzNy44MTI1Ii8+PHJlY3QgZmlsbD0iI0ZGRkZGRiIgaGVpZ2h0PSI4My43NDIyIiBzdHlsZT0ic3Ryb2tlOiMxODE4MTg7c3Ryb2tlLXdpZHRoOjEuMDsiIHdpZHRoPSIxMCIgeD0iNzY5IiB5PSIxNjUuNzI2NiIvPjxyZWN0IGZpbGw9IiNGRkZGRkYiIGhlaWdodD0iMjcuOTE0MSIgc3R5bGU9InN0cm9rZTojMTgxODE4O3N0cm9rZS13aWR0aDoxLjA7IiB3aWR0aD0iMTAiIHg9IjkyNiIgeT0iMTkzLjY0MDYiLz48bGluZSBzdHlsZT0ic3Ryb2tlOiMxODE4MTg7c3Ryb2tlLXdpZHRoOjAuNTtzdHJva2UtZGFzaGFycmF5OjUuMCw1LjA7IiB4MT0iMjIiIHgyPSIyMiIgeTE9Ijc5Ljk4NDQiIHkyPSIzMjMuMjk2OSIvPjxsaW5lIHN0eWxlPSJzdHJva2U6IzE4MTgxODtzdHJva2Utd2lkdGg6MC41O3N0cm9rZS1kYXNoYXJyYXk6NS4wLDUuMDsiIHgxPSIyMDUiIHgyPSIyMDUiIHkxPSI3OS45ODQ0IiB5Mj0iMzIzLjI5NjkiLz48bGluZSBzdHlsZT0ic3Ryb2tlOiMxODE4MTg7c3Ryb2tlLXdpZHRoOjAuNTtzdHJva2UtZGFzaGFycmF5OjUuMCw1LjA7IiB4MT0iNDYxIiB4Mj0iNDYxIiB5MT0iNzkuOTg0NCIgeTI9IjMyMy4yOTY5Ii8+PGxpbmUgc3R5bGU9InN0cm9rZTojMTgxODE4O3N0cm9rZS13aWR0aDowLjU7c3Ryb2tlLWRhc2hhcnJheTo1LjAsNS4wOyIgeDE9Ijc3NCIgeDI9Ijc3NCIgeTE9Ijc5Ljk4NDQiIHkyPSIzMjMuMjk2OSIvPjxsaW5lIHN0eWxlPSJzdHJva2U6IzE4MTgxODtzdHJva2Utd2lkdGg6MC41O3N0cm9rZS1kYXNoYXJyYXk6NS4wLDUuMDsiIHgxPSI5MzEiIHgyPSI5MzEiIHkxPSI3OS45ODQ0IiB5Mj0iMzIzLjI5NjkiLz48dGV4dCBmaWxsPSIjMDAwMDAwIiBmb250LWZhbWlseT0ic2Fucy1zZXJpZiIgZm9udC1zaXplPSIxNCIgbGVuZ3RoQWRqdXN0PSJzcGFjaW5nIiB0ZXh0TGVuZ3RoPSIyOCIgeD0iNSIgeT0iNzguMjM0NCI+JiMyOTk5MjsmIzI1MTQzOzwvdGV4dD48ZWxsaXBzZSBjeD0iMjIiIGN5PSIxMy41IiBmaWxsPSIjRTJFMkYwIiByeD0iOCIgcnk9IjgiIHN0eWxlPSJzdHJva2U6IzE4MTgxODtzdHJva2Utd2lkdGg6MC41OyIvPjxwYXRoIGQ9Ik0yMiwyMS41IEwyMiw0OC41IE05LDI5LjUgTDM1LDI5LjUgTTIyLDQ4LjUgTDksNjMuNSBNMjIsNDguNSBMMzUsNjMuNSAiIGZpbGw9Im5vbmUiIHN0eWxlPSJzdHJva2U6IzE4MTgxODtzdHJva2Utd2lkdGg6MC41OyIvPjx0ZXh0IGZpbGw9IiMwMDAwMDAiIGZvbnQtZmFtaWx5PSJzYW5zLXNlcmlmIiBmb250LXNpemU9IjE0IiBsZW5ndGhBZGp1c3Q9InNwYWNpbmciIHRleHRMZW5ndGg9IjI4IiB4PSI1IiB5PSIzMzUuNTMxMyI+JiMyOTk5MjsmIzI1MTQzOzwvdGV4dD48ZWxsaXBzZSBjeD0iMjIiIGN5PSIzNDUuNzgxMyIgZmlsbD0iI0UyRTJGMCIgcng9IjgiIHJ5PSI4IiBzdHlsZT0ic3Ryb2tlOiMxODE4MTg7c3Ryb2tlLXdpZHRoOjAuNTsiLz48cGF0aCBkPSJNMjIsMzUzLjc4MTMgTDIyLDM4MC43ODEzIE05LDM2MS43ODEzIEwzNSwzNjEuNzgxMyBNMjIsMzgwLjc4MTMgTDksMzk1Ljc4MTMgTTIyLDM4MC43ODEzIEwzNSwzOTUuNzgxMyAiIGZpbGw9Im5vbmUiIHN0eWxlPSJzdHJva2U6IzE4MTgxODtzdHJva2Utd2lkdGg6MC41OyIvPjxyZWN0IGZpbGw9IiNFMkUyRjAiIGhlaWdodD0iMjguOTg0NCIgcng9IjIuNSIgcnk9IjIuNSIgc3R5bGU9InN0cm9rZTojMTgxODE4O3N0cm9rZS13aWR0aDowLjU7IiB3aWR0aD0iNzAiIHg9IjE3MCIgeT0iNTAiLz48dGV4dCBmaWxsPSIjMDAwMDAwIiBmb250LWZhbWlseT0ic2Fucy1zZXJpZiIgZm9udC1zaXplPSIxNCIgbGVuZ3RoQWRqdXN0PSJzcGFjaW5nIiB0ZXh0TGVuZ3RoPSI1NiIgeD0iMTc3IiB5PSI3MC4yMzQ0Ij4mIzIxMDY5OyYjMzE0NzE7JiMzOTAyOTsmIzM4NzU0OzwvdGV4dD48cmVjdCBmaWxsPSIjRTJFMkYwIiBoZWlnaHQ9IjI4Ljk4NDQiIHJ4PSIyLjUiIHJ5PSIyLjUiIHN0eWxlPSJzdHJva2U6IzE4MTgxODtzdHJva2Utd2lkdGg6MC41OyIgd2lkdGg9IjcwIiB4PSIxNzAiIHk9IjMyMi4yOTY5Ii8+PHRleHQgZmlsbD0iIzAwMDAwMCIgZm9udC1mYW1pbHk9InNhbnMtc2VyaWYiIGZvbnQtc2l6ZT0iMTQiIGxlbmd0aEFkanVzdD0ic3BhY2luZyIgdGV4dExlbmd0aD0iNTYiIHg9IjE3NyIgeT0iMzQyLjUzMTMiPiYjMjEwNjk7JiMzMTQ3MTsmIzM5MDI5OyYjMzg3NTQ7PC90ZXh0PjxyZWN0IGZpbGw9IiNFMkUyRjAiIGhlaWdodD0iMjguOTg0NCIgcng9IjIuNSIgcnk9IjIuNSIgc3R5bGU9InN0cm9rZTojMTgxODE4O3N0cm9rZS13aWR0aDowLjU7IiB3aWR0aD0iMTQwIiB4PSIzOTEiIHk9IjUwIi8+PHRleHQgZmlsbD0iIzAwMDAwMCIgZm9udC1mYW1pbHk9InNhbnMtc2VyaWYiIGZvbnQtc2l6ZT0iMTQiIGxlbmd0aEFkanVzdD0ic3BhY2luZyIgdGV4dExlbmd0aD0iMTI2IiB4PSIzOTgiIHk9IjcwLjIzNDQiPkFkb3B0aW9uQ29udHJvbGxlcjwvdGV4dD48cmVjdCBmaWxsPSIjRTJFMkYwIiBoZWlnaHQ9IjI4Ljk4NDQiIHJ4PSIyLjUiIHJ5PSIyLjUiIHN0eWxlPSJzdHJva2U6IzE4MTgxODtzdHJva2Utd2lkdGg6MC41OyIgd2lkdGg9IjE0MCIgeD0iMzkxIiB5PSIzMjIuMjk2OSIvPjx0ZXh0IGZpbGw9IiMwMDAwMDAiIGZvbnQtZmFtaWx5PSJzYW5zLXNlcmlmIiBmb250LXNpemU9IjE0IiBsZW5ndGhBZGp1c3Q9InNwYWNpbmciIHRleHRMZW5ndGg9IjEyNiIgeD0iMzk4IiB5PSIzNDIuNTMxMyI+QWRvcHRpb25Db250cm9sbGVyPC90ZXh0PjxyZWN0IGZpbGw9IiNFMkUyRjAiIGhlaWdodD0iMjguOTg0NCIgcng9IjIuNSIgcnk9IjIuNSIgc3R5bGU9InN0cm9rZTojMTgxODE4O3N0cm9rZS13aWR0aDowLjU7IiB3aWR0aD0iMTQ4IiB4PSI3MDAiIHk9IjUwIi8+PHRleHQgZmlsbD0iIzAwMDAwMCIgZm9udC1mYW1pbHk9InNhbnMtc2VyaWYiIGZvbnQtc2l6ZT0iMTQiIGxlbmd0aEFkanVzdD0ic3BhY2luZyIgdGV4dExlbmd0aD0iMTM0IiB4PSI3MDciIHk9IjcwLjIzNDQiPkFkb3B0aW9uU2VydmljZUltcGw8L3RleHQ+PHJlY3QgZmlsbD0iI0UyRTJGMCIgaGVpZ2h0PSIyOC45ODQ0IiByeD0iMi41IiByeT0iMi41IiBzdHlsZT0ic3Ryb2tlOiMxODE4MTg7c3Ryb2tlLXdpZHRoOjAuNTsiIHdpZHRoPSIxNDgiIHg9IjcwMCIgeT0iMzIyLjI5NjkiLz48dGV4dCBmaWxsPSIjMDAwMDAwIiBmb250LWZhbWlseT0ic2Fucy1zZXJpZiIgZm9udC1zaXplPSIxNCIgbGVuZ3RoQWRqdXN0PSJzcGFjaW5nIiB0ZXh0TGVuZ3RoPSIxMzQiIHg9IjcwNyIgeT0iMzQyLjUzMTMiPkFkb3B0aW9uU2VydmljZUltcGw8L3RleHQ+PHJlY3QgZmlsbD0iI0UyRTJGMCIgaGVpZ2h0PSIyOC45ODQ0IiByeD0iMi41IiByeT0iMi41IiBzdHlsZT0ic3Ryb2tlOiMxODE4MTg7c3Ryb2tlLXdpZHRoOjAuNTsiIHdpZHRoPSIxNDAiIHg9Ijg2MSIgeT0iNTAiLz48dGV4dCBmaWxsPSIjMDAwMDAwIiBmb250LWZhbWlseT0ic2Fucy1zZXJpZiIgZm9udC1zaXplPSIxNCIgbGVuZ3RoQWRqdXN0PSJzcGFjaW5nIiB0ZXh0TGVuZ3RoPSIxMjYiIHg9Ijg2OCIgeT0iNzAuMjM0NCI+QWRvcHRpb25SZXBvc2l0b3J5PC90ZXh0PjxyZWN0IGZpbGw9IiNFMkUyRjAiIGhlaWdodD0iMjguOTg0NCIgcng9IjIuNSIgcnk9IjIuNSIgc3R5bGU9InN0cm9rZTojMTgxODE4O3N0cm9rZS13aWR0aDowLjU7IiB3aWR0aD0iMTQwIiB4PSI4NjEiIHk9IjMyMi4yOTY5Ii8+PHRleHQgZmlsbD0iIzAwMDAwMCIgZm9udC1mYW1pbHk9InNhbnMtc2VyaWYiIGZvbnQtc2l6ZT0iMTQiIGxlbmd0aEFkanVzdD0ic3BhY2luZyIgdGV4dExlbmd0aD0iMTI2IiB4PSI4NjgiIHk9IjM0Mi41MzEzIj5BZG9wdGlvblJlcG9zaXRvcnk8L3RleHQ+PHJlY3QgZmlsbD0iI0ZGRkZGRiIgaGVpZ2h0PSIxOTUuMzk4NCIgc3R5bGU9InN0cm9rZTojMTgxODE4O3N0cm9rZS13aWR0aDoxLjA7IiB3aWR0aD0iMTAiIHg9IjIwMCIgeT0iMTA5Ljg5ODQiLz48cmVjdCBmaWxsPSIjRkZGRkZGIiBoZWlnaHQ9IjEzOS41NzAzIiBzdHlsZT0ic3Ryb2tlOiMxODE4MTg7c3Ryb2tlLXdpZHRoOjEuMDsiIHdpZHRoPSIxMCIgeD0iNDU2IiB5PSIxMzcuODEyNSIvPjxyZWN0IGZpbGw9IiNGRkZGRkYiIGhlaWdodD0iODMuNzQyMiIgc3R5bGU9InN0cm9rZTojMTgxODE4O3N0cm9rZS13aWR0aDoxLjA7IiB3aWR0aD0iMTAiIHg9Ijc2OSIgeT0iMTY1LjcyNjYiLz48cmVjdCBmaWxsPSIjRkZGRkZGIiBoZWlnaHQ9IjI3LjkxNDEiIHN0eWxlPSJzdHJva2U6IzE4MTgxODtzdHJva2Utd2lkdGg6MS4wOyIgd2lkdGg9IjEwIiB4PSI5MjYiIHk9IjE5My42NDA2Ii8+PHBvbHlnb24gZmlsbD0iIzE4MTgxOCIgcG9pbnRzPSIxODgsMTA1Ljg5ODQsMTk4LDEwOS44OTg0LDE4OCwxMTMuODk4NCwxOTIsMTA5Ljg5ODQiIHN0eWxlPSJzdHJva2U6IzE4MTgxODtzdHJva2Utd2lkdGg6MS4wOyIvPjxsaW5lIHN0eWxlPSJzdHJva2U6IzE4MTgxODtzdHJva2Utd2lkdGg6MS4wOyIgeDE9IjIyIiB4Mj0iMTk0IiB5MT0iMTA5Ljg5ODQiIHkyPSIxMDkuODk4NCIvPjx0ZXh0IGZpbGw9IiMwMDAwMDAiIGZvbnQtZmFtaWx5PSJzYW5zLXNlcmlmIiBmb250LXNpemU9IjEzIiBmb250LXdlaWdodD0iYm9sZCIgbGVuZ3RoQWRqdXN0PSJzcGFjaW5nIiB0ZXh0TGVuZ3RoPSI3IiB4PSIyOSIgeT0iMTA2LjI3MzQiPjE8L3RleHQ+PHRleHQgZmlsbD0iIzAwMDAwMCIgZm9udC1mYW1pbHk9InNhbnMtc2VyaWYiIGZvbnQtc2l6ZT0iMTMiIGxlbmd0aEFkanVzdD0ic3BhY2luZyIgdGV4dExlbmd0aD0iMTE4IiB4PSI0MCIgeT0iMTA2LjI3MzQiPiYjMjg4NTc7JiMyMDk4NzsmIzgyMjA7JiMyNTEwNTsmIzMwMzQwOyYjMzkwNDY7JiMyMDg1OTsmIzMwMDAzOyYjMzU4MzE7JiM4MjIxOzwvdGV4dD48cG9seWdvbiBmaWxsPSIjMTgxODE4IiBwb2ludHM9IjQ0NCwxMzMuODEyNSw0NTQsMTM3LjgxMjUsNDQ0LDE0MS44MTI1LDQ0OCwxMzcuODEyNSIgc3R5bGU9InN0cm9rZTojMTgxODE4O3N0cm9rZS13aWR0aDoxLjA7Ii8+PGxpbmUgc3R5bGU9InN0cm9rZTojMTgxODE4O3N0cm9rZS13aWR0aDoxLjA7IiB4MT0iMjEwIiB4Mj0iNDUwIiB5MT0iMTM3LjgxMjUiIHkyPSIxMzcuODEyNSIvPjx0ZXh0IGZpbGw9IiMwMDAwMDAiIGZvbnQtZmFtaWx5PSJzYW5zLXNlcmlmIiBmb250LXNpemU9IjEzIiBmb250LXdlaWdodD0iYm9sZCIgbGVuZ3RoQWRqdXN0PSJzcGFjaW5nIiB0ZXh0TGVuZ3RoPSI3IiB4PSIyMTciIHk9IjEzNC4xODc1Ij4yPC90ZXh0Pjx0ZXh0IGZpbGw9IiMwMDAwMDAiIGZvbnQtZmFtaWx5PSJzYW5zLXNlcmlmIiBmb250LXNpemU9IjEzIiBsZW5ndGhBZGp1c3Q9InNwYWNpbmciIHRleHRMZW5ndGg9IjIxNiIgeD0iMjI4IiB5PSIxMzQuMTg3NSI+JiMyMTQ1NzsmIzM2ODY1OyYjMzM3MTk7JiMyMTQ2MjsmIzM5MDQ2OyYjMjA4NTk7JiMzMDAwMzsmIzM1ODMxOyYjMjkzNjY7JiMyNDU3NzsmIzM1ODMxOyYjMjc3MTQ7ICh1c2VySWQpPC90ZXh0Pjxwb2x5Z29uIGZpbGw9IiMxODE4MTgiIHBvaW50cz0iNzU3LDE2MS43MjY2LDc2NywxNjUuNzI2Niw3NTcsMTY5LjcyNjYsNzYxLDE2NS43MjY2IiBzdHlsZT0ic3Ryb2tlOiMxODE4MTg7c3Ryb2tlLXdpZHRoOjEuMDsiLz48bGluZSBzdHlsZT0ic3Ryb2tlOiMxODE4MTg7c3Ryb2tlLXdpZHRoOjEuMDsiIHgxPSI0NjYiIHgyPSI3NjMiIHkxPSIxNjUuNzI2NiIgeTI9IjE2NS43MjY2Ii8+PHRleHQgZmlsbD0iIzAwMDAwMCIgZm9udC1mYW1pbHk9InNhbnMtc2VyaWYiIGZvbnQtc2l6ZT0iMTMiIGZvbnQtd2VpZ2h0PSJib2xkIiBsZW5ndGhBZGp1c3Q9InNwYWNpbmciIHRleHRMZW5ndGg9IjciIHg9IjQ3MyIgeT0iMTYyLjEwMTYiPjM8L3RleHQ+PHRleHQgZmlsbD0iIzAwMDAwMCIgZm9udC1mYW1pbHk9InNhbnMtc2VyaWYiIGZvbnQtc2l6ZT0iMTMiIGxlbmd0aEFkanVzdD0ic3BhY2luZyIgdGV4dExlbmd0aD0iMjczIiB4PSI0ODQiIHk9IjE2Mi4xMDE2Ij4mIzM1ODQzOyYjMjk5OTI7IGdldEFkb3B0aW9uQXBwbGljYXRpb25zKHVzZXJJZCkgJiMyNjA0MTsmIzI3ODYxOzwvdGV4dD48cG9seWdvbiBmaWxsPSIjMTgxODE4IiBwb2ludHM9IjkxNCwxODkuNjQwNiw5MjQsMTkzLjY0MDYsOTE0LDE5Ny42NDA2LDkxOCwxOTMuNjQwNiIgc3R5bGU9InN0cm9rZTojMTgxODE4O3N0cm9rZS13aWR0aDoxLjA7Ii8+PGxpbmUgc3R5bGU9InN0cm9rZTojMTgxODE4O3N0cm9rZS13aWR0aDoxLjA7IiB4MT0iNzc5IiB4Mj0iOTIwIiB5MT0iMTkzLjY0MDYiIHkyPSIxOTMuNjQwNiIvPjx0ZXh0IGZpbGw9IiMwMDAwMDAiIGZvbnQtZmFtaWx5PSJzYW5zLXNlcmlmIiBmb250LXNpemU9IjEzIiBmb250LXdlaWdodD0iYm9sZCIgbGVuZ3RoQWRqdXN0PSJzcGFjaW5nIiB0ZXh0TGVuZ3RoPSI3IiB4PSI3ODYiIHk9IjE5MC4wMTU2Ij40PC90ZXh0Pjx0ZXh0IGZpbGw9IiMwMDAwMDAiIGZvbnQtZmFtaWx5PSJzYW5zLXNlcmlmIiBmb250LXNpemU9IjEzIiBsZW5ndGhBZGp1c3Q9InNwYWNpbmciIHRleHRMZW5ndGg9IjExNyIgeD0iNzk3IiB5PSIxOTAuMDE1NiI+JiMyNjU5NzsmIzM1ODEwOyYjMjk5OTI7JiMyNTE0MzsmIzMwMzQwOyYjMzkwNDY7JiMyMDg1OTsmIzMwMDAzOyYjMzU4MzE7PC90ZXh0Pjxwb2x5Z29uIGZpbGw9IiMxODE4MTgiIHBvaW50cz0iNzkwLDIxNy41NTQ3LDc4MCwyMjEuNTU0Nyw3OTAsMjI1LjU1NDcsNzg2LDIyMS41NTQ3IiBzdHlsZT0ic3Ryb2tlOiMxODE4MTg7c3Ryb2tlLXdpZHRoOjEuMDsiLz48bGluZSBzdHlsZT0ic3Ryb2tlOiMxODE4MTg7c3Ryb2tlLXdpZHRoOjEuMDtzdHJva2UtZGFzaGFycmF5OjIuMCwyLjA7IiB4MT0iNzg0IiB4Mj0iOTMwIiB5MT0iMjIxLjU1NDciIHkyPSIyMjEuNTU0NyIvPjx0ZXh0IGZpbGw9IiMwMDAwMDAiIGZvbnQtZmFtaWx5PSJzYW5zLXNlcmlmIiBmb250LXNpemU9IjEzIiBmb250LXdlaWdodD0iYm9sZCIgbGVuZ3RoQWRqdXN0PSJzcGFjaW5nIiB0ZXh0TGVuZ3RoPSI3IiB4PSI3OTYiIHk9IjIxNy45Mjk3Ij41PC90ZXh0Pjx0ZXh0IGZpbGw9IiMwMDAwMDAiIGZvbnQtZmFtaWx5PSJzYW5zLXNlcmlmIiBmb250LXNpemU9IjEzIiBsZW5ndGhBZGp1c3Q9InNwYWNpbmciIHRleHRMZW5ndGg9IjEwNCIgeD0iODA3IiB5PSIyMTcuOTI5NyI+JiMzNjgyMDsmIzIyMjM4OyYjMzkwNDY7JiMyMDg1OTsmIzMwMDAzOyYjMzU4MzE7JiMyMTAxNTsmIzM0OTIwOzwvdGV4dD48cG9seWdvbiBmaWxsPSIjMTgxODE4IiBwb2ludHM9IjQ3NywyNDUuNDY4OCw0NjcsMjQ5LjQ2ODgsNDc3LDI1My40Njg4LDQ3MywyNDkuNDY4OCIgc3R5bGU9InN0cm9rZTojMTgxODE4O3N0cm9rZS13aWR0aDoxLjA7Ii8+PGxpbmUgc3R5bGU9InN0cm9rZTojMTgxODE4O3N0cm9rZS13aWR0aDoxLjA7c3Ryb2tlLWRhc2hhcnJheToyLjAsMi4wOyIgeDE9IjQ3MSIgeDI9Ijc3MyIgeTE9IjI0OS40Njg4IiB5Mj0iMjQ5LjQ2ODgiLz48dGV4dCBmaWxsPSIjMDAwMDAwIiBmb250LWZhbWlseT0ic2Fucy1zZXJpZiIgZm9udC1zaXplPSIxMyIgZm9udC13ZWlnaHQ9ImJvbGQiIGxlbmd0aEFkanVzdD0ic3BhY2luZyIgdGV4dExlbmd0aD0iNyIgeD0iNDgzIiB5PSIyNDUuODQzOCI+NjwvdGV4dD48dGV4dCBmaWxsPSIjMDAwMDAwIiBmb250LWZhbWlseT0ic2Fucy1zZXJpZiIgZm9udC1zaXplPSIxMyIgbGVuZ3RoQWRqdXN0PSJzcGFjaW5nIiB0ZXh0TGVuZ3RoPSIxMDQiIHg9IjQ5NCIgeT0iMjQ1Ljg0MzgiPiYjMzY4MjA7JiMyMjIzODsmIzM5MDQ2OyYjMjA4NTk7JiMzMDAwMzsmIzM1ODMxOyYjMjEwMTU7JiMzNDkyMDs8L3RleHQ+PHBvbHlnb24gZmlsbD0iIzE4MTgxOCIgcG9pbnRzPSIyMjEsMjczLjM4MjgsMjExLDI3Ny4zODI4LDIyMSwyODEuMzgyOCwyMTcsMjc3LjM4MjgiIHN0eWxlPSJzdHJva2U6IzE4MTgxODtzdHJva2Utd2lkdGg6MS4wOyIvPjxsaW5lIHN0eWxlPSJzdHJva2U6IzE4MTgxODtzdHJva2Utd2lkdGg6MS4wO3N0cm9rZS1kYXNoYXJyYXk6Mi4wLDIuMDsiIHgxPSIyMTUiIHgyPSI0NjAiIHkxPSIyNzcuMzgyOCIgeTI9IjI3Ny4zODI4Ii8+PHRleHQgZmlsbD0iIzAwMDAwMCIgZm9udC1mYW1pbHk9InNhbnMtc2VyaWYiIGZvbnQtc2l6ZT0iMTMiIGZvbnQtd2VpZ2h0PSJib2xkIiBsZW5ndGhBZGp1c3Q9InNwYWNpbmciIHRleHRMZW5ndGg9IjciIHg9IjIyNyIgeT0iMjczLjc1NzgiPjc8L3RleHQ+PHRleHQgZmlsbD0iIzAwMDAwMCIgZm9udC1mYW1pbHk9InNhbnMtc2VyaWYiIGZvbnQtc2l6ZT0iMTMiIGxlbmd0aEFkanVzdD0ic3BhY2luZyIgdGV4dExlbmd0aD0iMTA0IiB4PSIyMzgiIHk9IjI3My43NTc4Ij4mIzM2ODIwOyYjMjIyMzg7JiMzOTA0NjsmIzIwODU5OyYjMzAwMDM7JiMzNTgzMTsmIzIxMDE1OyYjMzQ5MjA7PC90ZXh0Pjxwb2x5Z29uIGZpbGw9IiMxODE4MTgiIHBvaW50cz0iMzMsMzAxLjI5NjksMjMsMzA1LjI5NjksMzMsMzA5LjI5NjksMjksMzA1LjI5NjkiIHN0eWxlPSJzdHJva2U6IzE4MTgxODtzdHJva2Utd2lkdGg6MS4wOyIvPjxsaW5lIHN0eWxlPSJzdHJva2U6IzE4MTgxODtzdHJva2Utd2lkdGg6MS4wO3N0cm9rZS1kYXNoYXJyYXk6Mi4wLDIuMDsiIHgxPSIyNyIgeDI9IjIwNCIgeTE9IjMwNS4yOTY5IiB5Mj0iMzA1LjI5NjkiLz48dGV4dCBmaWxsPSIjMDAwMDAwIiBmb250LWZhbWlseT0ic2Fucy1zZXJpZiIgZm9udC1zaXplPSIxMyIgZm9udC13ZWlnaHQ9ImJvbGQiIGxlbmd0aEFkanVzdD0ic3BhY2luZyIgdGV4dExlbmd0aD0iNyIgeD0iMzkiIHk9IjMwMS42NzE5Ij44PC90ZXh0Pjx0ZXh0IGZpbGw9IiMwMDAwMDAiIGZvbnQtZmFtaWx5PSJzYW5zLXNlcmlmIiBmb250LXNpemU9IjEzIiBsZW5ndGhBZGp1c3Q9InNwYWNpbmciIHRleHRMZW5ndGg9IjE0MyIgeD0iNTAiIHk9IjMwMS42NzE5Ij4mIzI2MTc0OyYjMzEwMzQ7JiMzOTA0NjsmIzIwODU5OyYjMzAwMDM7JiMzNTgzMTsmIzIxMDE1OyYjMzQ5MjA7JiMyMTQ1MDsmIzI5MzY2OyYjMjQ1Nzc7PC90ZXh0PjwhLS1TUkM9W2JQQkRJaUQwNThOdFVPZlB3ZzhsYThMR043TWhKbjJKR0dSSXA5MUUya3ZZX1FpNUJPTE9IUXRJZTUxbWFLaEhLMGx3QmVNUElUeDJiNTB3U0xBbWt2Ynh1TnB0ZDdpRFpzQjdnbnowTHpDQ2FzOE5ZNjM0c3g1NjM5U1k0bjczZU8xVE5lY3RBMXItZjhFbXFBWFFjNTI0ZEx0aUsxVlJUZ1BJcmp3N1JYRVBpNU9kVGNiXzNuQlNHMWR5SUREb0ZBWmk1QVd3NEFxZmt2WkRfS1ZVeGVkeHFwR3lQc1NwNEtvSUE5eHhXeU5pZzZiR005bkxfWW1hck5icm1CZ3pyM3pFaGNGTXhTa2dlbEY5aXRlS3lfU01zRjhRcUFyUHNvakVZTk1yOTNFYjQ3SUdaNHlvZS0wR3FjTXhJZVlESjZGblIybmZXRlVkVjdBWkdrTDBJc2VvVGZNajNsWnBRbkE1VVM5X0NiR1BxYkJLNGdZaVRWT0ppOFNkTVBnclJ2RlhJQkZXVm4wNTVzaXNqV2NZQjJidkZ5Z1RSSThreFJ2dVFQYmdkZEFNLVRzdFVGYkl6TFl0YXItT0Iyb2hfMDgwXS0tPjwvZz48L3N2Zz4=;" parent="1" vertex="1"><mxGeometry x="-138.5" y="3260" width="1007" height="402" as="geometry"/></mxCell></UserObject><UserObject label="" plantUmlData="{&#10;  &quot;data&quot;: &quot;@startuml\nautonumber\n\nactor 用户\nparticipant 前端页面\nparticipant UserController\nparticipant UserServiceImpl\nparticipant DonationRepository\n\n用户 -&gt; 前端页面: 点击“我的捐赠记录”\nactivate 前端页面\n前端页面 -&gt; UserController: 发送获取捐赠记录请求 (userId)\nactivate UserController\nUserController -&gt; UserServiceImpl: 调用 getDonationHistory(userId) 方法\nactivate UserServiceImpl\nUserServiceImpl -&gt; DonationRepository: 查询用户的捐赠记录\nactivate DonationRepository\nDonationRepository --&gt; UserServiceImpl: 返回捐赠记录列表\ndeactivate DonationRepository\nUserServiceImpl --&gt; UserController: 返回捐赠记录列表\ndeactivate UserServiceImpl\nUserController --&gt; 前端页面: 返回捐赠记录列表\ndeactivate UserController\n前端页面 --&gt; 用户: 显示捐赠记录列表\ndeactivate 前端页面\n@enduml&quot;,&#10;  &quot;format&quot;: &quot;svg&quot;&#10;}" id="AG9e61MuKz-lgSlKQN2f-8"><mxCell style="shape=image;noLabel=1;verticalAlign=top;aspect=fixed;imageAspect=0;image=data:image/svg+xml,PD94bWwgdmVyc2lvbj0iMS4wIiBlbmNvZGluZz0idXMtYXNjaWkiIHN0YW5kYWxvbmU9Im5vIj8+PHN2ZyB4bWxucz0iaHR0cDovL3d3dy53My5vcmcvMjAwMC9zdmciIHhtbG5zOnhsaW5rPSJodHRwOi8vd3d3LnczLm9yZy8xOTk5L3hsaW5rIiBjb250ZW50U3R5bGVUeXBlPSJ0ZXh0L2NzcyIgaGVpZ2h0PSI0MDJweCIgcHJlc2VydmVBc3BlY3RSYXRpbz0ibm9uZSIgc3R5bGU9IndpZHRoOjkxOHB4O2hlaWdodDo0MDJweDtiYWNrZ3JvdW5kOiNGRkZGRkY7IiB2ZXJzaW9uPSIxLjEiIHZpZXdCb3g9IjAgMCA5MTggNDAyIiB3aWR0aD0iOTE4cHgiIHpvb21BbmRQYW49Im1hZ25pZnkiPjxkZWZzLz48Zz48cmVjdCBmaWxsPSIjRkZGRkZGIiBoZWlnaHQ9IjE5NS4zOTg0IiBzdHlsZT0ic3Ryb2tlOiMxODE4MTg7c3Ryb2tlLXdpZHRoOjEuMDsiIHdpZHRoPSIxMCIgeD0iMTcwIiB5PSIxMDkuODk4NCIvPjxyZWN0IGZpbGw9IiNGRkZGRkYiIGhlaWdodD0iMTM5LjU3MDMiIHN0eWxlPSJzdHJva2U6IzE4MTgxODtzdHJva2Utd2lkdGg6MS4wOyIgd2lkdGg9IjEwIiB4PSI0MDAiIHk9IjEzNy44MTI1Ii8+PHJlY3QgZmlsbD0iI0ZGRkZGRiIgaGVpZ2h0PSI4My43NDIyIiBzdHlsZT0ic3Ryb2tlOiMxODE4MTg7c3Ryb2tlLXdpZHRoOjEuMDsiIHdpZHRoPSIxMCIgeD0iNjgwIiB5PSIxNjUuNzI2NiIvPjxyZWN0IGZpbGw9IiNGRkZGRkYiIGhlaWdodD0iMjcuOTE0MSIgc3R5bGU9InN0cm9rZTojMTgxODE4O3N0cm9rZS13aWR0aDoxLjA7IiB3aWR0aD0iMTAiIHg9IjgzNyIgeT0iMTkzLjY0MDYiLz48bGluZSBzdHlsZT0ic3Ryb2tlOiMxODE4MTg7c3Ryb2tlLXdpZHRoOjAuNTtzdHJva2UtZGFzaGFycmF5OjUuMCw1LjA7IiB4MT0iMjIiIHgyPSIyMiIgeTE9Ijc5Ljk4NDQiIHkyPSIzMjMuMjk2OSIvPjxsaW5lIHN0eWxlPSJzdHJva2U6IzE4MTgxODtzdHJva2Utd2lkdGg6MC41O3N0cm9rZS1kYXNoYXJyYXk6NS4wLDUuMDsiIHgxPSIxNzUiIHgyPSIxNzUiIHkxPSI3OS45ODQ0IiB5Mj0iMzIzLjI5NjkiLz48bGluZSBzdHlsZT0ic3Ryb2tlOiMxODE4MTg7c3Ryb2tlLXdpZHRoOjAuNTtzdHJva2UtZGFzaGFycmF5OjUuMCw1LjA7IiB4MT0iNDA1IiB4Mj0iNDA1IiB5MT0iNzkuOTg0NCIgeTI9IjMyMy4yOTY5Ii8+PGxpbmUgc3R5bGU9InN0cm9rZTojMTgxODE4O3N0cm9rZS13aWR0aDowLjU7c3Ryb2tlLWRhc2hhcnJheTo1LjAsNS4wOyIgeDE9IjY4NSIgeDI9IjY4NSIgeTE9Ijc5Ljk4NDQiIHkyPSIzMjMuMjk2OSIvPjxsaW5lIHN0eWxlPSJzdHJva2U6IzE4MTgxODtzdHJva2Utd2lkdGg6MC41O3N0cm9rZS1kYXNoYXJyYXk6NS4wLDUuMDsiIHgxPSI4NDIiIHgyPSI4NDIiIHkxPSI3OS45ODQ0IiB5Mj0iMzIzLjI5NjkiLz48dGV4dCBmaWxsPSIjMDAwMDAwIiBmb250LWZhbWlseT0ic2Fucy1zZXJpZiIgZm9udC1zaXplPSIxNCIgbGVuZ3RoQWRqdXN0PSJzcGFjaW5nIiB0ZXh0TGVuZ3RoPSIyOCIgeD0iNSIgeT0iNzguMjM0NCI+JiMyOTk5MjsmIzI1MTQzOzwvdGV4dD48ZWxsaXBzZSBjeD0iMjIiIGN5PSIxMy41IiBmaWxsPSIjRTJFMkYwIiByeD0iOCIgcnk9IjgiIHN0eWxlPSJzdHJva2U6IzE4MTgxODtzdHJva2Utd2lkdGg6MC41OyIvPjxwYXRoIGQ9Ik0yMiwyMS41IEwyMiw0OC41IE05LDI5LjUgTDM1LDI5LjUgTTIyLDQ4LjUgTDksNjMuNSBNMjIsNDguNSBMMzUsNjMuNSAiIGZpbGw9Im5vbmUiIHN0eWxlPSJzdHJva2U6IzE4MTgxODtzdHJva2Utd2lkdGg6MC41OyIvPjx0ZXh0IGZpbGw9IiMwMDAwMDAiIGZvbnQtZmFtaWx5PSJzYW5zLXNlcmlmIiBmb250LXNpemU9IjE0IiBsZW5ndGhBZGp1c3Q9InNwYWNpbmciIHRleHRMZW5ndGg9IjI4IiB4PSI1IiB5PSIzMzUuNTMxMyI+JiMyOTk5MjsmIzI1MTQzOzwvdGV4dD48ZWxsaXBzZSBjeD0iMjIiIGN5PSIzNDUuNzgxMyIgZmlsbD0iI0UyRTJGMCIgcng9IjgiIHJ5PSI4IiBzdHlsZT0ic3Ryb2tlOiMxODE4MTg7c3Ryb2tlLXdpZHRoOjAuNTsiLz48cGF0aCBkPSJNMjIsMzUzLjc4MTMgTDIyLDM4MC43ODEzIE05LDM2MS43ODEzIEwzNSwzNjEuNzgxMyBNMjIsMzgwLjc4MTMgTDksMzk1Ljc4MTMgTTIyLDM4MC43ODEzIEwzNSwzOTUuNzgxMyAiIGZpbGw9Im5vbmUiIHN0eWxlPSJzdHJva2U6IzE4MTgxODtzdHJva2Utd2lkdGg6MC41OyIvPjxyZWN0IGZpbGw9IiNFMkUyRjAiIGhlaWdodD0iMjguOTg0NCIgcng9IjIuNSIgcnk9IjIuNSIgc3R5bGU9InN0cm9rZTojMTgxODE4O3N0cm9rZS13aWR0aDowLjU7IiB3aWR0aD0iNzAiIHg9IjE0MCIgeT0iNTAiLz48dGV4dCBmaWxsPSIjMDAwMDAwIiBmb250LWZhbWlseT0ic2Fucy1zZXJpZiIgZm9udC1zaXplPSIxNCIgbGVuZ3RoQWRqdXN0PSJzcGFjaW5nIiB0ZXh0TGVuZ3RoPSI1NiIgeD0iMTQ3IiB5PSI3MC4yMzQ0Ij4mIzIxMDY5OyYjMzE0NzE7JiMzOTAyOTsmIzM4NzU0OzwvdGV4dD48cmVjdCBmaWxsPSIjRTJFMkYwIiBoZWlnaHQ9IjI4Ljk4NDQiIHJ4PSIyLjUiIHJ5PSIyLjUiIHN0eWxlPSJzdHJva2U6IzE4MTgxODtzdHJva2Utd2lkdGg6MC41OyIgd2lkdGg9IjcwIiB4PSIxNDAiIHk9IjMyMi4yOTY5Ii8+PHRleHQgZmlsbD0iIzAwMDAwMCIgZm9udC1mYW1pbHk9InNhbnMtc2VyaWYiIGZvbnQtc2l6ZT0iMTQiIGxlbmd0aEFkanVzdD0ic3BhY2luZyIgdGV4dExlbmd0aD0iNTYiIHg9IjE0NyIgeT0iMzQyLjUzMTMiPiYjMjEwNjk7JiMzMTQ3MTsmIzM5MDI5OyYjMzg3NTQ7PC90ZXh0PjxyZWN0IGZpbGw9IiNFMkUyRjAiIGhlaWdodD0iMjguOTg0NCIgcng9IjIuNSIgcnk9IjIuNSIgc3R5bGU9InN0cm9rZTojMTgxODE4O3N0cm9rZS13aWR0aDowLjU7IiB3aWR0aD0iMTEyIiB4PSIzNDkiIHk9IjUwIi8+PHRleHQgZmlsbD0iIzAwMDAwMCIgZm9udC1mYW1pbHk9InNhbnMtc2VyaWYiIGZvbnQtc2l6ZT0iMTQiIGxlbmd0aEFkanVzdD0ic3BhY2luZyIgdGV4dExlbmd0aD0iOTgiIHg9IjM1NiIgeT0iNzAuMjM0NCI+VXNlckNvbnRyb2xsZXI8L3RleHQ+PHJlY3QgZmlsbD0iI0UyRTJGMCIgaGVpZ2h0PSIyOC45ODQ0IiByeD0iMi41IiByeT0iMi41IiBzdHlsZT0ic3Ryb2tlOiMxODE4MTg7c3Ryb2tlLXdpZHRoOjAuNTsiIHdpZHRoPSIxMTIiIHg9IjM0OSIgeT0iMzIyLjI5NjkiLz48dGV4dCBmaWxsPSIjMDAwMDAwIiBmb250LWZhbWlseT0ic2Fucy1zZXJpZiIgZm9udC1zaXplPSIxNCIgbGVuZ3RoQWRqdXN0PSJzcGFjaW5nIiB0ZXh0TGVuZ3RoPSI5OCIgeD0iMzU2IiB5PSIzNDIuNTMxMyI+VXNlckNvbnRyb2xsZXI8L3RleHQ+PHJlY3QgZmlsbD0iI0UyRTJGMCIgaGVpZ2h0PSIyOC45ODQ0IiByeD0iMi41IiByeT0iMi41IiBzdHlsZT0ic3Ryb2tlOiMxODE4MTg7c3Ryb2tlLXdpZHRoOjAuNTsiIHdpZHRoPSIxMjAiIHg9IjYyNSIgeT0iNTAiLz48dGV4dCBmaWxsPSIjMDAwMDAwIiBmb250LWZhbWlseT0ic2Fucy1zZXJpZiIgZm9udC1zaXplPSIxNCIgbGVuZ3RoQWRqdXN0PSJzcGFjaW5nIiB0ZXh0TGVuZ3RoPSIxMDYiIHg9IjYzMiIgeT0iNzAuMjM0NCI+VXNlclNlcnZpY2VJbXBsPC90ZXh0PjxyZWN0IGZpbGw9IiNFMkUyRjAiIGhlaWdodD0iMjguOTg0NCIgcng9IjIuNSIgcnk9IjIuNSIgc3R5bGU9InN0cm9rZTojMTgxODE4O3N0cm9rZS13aWR0aDowLjU7IiB3aWR0aD0iMTIwIiB4PSI2MjUiIHk9IjMyMi4yOTY5Ii8+PHRleHQgZmlsbD0iIzAwMDAwMCIgZm9udC1mYW1pbHk9InNhbnMtc2VyaWYiIGZvbnQtc2l6ZT0iMTQiIGxlbmd0aEFkanVzdD0ic3BhY2luZyIgdGV4dExlbmd0aD0iMTA2IiB4PSI2MzIiIHk9IjM0Mi41MzEzIj5Vc2VyU2VydmljZUltcGw8L3RleHQ+PHJlY3QgZmlsbD0iI0UyRTJGMCIgaGVpZ2h0PSIyOC45ODQ0IiByeD0iMi41IiByeT0iMi41IiBzdHlsZT0ic3Ryb2tlOiMxODE4MTg7c3Ryb2tlLXdpZHRoOjAuNTsiIHdpZHRoPSIxNDAiIHg9Ijc3MiIgeT0iNTAiLz48dGV4dCBmaWxsPSIjMDAwMDAwIiBmb250LWZhbWlseT0ic2Fucy1zZXJpZiIgZm9udC1zaXplPSIxNCIgbGVuZ3RoQWRqdXN0PSJzcGFjaW5nIiB0ZXh0TGVuZ3RoPSIxMjYiIHg9Ijc3OSIgeT0iNzAuMjM0NCI+RG9uYXRpb25SZXBvc2l0b3J5PC90ZXh0PjxyZWN0IGZpbGw9IiNFMkUyRjAiIGhlaWdodD0iMjguOTg0NCIgcng9IjIuNSIgcnk9IjIuNSIgc3R5bGU9InN0cm9rZTojMTgxODE4O3N0cm9rZS13aWR0aDowLjU7IiB3aWR0aD0iMTQwIiB4PSI3NzIiIHk9IjMyMi4yOTY5Ii8+PHRleHQgZmlsbD0iIzAwMDAwMCIgZm9udC1mYW1pbHk9InNhbnMtc2VyaWYiIGZvbnQtc2l6ZT0iMTQiIGxlbmd0aEFkanVzdD0ic3BhY2luZyIgdGV4dExlbmd0aD0iMTI2IiB4PSI3NzkiIHk9IjM0Mi41MzEzIj5Eb25hdGlvblJlcG9zaXRvcnk8L3RleHQ+PHJlY3QgZmlsbD0iI0ZGRkZGRiIgaGVpZ2h0PSIxOTUuMzk4NCIgc3R5bGU9InN0cm9rZTojMTgxODE4O3N0cm9rZS13aWR0aDoxLjA7IiB3aWR0aD0iMTAiIHg9IjE3MCIgeT0iMTA5Ljg5ODQiLz48cmVjdCBmaWxsPSIjRkZGRkZGIiBoZWlnaHQ9IjEzOS41NzAzIiBzdHlsZT0ic3Ryb2tlOiMxODE4MTg7c3Ryb2tlLXdpZHRoOjEuMDsiIHdpZHRoPSIxMCIgeD0iNDAwIiB5PSIxMzcuODEyNSIvPjxyZWN0IGZpbGw9IiNGRkZGRkYiIGhlaWdodD0iODMuNzQyMiIgc3R5bGU9InN0cm9rZTojMTgxODE4O3N0cm9rZS13aWR0aDoxLjA7IiB3aWR0aD0iMTAiIHg9IjY4MCIgeT0iMTY1LjcyNjYiLz48cmVjdCBmaWxsPSIjRkZGRkZGIiBoZWlnaHQ9IjI3LjkxNDEiIHN0eWxlPSJzdHJva2U6IzE4MTgxODtzdHJva2Utd2lkdGg6MS4wOyIgd2lkdGg9IjEwIiB4PSI4MzciIHk9IjE5My42NDA2Ii8+PHBvbHlnb24gZmlsbD0iIzE4MTgxOCIgcG9pbnRzPSIxNTgsMTA1Ljg5ODQsMTY4LDEwOS44OTg0LDE1OCwxMTMuODk4NCwxNjIsMTA5Ljg5ODQiIHN0eWxlPSJzdHJva2U6IzE4MTgxODtzdHJva2Utd2lkdGg6MS4wOyIvPjxsaW5lIHN0eWxlPSJzdHJva2U6IzE4MTgxODtzdHJva2Utd2lkdGg6MS4wOyIgeDE9IjIyIiB4Mj0iMTY0IiB5MT0iMTA5Ljg5ODQiIHkyPSIxMDkuODk4NCIvPjx0ZXh0IGZpbGw9IiMwMDAwMDAiIGZvbnQtZmFtaWx5PSJzYW5zLXNlcmlmIiBmb250LXNpemU9IjEzIiBmb250LXdlaWdodD0iYm9sZCIgbGVuZ3RoQWRqdXN0PSJzcGFjaW5nIiB0ZXh0TGVuZ3RoPSI3IiB4PSIyOSIgeT0iMTA2LjI3MzQiPjE8L3RleHQ+PHRleHQgZmlsbD0iIzAwMDAwMCIgZm9udC1mYW1pbHk9InNhbnMtc2VyaWYiIGZvbnQtc2l6ZT0iMTMiIGxlbmd0aEFkanVzdD0ic3BhY2luZyIgdGV4dExlbmd0aD0iMTE4IiB4PSI0MCIgeT0iMTA2LjI3MzQiPiYjMjg4NTc7JiMyMDk4NzsmIzgyMjA7JiMyNTEwNTsmIzMwMzQwOyYjMjU0MjQ7JiMzNjE5MjsmIzM1NzYwOyYjMjQ0MDU7JiM4MjIxOzwvdGV4dD48cG9seWdvbiBmaWxsPSIjMTgxODE4IiBwb2ludHM9IjM4OCwxMzMuODEyNSwzOTgsMTM3LjgxMjUsMzg4LDE0MS44MTI1LDM5MiwxMzcuODEyNSIgc3R5bGU9InN0cm9rZTojMTgxODE4O3N0cm9rZS13aWR0aDoxLjA7Ii8+PGxpbmUgc3R5bGU9InN0cm9rZTojMTgxODE4O3N0cm9rZS13aWR0aDoxLjA7IiB4MT0iMTgwIiB4Mj0iMzk0IiB5MT0iMTM3LjgxMjUiIHkyPSIxMzcuODEyNSIvPjx0ZXh0IGZpbGw9IiMwMDAwMDAiIGZvbnQtZmFtaWx5PSJzYW5zLXNlcmlmIiBmb250LXNpemU9IjEzIiBmb250LXdlaWdodD0iYm9sZCIgbGVuZ3RoQWRqdXN0PSJzcGFjaW5nIiB0ZXh0TGVuZ3RoPSI3IiB4PSIxODciIHk9IjEzNC4xODc1Ij4yPC90ZXh0Pjx0ZXh0IGZpbGw9IiMwMDAwMDAiIGZvbnQtZmFtaWx5PSJzYW5zLXNlcmlmIiBmb250LXNpemU9IjEzIiBsZW5ndGhBZGp1c3Q9InNwYWNpbmciIHRleHRMZW5ndGg9IjE5MCIgeD0iMTk4IiB5PSIxMzQuMTg3NSI+JiMyMTQ1NzsmIzM2ODY1OyYjMzM3MTk7JiMyMTQ2MjsmIzI1NDI0OyYjMzYxOTI7JiMzNTc2MDsmIzI0NDA1OyYjMzU4MzE7JiMyNzcxNDsgKHVzZXJJZCk8L3RleHQ+PHBvbHlnb24gZmlsbD0iIzE4MTgxOCIgcG9pbnRzPSI2NjgsMTYxLjcyNjYsNjc4LDE2NS43MjY2LDY2OCwxNjkuNzI2Niw2NzIsMTY1LjcyNjYiIHN0eWxlPSJzdHJva2U6IzE4MTgxODtzdHJva2Utd2lkdGg6MS4wOyIvPjxsaW5lIHN0eWxlPSJzdHJva2U6IzE4MTgxODtzdHJva2Utd2lkdGg6MS4wOyIgeDE9IjQxMCIgeDI9IjY3NCIgeTE9IjE2NS43MjY2IiB5Mj0iMTY1LjcyNjYiLz48dGV4dCBmaWxsPSIjMDAwMDAwIiBmb250LWZhbWlseT0ic2Fucy1zZXJpZiIgZm9udC1zaXplPSIxMyIgZm9udC13ZWlnaHQ9ImJvbGQiIGxlbmd0aEFkanVzdD0ic3BhY2luZyIgdGV4dExlbmd0aD0iNyIgeD0iNDE3IiB5PSIxNjIuMTAxNiI+MzwvdGV4dD48dGV4dCBmaWxsPSIjMDAwMDAwIiBmb250LWZhbWlseT0ic2Fucy1zZXJpZiIgZm9udC1zaXplPSIxMyIgbGVuZ3RoQWRqdXN0PSJzcGFjaW5nIiB0ZXh0TGVuZ3RoPSIyNDAiIHg9IjQyOCIgeT0iMTYyLjEwMTYiPiYjMzU4NDM7JiMyOTk5MjsgZ2V0RG9uYXRpb25IaXN0b3J5KHVzZXJJZCkgJiMyNjA0MTsmIzI3ODYxOzwvdGV4dD48cG9seWdvbiBmaWxsPSIjMTgxODE4IiBwb2ludHM9IjgyNSwxODkuNjQwNiw4MzUsMTkzLjY0MDYsODI1LDE5Ny42NDA2LDgyOSwxOTMuNjQwNiIgc3R5bGU9InN0cm9rZTojMTgxODE4O3N0cm9rZS13aWR0aDoxLjA7Ii8+PGxpbmUgc3R5bGU9InN0cm9rZTojMTgxODE4O3N0cm9rZS13aWR0aDoxLjA7IiB4MT0iNjkwIiB4Mj0iODMxIiB5MT0iMTkzLjY0MDYiIHkyPSIxOTMuNjQwNiIvPjx0ZXh0IGZpbGw9IiMwMDAwMDAiIGZvbnQtZmFtaWx5PSJzYW5zLXNlcmlmIiBmb250LXNpemU9IjEzIiBmb250LXdlaWdodD0iYm9sZCIgbGVuZ3RoQWRqdXN0PSJzcGFjaW5nIiB0ZXh0TGVuZ3RoPSI3IiB4PSI2OTciIHk9IjE5MC4wMTU2Ij40PC90ZXh0Pjx0ZXh0IGZpbGw9IiMwMDAwMDAiIGZvbnQtZmFtaWx5PSJzYW5zLXNlcmlmIiBmb250LXNpemU9IjEzIiBsZW5ndGhBZGp1c3Q9InNwYWNpbmciIHRleHRMZW5ndGg9IjExNyIgeD0iNzA4IiB5PSIxOTAuMDE1NiI+JiMyNjU5NzsmIzM1ODEwOyYjMjk5OTI7JiMyNTE0MzsmIzMwMzQwOyYjMjU0MjQ7JiMzNjE5MjsmIzM1NzYwOyYjMjQ0MDU7PC90ZXh0Pjxwb2x5Z29uIGZpbGw9IiMxODE4MTgiIHBvaW50cz0iNzAxLDIxNy41NTQ3LDY5MSwyMjEuNTU0Nyw3MDEsMjI1LjU1NDcsNjk3LDIyMS41NTQ3IiBzdHlsZT0ic3Ryb2tlOiMxODE4MTg7c3Ryb2tlLXdpZHRoOjEuMDsiLz48bGluZSBzdHlsZT0ic3Ryb2tlOiMxODE4MTg7c3Ryb2tlLXdpZHRoOjEuMDtzdHJva2UtZGFzaGFycmF5OjIuMCwyLjA7IiB4MT0iNjk1IiB4Mj0iODQxIiB5MT0iMjIxLjU1NDciIHkyPSIyMjEuNTU0NyIvPjx0ZXh0IGZpbGw9IiMwMDAwMDAiIGZvbnQtZmFtaWx5PSJzYW5zLXNlcmlmIiBmb250LXNpemU9IjEzIiBmb250LXdlaWdodD0iYm9sZCIgbGVuZ3RoQWRqdXN0PSJzcGFjaW5nIiB0ZXh0TGVuZ3RoPSI3IiB4PSI3MDciIHk9IjIxNy45Mjk3Ij41PC90ZXh0Pjx0ZXh0IGZpbGw9IiMwMDAwMDAiIGZvbnQtZmFtaWx5PSJzYW5zLXNlcmlmIiBmb250LXNpemU9IjEzIiBsZW5ndGhBZGp1c3Q9InNwYWNpbmciIHRleHRMZW5ndGg9IjEwNCIgeD0iNzE4IiB5PSIyMTcuOTI5NyI+JiMzNjgyMDsmIzIyMjM4OyYjMjU0MjQ7JiMzNjE5MjsmIzM1NzYwOyYjMjQ0MDU7JiMyMTAxNTsmIzM0OTIwOzwvdGV4dD48cG9seWdvbiBmaWxsPSIjMTgxODE4IiBwb2ludHM9IjQyMSwyNDUuNDY4OCw0MTEsMjQ5LjQ2ODgsNDIxLDI1My40Njg4LDQxNywyNDkuNDY4OCIgc3R5bGU9InN0cm9rZTojMTgxODE4O3N0cm9rZS13aWR0aDoxLjA7Ii8+PGxpbmUgc3R5bGU9InN0cm9rZTojMTgxODE4O3N0cm9rZS13aWR0aDoxLjA7c3Ryb2tlLWRhc2hhcnJheToyLjAsMi4wOyIgeDE9IjQxNSIgeDI9IjY4NCIgeTE9IjI0OS40Njg4IiB5Mj0iMjQ5LjQ2ODgiLz48dGV4dCBmaWxsPSIjMDAwMDAwIiBmb250LWZhbWlseT0ic2Fucy1zZXJpZiIgZm9udC1zaXplPSIxMyIgZm9udC13ZWlnaHQ9ImJvbGQiIGxlbmd0aEFkanVzdD0ic3BhY2luZyIgdGV4dExlbmd0aD0iNyIgeD0iNDI3IiB5PSIyNDUuODQzOCI+NjwvdGV4dD48dGV4dCBmaWxsPSIjMDAwMDAwIiBmb250LWZhbWlseT0ic2Fucy1zZXJpZiIgZm9udC1zaXplPSIxMyIgbGVuZ3RoQWRqdXN0PSJzcGFjaW5nIiB0ZXh0TGVuZ3RoPSIxMDQiIHg9IjQzOCIgeT0iMjQ1Ljg0MzgiPiYjMzY4MjA7JiMyMjIzODsmIzI1NDI0OyYjMzYxOTI7JiMzNTc2MDsmIzI0NDA1OyYjMjEwMTU7JiMzNDkyMDs8L3RleHQ+PHBvbHlnb24gZmlsbD0iIzE4MTgxOCIgcG9pbnRzPSIxOTEsMjczLjM4MjgsMTgxLDI3Ny4zODI4LDE5MSwyODEuMzgyOCwxODcsMjc3LjM4MjgiIHN0eWxlPSJzdHJva2U6IzE4MTgxODtzdHJva2Utd2lkdGg6MS4wOyIvPjxsaW5lIHN0eWxlPSJzdHJva2U6IzE4MTgxODtzdHJva2Utd2lkdGg6MS4wO3N0cm9rZS1kYXNoYXJyYXk6Mi4wLDIuMDsiIHgxPSIxODUiIHgyPSI0MDQiIHkxPSIyNzcuMzgyOCIgeTI9IjI3Ny4zODI4Ii8+PHRleHQgZmlsbD0iIzAwMDAwMCIgZm9udC1mYW1pbHk9InNhbnMtc2VyaWYiIGZvbnQtc2l6ZT0iMTMiIGZvbnQtd2VpZ2h0PSJib2xkIiBsZW5ndGhBZGp1c3Q9InNwYWNpbmciIHRleHRMZW5ndGg9IjciIHg9IjE5NyIgeT0iMjczLjc1NzgiPjc8L3RleHQ+PHRleHQgZmlsbD0iIzAwMDAwMCIgZm9udC1mYW1pbHk9InNhbnMtc2VyaWYiIGZvbnQtc2l6ZT0iMTMiIGxlbmd0aEFkanVzdD0ic3BhY2luZyIgdGV4dExlbmd0aD0iMTA0IiB4PSIyMDgiIHk9IjI3My43NTc4Ij4mIzM2ODIwOyYjMjIyMzg7JiMyNTQyNDsmIzM2MTkyOyYjMzU3NjA7JiMyNDQwNTsmIzIxMDE1OyYjMzQ5MjA7PC90ZXh0Pjxwb2x5Z29uIGZpbGw9IiMxODE4MTgiIHBvaW50cz0iMzMsMzAxLjI5NjksMjMsMzA1LjI5NjksMzMsMzA5LjI5NjksMjksMzA1LjI5NjkiIHN0eWxlPSJzdHJva2U6IzE4MTgxODtzdHJva2Utd2lkdGg6MS4wOyIvPjxsaW5lIHN0eWxlPSJzdHJva2U6IzE4MTgxODtzdHJva2Utd2lkdGg6MS4wO3N0cm9rZS1kYXNoYXJyYXk6Mi4wLDIuMDsiIHgxPSIyNyIgeDI9IjE3NCIgeTE9IjMwNS4yOTY5IiB5Mj0iMzA1LjI5NjkiLz48dGV4dCBmaWxsPSIjMDAwMDAwIiBmb250LWZhbWlseT0ic2Fucy1zZXJpZiIgZm9udC1zaXplPSIxMyIgZm9udC13ZWlnaHQ9ImJvbGQiIGxlbmd0aEFkanVzdD0ic3BhY2luZyIgdGV4dExlbmd0aD0iNyIgeD0iMzkiIHk9IjMwMS42NzE5Ij44PC90ZXh0Pjx0ZXh0IGZpbGw9IiMwMDAwMDAiIGZvbnQtZmFtaWx5PSJzYW5zLXNlcmlmIiBmb250LXNpemU9IjEzIiBsZW5ndGhBZGp1c3Q9InNwYWNpbmciIHRleHRMZW5ndGg9IjEwNCIgeD0iNTAiIHk9IjMwMS42NzE5Ij4mIzI2MTc0OyYjMzEwMzQ7JiMyNTQyNDsmIzM2MTkyOyYjMzU3NjA7JiMyNDQwNTsmIzIxMDE1OyYjMzQ5MjA7PC90ZXh0PjwhLS1TUkM9W1pQQjFJaUNtNkNWbFZPZVN6UjBOd0M2Qjdqbkx5RzVnNW9JbURRTEQxenhnNUFvN0VHVlI1N05nWGk5ME0yU29vWEpyTkdQOXF4VW1mUEdiUkhheFZsY0l0X194X3h6ZTNpNjZxcFk2Ymc5ZUVpNE0yN2lKdldNQWdMYTR3U1pLMzBCZUxKanl6d0ZIRjFnRWZTUUgzUXJUUjEwQnItaW44VHl3WDVPSndSM1FDRWpJUm15UjZhN09FODBjamI0aVVnZWVnSW9leDRYZ0FXWFIydGh2bE5HVmNUU0R4b3pPLXVSRk5fWHFIZF93SXRVT3A4b1E2ZTdvWjZBSDhFS3ZMSzB4dFNXenV6UzF4R240OGxTM3pqNDJNcXZ5bHJoUk5qNXBIa0tvS24zaWdlM0ZwY0RCdTBJSXBFcS1pWEVoNkhvbW1POXp6Y0tEQ1I1U2RRV0tXckMxVXR4Wl9aWURCblZHWWJzSVVGNDhMNGdEX0ZOZW12RThmVHVqN3FzSzZibzdCcW5WaWVQRHE2TWZZRDRORmlvY0s2NlR5ZFU5WU1jUVNSUHRsLTdocnRnTS1GV1ZdLS0+PC9nPjwvc3ZnPg==;" parent="1" vertex="1"><mxGeometry x="-118" y="3720" width="918" height="402" as="geometry"/></mxCell></UserObject><UserObject label="" plantUmlData="{&#10;  &quot;data&quot;: &quot;@startuml\nautonumber\n\nactor 用户\nparticipant 前端页面\nparticipant CatController\nparticipant CatServiceImpl\nparticipant CatRepository\n\n用户 -&gt; 前端页面: 点击查看流浪猫详情\nactivate 前端页面\n前端页面 -&gt; CatController: 发送获取流浪猫信息请求 (catId)\nactivate CatController\nCatController -&gt; CatServiceImpl: 调用 getCatById(catId) 方法\nactivate CatServiceImpl\nCatServiceImpl -&gt; CatRepository: 查询流浪猫信息\nactivate CatRepository\nCatRepository --&gt; CatServiceImpl: 返回流浪猫信息\ndeactivate CatRepository\nCatServiceImpl --&gt; CatController: 返回流浪猫信息\ndeactivate CatServiceImpl\nCatController --&gt; 前端页面: 返回流浪猫信息\ndeactivate CatController\n前端页面 --&gt; 用户: 显示流浪猫信息\ndeactivate 前端页面\n@enduml&quot;,&#10;  &quot;format&quot;: &quot;svg&quot;&#10;}" id="AG9e61MuKz-lgSlKQN2f-9"><mxCell style="shape=image;noLabel=1;verticalAlign=top;aspect=fixed;imageAspect=0;image=data:image/svg+xml,PD94bWwgdmVyc2lvbj0iMS4wIiBlbmNvZGluZz0idXMtYXNjaWkiIHN0YW5kYWxvbmU9Im5vIj8+PHN2ZyB4bWxucz0iaHR0cDovL3d3dy53My5vcmcvMjAwMC9zdmciIHhtbG5zOnhsaW5rPSJodHRwOi8vd3d3LnczLm9yZy8xOTk5L3hsaW5rIiBjb250ZW50U3R5bGVUeXBlPSJ0ZXh0L2NzcyIgaGVpZ2h0PSI0MDJweCIgcHJlc2VydmVBc3BlY3RSYXRpbz0ibm9uZSIgc3R5bGU9IndpZHRoOjgyMXB4O2hlaWdodDo0MDJweDtiYWNrZ3JvdW5kOiNGRkZGRkY7IiB2ZXJzaW9uPSIxLjEiIHZpZXdCb3g9IjAgMCA4MjEgNDAyIiB3aWR0aD0iODIxcHgiIHpvb21BbmRQYW49Im1hZ25pZnkiPjxkZWZzLz48Zz48cmVjdCBmaWxsPSIjRkZGRkZGIiBoZWlnaHQ9IjE5NS4zOTg0IiBzdHlsZT0ic3Ryb2tlOiMxODE4MTg7c3Ryb2tlLXdpZHRoOjEuMDsiIHdpZHRoPSIxMCIgeD0iMTY5IiB5PSIxMDkuODk4NCIvPjxyZWN0IGZpbGw9IiNGRkZGRkYiIGhlaWdodD0iMTM5LjU3MDMiIHN0eWxlPSJzdHJva2U6IzE4MTgxODtzdHJva2Utd2lkdGg6MS4wOyIgd2lkdGg9IjEwIiB4PSI0MDQiIHk9IjEzNy44MTI1Ii8+PHJlY3QgZmlsbD0iI0ZGRkZGRiIgaGVpZ2h0PSI4My43NDIyIiBzdHlsZT0ic3Ryb2tlOiMxODE4MTg7c3Ryb2tlLXdpZHRoOjEuMDsiIHdpZHRoPSIxMCIgeD0iNjIyIiB5PSIxNjUuNzI2NiIvPjxyZWN0IGZpbGw9IiNGRkZGRkYiIGhlaWdodD0iMjcuOTE0MSIgc3R5bGU9InN0cm9rZTojMTgxODE4O3N0cm9rZS13aWR0aDoxLjA7IiB3aWR0aD0iMTAiIHg9Ijc1OCIgeT0iMTkzLjY0MDYiLz48bGluZSBzdHlsZT0ic3Ryb2tlOiMxODE4MTg7c3Ryb2tlLXdpZHRoOjAuNTtzdHJva2UtZGFzaGFycmF5OjUuMCw1LjA7IiB4MT0iMjIiIHgyPSIyMiIgeTE9Ijc5Ljk4NDQiIHkyPSIzMjMuMjk2OSIvPjxsaW5lIHN0eWxlPSJzdHJva2U6IzE4MTgxODtzdHJva2Utd2lkdGg6MC41O3N0cm9rZS1kYXNoYXJyYXk6NS4wLDUuMDsiIHgxPSIxNzQiIHgyPSIxNzQiIHkxPSI3OS45ODQ0IiB5Mj0iMzIzLjI5NjkiLz48bGluZSBzdHlsZT0ic3Ryb2tlOiMxODE4MTg7c3Ryb2tlLXdpZHRoOjAuNTtzdHJva2UtZGFzaGFycmF5OjUuMCw1LjA7IiB4MT0iNDA4LjUiIHgyPSI0MDguNSIgeTE9Ijc5Ljk4NDQiIHkyPSIzMjMuMjk2OSIvPjxsaW5lIHN0eWxlPSJzdHJva2U6IzE4MTgxODtzdHJva2Utd2lkdGg6MC41O3N0cm9rZS1kYXNoYXJyYXk6NS4wLDUuMDsiIHgxPSI2MjYuNSIgeDI9IjYyNi41IiB5MT0iNzkuOTg0NCIgeTI9IjMyMy4yOTY5Ii8+PGxpbmUgc3R5bGU9InN0cm9rZTojMTgxODE4O3N0cm9rZS13aWR0aDowLjU7c3Ryb2tlLWRhc2hhcnJheTo1LjAsNS4wOyIgeDE9Ijc2Mi41IiB4Mj0iNzYyLjUiIHkxPSI3OS45ODQ0IiB5Mj0iMzIzLjI5NjkiLz48dGV4dCBmaWxsPSIjMDAwMDAwIiBmb250LWZhbWlseT0ic2Fucy1zZXJpZiIgZm9udC1zaXplPSIxNCIgbGVuZ3RoQWRqdXN0PSJzcGFjaW5nIiB0ZXh0TGVuZ3RoPSIyOCIgeD0iNSIgeT0iNzguMjM0NCI+JiMyOTk5MjsmIzI1MTQzOzwvdGV4dD48ZWxsaXBzZSBjeD0iMjIiIGN5PSIxMy41IiBmaWxsPSIjRTJFMkYwIiByeD0iOCIgcnk9IjgiIHN0eWxlPSJzdHJva2U6IzE4MTgxODtzdHJva2Utd2lkdGg6MC41OyIvPjxwYXRoIGQ9Ik0yMiwyMS41IEwyMiw0OC41IE05LDI5LjUgTDM1LDI5LjUgTTIyLDQ4LjUgTDksNjMuNSBNMjIsNDguNSBMMzUsNjMuNSAiIGZpbGw9Im5vbmUiIHN0eWxlPSJzdHJva2U6IzE4MTgxODtzdHJva2Utd2lkdGg6MC41OyIvPjx0ZXh0IGZpbGw9IiMwMDAwMDAiIGZvbnQtZmFtaWx5PSJzYW5zLXNlcmlmIiBmb250LXNpemU9IjE0IiBsZW5ndGhBZGp1c3Q9InNwYWNpbmciIHRleHRMZW5ndGg9IjI4IiB4PSI1IiB5PSIzMzUuNTMxMyI+JiMyOTk5MjsmIzI1MTQzOzwvdGV4dD48ZWxsaXBzZSBjeD0iMjIiIGN5PSIzNDUuNzgxMyIgZmlsbD0iI0UyRTJGMCIgcng9IjgiIHJ5PSI4IiBzdHlsZT0ic3Ryb2tlOiMxODE4MTg7c3Ryb2tlLXdpZHRoOjAuNTsiLz48cGF0aCBkPSJNMjIsMzUzLjc4MTMgTDIyLDM4MC43ODEzIE05LDM2MS43ODEzIEwzNSwzNjEuNzgxMyBNMjIsMzgwLjc4MTMgTDksMzk1Ljc4MTMgTTIyLDM4MC43ODEzIEwzNSwzOTUuNzgxMyAiIGZpbGw9Im5vbmUiIHN0eWxlPSJzdHJva2U6IzE4MTgxODtzdHJva2Utd2lkdGg6MC41OyIvPjxyZWN0IGZpbGw9IiNFMkUyRjAiIGhlaWdodD0iMjguOTg0NCIgcng9IjIuNSIgcnk9IjIuNSIgc3R5bGU9InN0cm9rZTojMTgxODE4O3N0cm9rZS13aWR0aDowLjU7IiB3aWR0aD0iNzAiIHg9IjEzOSIgeT0iNTAiLz48dGV4dCBmaWxsPSIjMDAwMDAwIiBmb250LWZhbWlseT0ic2Fucy1zZXJpZiIgZm9udC1zaXplPSIxNCIgbGVuZ3RoQWRqdXN0PSJzcGFjaW5nIiB0ZXh0TGVuZ3RoPSI1NiIgeD0iMTQ2IiB5PSI3MC4yMzQ0Ij4mIzIxMDY5OyYjMzE0NzE7JiMzOTAyOTsmIzM4NzU0OzwvdGV4dD48cmVjdCBmaWxsPSIjRTJFMkYwIiBoZWlnaHQ9IjI4Ljk4NDQiIHJ4PSIyLjUiIHJ5PSIyLjUiIHN0eWxlPSJzdHJva2U6IzE4MTgxODtzdHJva2Utd2lkdGg6MC41OyIgd2lkdGg9IjcwIiB4PSIxMzkiIHk9IjMyMi4yOTY5Ii8+PHRleHQgZmlsbD0iIzAwMDAwMCIgZm9udC1mYW1pbHk9InNhbnMtc2VyaWYiIGZvbnQtc2l6ZT0iMTQiIGxlbmd0aEFkanVzdD0ic3BhY2luZyIgdGV4dExlbmd0aD0iNTYiIHg9IjE0NiIgeT0iMzQyLjUzMTMiPiYjMjEwNjk7JiMzMTQ3MTsmIzM5MDI5OyYjMzg3NTQ7PC90ZXh0PjxyZWN0IGZpbGw9IiNFMkUyRjAiIGhlaWdodD0iMjguOTg0NCIgcng9IjIuNSIgcnk9IjIuNSIgc3R5bGU9InN0cm9rZTojMTgxODE4O3N0cm9rZS13aWR0aDowLjU7IiB3aWR0aD0iMTA1IiB4PSIzNTYuNSIgeT0iNTAiLz48dGV4dCBmaWxsPSIjMDAwMDAwIiBmb250LWZhbWlseT0ic2Fucy1zZXJpZiIgZm9udC1zaXplPSIxNCIgbGVuZ3RoQWRqdXN0PSJzcGFjaW5nIiB0ZXh0TGVuZ3RoPSI5MSIgeD0iMzYzLjUiIHk9IjcwLjIzNDQiPkNhdENvbnRyb2xsZXI8L3RleHQ+PHJlY3QgZmlsbD0iI0UyRTJGMCIgaGVpZ2h0PSIyOC45ODQ0IiByeD0iMi41IiByeT0iMi41IiBzdHlsZT0ic3Ryb2tlOiMxODE4MTg7c3Ryb2tlLXdpZHRoOjAuNTsiIHdpZHRoPSIxMDUiIHg9IjM1Ni41IiB5PSIzMjIuMjk2OSIvPjx0ZXh0IGZpbGw9IiMwMDAwMDAiIGZvbnQtZmFtaWx5PSJzYW5zLXNlcmlmIiBmb250LXNpemU9IjE0IiBsZW5ndGhBZGp1c3Q9InNwYWNpbmciIHRleHRMZW5ndGg9IjkxIiB4PSIzNjMuNSIgeT0iMzQyLjUzMTMiPkNhdENvbnRyb2xsZXI8L3RleHQ+PHJlY3QgZmlsbD0iI0UyRTJGMCIgaGVpZ2h0PSIyOC45ODQ0IiByeD0iMi41IiByeT0iMi41IiBzdHlsZT0ic3Ryb2tlOiMxODE4MTg7c3Ryb2tlLXdpZHRoOjAuNTsiIHdpZHRoPSIxMTMiIHg9IjU3MC41IiB5PSI1MCIvPjx0ZXh0IGZpbGw9IiMwMDAwMDAiIGZvbnQtZmFtaWx5PSJzYW5zLXNlcmlmIiBmb250LXNpemU9IjE0IiBsZW5ndGhBZGp1c3Q9InNwYWNpbmciIHRleHRMZW5ndGg9Ijk5IiB4PSI1NzcuNSIgeT0iNzAuMjM0NCI+Q2F0U2VydmljZUltcGw8L3RleHQ+PHJlY3QgZmlsbD0iI0UyRTJGMCIgaGVpZ2h0PSIyOC45ODQ0IiByeD0iMi41IiByeT0iMi41IiBzdHlsZT0ic3Ryb2tlOiMxODE4MTg7c3Ryb2tlLXdpZHRoOjAuNTsiIHdpZHRoPSIxMTMiIHg9IjU3MC41IiB5PSIzMjIuMjk2OSIvPjx0ZXh0IGZpbGw9IiMwMDAwMDAiIGZvbnQtZmFtaWx5PSJzYW5zLXNlcmlmIiBmb250LXNpemU9IjE0IiBsZW5ndGhBZGp1c3Q9InNwYWNpbmciIHRleHRMZW5ndGg9Ijk5IiB4PSI1NzcuNSIgeT0iMzQyLjUzMTMiPkNhdFNlcnZpY2VJbXBsPC90ZXh0PjxyZWN0IGZpbGw9IiNFMkUyRjAiIGhlaWdodD0iMjguOTg0NCIgcng9IjIuNSIgcnk9IjIuNSIgc3R5bGU9InN0cm9rZTojMTgxODE4O3N0cm9rZS13aWR0aDowLjU7IiB3aWR0aD0iMTA1IiB4PSI3MTAuNSIgeT0iNTAiLz48dGV4dCBmaWxsPSIjMDAwMDAwIiBmb250LWZhbWlseT0ic2Fucy1zZXJpZiIgZm9udC1zaXplPSIxNCIgbGVuZ3RoQWRqdXN0PSJzcGFjaW5nIiB0ZXh0TGVuZ3RoPSI5MSIgeD0iNzE3LjUiIHk9IjcwLjIzNDQiPkNhdFJlcG9zaXRvcnk8L3RleHQ+PHJlY3QgZmlsbD0iI0UyRTJGMCIgaGVpZ2h0PSIyOC45ODQ0IiByeD0iMi41IiByeT0iMi41IiBzdHlsZT0ic3Ryb2tlOiMxODE4MTg7c3Ryb2tlLXdpZHRoOjAuNTsiIHdpZHRoPSIxMDUiIHg9IjcxMC41IiB5PSIzMjIuMjk2OSIvPjx0ZXh0IGZpbGw9IiMwMDAwMDAiIGZvbnQtZmFtaWx5PSJzYW5zLXNlcmlmIiBmb250LXNpemU9IjE0IiBsZW5ndGhBZGp1c3Q9InNwYWNpbmciIHRleHRMZW5ndGg9IjkxIiB4PSI3MTcuNSIgeT0iMzQyLjUzMTMiPkNhdFJlcG9zaXRvcnk8L3RleHQ+PHJlY3QgZmlsbD0iI0ZGRkZGRiIgaGVpZ2h0PSIxOTUuMzk4NCIgc3R5bGU9InN0cm9rZTojMTgxODE4O3N0cm9rZS13aWR0aDoxLjA7IiB3aWR0aD0iMTAiIHg9IjE2OSIgeT0iMTA5Ljg5ODQiLz48cmVjdCBmaWxsPSIjRkZGRkZGIiBoZWlnaHQ9IjEzOS41NzAzIiBzdHlsZT0ic3Ryb2tlOiMxODE4MTg7c3Ryb2tlLXdpZHRoOjEuMDsiIHdpZHRoPSIxMCIgeD0iNDA0IiB5PSIxMzcuODEyNSIvPjxyZWN0IGZpbGw9IiNGRkZGRkYiIGhlaWdodD0iODMuNzQyMiIgc3R5bGU9InN0cm9rZTojMTgxODE4O3N0cm9rZS13aWR0aDoxLjA7IiB3aWR0aD0iMTAiIHg9IjYyMiIgeT0iMTY1LjcyNjYiLz48cmVjdCBmaWxsPSIjRkZGRkZGIiBoZWlnaHQ9IjI3LjkxNDEiIHN0eWxlPSJzdHJva2U6IzE4MTgxODtzdHJva2Utd2lkdGg6MS4wOyIgd2lkdGg9IjEwIiB4PSI3NTgiIHk9IjE5My42NDA2Ii8+PHBvbHlnb24gZmlsbD0iIzE4MTgxOCIgcG9pbnRzPSIxNTcsMTA1Ljg5ODQsMTY3LDEwOS44OTg0LDE1NywxMTMuODk4NCwxNjEsMTA5Ljg5ODQiIHN0eWxlPSJzdHJva2U6IzE4MTgxODtzdHJva2Utd2lkdGg6MS4wOyIvPjxsaW5lIHN0eWxlPSJzdHJva2U6IzE4MTgxODtzdHJva2Utd2lkdGg6MS4wOyIgeDE9IjIyIiB4Mj0iMTYzIiB5MT0iMTA5Ljg5ODQiIHkyPSIxMDkuODk4NCIvPjx0ZXh0IGZpbGw9IiMwMDAwMDAiIGZvbnQtZmFtaWx5PSJzYW5zLXNlcmlmIiBmb250LXNpemU9IjEzIiBmb250LXdlaWdodD0iYm9sZCIgbGVuZ3RoQWRqdXN0PSJzcGFjaW5nIiB0ZXh0TGVuZ3RoPSI3IiB4PSIyOSIgeT0iMTA2LjI3MzQiPjE8L3RleHQ+PHRleHQgZmlsbD0iIzAwMDAwMCIgZm9udC1mYW1pbHk9InNhbnMtc2VyaWYiIGZvbnQtc2l6ZT0iMTMiIGxlbmd0aEFkanVzdD0ic3BhY2luZyIgdGV4dExlbmd0aD0iMTE3IiB4PSI0MCIgeT0iMTA2LjI3MzQiPiYjMjg4NTc7JiMyMDk4NzsmIzI2NTk3OyYjMzA0NzU7JiMyNzk2OTsmIzI4MDEwOyYjMjk0ODM7JiMzNTgxNDsmIzI0NzczOzwvdGV4dD48cG9seWdvbiBmaWxsPSIjMTgxODE4IiBwb2ludHM9IjM5MiwxMzMuODEyNSw0MDIsMTM3LjgxMjUsMzkyLDE0MS44MTI1LDM5NiwxMzcuODEyNSIgc3R5bGU9InN0cm9rZTojMTgxODE4O3N0cm9rZS13aWR0aDoxLjA7Ii8+PGxpbmUgc3R5bGU9InN0cm9rZTojMTgxODE4O3N0cm9rZS13aWR0aDoxLjA7IiB4MT0iMTc5IiB4Mj0iMzk4IiB5MT0iMTM3LjgxMjUiIHkyPSIxMzcuODEyNSIvPjx0ZXh0IGZpbGw9IiMwMDAwMDAiIGZvbnQtZmFtaWx5PSJzYW5zLXNlcmlmIiBmb250LXNpemU9IjEzIiBmb250LXdlaWdodD0iYm9sZCIgbGVuZ3RoQWRqdXN0PSJzcGFjaW5nIiB0ZXh0TGVuZ3RoPSI3IiB4PSIxODYiIHk9IjEzNC4xODc1Ij4yPC90ZXh0Pjx0ZXh0IGZpbGw9IiMwMDAwMDAiIGZvbnQtZmFtaWx5PSJzYW5zLXNlcmlmIiBmb250LXNpemU9IjEzIiBsZW5ndGhBZGp1c3Q9InNwYWNpbmciIHRleHRMZW5ndGg9IjE5NSIgeD0iMTk3IiB5PSIxMzQuMTg3NSI+JiMyMTQ1NzsmIzM2ODY1OyYjMzM3MTk7JiMyMTQ2MjsmIzI3OTY5OyYjMjgwMTA7JiMyOTQ4MzsmIzIwNDQ5OyYjMjQ2ODc7JiMzNTgzMTsmIzI3NzE0OyAoY2F0SWQpPC90ZXh0Pjxwb2x5Z29uIGZpbGw9IiMxODE4MTgiIHBvaW50cz0iNjEwLDE2MS43MjY2LDYyMCwxNjUuNzI2Niw2MTAsMTY5LjcyNjYsNjE0LDE2NS43MjY2IiBzdHlsZT0ic3Ryb2tlOiMxODE4MTg7c3Ryb2tlLXdpZHRoOjEuMDsiLz48bGluZSBzdHlsZT0ic3Ryb2tlOiMxODE4MTg7c3Ryb2tlLXdpZHRoOjEuMDsiIHgxPSI0MTQiIHgyPSI2MTYiIHkxPSIxNjUuNzI2NiIgeTI9IjE2NS43MjY2Ii8+PHRleHQgZmlsbD0iIzAwMDAwMCIgZm9udC1mYW1pbHk9InNhbnMtc2VyaWYiIGZvbnQtc2l6ZT0iMTMiIGZvbnQtd2VpZ2h0PSJib2xkIiBsZW5ndGhBZGp1c3Q9InNwYWNpbmciIHRleHRMZW5ndGg9IjciIHg9IjQyMSIgeT0iMTYyLjEwMTYiPjM8L3RleHQ+PHRleHQgZmlsbD0iIzAwMDAwMCIgZm9udC1mYW1pbHk9InNhbnMtc2VyaWYiIGZvbnQtc2l6ZT0iMTMiIGxlbmd0aEFkanVzdD0ic3BhY2luZyIgdGV4dExlbmd0aD0iMTc4IiB4PSI0MzIiIHk9IjE2Mi4xMDE2Ij4mIzM1ODQzOyYjMjk5OTI7IGdldENhdEJ5SWQoY2F0SWQpICYjMjYwNDE7JiMyNzg2MTs8L3RleHQ+PHBvbHlnb24gZmlsbD0iIzE4MTgxOCIgcG9pbnRzPSI3NDYsMTg5LjY0MDYsNzU2LDE5My42NDA2LDc0NiwxOTcuNjQwNiw3NTAsMTkzLjY0MDYiIHN0eWxlPSJzdHJva2U6IzE4MTgxODtzdHJva2Utd2lkdGg6MS4wOyIvPjxsaW5lIHN0eWxlPSJzdHJva2U6IzE4MTgxODtzdHJva2Utd2lkdGg6MS4wOyIgeDE9IjYzMiIgeDI9Ijc1MiIgeTE9IjE5My42NDA2IiB5Mj0iMTkzLjY0MDYiLz48dGV4dCBmaWxsPSIjMDAwMDAwIiBmb250LWZhbWlseT0ic2Fucy1zZXJpZiIgZm9udC1zaXplPSIxMyIgZm9udC13ZWlnaHQ9ImJvbGQiIGxlbmd0aEFkanVzdD0ic3BhY2luZyIgdGV4dExlbmd0aD0iNyIgeD0iNjM5IiB5PSIxOTAuMDE1NiI+NDwvdGV4dD48dGV4dCBmaWxsPSIjMDAwMDAwIiBmb250LWZhbWlseT0ic2Fucy1zZXJpZiIgZm9udC1zaXplPSIxMyIgbGVuZ3RoQWRqdXN0PSJzcGFjaW5nIiB0ZXh0TGVuZ3RoPSI5MSIgeD0iNjUwIiB5PSIxOTAuMDE1NiI+JiMyNjU5NzsmIzM1ODEwOyYjMjc5Njk7JiMyODAxMDsmIzI5NDgzOyYjMjA0NDk7JiMyNDY4Nzs8L3RleHQ+PHBvbHlnb24gZmlsbD0iIzE4MTgxOCIgcG9pbnRzPSI2NDMsMjE3LjU1NDcsNjMzLDIyMS41NTQ3LDY0MywyMjUuNTU0Nyw2MzksMjIxLjU1NDciIHN0eWxlPSJzdHJva2U6IzE4MTgxODtzdHJva2Utd2lkdGg6MS4wOyIvPjxsaW5lIHN0eWxlPSJzdHJva2U6IzE4MTgxODtzdHJva2Utd2lkdGg6MS4wO3N0cm9rZS1kYXNoYXJyYXk6Mi4wLDIuMDsiIHgxPSI2MzciIHgyPSI3NjIiIHkxPSIyMjEuNTU0NyIgeTI9IjIyMS41NTQ3Ii8+PHRleHQgZmlsbD0iIzAwMDAwMCIgZm9udC1mYW1pbHk9InNhbnMtc2VyaWYiIGZvbnQtc2l6ZT0iMTMiIGZvbnQtd2VpZ2h0PSJib2xkIiBsZW5ndGhBZGp1c3Q9InNwYWNpbmciIHRleHRMZW5ndGg9IjciIHg9IjY0OSIgeT0iMjE3LjkyOTciPjU8L3RleHQ+PHRleHQgZmlsbD0iIzAwMDAwMCIgZm9udC1mYW1pbHk9InNhbnMtc2VyaWYiIGZvbnQtc2l6ZT0iMTMiIGxlbmd0aEFkanVzdD0ic3BhY2luZyIgdGV4dExlbmd0aD0iOTEiIHg9IjY2MCIgeT0iMjE3LjkyOTciPiYjMzY4MjA7JiMyMjIzODsmIzI3OTY5OyYjMjgwMTA7JiMyOTQ4MzsmIzIwNDQ5OyYjMjQ2ODc7PC90ZXh0Pjxwb2x5Z29uIGZpbGw9IiMxODE4MTgiIHBvaW50cz0iNDI1LDI0NS40Njg4LDQxNSwyNDkuNDY4OCw0MjUsMjUzLjQ2ODgsNDIxLDI0OS40Njg4IiBzdHlsZT0ic3Ryb2tlOiMxODE4MTg7c3Ryb2tlLXdpZHRoOjEuMDsiLz48bGluZSBzdHlsZT0ic3Ryb2tlOiMxODE4MTg7c3Ryb2tlLXdpZHRoOjEuMDtzdHJva2UtZGFzaGFycmF5OjIuMCwyLjA7IiB4MT0iNDE5IiB4Mj0iNjI2IiB5MT0iMjQ5LjQ2ODgiIHkyPSIyNDkuNDY4OCIvPjx0ZXh0IGZpbGw9IiMwMDAwMDAiIGZvbnQtZmFtaWx5PSJzYW5zLXNlcmlmIiBmb250LXNpemU9IjEzIiBmb250LXdlaWdodD0iYm9sZCIgbGVuZ3RoQWRqdXN0PSJzcGFjaW5nIiB0ZXh0TGVuZ3RoPSI3IiB4PSI0MzEiIHk9IjI0NS44NDM4Ij42PC90ZXh0Pjx0ZXh0IGZpbGw9IiMwMDAwMDAiIGZvbnQtZmFtaWx5PSJzYW5zLXNlcmlmIiBmb250LXNpemU9IjEzIiBsZW5ndGhBZGp1c3Q9InNwYWNpbmciIHRleHRMZW5ndGg9IjkxIiB4PSI0NDIiIHk9IjI0NS44NDM4Ij4mIzM2ODIwOyYjMjIyMzg7JiMyNzk2OTsmIzI4MDEwOyYjMjk0ODM7JiMyMDQ0OTsmIzI0Njg3OzwvdGV4dD48cG9seWdvbiBmaWxsPSIjMTgxODE4IiBwb2ludHM9IjE5MCwyNzMuMzgyOCwxODAsMjc3LjM4MjgsMTkwLDI4MS4zODI4LDE4NiwyNzcuMzgyOCIgc3R5bGU9InN0cm9rZTojMTgxODE4O3N0cm9rZS13aWR0aDoxLjA7Ii8+PGxpbmUgc3R5bGU9InN0cm9rZTojMTgxODE4O3N0cm9rZS13aWR0aDoxLjA7c3Ryb2tlLWRhc2hhcnJheToyLjAsMi4wOyIgeDE9IjE4NCIgeDI9IjQwOCIgeTE9IjI3Ny4zODI4IiB5Mj0iMjc3LjM4MjgiLz48dGV4dCBmaWxsPSIjMDAwMDAwIiBmb250LWZhbWlseT0ic2Fucy1zZXJpZiIgZm9udC1zaXplPSIxMyIgZm9udC13ZWlnaHQ9ImJvbGQiIGxlbmd0aEFkanVzdD0ic3BhY2luZyIgdGV4dExlbmd0aD0iNyIgeD0iMTk2IiB5PSIyNzMuNzU3OCI+NzwvdGV4dD48dGV4dCBmaWxsPSIjMDAwMDAwIiBmb250LWZhbWlseT0ic2Fucy1zZXJpZiIgZm9udC1zaXplPSIxMyIgbGVuZ3RoQWRqdXN0PSJzcGFjaW5nIiB0ZXh0TGVuZ3RoPSI5MSIgeD0iMjA3IiB5PSIyNzMuNzU3OCI+JiMzNjgyMDsmIzIyMjM4OyYjMjc5Njk7JiMyODAxMDsmIzI5NDgzOyYjMjA0NDk7JiMyNDY4Nzs8L3RleHQ+PHBvbHlnb24gZmlsbD0iIzE4MTgxOCIgcG9pbnRzPSIzMywzMDEuMjk2OSwyMywzMDUuMjk2OSwzMywzMDkuMjk2OSwyOSwzMDUuMjk2OSIgc3R5bGU9InN0cm9rZTojMTgxODE4O3N0cm9rZS13aWR0aDoxLjA7Ii8+PGxpbmUgc3R5bGU9InN0cm9rZTojMTgxODE4O3N0cm9rZS13aWR0aDoxLjA7c3Ryb2tlLWRhc2hhcnJheToyLjAsMi4wOyIgeDE9IjI3IiB4Mj0iMTczIiB5MT0iMzA1LjI5NjkiIHkyPSIzMDUuMjk2OSIvPjx0ZXh0IGZpbGw9IiMwMDAwMDAiIGZvbnQtZmFtaWx5PSJzYW5zLXNlcmlmIiBmb250LXNpemU9IjEzIiBmb250LXdlaWdodD0iYm9sZCIgbGVuZ3RoQWRqdXN0PSJzcGFjaW5nIiB0ZXh0TGVuZ3RoPSI3IiB4PSIzOSIgeT0iMzAxLjY3MTkiPjg8L3RleHQ+PHRleHQgZmlsbD0iIzAwMDAwMCIgZm9udC1mYW1pbHk9InNhbnMtc2VyaWYiIGZvbnQtc2l6ZT0iMTMiIGxlbmd0aEFkanVzdD0ic3BhY2luZyIgdGV4dExlbmd0aD0iOTEiIHg9IjUwIiB5PSIzMDEuNjcxOSI+JiMyNjE3NDsmIzMxMDM0OyYjMjc5Njk7JiMyODAxMDsmIzI5NDgzOyYjMjA0NDk7JiMyNDY4Nzs8L3RleHQ+PCEtLVNSQz1bWlBCRElpRDA1OE50VU9neHI0TFY4MGlOeElmUlZPOG42SUlHOVk1RTJ6c1BiZ0JZSm41ZzRWb1pIS05pOFhPOWVHaHNQU25DeVhQRVFSMXBLdktrM3ZWdnhaZGQzY2FtcHN0S1RzY1dRU0hhTlcyWV95b0Y0aXFkMFJERHNvU2tXX0p1SjhvWlYxWmRqb0NxZzE1TXlybU1VOHVaMFFOOTNXc1FqYWNEa2stS0h6bEt6X1Bqa1FzYlFPanpLRGIyUXRHR3hNYnctQzdsN3lORDJPejM3aC04cXQ0TUZWNUVULXhLUlg5NmlKRExwN2Q4ZEd2ZnhvOF8yQkZwOUVxRFZlMVZpbzRGZW9uQS1BR0Q2b1BYWGhNdm5FRHlJMUtCYjkwd1BBeVRjR1JzQTlFSlFpa20yWTNtbVBJX05JQWtzV3dNMU5kUGFHd29YSW1RYkttWmREOGVLYjN2cFVVaWRyeFZiTjRNX0hrOHhBck1rbXdtNTVYalNrTnN3XzJLbS0zM0l6aFlKeWRVaFp4NW1faV83Rk5iRG0wMF0tLT48L2c+PC9zdmc+;" parent="1" vertex="1"><mxGeometry x="-110" y="4180" width="821" height="402" as="geometry"/></mxCell></UserObject><UserObject label="" plantUmlData="{&#10;  &quot;data&quot;: &quot;@startuml\nautonumber\n\nactor 用户\nparticipant 前端页面\nparticipant AuthController\nparticipant AuthServiceImpl\nparticipant UserRepository\n\n用户 -&gt; 前端页面: 输入用户名和密码，点击“登录”按钮\nactivate 前端页面\n前端页面 -&gt; AuthController: 发送登录请求 (username, password)\nactivate AuthController\nAuthController -&gt; AuthServiceImpl: 调用 login(username, password) 方法\nactivate AuthServiceImpl\nAuthServiceImpl -&gt; UserRepository: 查询用户信息\nactivate UserRepository\nUserRepository --&gt; AuthServiceImpl: 返回用户信息\ndeactivate UserRepository\nalt 用户信息存在\n  AuthServiceImpl -&gt; AuthServiceImpl: 验证密码\n  alt 密码正确\n    AuthServiceImpl -&gt; AuthServiceImpl: 生成 JWT token\n    AuthServiceImpl --&gt; AuthController: 返回 JWT token\n  else 密码错误\n    AuthServiceImpl --&gt; AuthController: 返回错误信息\n  end\nelse 用户信息不存在\n  AuthServiceImpl --&gt; AuthController: 返回错误信息\nend\ndeactivate AuthServiceImpl\nAuthController --&gt; 前端页面: 返回结果 (token 或错误信息)\ndeactivate AuthController\nalt 登录成功\n  前端页面 -&gt; 前端页面: 将 token 保存到本地存储\n  前端页面 --&gt; 用户: 跳转到用户主页\nelse 登录失败\n  前端页面 --&gt; 用户: 显示错误信息\nend\ndeactivate 前端页面\n@enduml&quot;,&#10;  &quot;format&quot;: &quot;svg&quot;&#10;}" id="AG9e61MuKz-lgSlKQN2f-10"><mxCell style="shape=image;noLabel=1;verticalAlign=top;aspect=fixed;imageAspect=0;image=data:image/svg+xml,PD94bWwgdmVyc2lvbj0iMS4wIiBlbmNvZGluZz0idXMtYXNjaWkiIHN0YW5kYWxvbmU9Im5vIj8+PHN2ZyB4bWxucz0iaHR0cDovL3d3dy53My5vcmcvMjAwMC9zdmciIHhtbG5zOnhsaW5rPSJodHRwOi8vd3d3LnczLm9yZy8xOTk5L3hsaW5rIiBjb250ZW50U3R5bGVUeXBlPSJ0ZXh0L2NzcyIgaGVpZ2h0PSI3NDBweCIgcHJlc2VydmVBc3BlY3RSYXRpbz0ibm9uZSIgc3R5bGU9IndpZHRoOjEwMDZweDtoZWlnaHQ6NzQwcHg7YmFja2dyb3VuZDojRkZGRkZGOyIgdmVyc2lvbj0iMS4xIiB2aWV3Qm94PSIwIDAgMTAwNiA3NDAiIHdpZHRoPSIxMDA2cHgiIHpvb21BbmRQYW49Im1hZ25pZnkiPjxkZWZzLz48Zz48cmVjdCBmaWxsPSIjRkZGRkZGIiBoZWlnaHQ9IjU0MC45NDUzIiBzdHlsZT0ic3Ryb2tlOiMxODE4MTg7c3Ryb2tlLXdpZHRoOjEuMDsiIHdpZHRoPSIxMCIgeD0iMjc2IiB5PSIxMDkuODk4NCIvPjxyZWN0IGZpbGw9IiNGRkZGRkYiIGhlaWdodD0iMzY0LjYwMTYiIHN0eWxlPSJzdHJva2U6IzE4MTgxODtzdHJva2Utd2lkdGg6MS4wOyIgd2lkdGg9IjEwIiB4PSI1MzYiIHk9IjEzNy44MTI1Ii8+PHJlY3QgZmlsbD0iI0ZGRkZGRiIgaGVpZ2h0PSIzMTYuNzczNCIgc3R5bGU9InN0cm9rZTojMTgxODE4O3N0cm9rZS13aWR0aDoxLjA7IiB3aWR0aD0iMTAiIHg9IjgxMCIgeT0iMTY1LjcyNjYiLz48cmVjdCBmaWxsPSIjRkZGRkZGIiBoZWlnaHQ9IjI3LjkxNDEiIHN0eWxlPSJzdHJva2U6IzE4MTgxODtzdHJva2Utd2lkdGg6MS4wOyIgd2lkdGg9IjEwIiB4PSI5MzkiIHk9IjE5My42NDA2Ii8+PHJlY3QgZmlsbD0ibm9uZSIgaGVpZ2h0PSIyMzguOTQ1MyIgc3R5bGU9InN0cm9rZTojMDAwMDAwO3N0cm9rZS13aWR0aDoxLjU7IiB3aWR0aD0iNDg5IiB4PSI0NjUiIHk9IjIzNi41NTQ3Ii8+PHJlY3QgZmlsbD0ibm9uZSIgaGVpZ2h0PSIxMjYuNDI5NyIgc3R5bGU9InN0cm9rZTojMDAwMDAwO3N0cm9rZS13aWR0aDoxLjU7IiB3aWR0aD0iNDY5IiB4PSI0NzUiIHk9IjMwMC4zODI4Ii8+PHJlY3QgZmlsbD0ibm9uZSIgaGVpZ2h0PSIxMjYuNDI5NyIgc3R5bGU9InN0cm9rZTojMDAwMDAwO3N0cm9rZS13aWR0aDoxLjU7IiB3aWR0aD0iNDY1IiB4PSIxMCIgeT0iNTE3LjQxNDEiLz48bGluZSBzdHlsZT0ic3Ryb2tlOiMxODE4MTg7c3Ryb2tlLXdpZHRoOjAuNTtzdHJva2UtZGFzaGFycmF5OjUuMCw1LjA7IiB4MT0iMzciIHgyPSIzNyIgeTE9Ijc5Ljk4NDQiIHkyPSI2NjAuODQzOCIvPjxsaW5lIHN0eWxlPSJzdHJva2U6IzE4MTgxODtzdHJva2Utd2lkdGg6MC41O3N0cm9rZS1kYXNoYXJyYXk6NS4wLDUuMDsiIHgxPSIyODEiIHgyPSIyODEiIHkxPSI3OS45ODQ0IiB5Mj0iNjYwLjg0MzgiLz48bGluZSBzdHlsZT0ic3Ryb2tlOiMxODE4MTg7c3Ryb2tlLXdpZHRoOjAuNTtzdHJva2UtZGFzaGFycmF5OjUuMCw1LjA7IiB4MT0iNTQxIiB4Mj0iNTQxIiB5MT0iNzkuOTg0NCIgeTI9IjY2MC44NDM4Ii8+PGxpbmUgc3R5bGU9InN0cm9rZTojMTgxODE4O3N0cm9rZS13aWR0aDowLjU7c3Ryb2tlLWRhc2hhcnJheTo1LjAsNS4wOyIgeDE9IjgxNSIgeDI9IjgxNSIgeTE9Ijc5Ljk4NDQiIHkyPSI2NjAuODQzOCIvPjxsaW5lIHN0eWxlPSJzdHJva2U6IzE4MTgxODtzdHJva2Utd2lkdGg6MC41O3N0cm9rZS1kYXNoYXJyYXk6NS4wLDUuMDsiIHgxPSI5NDQiIHgyPSI5NDQiIHkxPSI3OS45ODQ0IiB5Mj0iNjYwLjg0MzgiLz48dGV4dCBmaWxsPSIjMDAwMDAwIiBmb250LWZhbWlseT0ic2Fucy1zZXJpZiIgZm9udC1zaXplPSIxNCIgbGVuZ3RoQWRqdXN0PSJzcGFjaW5nIiB0ZXh0TGVuZ3RoPSIyOCIgeD0iMjAiIHk9Ijc4LjIzNDQiPiYjMjk5OTI7JiMyNTE0Mzs8L3RleHQ+PGVsbGlwc2UgY3g9IjM3IiBjeT0iMTMuNSIgZmlsbD0iI0UyRTJGMCIgcng9IjgiIHJ5PSI4IiBzdHlsZT0ic3Ryb2tlOiMxODE4MTg7c3Ryb2tlLXdpZHRoOjAuNTsiLz48cGF0aCBkPSJNMzcsMjEuNSBMMzcsNDguNSBNMjQsMjkuNSBMNTAsMjkuNSBNMzcsNDguNSBMMjQsNjMuNSBNMzcsNDguNSBMNTAsNjMuNSAiIGZpbGw9Im5vbmUiIHN0eWxlPSJzdHJva2U6IzE4MTgxODtzdHJva2Utd2lkdGg6MC41OyIvPjx0ZXh0IGZpbGw9IiMwMDAwMDAiIGZvbnQtZmFtaWx5PSJzYW5zLXNlcmlmIiBmb250LXNpemU9IjE0IiBsZW5ndGhBZGp1c3Q9InNwYWNpbmciIHRleHRMZW5ndGg9IjI4IiB4PSIyMCIgeT0iNjczLjA3ODEiPiYjMjk5OTI7JiMyNTE0Mzs8L3RleHQ+PGVsbGlwc2UgY3g9IjM3IiBjeT0iNjgzLjMyODEiIGZpbGw9IiNFMkUyRjAiIHJ4PSI4IiByeT0iOCIgc3R5bGU9InN0cm9rZTojMTgxODE4O3N0cm9rZS13aWR0aDowLjU7Ii8+PHBhdGggZD0iTTM3LDY5MS4zMjgxIEwzNyw3MTguMzI4MSBNMjQsNjk5LjMyODEgTDUwLDY5OS4zMjgxIE0zNyw3MTguMzI4MSBMMjQsNzMzLjMyODEgTTM3LDcxOC4zMjgxIEw1MCw3MzMuMzI4MSAiIGZpbGw9Im5vbmUiIHN0eWxlPSJzdHJva2U6IzE4MTgxODtzdHJva2Utd2lkdGg6MC41OyIvPjxyZWN0IGZpbGw9IiNFMkUyRjAiIGhlaWdodD0iMjguOTg0NCIgcng9IjIuNSIgcnk9IjIuNSIgc3R5bGU9InN0cm9rZTojMTgxODE4O3N0cm9rZS13aWR0aDowLjU7IiB3aWR0aD0iNzAiIHg9IjI0NiIgeT0iNTAiLz48dGV4dCBmaWxsPSIjMDAwMDAwIiBmb250LWZhbWlseT0ic2Fucy1zZXJpZiIgZm9udC1zaXplPSIxNCIgbGVuZ3RoQWRqdXN0PSJzcGFjaW5nIiB0ZXh0TGVuZ3RoPSI1NiIgeD0iMjUzIiB5PSI3MC4yMzQ0Ij4mIzIxMDY5OyYjMzE0NzE7JiMzOTAyOTsmIzM4NzU0OzwvdGV4dD48cmVjdCBmaWxsPSIjRTJFMkYwIiBoZWlnaHQ9IjI4Ljk4NDQiIHJ4PSIyLjUiIHJ5PSIyLjUiIHN0eWxlPSJzdHJva2U6IzE4MTgxODtzdHJva2Utd2lkdGg6MC41OyIgd2lkdGg9IjcwIiB4PSIyNDYiIHk9IjY1OS44NDM4Ii8+PHRleHQgZmlsbD0iIzAwMDAwMCIgZm9udC1mYW1pbHk9InNhbnMtc2VyaWYiIGZvbnQtc2l6ZT0iMTQiIGxlbmd0aEFkanVzdD0ic3BhY2luZyIgdGV4dExlbmd0aD0iNTYiIHg9IjI1MyIgeT0iNjgwLjA3ODEiPiYjMjEwNjk7JiMzMTQ3MTsmIzM5MDI5OyYjMzg3NTQ7PC90ZXh0PjxyZWN0IGZpbGw9IiNFMkUyRjAiIGhlaWdodD0iMjguOTg0NCIgcng9IjIuNSIgcnk9IjIuNSIgc3R5bGU9InN0cm9rZTojMTgxODE4O3N0cm9rZS13aWR0aDowLjU7IiB3aWR0aD0iMTEyIiB4PSI0ODUiIHk9IjUwIi8+PHRleHQgZmlsbD0iIzAwMDAwMCIgZm9udC1mYW1pbHk9InNhbnMtc2VyaWYiIGZvbnQtc2l6ZT0iMTQiIGxlbmd0aEFkanVzdD0ic3BhY2luZyIgdGV4dExlbmd0aD0iOTgiIHg9IjQ5MiIgeT0iNzAuMjM0NCI+QXV0aENvbnRyb2xsZXI8L3RleHQ+PHJlY3QgZmlsbD0iI0UyRTJGMCIgaGVpZ2h0PSIyOC45ODQ0IiByeD0iMi41IiByeT0iMi41IiBzdHlsZT0ic3Ryb2tlOiMxODE4MTg7c3Ryb2tlLXdpZHRoOjAuNTsiIHdpZHRoPSIxMTIiIHg9IjQ4NSIgeT0iNjU5Ljg0MzgiLz48dGV4dCBmaWxsPSIjMDAwMDAwIiBmb250LWZhbWlseT0ic2Fucy1zZXJpZiIgZm9udC1zaXplPSIxNCIgbGVuZ3RoQWRqdXN0PSJzcGFjaW5nIiB0ZXh0TGVuZ3RoPSI5OCIgeD0iNDkyIiB5PSI2ODAuMDc4MSI+QXV0aENvbnRyb2xsZXI8L3RleHQ+PHJlY3QgZmlsbD0iI0UyRTJGMCIgaGVpZ2h0PSIyOC45ODQ0IiByeD0iMi41IiByeT0iMi41IiBzdHlsZT0ic3Ryb2tlOiMxODE4MTg7c3Ryb2tlLXdpZHRoOjAuNTsiIHdpZHRoPSIxMjAiIHg9Ijc1NSIgeT0iNTAiLz48dGV4dCBmaWxsPSIjMDAwMDAwIiBmb250LWZhbWlseT0ic2Fucy1zZXJpZiIgZm9udC1zaXplPSIxNCIgbGVuZ3RoQWRqdXN0PSJzcGFjaW5nIiB0ZXh0TGVuZ3RoPSIxMDYiIHg9Ijc2MiIgeT0iNzAuMjM0NCI+QXV0aFNlcnZpY2VJbXBsPC90ZXh0PjxyZWN0IGZpbGw9IiNFMkUyRjAiIGhlaWdodD0iMjguOTg0NCIgcng9IjIuNSIgcnk9IjIuNSIgc3R5bGU9InN0cm9rZTojMTgxODE4O3N0cm9rZS13aWR0aDowLjU7IiB3aWR0aD0iMTIwIiB4PSI3NTUiIHk9IjY1OS44NDM4Ii8+PHRleHQgZmlsbD0iIzAwMDAwMCIgZm9udC1mYW1pbHk9InNhbnMtc2VyaWYiIGZvbnQtc2l6ZT0iMTQiIGxlbmd0aEFkanVzdD0ic3BhY2luZyIgdGV4dExlbmd0aD0iMTA2IiB4PSI3NjIiIHk9IjY4MC4wNzgxIj5BdXRoU2VydmljZUltcGw8L3RleHQ+PHJlY3QgZmlsbD0iI0UyRTJGMCIgaGVpZ2h0PSIyOC45ODQ0IiByeD0iMi41IiByeT0iMi41IiBzdHlsZT0ic3Ryb2tlOiMxODE4MTg7c3Ryb2tlLXdpZHRoOjAuNTsiIHdpZHRoPSIxMTIiIHg9Ijg4OCIgeT0iNTAiLz48dGV4dCBmaWxsPSIjMDAwMDAwIiBmb250LWZhbWlseT0ic2Fucy1zZXJpZiIgZm9udC1zaXplPSIxNCIgbGVuZ3RoQWRqdXN0PSJzcGFjaW5nIiB0ZXh0TGVuZ3RoPSI5OCIgeD0iODk1IiB5PSI3MC4yMzQ0Ij5Vc2VyUmVwb3NpdG9yeTwvdGV4dD48cmVjdCBmaWxsPSIjRTJFMkYwIiBoZWlnaHQ9IjI4Ljk4NDQiIHJ4PSIyLjUiIHJ5PSIyLjUiIHN0eWxlPSJzdHJva2U6IzE4MTgxODtzdHJva2Utd2lkdGg6MC41OyIgd2lkdGg9IjExMiIgeD0iODg4IiB5PSI2NTkuODQzOCIvPjx0ZXh0IGZpbGw9IiMwMDAwMDAiIGZvbnQtZmFtaWx5PSJzYW5zLXNlcmlmIiBmb250LXNpemU9IjE0IiBsZW5ndGhBZGp1c3Q9InNwYWNpbmciIHRleHRMZW5ndGg9Ijk4IiB4PSI4OTUiIHk9IjY4MC4wNzgxIj5Vc2VyUmVwb3NpdG9yeTwvdGV4dD48cmVjdCBmaWxsPSIjRkZGRkZGIiBoZWlnaHQ9IjU0MC45NDUzIiBzdHlsZT0ic3Ryb2tlOiMxODE4MTg7c3Ryb2tlLXdpZHRoOjEuMDsiIHdpZHRoPSIxMCIgeD0iMjc2IiB5PSIxMDkuODk4NCIvPjxyZWN0IGZpbGw9IiNGRkZGRkYiIGhlaWdodD0iMzY0LjYwMTYiIHN0eWxlPSJzdHJva2U6IzE4MTgxODtzdHJva2Utd2lkdGg6MS4wOyIgd2lkdGg9IjEwIiB4PSI1MzYiIHk9IjEzNy44MTI1Ii8+PHJlY3QgZmlsbD0iI0ZGRkZGRiIgaGVpZ2h0PSIzMTYuNzczNCIgc3R5bGU9InN0cm9rZTojMTgxODE4O3N0cm9rZS13aWR0aDoxLjA7IiB3aWR0aD0iMTAiIHg9IjgxMCIgeT0iMTY1LjcyNjYiLz48cmVjdCBmaWxsPSIjRkZGRkZGIiBoZWlnaHQ9IjI3LjkxNDEiIHN0eWxlPSJzdHJva2U6IzE4MTgxODtzdHJva2Utd2lkdGg6MS4wOyIgd2lkdGg9IjEwIiB4PSI5MzkiIHk9IjE5My42NDA2Ii8+PHBvbHlnb24gZmlsbD0iIzE4MTgxOCIgcG9pbnRzPSIyNjQsMTA1Ljg5ODQsMjc0LDEwOS44OTg0LDI2NCwxMTMuODk4NCwyNjgsMTA5Ljg5ODQiIHN0eWxlPSJzdHJva2U6IzE4MTgxODtzdHJva2Utd2lkdGg6MS4wOyIvPjxsaW5lIHN0eWxlPSJzdHJva2U6IzE4MTgxODtzdHJva2Utd2lkdGg6MS4wOyIgeDE9IjM3IiB4Mj0iMjcwIiB5MT0iMTA5Ljg5ODQiIHkyPSIxMDkuODk4NCIvPjx0ZXh0IGZpbGw9IiMwMDAwMDAiIGZvbnQtZmFtaWx5PSJzYW5zLXNlcmlmIiBmb250LXNpemU9IjEzIiBmb250LXdlaWdodD0iYm9sZCIgbGVuZ3RoQWRqdXN0PSJzcGFjaW5nIiB0ZXh0TGVuZ3RoPSI3IiB4PSI0NCIgeT0iMTA2LjI3MzQiPjE8L3RleHQ+PHRleHQgZmlsbD0iIzAwMDAwMCIgZm9udC1mYW1pbHk9InNhbnMtc2VyaWYiIGZvbnQtc2l6ZT0iMTMiIGxlbmd0aEFkanVzdD0ic3BhY2luZyIgdGV4dExlbmd0aD0iMjA5IiB4PSI1NSIgeT0iMTA2LjI3MzQiPiYjMzY3NTU7JiMyMDgzNzsmIzI5OTkyOyYjMjUxNDM7JiMyMTUxNzsmIzIxNjQ0OyYjMjM0OTQ7JiMzMDcyMTsmIzY1MjkyOyYjMjg4NTc7JiMyMDk4NzsmIzgyMjA7JiMzMDMzMTsmIzI0NDA1OyYjODIyMTsmIzI1MzUzOyYjMzgwNjI7PC90ZXh0Pjxwb2x5Z29uIGZpbGw9IiMxODE4MTgiIHBvaW50cz0iNTI0LDEzMy44MTI1LDUzNCwxMzcuODEyNSw1MjQsMTQxLjgxMjUsNTI4LDEzNy44MTI1IiBzdHlsZT0ic3Ryb2tlOiMxODE4MTg7c3Ryb2tlLXdpZHRoOjEuMDsiLz48bGluZSBzdHlsZT0ic3Ryb2tlOiMxODE4MTg7c3Ryb2tlLXdpZHRoOjEuMDsiIHgxPSIyODYiIHgyPSI1MzAiIHkxPSIxMzcuODEyNSIgeTI9IjEzNy44MTI1Ii8+PHRleHQgZmlsbD0iIzAwMDAwMCIgZm9udC1mYW1pbHk9InNhbnMtc2VyaWYiIGZvbnQtc2l6ZT0iMTMiIGZvbnQtd2VpZ2h0PSJib2xkIiBsZW5ndGhBZGp1c3Q9InNwYWNpbmciIHRleHRMZW5ndGg9IjciIHg9IjI5MyIgeT0iMTM0LjE4NzUiPjI8L3RleHQ+PHRleHQgZmlsbD0iIzAwMDAwMCIgZm9udC1mYW1pbHk9InNhbnMtc2VyaWYiIGZvbnQtc2l6ZT0iMTMiIGxlbmd0aEFkanVzdD0ic3BhY2luZyIgdGV4dExlbmd0aD0iMjIwIiB4PSIzMDQiIHk9IjEzNC4xODc1Ij4mIzIxNDU3OyYjMzY4NjU7JiMzMDMzMTsmIzI0NDA1OyYjMzU4MzE7JiMyNzcxNDsgKHVzZXJuYW1lLCBwYXNzd29yZCk8L3RleHQ+PHBvbHlnb24gZmlsbD0iIzE4MTgxOCIgcG9pbnRzPSI3OTgsMTYxLjcyNjYsODA4LDE2NS43MjY2LDc5OCwxNjkuNzI2Niw4MDIsMTY1LjcyNjYiIHN0eWxlPSJzdHJva2U6IzE4MTgxODtzdHJva2Utd2lkdGg6MS4wOyIvPjxsaW5lIHN0eWxlPSJzdHJva2U6IzE4MTgxODtzdHJva2Utd2lkdGg6MS4wOyIgeDE9IjU0NiIgeDI9IjgwNCIgeTE9IjE2NS43MjY2IiB5Mj0iMTY1LjcyNjYiLz48dGV4dCBmaWxsPSIjMDAwMDAwIiBmb250LWZhbWlseT0ic2Fucy1zZXJpZiIgZm9udC1zaXplPSIxMyIgZm9udC13ZWlnaHQ9ImJvbGQiIGxlbmd0aEFkanVzdD0ic3BhY2luZyIgdGV4dExlbmd0aD0iNyIgeD0iNTUzIiB5PSIxNjIuMTAxNiI+MzwvdGV4dD48dGV4dCBmaWxsPSIjMDAwMDAwIiBmb250LWZhbWlseT0ic2Fucy1zZXJpZiIgZm9udC1zaXplPSIxMyIgbGVuZ3RoQWRqdXN0PSJzcGFjaW5nIiB0ZXh0TGVuZ3RoPSIyMzQiIHg9IjU2NCIgeT0iMTYyLjEwMTYiPiYjMzU4NDM7JiMyOTk5MjsgbG9naW4odXNlcm5hbWUsIHBhc3N3b3JkKSAmIzI2MDQxOyYjMjc4NjE7PC90ZXh0Pjxwb2x5Z29uIGZpbGw9IiMxODE4MTgiIHBvaW50cz0iOTI3LDE4OS42NDA2LDkzNywxOTMuNjQwNiw5MjcsMTk3LjY0MDYsOTMxLDE5My42NDA2IiBzdHlsZT0ic3Ryb2tlOiMxODE4MTg7c3Ryb2tlLXdpZHRoOjEuMDsiLz48bGluZSBzdHlsZT0ic3Ryb2tlOiMxODE4MTg7c3Ryb2tlLXdpZHRoOjEuMDsiIHgxPSI4MjAiIHgyPSI5MzMiIHkxPSIxOTMuNjQwNiIgeTI9IjE5My42NDA2Ii8+PHRleHQgZmlsbD0iIzAwMDAwMCIgZm9udC1mYW1pbHk9InNhbnMtc2VyaWYiIGZvbnQtc2l6ZT0iMTMiIGZvbnQtd2VpZ2h0PSJib2xkIiBsZW5ndGhBZGp1c3Q9InNwYWNpbmciIHRleHRMZW5ndGg9IjciIHg9IjgyNyIgeT0iMTkwLjAxNTYiPjQ8L3RleHQ+PHRleHQgZmlsbD0iIzAwMDAwMCIgZm9udC1mYW1pbHk9InNhbnMtc2VyaWYiIGZvbnQtc2l6ZT0iMTMiIGxlbmd0aEFkanVzdD0ic3BhY2luZyIgdGV4dExlbmd0aD0iNzgiIHg9IjgzOCIgeT0iMTkwLjAxNTYiPiYjMjY1OTc7JiMzNTgxMDsmIzI5OTkyOyYjMjUxNDM7JiMyMDQ0OTsmIzI0Njg3OzwvdGV4dD48cG9seWdvbiBmaWxsPSIjMTgxODE4IiBwb2ludHM9IjgzMSwyMTcuNTU0Nyw4MjEsMjIxLjU1NDcsODMxLDIyNS41NTQ3LDgyNywyMjEuNTU0NyIgc3R5bGU9InN0cm9rZTojMTgxODE4O3N0cm9rZS13aWR0aDoxLjA7Ii8+PGxpbmUgc3R5bGU9InN0cm9rZTojMTgxODE4O3N0cm9rZS13aWR0aDoxLjA7c3Ryb2tlLWRhc2hhcnJheToyLjAsMi4wOyIgeDE9IjgyNSIgeDI9Ijk0MyIgeTE9IjIyMS41NTQ3IiB5Mj0iMjIxLjU1NDciLz48dGV4dCBmaWxsPSIjMDAwMDAwIiBmb250LWZhbWlseT0ic2Fucy1zZXJpZiIgZm9udC1zaXplPSIxMyIgZm9udC13ZWlnaHQ9ImJvbGQiIGxlbmd0aEFkanVzdD0ic3BhY2luZyIgdGV4dExlbmd0aD0iNyIgeD0iODM3IiB5PSIyMTcuOTI5NyI+NTwvdGV4dD48dGV4dCBmaWxsPSIjMDAwMDAwIiBmb250LWZhbWlseT0ic2Fucy1zZXJpZiIgZm9udC1zaXplPSIxMyIgbGVuZ3RoQWRqdXN0PSJzcGFjaW5nIiB0ZXh0TGVuZ3RoPSI3OCIgeD0iODQ4IiB5PSIyMTcuOTI5NyI+JiMzNjgyMDsmIzIyMjM4OyYjMjk5OTI7JiMyNTE0MzsmIzIwNDQ5OyYjMjQ2ODc7PC90ZXh0PjxwYXRoIGQ9Ik00NjUsMjM2LjU1NDcgTDUyOSwyMzYuNTU0NyBMNTI5LDI0Mi40Njg4IEw1MTksMjUyLjQ2ODggTDQ2NSwyNTIuNDY4OCBMNDY1LDIzNi41NTQ3ICIgZmlsbD0iI0VFRUVFRSIgc3R5bGU9InN0cm9rZTojMDAwMDAwO3N0cm9rZS13aWR0aDoxLjU7Ii8+PHJlY3QgZmlsbD0ibm9uZSIgaGVpZ2h0PSIyMzguOTQ1MyIgc3R5bGU9InN0cm9rZTojMDAwMDAwO3N0cm9rZS13aWR0aDoxLjU7IiB3aWR0aD0iNDg5IiB4PSI0NjUiIHk9IjIzNi41NTQ3Ii8+PHRleHQgZmlsbD0iIzAwMDAwMCIgZm9udC1mYW1pbHk9InNhbnMtc2VyaWYiIGZvbnQtc2l6ZT0iMTMiIGZvbnQtd2VpZ2h0PSJib2xkIiBsZW5ndGhBZGp1c3Q9InNwYWNpbmciIHRleHRMZW5ndGg9IjE5IiB4PSI0ODAiIHk9IjI0OS44NDM4Ij5hbHQ8L3RleHQ+PHRleHQgZmlsbD0iIzAwMDAwMCIgZm9udC1mYW1pbHk9InNhbnMtc2VyaWYiIGZvbnQtc2l6ZT0iMTEiIGZvbnQtd2VpZ2h0PSJib2xkIiBsZW5ndGhBZGp1c3Q9InNwYWNpbmciIHRleHRMZW5ndGg9Ijc4IiB4PSI1NDQiIHk9IjI0OC45NTMxIj5bJiMyOTk5MjsmIzI1MTQzOyYjMjA0NDk7JiMyNDY4NzsmIzIzMzg0OyYjMjIzMTI7XTwvdGV4dD48bGluZSBzdHlsZT0ic3Ryb2tlOiMxODE4MTg7c3Ryb2tlLXdpZHRoOjEuMDsiIHgxPSI4MjAiIHgyPSI4NjIiIHkxPSIyNzIuMzgyOCIgeTI9IjI3Mi4zODI4Ii8+PGxpbmUgc3R5bGU9InN0cm9rZTojMTgxODE4O3N0cm9rZS13aWR0aDoxLjA7IiB4MT0iODYyIiB4Mj0iODYyIiB5MT0iMjcyLjM4MjgiIHkyPSIyODUuMzgyOCIvPjxsaW5lIHN0eWxlPSJzdHJva2U6IzE4MTgxODtzdHJva2Utd2lkdGg6MS4wOyIgeDE9IjgyMSIgeDI9Ijg2MiIgeTE9IjI4NS4zODI4IiB5Mj0iMjg1LjM4MjgiLz48cG9seWdvbiBmaWxsPSIjMTgxODE4IiBwb2ludHM9IjgzMSwyODEuMzgyOCw4MjEsMjg1LjM4MjgsODMxLDI4OS4zODI4LDgyNywyODUuMzgyOCIgc3R5bGU9InN0cm9rZTojMTgxODE4O3N0cm9rZS13aWR0aDoxLjA7Ii8+PHRleHQgZmlsbD0iIzAwMDAwMCIgZm9udC1mYW1pbHk9InNhbnMtc2VyaWYiIGZvbnQtc2l6ZT0iMTMiIGZvbnQtd2VpZ2h0PSJib2xkIiBsZW5ndGhBZGp1c3Q9InNwYWNpbmciIHRleHRMZW5ndGg9IjciIHg9IjgyNyIgeT0iMjY4Ljc1NzgiPjY8L3RleHQ+PHRleHQgZmlsbD0iIzAwMDAwMCIgZm9udC1mYW1pbHk9InNhbnMtc2VyaWYiIGZvbnQtc2l6ZT0iMTMiIGxlbmd0aEFkanVzdD0ic3BhY2luZyIgdGV4dExlbmd0aD0iNTIiIHg9IjgzOCIgeT0iMjY4Ljc1NzgiPiYjMzk1NjQ7JiMzNTc3NzsmIzIzNDk0OyYjMzA3MjE7PC90ZXh0PjxwYXRoIGQ9Ik00NzUsMzAwLjM4MjggTDUzOSwzMDAuMzgyOCBMNTM5LDMwNi4yOTY5IEw1MjksMzE2LjI5NjkgTDQ3NSwzMTYuMjk2OSBMNDc1LDMwMC4zODI4ICIgZmlsbD0iI0VFRUVFRSIgc3R5bGU9InN0cm9rZTojMDAwMDAwO3N0cm9rZS13aWR0aDoxLjU7Ii8+PHJlY3QgZmlsbD0ibm9uZSIgaGVpZ2h0PSIxMjYuNDI5NyIgc3R5bGU9InN0cm9rZTojMDAwMDAwO3N0cm9rZS13aWR0aDoxLjU7IiB3aWR0aD0iNDY5IiB4PSI0NzUiIHk9IjMwMC4zODI4Ii8+PHRleHQgZmlsbD0iIzAwMDAwMCIgZm9udC1mYW1pbHk9InNhbnMtc2VyaWYiIGZvbnQtc2l6ZT0iMTMiIGZvbnQtd2VpZ2h0PSJib2xkIiBsZW5ndGhBZGp1c3Q9InNwYWNpbmciIHRleHRMZW5ndGg9IjE5IiB4PSI0OTAiIHk9IjMxMy42NzE5Ij5hbHQ8L3RleHQ+PHRleHQgZmlsbD0iIzAwMDAwMCIgZm9udC1mYW1pbHk9InNhbnMtc2VyaWYiIGZvbnQtc2l6ZT0iMTEiIGZvbnQtd2VpZ2h0PSJib2xkIiBsZW5ndGhBZGp1c3Q9InNwYWNpbmciIHRleHRMZW5ndGg9IjU2IiB4PSI1NTQiIHk9IjMxMi43ODEzIj5bJiMyMzQ5NDsmIzMwNzIxOyYjMjc0OTE7JiMzMDgzMDtdPC90ZXh0PjxsaW5lIHN0eWxlPSJzdHJva2U6IzE4MTgxODtzdHJva2Utd2lkdGg6MS4wOyIgeDE9IjgyMCIgeDI9Ijg2MiIgeTE9IjMzNi4yMTA5IiB5Mj0iMzM2LjIxMDkiLz48bGluZSBzdHlsZT0ic3Ryb2tlOiMxODE4MTg7c3Ryb2tlLXdpZHRoOjEuMDsiIHgxPSI4NjIiIHgyPSI4NjIiIHkxPSIzMzYuMjEwOSIgeTI9IjM0OS4yMTA5Ii8+PGxpbmUgc3R5bGU9InN0cm9rZTojMTgxODE4O3N0cm9rZS13aWR0aDoxLjA7IiB4MT0iODIxIiB4Mj0iODYyIiB5MT0iMzQ5LjIxMDkiIHkyPSIzNDkuMjEwOSIvPjxwb2x5Z29uIGZpbGw9IiMxODE4MTgiIHBvaW50cz0iODMxLDM0NS4yMTA5LDgyMSwzNDkuMjEwOSw4MzEsMzUzLjIxMDksODI3LDM0OS4yMTA5IiBzdHlsZT0ic3Ryb2tlOiMxODE4MTg7c3Ryb2tlLXdpZHRoOjEuMDsiLz48dGV4dCBmaWxsPSIjMDAwMDAwIiBmb250LWZhbWlseT0ic2Fucy1zZXJpZiIgZm9udC1zaXplPSIxMyIgZm9udC13ZWlnaHQ9ImJvbGQiIGxlbmd0aEFkanVzdD0ic3BhY2luZyIgdGV4dExlbmd0aD0iNyIgeD0iODI3IiB5PSIzMzIuNTg1OSI+NzwvdGV4dD48dGV4dCBmaWxsPSIjMDAwMDAwIiBmb250LWZhbWlseT0ic2Fucy1zZXJpZiIgZm9udC1zaXplPSIxMyIgbGVuZ3RoQWRqdXN0PSJzcGFjaW5nIiB0ZXh0TGVuZ3RoPSI5NCIgeD0iODM4IiB5PSIzMzIuNTg1OSI+JiMyOTk4MzsmIzI1MTA0OyBKV1QgdG9rZW48L3RleHQ+PHBvbHlnb24gZmlsbD0iIzE4MTgxOCIgcG9pbnRzPSI1NTcsMzczLjEyNSw1NDcsMzc3LjEyNSw1NTcsMzgxLjEyNSw1NTMsMzc3LjEyNSIgc3R5bGU9InN0cm9rZTojMTgxODE4O3N0cm9rZS13aWR0aDoxLjA7Ii8+PGxpbmUgc3R5bGU9InN0cm9rZTojMTgxODE4O3N0cm9rZS13aWR0aDoxLjA7c3Ryb2tlLWRhc2hhcnJheToyLjAsMi4wOyIgeDE9IjU1MSIgeDI9IjgwOSIgeTE9IjM3Ny4xMjUiIHkyPSIzNzcuMTI1Ii8+PHRleHQgZmlsbD0iIzAwMDAwMCIgZm9udC1mYW1pbHk9InNhbnMtc2VyaWYiIGZvbnQtc2l6ZT0iMTMiIGZvbnQtd2VpZ2h0PSJib2xkIiBsZW5ndGhBZGp1c3Q9InNwYWNpbmciIHRleHRMZW5ndGg9IjciIHg9IjU2MyIgeT0iMzczLjUiPjg8L3RleHQ+PHRleHQgZmlsbD0iIzAwMDAwMCIgZm9udC1mYW1pbHk9InNhbnMtc2VyaWYiIGZvbnQtc2l6ZT0iMTMiIGxlbmd0aEFkanVzdD0ic3BhY2luZyIgdGV4dExlbmd0aD0iOTQiIHg9IjU3NCIgeT0iMzczLjUiPiYjMzY4MjA7JiMyMjIzODsgSldUIHRva2VuPC90ZXh0PjxsaW5lIHN0eWxlPSJzdHJva2U6IzAwMDAwMDtzdHJva2Utd2lkdGg6MS4wO3N0cm9rZS1kYXNoYXJyYXk6Mi4wLDIuMDsiIHgxPSI0NzUiIHgyPSI5NDQiIHkxPSIzODYuMTI1IiB5Mj0iMzg2LjEyNSIvPjx0ZXh0IGZpbGw9IiMwMDAwMDAiIGZvbnQtZmFtaWx5PSJzYW5zLXNlcmlmIiBmb250LXNpemU9IjExIiBmb250LXdlaWdodD0iYm9sZCIgbGVuZ3RoQWRqdXN0PSJzcGFjaW5nIiB0ZXh0TGVuZ3RoPSI1NiIgeD0iNDgwIiB5PSIzOTYuNTIzNCI+WyYjMjM0OTQ7JiMzMDcyMTsmIzM4MTY5OyYjMzU4MjM7XTwvdGV4dD48cG9seWdvbiBmaWxsPSIjMTgxODE4IiBwb2ludHM9IjU1Nyw0MTQuODEyNSw1NDcsNDE4LjgxMjUsNTU3LDQyMi44MTI1LDU1Myw0MTguODEyNSIgc3R5bGU9InN0cm9rZTojMTgxODE4O3N0cm9rZS13aWR0aDoxLjA7Ii8+PGxpbmUgc3R5bGU9InN0cm9rZTojMTgxODE4O3N0cm9rZS13aWR0aDoxLjA7c3Ryb2tlLWRhc2hhcnJheToyLjAsMi4wOyIgeDE9IjU1MSIgeDI9IjgwOSIgeTE9IjQxOC44MTI1IiB5Mj0iNDE4LjgxMjUiLz48dGV4dCBmaWxsPSIjMDAwMDAwIiBmb250LWZhbWlseT0ic2Fucy1zZXJpZiIgZm9udC1zaXplPSIxMyIgZm9udC13ZWlnaHQ9ImJvbGQiIGxlbmd0aEFkanVzdD0ic3BhY2luZyIgdGV4dExlbmd0aD0iNyIgeD0iNTYzIiB5PSI0MTUuMTg3NSI+OTwvdGV4dD48dGV4dCBmaWxsPSIjMDAwMDAwIiBmb250LWZhbWlseT0ic2Fucy1zZXJpZiIgZm9udC1zaXplPSIxMyIgbGVuZ3RoQWRqdXN0PSJzcGFjaW5nIiB0ZXh0TGVuZ3RoPSI3OCIgeD0iNTc0IiB5PSI0MTUuMTg3NSI+JiMzNjgyMDsmIzIyMjM4OyYjMzgxNjk7JiMzNTgyMzsmIzIwNDQ5OyYjMjQ2ODc7PC90ZXh0PjxsaW5lIHN0eWxlPSJzdHJva2U6IzAwMDAwMDtzdHJva2Utd2lkdGg6MS4wO3N0cm9rZS1kYXNoYXJyYXk6Mi4wLDIuMDsiIHgxPSI0NjUiIHgyPSI5NTQiIHkxPSI0MzQuODEyNSIgeTI9IjQzNC44MTI1Ii8+PHRleHQgZmlsbD0iIzAwMDAwMCIgZm9udC1mYW1pbHk9InNhbnMtc2VyaWYiIGZvbnQtc2l6ZT0iMTEiIGZvbnQtd2VpZ2h0PSJib2xkIiBsZW5ndGhBZGp1c3Q9InNwYWNpbmciIHRleHRMZW5ndGg9Ijg5IiB4PSI0NzAiIHk9IjQ0NS4yMTA5Ij5bJiMyOTk5MjsmIzI1MTQzOyYjMjA0NDk7JiMyNDY4NzsmIzE5OTgxOyYjMjMzODQ7JiMyMjMxMjtdPC90ZXh0Pjxwb2x5Z29uIGZpbGw9IiMxODE4MTgiIHBvaW50cz0iNTU3LDQ2My41LDU0Nyw0NjcuNSw1NTcsNDcxLjUsNTUzLDQ2Ny41IiBzdHlsZT0ic3Ryb2tlOiMxODE4MTg7c3Ryb2tlLXdpZHRoOjEuMDsiLz48bGluZSBzdHlsZT0ic3Ryb2tlOiMxODE4MTg7c3Ryb2tlLXdpZHRoOjEuMDtzdHJva2UtZGFzaGFycmF5OjIuMCwyLjA7IiB4MT0iNTUxIiB4Mj0iODA5IiB5MT0iNDY3LjUiIHkyPSI0NjcuNSIvPjx0ZXh0IGZpbGw9IiMwMDAwMDAiIGZvbnQtZmFtaWx5PSJzYW5zLXNlcmlmIiBmb250LXNpemU9IjEzIiBmb250LXdlaWdodD0iYm9sZCIgbGVuZ3RoQWRqdXN0PSJzcGFjaW5nIiB0ZXh0TGVuZ3RoPSIxNCIgeD0iNTYzIiB5PSI0NjMuODc1Ij4xMDwvdGV4dD48dGV4dCBmaWxsPSIjMDAwMDAwIiBmb250LWZhbWlseT0ic2Fucy1zZXJpZiIgZm9udC1zaXplPSIxMyIgbGVuZ3RoQWRqdXN0PSJzcGFjaW5nIiB0ZXh0TGVuZ3RoPSI3OCIgeD0iNTgxIiB5PSI0NjMuODc1Ij4mIzM2ODIwOyYjMjIyMzg7JiMzODE2OTsmIzM1ODIzOyYjMjA0NDk7JiMyNDY4Nzs8L3RleHQ+PHBvbHlnb24gZmlsbD0iIzE4MTgxOCIgcG9pbnRzPSIyOTcsNDk4LjQxNDEsMjg3LDUwMi40MTQxLDI5Nyw1MDYuNDE0MSwyOTMsNTAyLjQxNDEiIHN0eWxlPSJzdHJva2U6IzE4MTgxODtzdHJva2Utd2lkdGg6MS4wOyIvPjxsaW5lIHN0eWxlPSJzdHJva2U6IzE4MTgxODtzdHJva2Utd2lkdGg6MS4wO3N0cm9rZS1kYXNoYXJyYXk6Mi4wLDIuMDsiIHgxPSIyOTEiIHgyPSI1NDAiIHkxPSI1MDIuNDE0MSIgeTI9IjUwMi40MTQxIi8+PHRleHQgZmlsbD0iIzAwMDAwMCIgZm9udC1mYW1pbHk9InNhbnMtc2VyaWYiIGZvbnQtc2l6ZT0iMTMiIGZvbnQtd2VpZ2h0PSJib2xkIiBsZW5ndGhBZGp1c3Q9InNwYWNpbmciIHRleHRMZW5ndGg9IjE0IiB4PSIzMDMiIHk9IjQ5OC43ODkxIj4xMTwvdGV4dD48dGV4dCBmaWxsPSIjMDAwMDAwIiBmb250LWZhbWlseT0ic2Fucy1zZXJpZiIgZm9udC1zaXplPSIxMyIgbGVuZ3RoQWRqdXN0PSJzcGFjaW5nIiB0ZXh0TGVuZ3RoPSIxNzciIHg9IjMyMSIgeT0iNDk4Ljc4OTEiPiYjMzY4MjA7JiMyMjIzODsmIzMyNDY3OyYjMjY1MjQ7ICh0b2tlbiAmIzI1MTEwOyYjMzgxNjk7JiMzNTgyMzsmIzIwNDQ5OyYjMjQ2ODc7KTwvdGV4dD48cGF0aCBkPSJNMTAsNTE3LjQxNDEgTDc0LDUxNy40MTQxIEw3NCw1MjMuMzI4MSBMNjQsNTMzLjMyODEgTDEwLDUzMy4zMjgxIEwxMCw1MTcuNDE0MSAiIGZpbGw9IiNFRUVFRUUiIHN0eWxlPSJzdHJva2U6IzAwMDAwMDtzdHJva2Utd2lkdGg6MS41OyIvPjxyZWN0IGZpbGw9Im5vbmUiIGhlaWdodD0iMTI2LjQyOTciIHN0eWxlPSJzdHJva2U6IzAwMDAwMDtzdHJva2Utd2lkdGg6MS41OyIgd2lkdGg9IjQ2NSIgeD0iMTAiIHk9IjUxNy40MTQxIi8+PHRleHQgZmlsbD0iIzAwMDAwMCIgZm9udC1mYW1pbHk9InNhbnMtc2VyaWYiIGZvbnQtc2l6ZT0iMTMiIGZvbnQtd2VpZ2h0PSJib2xkIiBsZW5ndGhBZGp1c3Q9InNwYWNpbmciIHRleHRMZW5ndGg9IjE5IiB4PSIyNSIgeT0iNTMwLjcwMzEiPmFsdDwvdGV4dD48dGV4dCBmaWxsPSIjMDAwMDAwIiBmb250LWZhbWlseT0ic2Fucy1zZXJpZiIgZm9udC1zaXplPSIxMSIgZm9udC13ZWlnaHQ9ImJvbGQiIGxlbmd0aEFkanVzdD0ic3BhY2luZyIgdGV4dExlbmd0aD0iNTYiIHg9Ijg5IiB5PSI1MjkuODEyNSI+WyYjMzAzMzE7JiMyNDQwNTsmIzI1MTA0OyYjMjExNTE7XTwvdGV4dD48bGluZSBzdHlsZT0ic3Ryb2tlOiMxODE4MTg7c3Ryb2tlLXdpZHRoOjEuMDsiIHgxPSIyODYiIHgyPSIzMjgiIHkxPSI1NTMuMjQyMiIgeTI9IjU1My4yNDIyIi8+PGxpbmUgc3R5bGU9InN0cm9rZTojMTgxODE4O3N0cm9rZS13aWR0aDoxLjA7IiB4MT0iMzI4IiB4Mj0iMzI4IiB5MT0iNTUzLjI0MjIiIHkyPSI1NjYuMjQyMiIvPjxsaW5lIHN0eWxlPSJzdHJva2U6IzE4MTgxODtzdHJva2Utd2lkdGg6MS4wOyIgeDE9IjI4NyIgeDI9IjMyOCIgeTE9IjU2Ni4yNDIyIiB5Mj0iNTY2LjI0MjIiLz48cG9seWdvbiBmaWxsPSIjMTgxODE4IiBwb2ludHM9IjI5Nyw1NjIuMjQyMiwyODcsNTY2LjI0MjIsMjk3LDU3MC4yNDIyLDI5Myw1NjYuMjQyMiIgc3R5bGU9InN0cm9rZTojMTgxODE4O3N0cm9rZS13aWR0aDoxLjA7Ii8+PHRleHQgZmlsbD0iIzAwMDAwMCIgZm9udC1mYW1pbHk9InNhbnMtc2VyaWYiIGZvbnQtc2l6ZT0iMTMiIGZvbnQtd2VpZ2h0PSJib2xkIiBsZW5ndGhBZGp1c3Q9InNwYWNpbmciIHRleHRMZW5ndGg9IjE0IiB4PSIyOTMiIHk9IjU0OS42MTcyIj4xMjwvdGV4dD48dGV4dCBmaWxsPSIjMDAwMDAwIiBmb250LWZhbWlseT0ic2Fucy1zZXJpZiIgZm9udC1zaXplPSIxMyIgbGVuZ3RoQWRqdXN0PSJzcGFjaW5nIiB0ZXh0TGVuZ3RoPSIxNTIiIHg9IjMxMSIgeT0iNTQ5LjYxNzIiPiYjMjM1NTg7IHRva2VuICYjMjA0NDU7JiMyMzM4NDsmIzIxMDQwOyYjMjY0MTI7JiMyMjMyMDsmIzIzMzg0OyYjMjA2NDg7PC90ZXh0Pjxwb2x5Z29uIGZpbGw9IiMxODE4MTgiIHBvaW50cz0iNDgsNTkwLjE1NjMsMzgsNTk0LjE1NjMsNDgsNTk4LjE1NjMsNDQsNTk0LjE1NjMiIHN0eWxlPSJzdHJva2U6IzE4MTgxODtzdHJva2Utd2lkdGg6MS4wOyIvPjxsaW5lIHN0eWxlPSJzdHJva2U6IzE4MTgxODtzdHJva2Utd2lkdGg6MS4wO3N0cm9rZS1kYXNoYXJyYXk6Mi4wLDIuMDsiIHgxPSI0MiIgeDI9IjI3NSIgeTE9IjU5NC4xNTYzIiB5Mj0iNTk0LjE1NjMiLz48dGV4dCBmaWxsPSIjMDAwMDAwIiBmb250LWZhbWlseT0ic2Fucy1zZXJpZiIgZm9udC1zaXplPSIxMyIgZm9udC13ZWlnaHQ9ImJvbGQiIGxlbmd0aEFkanVzdD0ic3BhY2luZyIgdGV4dExlbmd0aD0iMTQiIHg9IjU0IiB5PSI1OTAuNTMxMyI+MTM8L3RleHQ+PHRleHQgZmlsbD0iIzAwMDAwMCIgZm9udC1mYW1pbHk9InNhbnMtc2VyaWYiIGZvbnQtc2l6ZT0iMTMiIGxlbmd0aEFkanVzdD0ic3BhY2luZyIgdGV4dExlbmd0aD0iOTEiIHg9IjcyIiB5PSI1OTAuNTMxMyI+JiMzNjMzOTsmIzM2NzE2OyYjMjEwNDA7JiMyOTk5MjsmIzI1MTQzOyYjMjAwMjc7JiMzOTAyOTs8L3RleHQ+PGxpbmUgc3R5bGU9InN0cm9rZTojMDAwMDAwO3N0cm9rZS13aWR0aDoxLjA7c3Ryb2tlLWRhc2hhcnJheToyLjAsMi4wOyIgeDE9IjEwIiB4Mj0iNDc1IiB5MT0iNjAzLjE1NjMiIHkyPSI2MDMuMTU2MyIvPjx0ZXh0IGZpbGw9IiMwMDAwMDAiIGZvbnQtZmFtaWx5PSJzYW5zLXNlcmlmIiBmb250LXNpemU9IjExIiBmb250LXdlaWdodD0iYm9sZCIgbGVuZ3RoQWRqdXN0PSJzcGFjaW5nIiB0ZXh0TGVuZ3RoPSI1NiIgeD0iMTUiIHk9IjYxMy41NTQ3Ij5bJiMzMDMzMTsmIzI0NDA1OyYjMjI4MzM7JiMzNjEzMztdPC90ZXh0Pjxwb2x5Z29uIGZpbGw9IiMxODE4MTgiIHBvaW50cz0iNDgsNjMxLjg0MzgsMzgsNjM1Ljg0MzgsNDgsNjM5Ljg0MzgsNDQsNjM1Ljg0MzgiIHN0eWxlPSJzdHJva2U6IzE4MTgxODtzdHJva2Utd2lkdGg6MS4wOyIvPjxsaW5lIHN0eWxlPSJzdHJva2U6IzE4MTgxODtzdHJva2Utd2lkdGg6MS4wO3N0cm9rZS1kYXNoYXJyYXk6Mi4wLDIuMDsiIHgxPSI0MiIgeDI9IjI3NSIgeTE9IjYzNS44NDM4IiB5Mj0iNjM1Ljg0MzgiLz48dGV4dCBmaWxsPSIjMDAwMDAwIiBmb250LWZhbWlseT0ic2Fucy1zZXJpZiIgZm9udC1zaXplPSIxMyIgZm9udC13ZWlnaHQ9ImJvbGQiIGxlbmd0aEFkanVzdD0ic3BhY2luZyIgdGV4dExlbmd0aD0iMTQiIHg9IjU0IiB5PSI2MzIuMjE4OCI+MTQ8L3RleHQ+PHRleHQgZmlsbD0iIzAwMDAwMCIgZm9udC1mYW1pbHk9InNhbnMtc2VyaWYiIGZvbnQtc2l6ZT0iMTMiIGxlbmd0aEFkanVzdD0ic3BhY2luZyIgdGV4dExlbmd0aD0iNzgiIHg9IjcyIiB5PSI2MzIuMjE4OCI+JiMyNjE3NDsmIzMxMDM0OyYjMzgxNjk7JiMzNTgyMzsmIzIwNDQ5OyYjMjQ2ODc7PC90ZXh0PjwhLS1TUkM9W2JMRkRKamowNEJ4eEFVTzhLZGMxNzkyZ2RqZlowVk5pOWdqWXJSNGpVbUZnQkthNTNJWEhBR0c0bVk2NDRZZFlwcTZxMmYxMnRXTGJyX1E5THMzakpTTWtPbjNTRjl3VHhzenNyRzhzWktCLUN4OExIU3JZcW1RX3RnNkxkY0FmRGpRb2NnS1E2Q1hBcEpfc21qUlZpNzRXRFR1TXlGbXhxeTJzZ1VpQzhUY1FHVlEyYmFObHl2T2t6VU9TUDd6NGJrYmVaRjJSZWQxQWM5Z01jMzhHdDZ3R2ZKUmxhaEtRTVF5SVJ6ZFZCenRfZ19oYkFfQVpWclRxX1BxLWtUY3lBcFBlVElMU0Z1akNRMGlnSGg5ZWlPWHVQRTRQODN6X1hTS0lubWd5N1pxbG1xSTFnSkpLRjdlM2JrZXVZd1FUY3RuNEpwWU5vX3lDV2R6Y2Zsa1RFRzdUX0E4UFFUWDBqd3hlblFQQzhJUU9nMkNJRVNXQ3E2T3h5MHZ1T0NEMVl2UXlIeFg0dzc4OUt3Y0kxdE1va29WMXZUMUpXQWdFR0puQUpoVTlzcjQwS2RJRkNPTDdyUzBoeVVzb2FHWUI1X0pxanp5d094elVYa0ZOY3hJbzFYeS1wRzhzbG84WlZKM2IwZDJocVkzSTdKSEk0VFB0MGl6eDlIV1Y2a042dThvUzRhRUE4R3FsUXFfZHozQmEyNVZPSWpnajRNX2MtMkZaSS12bHEzcU45Y0JwRzJqUjhpVGFhYTJ1LVY3UXV0VjNXWVVoSk1PYS1UWGFGajlUdlg3M1NEMjhwNVV3cjNxWFJaVndCZFY2dlhhMEp1bjl4THE0RG9UaU8xSlhQUHlUNmVLUUlvMjd2eTZWemRDR1RGbE1GeG4tQmExbnowNDBdLS0+PC9nPjwvc3ZnPg==;" parent="1" vertex="1"><mxGeometry x="-162" y="140" width="1006" height="740" as="geometry"/></mxCell></UserObject><UserObject label="" plantUmlData="{&#10;  &quot;data&quot;: &quot;@startuml\nautonumber\n\nactor 用户\nparticipant 前端页面\nparticipant AdoptionController\nparticipant AdoptionServiceImpl\nparticipant AdoptionRepository\n\n用户 -&gt; 前端页面: 点击“申请领养”按钮\nactivate 前端页面\n前端页面 -&gt; AdoptionController: 发送领养申请请求 (catId, userInfo)\nactivate AdoptionController\nAdoptionController -&gt; AdoptionServiceImpl: 调用 createAdoptionApplication(catId, userInfo) 方法\nactivate AdoptionServiceImpl\nAdoptionServiceImpl -&gt; AdoptionRepository: 保存领养申请信息\nactivate AdoptionRepository\nAdoptionRepository --&gt; AdoptionServiceImpl: 返回保存结果\ndeactivate AdoptionRepository\nAdoptionServiceImpl --&gt; AdoptionController: 返回操作结果\ndeactivate AdoptionServiceImpl\nAdoptionController --&gt; 前端页面: 返回操作结果\ndeactivate AdoptionController\n前端页面 --&gt; 用户: 显示操作结果\ndeactivate 前端页面\n@enduml&quot;,&#10;  &quot;format&quot;: &quot;svg&quot;&#10;}" id="AG9e61MuKz-lgSlKQN2f-11"><mxCell style="shape=image;noLabel=1;verticalAlign=top;aspect=fixed;imageAspect=0;image=data:image/svg+xml,PD94bWwgdmVyc2lvbj0iMS4wIiBlbmNvZGluZz0idXMtYXNjaWkiIHN0YW5kYWxvbmU9Im5vIj8+PHN2ZyB4bWxucz0iaHR0cDovL3d3dy53My5vcmcvMjAwMC9zdmciIHhtbG5zOnhsaW5rPSJodHRwOi8vd3d3LnczLm9yZy8xOTk5L3hsaW5rIiBjb250ZW50U3R5bGVUeXBlPSJ0ZXh0L2NzcyIgaGVpZ2h0PSI0MDJweCIgcHJlc2VydmVBc3BlY3RSYXRpbz0ibm9uZSIgc3R5bGU9IndpZHRoOjEwNTRweDtoZWlnaHQ6NDAycHg7YmFja2dyb3VuZDojRkZGRkZGOyIgdmVyc2lvbj0iMS4xIiB2aWV3Qm94PSIwIDAgMTA1NCA0MDIiIHdpZHRoPSIxMDU0cHgiIHpvb21BbmRQYW49Im1hZ25pZnkiPjxkZWZzLz48Zz48cmVjdCBmaWxsPSIjRkZGRkZGIiBoZWlnaHQ9IjE5NS4zOTg0IiBzdHlsZT0ic3Ryb2tlOiMxODE4MTg7c3Ryb2tlLXdpZHRoOjEuMDsiIHdpZHRoPSIxMCIgeD0iMTcwIiB5PSIxMDkuODk4NCIvPjxyZWN0IGZpbGw9IiNGRkZGRkYiIGhlaWdodD0iMTM5LjU3MDMiIHN0eWxlPSJzdHJva2U6IzE4MTgxODtzdHJva2Utd2lkdGg6MS4wOyIgd2lkdGg9IjEwIiB4PSI0MzMiIHk9IjEzNy44MTI1Ii8+PHJlY3QgZmlsbD0iI0ZGRkZGRiIgaGVpZ2h0PSI4My43NDIyIiBzdHlsZT0ic3Ryb2tlOiMxODE4MTg7c3Ryb2tlLXdpZHRoOjEuMDsiIHdpZHRoPSIxMCIgeD0iODE5IiB5PSIxNjUuNzI2NiIvPjxyZWN0IGZpbGw9IiNGRkZGRkYiIGhlaWdodD0iMjcuOTE0MSIgc3R5bGU9InN0cm9rZTojMTgxODE4O3N0cm9rZS13aWR0aDoxLjA7IiB3aWR0aD0iMTAiIHg9Ijk3MyIgeT0iMTkzLjY0MDYiLz48bGluZSBzdHlsZT0ic3Ryb2tlOiMxODE4MTg7c3Ryb2tlLXdpZHRoOjAuNTtzdHJva2UtZGFzaGFycmF5OjUuMCw1LjA7IiB4MT0iMjIiIHgyPSIyMiIgeTE9Ijc5Ljk4NDQiIHkyPSIzMjMuMjk2OSIvPjxsaW5lIHN0eWxlPSJzdHJva2U6IzE4MTgxODtzdHJva2Utd2lkdGg6MC41O3N0cm9rZS1kYXNoYXJyYXk6NS4wLDUuMDsiIHgxPSIxNzUiIHgyPSIxNzUiIHkxPSI3OS45ODQ0IiB5Mj0iMzIzLjI5NjkiLz48bGluZSBzdHlsZT0ic3Ryb2tlOiMxODE4MTg7c3Ryb2tlLXdpZHRoOjAuNTtzdHJva2UtZGFzaGFycmF5OjUuMCw1LjA7IiB4MT0iNDM4IiB4Mj0iNDM4IiB5MT0iNzkuOTg0NCIgeTI9IjMyMy4yOTY5Ii8+PGxpbmUgc3R5bGU9InN0cm9rZTojMTgxODE4O3N0cm9rZS13aWR0aDowLjU7c3Ryb2tlLWRhc2hhcnJheTo1LjAsNS4wOyIgeDE9IjgyNCIgeDI9IjgyNCIgeTE9Ijc5Ljk4NDQiIHkyPSIzMjMuMjk2OSIvPjxsaW5lIHN0eWxlPSJzdHJva2U6IzE4MTgxODtzdHJva2Utd2lkdGg6MC41O3N0cm9rZS1kYXNoYXJyYXk6NS4wLDUuMDsiIHgxPSI5NzgiIHgyPSI5NzgiIHkxPSI3OS45ODQ0IiB5Mj0iMzIzLjI5NjkiLz48dGV4dCBmaWxsPSIjMDAwMDAwIiBmb250LWZhbWlseT0ic2Fucy1zZXJpZiIgZm9udC1zaXplPSIxNCIgbGVuZ3RoQWRqdXN0PSJzcGFjaW5nIiB0ZXh0TGVuZ3RoPSIyOCIgeD0iNSIgeT0iNzguMjM0NCI+JiMyOTk5MjsmIzI1MTQzOzwvdGV4dD48ZWxsaXBzZSBjeD0iMjIiIGN5PSIxMy41IiBmaWxsPSIjRTJFMkYwIiByeD0iOCIgcnk9IjgiIHN0eWxlPSJzdHJva2U6IzE4MTgxODtzdHJva2Utd2lkdGg6MC41OyIvPjxwYXRoIGQ9Ik0yMiwyMS41IEwyMiw0OC41IE05LDI5LjUgTDM1LDI5LjUgTTIyLDQ4LjUgTDksNjMuNSBNMjIsNDguNSBMMzUsNjMuNSAiIGZpbGw9Im5vbmUiIHN0eWxlPSJzdHJva2U6IzE4MTgxODtzdHJva2Utd2lkdGg6MC41OyIvPjx0ZXh0IGZpbGw9IiMwMDAwMDAiIGZvbnQtZmFtaWx5PSJzYW5zLXNlcmlmIiBmb250LXNpemU9IjE0IiBsZW5ndGhBZGp1c3Q9InNwYWNpbmciIHRleHRMZW5ndGg9IjI4IiB4PSI1IiB5PSIzMzUuNTMxMyI+JiMyOTk5MjsmIzI1MTQzOzwvdGV4dD48ZWxsaXBzZSBjeD0iMjIiIGN5PSIzNDUuNzgxMyIgZmlsbD0iI0UyRTJGMCIgcng9IjgiIHJ5PSI4IiBzdHlsZT0ic3Ryb2tlOiMxODE4MTg7c3Ryb2tlLXdpZHRoOjAuNTsiLz48cGF0aCBkPSJNMjIsMzUzLjc4MTMgTDIyLDM4MC43ODEzIE05LDM2MS43ODEzIEwzNSwzNjEuNzgxMyBNMjIsMzgwLjc4MTMgTDksMzk1Ljc4MTMgTTIyLDM4MC43ODEzIEwzNSwzOTUuNzgxMyAiIGZpbGw9Im5vbmUiIHN0eWxlPSJzdHJva2U6IzE4MTgxODtzdHJva2Utd2lkdGg6MC41OyIvPjxyZWN0IGZpbGw9IiNFMkUyRjAiIGhlaWdodD0iMjguOTg0NCIgcng9IjIuNSIgcnk9IjIuNSIgc3R5bGU9InN0cm9rZTojMTgxODE4O3N0cm9rZS13aWR0aDowLjU7IiB3aWR0aD0iNzAiIHg9IjE0MCIgeT0iNTAiLz48dGV4dCBmaWxsPSIjMDAwMDAwIiBmb250LWZhbWlseT0ic2Fucy1zZXJpZiIgZm9udC1zaXplPSIxNCIgbGVuZ3RoQWRqdXN0PSJzcGFjaW5nIiB0ZXh0TGVuZ3RoPSI1NiIgeD0iMTQ3IiB5PSI3MC4yMzQ0Ij4mIzIxMDY5OyYjMzE0NzE7JiMzOTAyOTsmIzM4NzU0OzwvdGV4dD48cmVjdCBmaWxsPSIjRTJFMkYwIiBoZWlnaHQ9IjI4Ljk4NDQiIHJ4PSIyLjUiIHJ5PSIyLjUiIHN0eWxlPSJzdHJva2U6IzE4MTgxODtzdHJva2Utd2lkdGg6MC41OyIgd2lkdGg9IjcwIiB4PSIxNDAiIHk9IjMyMi4yOTY5Ii8+PHRleHQgZmlsbD0iIzAwMDAwMCIgZm9udC1mYW1pbHk9InNhbnMtc2VyaWYiIGZvbnQtc2l6ZT0iMTQiIGxlbmd0aEFkanVzdD0ic3BhY2luZyIgdGV4dExlbmd0aD0iNTYiIHg9IjE0NyIgeT0iMzQyLjUzMTMiPiYjMjEwNjk7JiMzMTQ3MTsmIzM5MDI5OyYjMzg3NTQ7PC90ZXh0PjxyZWN0IGZpbGw9IiNFMkUyRjAiIGhlaWdodD0iMjguOTg0NCIgcng9IjIuNSIgcnk9IjIuNSIgc3R5bGU9InN0cm9rZTojMTgxODE4O3N0cm9rZS13aWR0aDowLjU7IiB3aWR0aD0iMTQwIiB4PSIzNjgiIHk9IjUwIi8+PHRleHQgZmlsbD0iIzAwMDAwMCIgZm9udC1mYW1pbHk9InNhbnMtc2VyaWYiIGZvbnQtc2l6ZT0iMTQiIGxlbmd0aEFkanVzdD0ic3BhY2luZyIgdGV4dExlbmd0aD0iMTI2IiB4PSIzNzUiIHk9IjcwLjIzNDQiPkFkb3B0aW9uQ29udHJvbGxlcjwvdGV4dD48cmVjdCBmaWxsPSIjRTJFMkYwIiBoZWlnaHQ9IjI4Ljk4NDQiIHJ4PSIyLjUiIHJ5PSIyLjUiIHN0eWxlPSJzdHJva2U6IzE4MTgxODtzdHJva2Utd2lkdGg6MC41OyIgd2lkdGg9IjE0MCIgeD0iMzY4IiB5PSIzMjIuMjk2OSIvPjx0ZXh0IGZpbGw9IiMwMDAwMDAiIGZvbnQtZmFtaWx5PSJzYW5zLXNlcmlmIiBmb250LXNpemU9IjE0IiBsZW5ndGhBZGp1c3Q9InNwYWNpbmciIHRleHRMZW5ndGg9IjEyNiIgeD0iMzc1IiB5PSIzNDIuNTMxMyI+QWRvcHRpb25Db250cm9sbGVyPC90ZXh0PjxyZWN0IGZpbGw9IiNFMkUyRjAiIGhlaWdodD0iMjguOTg0NCIgcng9IjIuNSIgcnk9IjIuNSIgc3R5bGU9InN0cm9rZTojMTgxODE4O3N0cm9rZS13aWR0aDowLjU7IiB3aWR0aD0iMTQ4IiB4PSI3NTAiIHk9IjUwIi8+PHRleHQgZmlsbD0iIzAwMDAwMCIgZm9udC1mYW1pbHk9InNhbnMtc2VyaWYiIGZvbnQtc2l6ZT0iMTQiIGxlbmd0aEFkanVzdD0ic3BhY2luZyIgdGV4dExlbmd0aD0iMTM0IiB4PSI3NTciIHk9IjcwLjIzNDQiPkFkb3B0aW9uU2VydmljZUltcGw8L3RleHQ+PHJlY3QgZmlsbD0iI0UyRTJGMCIgaGVpZ2h0PSIyOC45ODQ0IiByeD0iMi41IiByeT0iMi41IiBzdHlsZT0ic3Ryb2tlOiMxODE4MTg7c3Ryb2tlLXdpZHRoOjAuNTsiIHdpZHRoPSIxNDgiIHg9Ijc1MCIgeT0iMzIyLjI5NjkiLz48dGV4dCBmaWxsPSIjMDAwMDAwIiBmb250LWZhbWlseT0ic2Fucy1zZXJpZiIgZm9udC1zaXplPSIxNCIgbGVuZ3RoQWRqdXN0PSJzcGFjaW5nIiB0ZXh0TGVuZ3RoPSIxMzQiIHg9Ijc1NyIgeT0iMzQyLjUzMTMiPkFkb3B0aW9uU2VydmljZUltcGw8L3RleHQ+PHJlY3QgZmlsbD0iI0UyRTJGMCIgaGVpZ2h0PSIyOC45ODQ0IiByeD0iMi41IiByeT0iMi41IiBzdHlsZT0ic3Ryb2tlOiMxODE4MTg7c3Ryb2tlLXdpZHRoOjAuNTsiIHdpZHRoPSIxNDAiIHg9IjkwOCIgeT0iNTAiLz48dGV4dCBmaWxsPSIjMDAwMDAwIiBmb250LWZhbWlseT0ic2Fucy1zZXJpZiIgZm9udC1zaXplPSIxNCIgbGVuZ3RoQWRqdXN0PSJzcGFjaW5nIiB0ZXh0TGVuZ3RoPSIxMjYiIHg9IjkxNSIgeT0iNzAuMjM0NCI+QWRvcHRpb25SZXBvc2l0b3J5PC90ZXh0PjxyZWN0IGZpbGw9IiNFMkUyRjAiIGhlaWdodD0iMjguOTg0NCIgcng9IjIuNSIgcnk9IjIuNSIgc3R5bGU9InN0cm9rZTojMTgxODE4O3N0cm9rZS13aWR0aDowLjU7IiB3aWR0aD0iMTQwIiB4PSI5MDgiIHk9IjMyMi4yOTY5Ii8+PHRleHQgZmlsbD0iIzAwMDAwMCIgZm9udC1mYW1pbHk9InNhbnMtc2VyaWYiIGZvbnQtc2l6ZT0iMTQiIGxlbmd0aEFkanVzdD0ic3BhY2luZyIgdGV4dExlbmd0aD0iMTI2IiB4PSI5MTUiIHk9IjM0Mi41MzEzIj5BZG9wdGlvblJlcG9zaXRvcnk8L3RleHQ+PHJlY3QgZmlsbD0iI0ZGRkZGRiIgaGVpZ2h0PSIxOTUuMzk4NCIgc3R5bGU9InN0cm9rZTojMTgxODE4O3N0cm9rZS13aWR0aDoxLjA7IiB3aWR0aD0iMTAiIHg9IjE3MCIgeT0iMTA5Ljg5ODQiLz48cmVjdCBmaWxsPSIjRkZGRkZGIiBoZWlnaHQ9IjEzOS41NzAzIiBzdHlsZT0ic3Ryb2tlOiMxODE4MTg7c3Ryb2tlLXdpZHRoOjEuMDsiIHdpZHRoPSIxMCIgeD0iNDMzIiB5PSIxMzcuODEyNSIvPjxyZWN0IGZpbGw9IiNGRkZGRkYiIGhlaWdodD0iODMuNzQyMiIgc3R5bGU9InN0cm9rZTojMTgxODE4O3N0cm9rZS13aWR0aDoxLjA7IiB3aWR0aD0iMTAiIHg9IjgxOSIgeT0iMTY1LjcyNjYiLz48cmVjdCBmaWxsPSIjRkZGRkZGIiBoZWlnaHQ9IjI3LjkxNDEiIHN0eWxlPSJzdHJva2U6IzE4MTgxODtzdHJva2Utd2lkdGg6MS4wOyIgd2lkdGg9IjEwIiB4PSI5NzMiIHk9IjE5My42NDA2Ii8+PHBvbHlnb24gZmlsbD0iIzE4MTgxOCIgcG9pbnRzPSIxNTgsMTA1Ljg5ODQsMTY4LDEwOS44OTg0LDE1OCwxMTMuODk4NCwxNjIsMTA5Ljg5ODQiIHN0eWxlPSJzdHJva2U6IzE4MTgxODtzdHJva2Utd2lkdGg6MS4wOyIvPjxsaW5lIHN0eWxlPSJzdHJva2U6IzE4MTgxODtzdHJva2Utd2lkdGg6MS4wOyIgeDE9IjIyIiB4Mj0iMTY0IiB5MT0iMTA5Ljg5ODQiIHkyPSIxMDkuODk4NCIvPjx0ZXh0IGZpbGw9IiMwMDAwMDAiIGZvbnQtZmFtaWx5PSJzYW5zLXNlcmlmIiBmb250LXNpemU9IjEzIiBmb250LXdlaWdodD0iYm9sZCIgbGVuZ3RoQWRqdXN0PSJzcGFjaW5nIiB0ZXh0TGVuZ3RoPSI3IiB4PSIyOSIgeT0iMTA2LjI3MzQiPjE8L3RleHQ+PHRleHQgZmlsbD0iIzAwMDAwMCIgZm9udC1mYW1pbHk9InNhbnMtc2VyaWYiIGZvbnQtc2l6ZT0iMTMiIGxlbmd0aEFkanVzdD0ic3BhY2luZyIgdGV4dExlbmd0aD0iMTE4IiB4PSI0MCIgeT0iMTA2LjI3MzQiPiYjMjg4NTc7JiMyMDk4NzsmIzgyMjA7JiMzMDAwMzsmIzM1ODMxOyYjMzkwNDY7JiMyMDg1OTsmIzgyMjE7JiMyNTM1MzsmIzM4MDYyOzwvdGV4dD48cG9seWdvbiBmaWxsPSIjMTgxODE4IiBwb2ludHM9IjQyMSwxMzMuODEyNSw0MzEsMTM3LjgxMjUsNDIxLDE0MS44MTI1LDQyNSwxMzcuODEyNSIgc3R5bGU9InN0cm9rZTojMTgxODE4O3N0cm9rZS13aWR0aDoxLjA7Ii8+PGxpbmUgc3R5bGU9InN0cm9rZTojMTgxODE4O3N0cm9rZS13aWR0aDoxLjA7IiB4MT0iMTgwIiB4Mj0iNDI3IiB5MT0iMTM3LjgxMjUiIHkyPSIxMzcuODEyNSIvPjx0ZXh0IGZpbGw9IiMwMDAwMDAiIGZvbnQtZmFtaWx5PSJzYW5zLXNlcmlmIiBmb250LXNpemU9IjEzIiBmb250LXdlaWdodD0iYm9sZCIgbGVuZ3RoQWRqdXN0PSJzcGFjaW5nIiB0ZXh0TGVuZ3RoPSI3IiB4PSIxODciIHk9IjEzNC4xODc1Ij4yPC90ZXh0Pjx0ZXh0IGZpbGw9IiMwMDAwMDAiIGZvbnQtZmFtaWx5PSJzYW5zLXNlcmlmIiBmb250LXNpemU9IjEzIiBsZW5ndGhBZGp1c3Q9InNwYWNpbmciIHRleHRMZW5ndGg9IjIyMyIgeD0iMTk4IiB5PSIxMzQuMTg3NSI+JiMyMTQ1NzsmIzM2ODY1OyYjMzkwNDY7JiMyMDg1OTsmIzMwMDAzOyYjMzU4MzE7JiMzNTgzMTsmIzI3NzE0OyAoY2F0SWQsIHVzZXJJbmZvKTwvdGV4dD48cG9seWdvbiBmaWxsPSIjMTgxODE4IiBwb2ludHM9IjgwNywxNjEuNzI2Niw4MTcsMTY1LjcyNjYsODA3LDE2OS43MjY2LDgxMSwxNjUuNzI2NiIgc3R5bGU9InN0cm9rZTojMTgxODE4O3N0cm9rZS13aWR0aDoxLjA7Ii8+PGxpbmUgc3R5bGU9InN0cm9rZTojMTgxODE4O3N0cm9rZS13aWR0aDoxLjA7IiB4MT0iNDQzIiB4Mj0iODEzIiB5MT0iMTY1LjcyNjYiIHkyPSIxNjUuNzI2NiIvPjx0ZXh0IGZpbGw9IiMwMDAwMDAiIGZvbnQtZmFtaWx5PSJzYW5zLXNlcmlmIiBmb250LXNpemU9IjEzIiBmb250LXdlaWdodD0iYm9sZCIgbGVuZ3RoQWRqdXN0PSJzcGFjaW5nIiB0ZXh0TGVuZ3RoPSI3IiB4PSI0NTAiIHk9IjE2Mi4xMDE2Ij4zPC90ZXh0Pjx0ZXh0IGZpbGw9IiMwMDAwMDAiIGZvbnQtZmFtaWx5PSJzYW5zLXNlcmlmIiBmb250LXNpemU9IjEzIiBsZW5ndGhBZGp1c3Q9InNwYWNpbmciIHRleHRMZW5ndGg9IjM0NiIgeD0iNDYxIiB5PSIxNjIuMTAxNiI+JiMzNTg0MzsmIzI5OTkyOyBjcmVhdGVBZG9wdGlvbkFwcGxpY2F0aW9uKGNhdElkLCB1c2VySW5mbykgJiMyNjA0MTsmIzI3ODYxOzwvdGV4dD48cG9seWdvbiBmaWxsPSIjMTgxODE4IiBwb2ludHM9Ijk2MSwxODkuNjQwNiw5NzEsMTkzLjY0MDYsOTYxLDE5Ny42NDA2LDk2NSwxOTMuNjQwNiIgc3R5bGU9InN0cm9rZTojMTgxODE4O3N0cm9rZS13aWR0aDoxLjA7Ii8+PGxpbmUgc3R5bGU9InN0cm9rZTojMTgxODE4O3N0cm9rZS13aWR0aDoxLjA7IiB4MT0iODI5IiB4Mj0iOTY3IiB5MT0iMTkzLjY0MDYiIHkyPSIxOTMuNjQwNiIvPjx0ZXh0IGZpbGw9IiMwMDAwMDAiIGZvbnQtZmFtaWx5PSJzYW5zLXNlcmlmIiBmb250LXNpemU9IjEzIiBmb250LXdlaWdodD0iYm9sZCIgbGVuZ3RoQWRqdXN0PSJzcGFjaW5nIiB0ZXh0TGVuZ3RoPSI3IiB4PSI4MzYiIHk9IjE5MC4wMTU2Ij40PC90ZXh0Pjx0ZXh0IGZpbGw9IiMwMDAwMDAiIGZvbnQtZmFtaWx5PSJzYW5zLXNlcmlmIiBmb250LXNpemU9IjEzIiBsZW5ndGhBZGp1c3Q9InNwYWNpbmciIHRleHRMZW5ndGg9IjEwNCIgeD0iODQ3IiB5PSIxOTAuMDE1NiI+JiMyMDQ0NTsmIzIzMzg0OyYjMzkwNDY7JiMyMDg1OTsmIzMwMDAzOyYjMzU4MzE7JiMyMDQ0OTsmIzI0Njg3OzwvdGV4dD48cG9seWdvbiBmaWxsPSIjMTgxODE4IiBwb2ludHM9Ijg0MCwyMTcuNTU0Nyw4MzAsMjIxLjU1NDcsODQwLDIyNS41NTQ3LDgzNiwyMjEuNTU0NyIgc3R5bGU9InN0cm9rZTojMTgxODE4O3N0cm9rZS13aWR0aDoxLjA7Ii8+PGxpbmUgc3R5bGU9InN0cm9rZTojMTgxODE4O3N0cm9rZS13aWR0aDoxLjA7c3Ryb2tlLWRhc2hhcnJheToyLjAsMi4wOyIgeDE9IjgzNCIgeDI9Ijk3NyIgeTE9IjIyMS41NTQ3IiB5Mj0iMjIxLjU1NDciLz48dGV4dCBmaWxsPSIjMDAwMDAwIiBmb250LWZhbWlseT0ic2Fucy1zZXJpZiIgZm9udC1zaXplPSIxMyIgZm9udC13ZWlnaHQ9ImJvbGQiIGxlbmd0aEFkanVzdD0ic3BhY2luZyIgdGV4dExlbmd0aD0iNyIgeD0iODQ2IiB5PSIyMTcuOTI5NyI+NTwvdGV4dD48dGV4dCBmaWxsPSIjMDAwMDAwIiBmb250LWZhbWlseT0ic2Fucy1zZXJpZiIgZm9udC1zaXplPSIxMyIgbGVuZ3RoQWRqdXN0PSJzcGFjaW5nIiB0ZXh0TGVuZ3RoPSI3OCIgeD0iODU3IiB5PSIyMTcuOTI5NyI+JiMzNjgyMDsmIzIyMjM4OyYjMjA0NDU7JiMyMzM4NDsmIzMyNDY3OyYjMjY1MjQ7PC90ZXh0Pjxwb2x5Z29uIGZpbGw9IiMxODE4MTgiIHBvaW50cz0iNDU0LDI0NS40Njg4LDQ0NCwyNDkuNDY4OCw0NTQsMjUzLjQ2ODgsNDUwLDI0OS40Njg4IiBzdHlsZT0ic3Ryb2tlOiMxODE4MTg7c3Ryb2tlLXdpZHRoOjEuMDsiLz48bGluZSBzdHlsZT0ic3Ryb2tlOiMxODE4MTg7c3Ryb2tlLXdpZHRoOjEuMDtzdHJva2UtZGFzaGFycmF5OjIuMCwyLjA7IiB4MT0iNDQ4IiB4Mj0iODIzIiB5MT0iMjQ5LjQ2ODgiIHkyPSIyNDkuNDY4OCIvPjx0ZXh0IGZpbGw9IiMwMDAwMDAiIGZvbnQtZmFtaWx5PSJzYW5zLXNlcmlmIiBmb250LXNpemU9IjEzIiBmb250LXdlaWdodD0iYm9sZCIgbGVuZ3RoQWRqdXN0PSJzcGFjaW5nIiB0ZXh0TGVuZ3RoPSI3IiB4PSI0NjAiIHk9IjI0NS44NDM4Ij42PC90ZXh0Pjx0ZXh0IGZpbGw9IiMwMDAwMDAiIGZvbnQtZmFtaWx5PSJzYW5zLXNlcmlmIiBmb250LXNpemU9IjEzIiBsZW5ndGhBZGp1c3Q9InNwYWNpbmciIHRleHRMZW5ndGg9Ijc4IiB4PSI0NzEiIHk9IjI0NS44NDM4Ij4mIzM2ODIwOyYjMjIyMzg7JiMyNTgwNTsmIzIwMzE2OyYjMzI0Njc7JiMyNjUyNDs8L3RleHQ+PHBvbHlnb24gZmlsbD0iIzE4MTgxOCIgcG9pbnRzPSIxOTEsMjczLjM4MjgsMTgxLDI3Ny4zODI4LDE5MSwyODEuMzgyOCwxODcsMjc3LjM4MjgiIHN0eWxlPSJzdHJva2U6IzE4MTgxODtzdHJva2Utd2lkdGg6MS4wOyIvPjxsaW5lIHN0eWxlPSJzdHJva2U6IzE4MTgxODtzdHJva2Utd2lkdGg6MS4wO3N0cm9rZS1kYXNoYXJyYXk6Mi4wLDIuMDsiIHgxPSIxODUiIHgyPSI0MzciIHkxPSIyNzcuMzgyOCIgeTI9IjI3Ny4zODI4Ii8+PHRleHQgZmlsbD0iIzAwMDAwMCIgZm9udC1mYW1pbHk9InNhbnMtc2VyaWYiIGZvbnQtc2l6ZT0iMTMiIGZvbnQtd2VpZ2h0PSJib2xkIiBsZW5ndGhBZGp1c3Q9InNwYWNpbmciIHRleHRMZW5ndGg9IjciIHg9IjE5NyIgeT0iMjczLjc1NzgiPjc8L3RleHQ+PHRleHQgZmlsbD0iIzAwMDAwMCIgZm9udC1mYW1pbHk9InNhbnMtc2VyaWYiIGZvbnQtc2l6ZT0iMTMiIGxlbmd0aEFkanVzdD0ic3BhY2luZyIgdGV4dExlbmd0aD0iNzgiIHg9IjIwOCIgeT0iMjczLjc1NzgiPiYjMzY4MjA7JiMyMjIzODsmIzI1ODA1OyYjMjAzMTY7JiMzMjQ2NzsmIzI2NTI0OzwvdGV4dD48cG9seWdvbiBmaWxsPSIjMTgxODE4IiBwb2ludHM9IjMzLDMwMS4yOTY5LDIzLDMwNS4yOTY5LDMzLDMwOS4yOTY5LDI5LDMwNS4yOTY5IiBzdHlsZT0ic3Ryb2tlOiMxODE4MTg7c3Ryb2tlLXdpZHRoOjEuMDsiLz48bGluZSBzdHlsZT0ic3Ryb2tlOiMxODE4MTg7c3Ryb2tlLXdpZHRoOjEuMDtzdHJva2UtZGFzaGFycmF5OjIuMCwyLjA7IiB4MT0iMjciIHgyPSIxNzQiIHkxPSIzMDUuMjk2OSIgeTI9IjMwNS4yOTY5Ii8+PHRleHQgZmlsbD0iIzAwMDAwMCIgZm9udC1mYW1pbHk9InNhbnMtc2VyaWYiIGZvbnQtc2l6ZT0iMTMiIGZvbnQtd2VpZ2h0PSJib2xkIiBsZW5ndGhBZGp1c3Q9InNwYWNpbmciIHRleHRMZW5ndGg9IjciIHg9IjM5IiB5PSIzMDEuNjcxOSI+ODwvdGV4dD48dGV4dCBmaWxsPSIjMDAwMDAwIiBmb250LWZhbWlseT0ic2Fucy1zZXJpZiIgZm9udC1zaXplPSIxMyIgbGVuZ3RoQWRqdXN0PSJzcGFjaW5nIiB0ZXh0TGVuZ3RoPSI3OCIgeD0iNTAiIHk9IjMwMS42NzE5Ij4mIzI2MTc0OyYjMzEwMzQ7JiMyNTgwNTsmIzIwMzE2OyYjMzI0Njc7JiMyNjUyNDs8L3RleHQ+PCEtLVNSQz1bWlBCQklpRDA1OFJ0VU9ncExCMGxhOExHTjZNaEpuM0o0R1JJcDMyVDVEb3I1SXk1WXNZaDU2bUJCSXU0cUlmNUlZc1FUdjVhcWhvNUt1OXFtWUhHYzROY2RDcHRfLVRZLXZudVZsS09DU0VtN0t1T25CcmRTSkt0Z0NxdVRaMnJGR3ZIa25FX0o5Rm5QcEFTUDFCYjJnNFM0LSAtMFU5bUhydk1LbEZHSE9kTmk4QWpBdFRweThRQWFYZ051Z002YXliM1Fwd1lRNEJTTXFVTm9qcDY4VXhGTFQ5dkNCZzlwVUhzQXd0UG96eFJzWmtpc0hyY2x3Y01EckZzUTREdFM5ZXJjb2FsUHllWUY1a211RGhTZ1UtM040QkV5NHhBeDRTY2ZNbS1mV2FlN0o1WXpkeWFnbU01OGlseF9BNUZnT2dhZUZwTFg0MHlCQ1JsTnpUTjZ2aUhLMXZpVWNuMDZtLVlyaHZPUzFjRkhkRWUyb2NKcTQ5R0FBbW53cVVDZWJPY05OSjRRNjFNcTNKblpsYzFXQUxucUUtN3RlMVlVcm5mckRqZzJST1RMOWZ2VEJpYkJMelM0cVYtOWR4d0FJRWdwRm0wMF0tLT48L2c+PC9zdmc+;" parent="1" vertex="1"><mxGeometry x="-130" y="4720" width="1054" height="402" as="geometry"/></mxCell></UserObject><UserObject label="" plantUmlData="{&#10;  &quot;data&quot;: &quot;@startuml\nautonumber\n\nactor 用户\nparticipant 前端页面\nparticipant DonationController\nparticipant DonationServiceImpl\nparticipant DonationRepository\nparticipant PaymentGateway\n\n用户 -&gt; 前端页面: 选择捐款金额并点击“捐款”按钮\nactivate 前端页面\n前端页面 -&gt; DonationController: 发送捐款请求 (donationInfo)\nactivate DonationController\nDonationController -&gt; DonationServiceImpl: 调用 createDonation(donationInfo) 方法\nactivate DonationServiceImpl\nDonationServiceImpl -&gt; PaymentGateway: 请求支付网关进行支付\nactivate PaymentGateway\nPaymentGateway --&gt; DonationServiceImpl: 返回支付结果\ndeactivate PaymentGateway\nalt 支付成功\n  DonationServiceImpl -&gt; DonationRepository: 保存捐款记录\n  activate DonationRepository\n  DonationRepository --&gt; DonationServiceImpl: 返回保存结果\n  deactivate DonationRepository\nend\nDonationServiceImpl --&gt; DonationController: 返回操作结果\ndeactivate DonationServiceImpl\nDonationController --&gt; 前端页面: 返回操作结果\ndeactivate DonationController\n前端页面 --&gt; 用户: 显示操作结果\ndeactivate 前端页面\n@enduml&quot;,&#10;  &quot;format&quot;: &quot;svg&quot;&#10;}" id="AG9e61MuKz-lgSlKQN2f-12"><mxCell style="shape=image;noLabel=1;verticalAlign=top;aspect=fixed;imageAspect=0;image=data:image/svg+xml,PD94bWwgdmVyc2lvbj0iMS4wIiBlbmNvZGluZz0idXMtYXNjaWkiIHN0YW5kYWxvbmU9Im5vIj8+PHN2ZyB4bWxucz0iaHR0cDovL3d3dy53My5vcmcvMjAwMC9zdmciIHhtbG5zOnhsaW5rPSJodHRwOi8vd3d3LnczLm9yZy8xOTk5L3hsaW5rIiBjb250ZW50U3R5bGVUeXBlPSJ0ZXh0L2NzcyIgaGVpZ2h0PSI0ODhweCIgcHJlc2VydmVBc3BlY3RSYXRpbz0ibm9uZSIgc3R5bGU9IndpZHRoOjExMDRweDtoZWlnaHQ6NDg4cHg7YmFja2dyb3VuZDojRkZGRkZGOyIgdmVyc2lvbj0iMS4xIiB2aWV3Qm94PSIwIDAgMTEwNCA0ODgiIHdpZHRoPSIxMTA0cHgiIHpvb21BbmRQYW49Im1hZ25pZnkiPjxkZWZzLz48Zz48cmVjdCBmaWxsPSIjRkZGRkZGIiBoZWlnaHQ9IjI4MS4xNDA2IiBzdHlsZT0ic3Ryb2tlOiMxODE4MTg7c3Ryb2tlLXdpZHRoOjEuMDsiIHdpZHRoPSIxMCIgeD0iMjM1IiB5PSIxMDkuODk4NCIvPjxyZWN0IGZpbGw9IiNGRkZGRkYiIGhlaWdodD0iMjI1LjMxMjUiIHN0eWxlPSJzdHJva2U6IzE4MTgxODtzdHJva2Utd2lkdGg6MS4wOyIgd2lkdGg9IjEwIiB4PSI0NTIiIHk9IjEzNy44MTI1Ii8+PHJlY3QgZmlsbD0iI0ZGRkZGRiIgaGVpZ2h0PSIxNjkuNDg0NCIgc3R5bGU9InN0cm9rZTojMTgxODE4O3N0cm9rZS13aWR0aDoxLjA7IiB3aWR0aD0iMTAiIHg9Ijc0NSIgeT0iMTY1LjcyNjYiLz48cmVjdCBmaWxsPSIjRkZGRkZGIiBoZWlnaHQ9IjI3LjkxNDEiIHN0eWxlPSJzdHJva2U6IzE4MTgxODtzdHJva2Utd2lkdGg6MS4wOyIgd2lkdGg9IjEwIiB4PSI4OTkiIHk9IjI3Mi4zODI4Ii8+PHJlY3QgZmlsbD0iI0ZGRkZGRiIgaGVpZ2h0PSIyNy45MTQxIiBzdHlsZT0ic3Ryb2tlOiMxODE4MTg7c3Ryb2tlLXdpZHRoOjEuMDsiIHdpZHRoPSIxMCIgeD0iMTAzNiIgeT0iMTkzLjY0MDYiLz48cmVjdCBmaWxsPSJub25lIiBoZWlnaHQ9IjcxLjc0MjIiIHN0eWxlPSJzdHJva2U6IzAwMDAwMDtzdHJva2Utd2lkdGg6MS41OyIgd2lkdGg9IjMxOCIgeD0iNjY2IiB5PSIyMzYuNTU0NyIvPjxsaW5lIHN0eWxlPSJzdHJva2U6IzE4MTgxODtzdHJva2Utd2lkdGg6MC41O3N0cm9rZS1kYXNoYXJyYXk6NS4wLDUuMDsiIHgxPSIyMiIgeDI9IjIyIiB5MT0iNzkuOTg0NCIgeTI9IjQwOS4wMzkxIi8+PGxpbmUgc3R5bGU9InN0cm9rZTojMTgxODE4O3N0cm9rZS13aWR0aDowLjU7c3Ryb2tlLWRhc2hhcnJheTo1LjAsNS4wOyIgeDE9IjI0MCIgeDI9IjI0MCIgeTE9Ijc5Ljk4NDQiIHkyPSI0MDkuMDM5MSIvPjxsaW5lIHN0eWxlPSJzdHJva2U6IzE4MTgxODtzdHJva2Utd2lkdGg6MC41O3N0cm9rZS1kYXNoYXJyYXk6NS4wLDUuMDsiIHgxPSI0NTciIHgyPSI0NTciIHkxPSI3OS45ODQ0IiB5Mj0iNDA5LjAzOTEiLz48bGluZSBzdHlsZT0ic3Ryb2tlOiMxODE4MTg7c3Ryb2tlLXdpZHRoOjAuNTtzdHJva2UtZGFzaGFycmF5OjUuMCw1LjA7IiB4MT0iNzUwIiB4Mj0iNzUwIiB5MT0iNzkuOTg0NCIgeTI9IjQwOS4wMzkxIi8+PGxpbmUgc3R5bGU9InN0cm9rZTojMTgxODE4O3N0cm9rZS13aWR0aDowLjU7c3Ryb2tlLWRhc2hhcnJheTo1LjAsNS4wOyIgeDE9IjkwNCIgeDI9IjkwNCIgeTE9Ijc5Ljk4NDQiIHkyPSI0MDkuMDM5MSIvPjxsaW5lIHN0eWxlPSJzdHJva2U6IzE4MTgxODtzdHJva2Utd2lkdGg6MC41O3N0cm9rZS1kYXNoYXJyYXk6NS4wLDUuMDsiIHgxPSIxMDQxIiB4Mj0iMTA0MSIgeTE9Ijc5Ljk4NDQiIHkyPSI0MDkuMDM5MSIvPjx0ZXh0IGZpbGw9IiMwMDAwMDAiIGZvbnQtZmFtaWx5PSJzYW5zLXNlcmlmIiBmb250LXNpemU9IjE0IiBsZW5ndGhBZGp1c3Q9InNwYWNpbmciIHRleHRMZW5ndGg9IjI4IiB4PSI1IiB5PSI3OC4yMzQ0Ij4mIzI5OTkyOyYjMjUxNDM7PC90ZXh0PjxlbGxpcHNlIGN4PSIyMiIgY3k9IjEzLjUiIGZpbGw9IiNFMkUyRjAiIHJ4PSI4IiByeT0iOCIgc3R5bGU9InN0cm9rZTojMTgxODE4O3N0cm9rZS13aWR0aDowLjU7Ii8+PHBhdGggZD0iTTIyLDIxLjUgTDIyLDQ4LjUgTTksMjkuNSBMMzUsMjkuNSBNMjIsNDguNSBMOSw2My41IE0yMiw0OC41IEwzNSw2My41ICIgZmlsbD0ibm9uZSIgc3R5bGU9InN0cm9rZTojMTgxODE4O3N0cm9rZS13aWR0aDowLjU7Ii8+PHRleHQgZmlsbD0iIzAwMDAwMCIgZm9udC1mYW1pbHk9InNhbnMtc2VyaWYiIGZvbnQtc2l6ZT0iMTQiIGxlbmd0aEFkanVzdD0ic3BhY2luZyIgdGV4dExlbmd0aD0iMjgiIHg9IjUiIHk9IjQyMS4yNzM0Ij4mIzI5OTkyOyYjMjUxNDM7PC90ZXh0PjxlbGxpcHNlIGN4PSIyMiIgY3k9IjQzMS41MjM0IiBmaWxsPSIjRTJFMkYwIiByeD0iOCIgcnk9IjgiIHN0eWxlPSJzdHJva2U6IzE4MTgxODtzdHJva2Utd2lkdGg6MC41OyIvPjxwYXRoIGQ9Ik0yMiw0MzkuNTIzNCBMMjIsNDY2LjUyMzQgTTksNDQ3LjUyMzQgTDM1LDQ0Ny41MjM0IE0yMiw0NjYuNTIzNCBMOSw0ODEuNTIzNCBNMjIsNDY2LjUyMzQgTDM1LDQ4MS41MjM0ICIgZmlsbD0ibm9uZSIgc3R5bGU9InN0cm9rZTojMTgxODE4O3N0cm9rZS13aWR0aDowLjU7Ii8+PHJlY3QgZmlsbD0iI0UyRTJGMCIgaGVpZ2h0PSIyOC45ODQ0IiByeD0iMi41IiByeT0iMi41IiBzdHlsZT0ic3Ryb2tlOiMxODE4MTg7c3Ryb2tlLXdpZHRoOjAuNTsiIHdpZHRoPSI3MCIgeD0iMjA1IiB5PSI1MCIvPjx0ZXh0IGZpbGw9IiMwMDAwMDAiIGZvbnQtZmFtaWx5PSJzYW5zLXNlcmlmIiBmb250LXNpemU9IjE0IiBsZW5ndGhBZGp1c3Q9InNwYWNpbmciIHRleHRMZW5ndGg9IjU2IiB4PSIyMTIiIHk9IjcwLjIzNDQiPiYjMjEwNjk7JiMzMTQ3MTsmIzM5MDI5OyYjMzg3NTQ7PC90ZXh0PjxyZWN0IGZpbGw9IiNFMkUyRjAiIGhlaWdodD0iMjguOTg0NCIgcng9IjIuNSIgcnk9IjIuNSIgc3R5bGU9InN0cm9rZTojMTgxODE4O3N0cm9rZS13aWR0aDowLjU7IiB3aWR0aD0iNzAiIHg9IjIwNSIgeT0iNDA4LjAzOTEiLz48dGV4dCBmaWxsPSIjMDAwMDAwIiBmb250LWZhbWlseT0ic2Fucy1zZXJpZiIgZm9udC1zaXplPSIxNCIgbGVuZ3RoQWRqdXN0PSJzcGFjaW5nIiB0ZXh0TGVuZ3RoPSI1NiIgeD0iMjEyIiB5PSI0MjguMjczNCI+JiMyMTA2OTsmIzMxNDcxOyYjMzkwMjk7JiMzODc1NDs8L3RleHQ+PHJlY3QgZmlsbD0iI0UyRTJGMCIgaGVpZ2h0PSIyOC45ODQ0IiByeD0iMi41IiByeT0iMi41IiBzdHlsZT0ic3Ryb2tlOiMxODE4MTg7c3Ryb2tlLXdpZHRoOjAuNTsiIHdpZHRoPSIxNDAiIHg9IjM4NyIgeT0iNTAiLz48dGV4dCBmaWxsPSIjMDAwMDAwIiBmb250LWZhbWlseT0ic2Fucy1zZXJpZiIgZm9udC1zaXplPSIxNCIgbGVuZ3RoQWRqdXN0PSJzcGFjaW5nIiB0ZXh0TGVuZ3RoPSIxMjYiIHg9IjM5NCIgeT0iNzAuMjM0NCI+RG9uYXRpb25Db250cm9sbGVyPC90ZXh0PjxyZWN0IGZpbGw9IiNFMkUyRjAiIGhlaWdodD0iMjguOTg0NCIgcng9IjIuNSIgcnk9IjIuNSIgc3R5bGU9InN0cm9rZTojMTgxODE4O3N0cm9rZS13aWR0aDowLjU7IiB3aWR0aD0iMTQwIiB4PSIzODciIHk9IjQwOC4wMzkxIi8+PHRleHQgZmlsbD0iIzAwMDAwMCIgZm9udC1mYW1pbHk9InNhbnMtc2VyaWYiIGZvbnQtc2l6ZT0iMTQiIGxlbmd0aEFkanVzdD0ic3BhY2luZyIgdGV4dExlbmd0aD0iMTI2IiB4PSIzOTQiIHk9IjQyOC4yNzM0Ij5Eb25hdGlvbkNvbnRyb2xsZXI8L3RleHQ+PHJlY3QgZmlsbD0iI0UyRTJGMCIgaGVpZ2h0PSIyOC45ODQ0IiByeD0iMi41IiByeT0iMi41IiBzdHlsZT0ic3Ryb2tlOiMxODE4MTg7c3Ryb2tlLXdpZHRoOjAuNTsiIHdpZHRoPSIxNDgiIHg9IjY3NiIgeT0iNTAiLz48dGV4dCBmaWxsPSIjMDAwMDAwIiBmb250LWZhbWlseT0ic2Fucy1zZXJpZiIgZm9udC1zaXplPSIxNCIgbGVuZ3RoQWRqdXN0PSJzcGFjaW5nIiB0ZXh0TGVuZ3RoPSIxMzQiIHg9IjY4MyIgeT0iNzAuMjM0NCI+RG9uYXRpb25TZXJ2aWNlSW1wbDwvdGV4dD48cmVjdCBmaWxsPSIjRTJFMkYwIiBoZWlnaHQ9IjI4Ljk4NDQiIHJ4PSIyLjUiIHJ5PSIyLjUiIHN0eWxlPSJzdHJva2U6IzE4MTgxODtzdHJva2Utd2lkdGg6MC41OyIgd2lkdGg9IjE0OCIgeD0iNjc2IiB5PSI0MDguMDM5MSIvPjx0ZXh0IGZpbGw9IiMwMDAwMDAiIGZvbnQtZmFtaWx5PSJzYW5zLXNlcmlmIiBmb250LXNpemU9IjE0IiBsZW5ndGhBZGp1c3Q9InNwYWNpbmciIHRleHRMZW5ndGg9IjEzNCIgeD0iNjgzIiB5PSI0MjguMjczNCI+RG9uYXRpb25TZXJ2aWNlSW1wbDwvdGV4dD48cmVjdCBmaWxsPSIjRTJFMkYwIiBoZWlnaHQ9IjI4Ljk4NDQiIHJ4PSIyLjUiIHJ5PSIyLjUiIHN0eWxlPSJzdHJva2U6IzE4MTgxODtzdHJva2Utd2lkdGg6MC41OyIgd2lkdGg9IjE0MCIgeD0iODM0IiB5PSI1MCIvPjx0ZXh0IGZpbGw9IiMwMDAwMDAiIGZvbnQtZmFtaWx5PSJzYW5zLXNlcmlmIiBmb250LXNpemU9IjE0IiBsZW5ndGhBZGp1c3Q9InNwYWNpbmciIHRleHRMZW5ndGg9IjEyNiIgeD0iODQxIiB5PSI3MC4yMzQ0Ij5Eb25hdGlvblJlcG9zaXRvcnk8L3RleHQ+PHJlY3QgZmlsbD0iI0UyRTJGMCIgaGVpZ2h0PSIyOC45ODQ0IiByeD0iMi41IiByeT0iMi41IiBzdHlsZT0ic3Ryb2tlOiMxODE4MTg7c3Ryb2tlLXdpZHRoOjAuNTsiIHdpZHRoPSIxNDAiIHg9IjgzNCIgeT0iNDA4LjAzOTEiLz48dGV4dCBmaWxsPSIjMDAwMDAwIiBmb250LWZhbWlseT0ic2Fucy1zZXJpZiIgZm9udC1zaXplPSIxNCIgbGVuZ3RoQWRqdXN0PSJzcGFjaW5nIiB0ZXh0TGVuZ3RoPSIxMjYiIHg9Ijg0MSIgeT0iNDI4LjI3MzQiPkRvbmF0aW9uUmVwb3NpdG9yeTwvdGV4dD48cmVjdCBmaWxsPSIjRTJFMkYwIiBoZWlnaHQ9IjI4Ljk4NDQiIHJ4PSIyLjUiIHJ5PSIyLjUiIHN0eWxlPSJzdHJva2U6IzE4MTgxODtzdHJva2Utd2lkdGg6MC41OyIgd2lkdGg9IjExNCIgeD0iOTg0IiB5PSI1MCIvPjx0ZXh0IGZpbGw9IiMwMDAwMDAiIGZvbnQtZmFtaWx5PSJzYW5zLXNlcmlmIiBmb250LXNpemU9IjE0IiBsZW5ndGhBZGp1c3Q9InNwYWNpbmciIHRleHRMZW5ndGg9IjEwMCIgeD0iOTkxIiB5PSI3MC4yMzQ0Ij5QYXltZW50R2F0ZXdheTwvdGV4dD48cmVjdCBmaWxsPSIjRTJFMkYwIiBoZWlnaHQ9IjI4Ljk4NDQiIHJ4PSIyLjUiIHJ5PSIyLjUiIHN0eWxlPSJzdHJva2U6IzE4MTgxODtzdHJva2Utd2lkdGg6MC41OyIgd2lkdGg9IjExNCIgeD0iOTg0IiB5PSI0MDguMDM5MSIvPjx0ZXh0IGZpbGw9IiMwMDAwMDAiIGZvbnQtZmFtaWx5PSJzYW5zLXNlcmlmIiBmb250LXNpemU9IjE0IiBsZW5ndGhBZGp1c3Q9InNwYWNpbmciIHRleHRMZW5ndGg9IjEwMCIgeD0iOTkxIiB5PSI0MjguMjczNCI+UGF5bWVudEdhdGV3YXk8L3RleHQ+PHJlY3QgZmlsbD0iI0ZGRkZGRiIgaGVpZ2h0PSIyODEuMTQwNiIgc3R5bGU9InN0cm9rZTojMTgxODE4O3N0cm9rZS13aWR0aDoxLjA7IiB3aWR0aD0iMTAiIHg9IjIzNSIgeT0iMTA5Ljg5ODQiLz48cmVjdCBmaWxsPSIjRkZGRkZGIiBoZWlnaHQ9IjIyNS4zMTI1IiBzdHlsZT0ic3Ryb2tlOiMxODE4MTg7c3Ryb2tlLXdpZHRoOjEuMDsiIHdpZHRoPSIxMCIgeD0iNDUyIiB5PSIxMzcuODEyNSIvPjxyZWN0IGZpbGw9IiNGRkZGRkYiIGhlaWdodD0iMTY5LjQ4NDQiIHN0eWxlPSJzdHJva2U6IzE4MTgxODtzdHJva2Utd2lkdGg6MS4wOyIgd2lkdGg9IjEwIiB4PSI3NDUiIHk9IjE2NS43MjY2Ii8+PHJlY3QgZmlsbD0iI0ZGRkZGRiIgaGVpZ2h0PSIyNy45MTQxIiBzdHlsZT0ic3Ryb2tlOiMxODE4MTg7c3Ryb2tlLXdpZHRoOjEuMDsiIHdpZHRoPSIxMCIgeD0iODk5IiB5PSIyNzIuMzgyOCIvPjxyZWN0IGZpbGw9IiNGRkZGRkYiIGhlaWdodD0iMjcuOTE0MSIgc3R5bGU9InN0cm9rZTojMTgxODE4O3N0cm9rZS13aWR0aDoxLjA7IiB3aWR0aD0iMTAiIHg9IjEwMzYiIHk9IjE5My42NDA2Ii8+PHBvbHlnb24gZmlsbD0iIzE4MTgxOCIgcG9pbnRzPSIyMjMsMTA1Ljg5ODQsMjMzLDEwOS44OTg0LDIyMywxMTMuODk4NCwyMjcsMTA5Ljg5ODQiIHN0eWxlPSJzdHJva2U6IzE4MTgxODtzdHJva2Utd2lkdGg6MS4wOyIvPjxsaW5lIHN0eWxlPSJzdHJva2U6IzE4MTgxODtzdHJva2Utd2lkdGg6MS4wOyIgeDE9IjIyIiB4Mj0iMjI5IiB5MT0iMTA5Ljg5ODQiIHkyPSIxMDkuODk4NCIvPjx0ZXh0IGZpbGw9IiMwMDAwMDAiIGZvbnQtZmFtaWx5PSJzYW5zLXNlcmlmIiBmb250LXNpemU9IjEzIiBmb250LXdlaWdodD0iYm9sZCIgbGVuZ3RoQWRqdXN0PSJzcGFjaW5nIiB0ZXh0TGVuZ3RoPSI3IiB4PSIyOSIgeT0iMTA2LjI3MzQiPjE8L3RleHQ+PHRleHQgZmlsbD0iIzAwMDAwMCIgZm9udC1mYW1pbHk9InNhbnMtc2VyaWYiIGZvbnQtc2l6ZT0iMTMiIGxlbmd0aEFkanVzdD0ic3BhY2luZyIgdGV4dExlbmd0aD0iMTgzIiB4PSI0MCIgeT0iMTA2LjI3MzQiPiYjMzY4NzM7JiMyNTMyMTsmIzI1NDI0OyYjMjc0NTQ7JiMzNzMyOTsmIzM5MDY5OyYjMjQxODI7JiMyODg1NzsmIzIwOTg3OyYjODIyMDsmIzI1NDI0OyYjMjc0NTQ7JiM4MjIxOyYjMjUzNTM7JiMzODA2Mjs8L3RleHQ+PHBvbHlnb24gZmlsbD0iIzE4MTgxOCIgcG9pbnRzPSI0NDAsMTMzLjgxMjUsNDUwLDEzNy44MTI1LDQ0MCwxNDEuODEyNSw0NDQsMTM3LjgxMjUiIHN0eWxlPSJzdHJva2U6IzE4MTgxODtzdHJva2Utd2lkdGg6MS4wOyIvPjxsaW5lIHN0eWxlPSJzdHJva2U6IzE4MTgxODtzdHJva2Utd2lkdGg6MS4wOyIgeDE9IjI0NSIgeDI9IjQ0NiIgeTE9IjEzNy44MTI1IiB5Mj0iMTM3LjgxMjUiLz48dGV4dCBmaWxsPSIjMDAwMDAwIiBmb250LWZhbWlseT0ic2Fucy1zZXJpZiIgZm9udC1zaXplPSIxMyIgZm9udC13ZWlnaHQ9ImJvbGQiIGxlbmd0aEFkanVzdD0ic3BhY2luZyIgdGV4dExlbmd0aD0iNyIgeD0iMjUyIiB5PSIxMzQuMTg3NSI+MjwvdGV4dD48dGV4dCBmaWxsPSIjMDAwMDAwIiBmb250LWZhbWlseT0ic2Fucy1zZXJpZiIgZm9udC1zaXplPSIxMyIgbGVuZ3RoQWRqdXN0PSJzcGFjaW5nIiB0ZXh0TGVuZ3RoPSIxNzciIHg9IjI2MyIgeT0iMTM0LjE4NzUiPiYjMjE0NTc7JiMzNjg2NTsmIzI1NDI0OyYjMjc0NTQ7JiMzNTgzMTsmIzI3NzE0OyAoZG9uYXRpb25JbmZvKTwvdGV4dD48cG9seWdvbiBmaWxsPSIjMTgxODE4IiBwb2ludHM9IjczMywxNjEuNzI2Niw3NDMsMTY1LjcyNjYsNzMzLDE2OS43MjY2LDczNywxNjUuNzI2NiIgc3R5bGU9InN0cm9rZTojMTgxODE4O3N0cm9rZS13aWR0aDoxLjA7Ii8+PGxpbmUgc3R5bGU9InN0cm9rZTojMTgxODE4O3N0cm9rZS13aWR0aDoxLjA7IiB4MT0iNDYyIiB4Mj0iNzM5IiB5MT0iMTY1LjcyNjYiIHkyPSIxNjUuNzI2NiIvPjx0ZXh0IGZpbGw9IiMwMDAwMDAiIGZvbnQtZmFtaWx5PSJzYW5zLXNlcmlmIiBmb250LXNpemU9IjEzIiBmb250LXdlaWdodD0iYm9sZCIgbGVuZ3RoQWRqdXN0PSJzcGFjaW5nIiB0ZXh0TGVuZ3RoPSI3IiB4PSI0NjkiIHk9IjE2Mi4xMDE2Ij4zPC90ZXh0Pjx0ZXh0IGZpbGw9IiMwMDAwMDAiIGZvbnQtZmFtaWx5PSJzYW5zLXNlcmlmIiBmb250LXNpemU9IjEzIiBsZW5ndGhBZGp1c3Q9InNwYWNpbmciIHRleHRMZW5ndGg9IjI1MyIgeD0iNDgwIiB5PSIxNjIuMTAxNiI+JiMzNTg0MzsmIzI5OTkyOyBjcmVhdGVEb25hdGlvbihkb25hdGlvbkluZm8pICYjMjYwNDE7JiMyNzg2MTs8L3RleHQ+PHBvbHlnb24gZmlsbD0iIzE4MTgxOCIgcG9pbnRzPSIxMDI0LDE4OS42NDA2LDEwMzQsMTkzLjY0MDYsMTAyNCwxOTcuNjQwNiwxMDI4LDE5My42NDA2IiBzdHlsZT0ic3Ryb2tlOiMxODE4MTg7c3Ryb2tlLXdpZHRoOjEuMDsiLz48bGluZSBzdHlsZT0ic3Ryb2tlOiMxODE4MTg7c3Ryb2tlLXdpZHRoOjEuMDsiIHgxPSI3NTUiIHgyPSIxMDMwIiB5MT0iMTkzLjY0MDYiIHkyPSIxOTMuNjQwNiIvPjx0ZXh0IGZpbGw9IiMwMDAwMDAiIGZvbnQtZmFtaWx5PSJzYW5zLXNlcmlmIiBmb250LXNpemU9IjEzIiBmb250LXdlaWdodD0iYm9sZCIgbGVuZ3RoQWRqdXN0PSJzcGFjaW5nIiB0ZXh0TGVuZ3RoPSI3IiB4PSI3NjIiIHk9IjE5MC4wMTU2Ij40PC90ZXh0Pjx0ZXh0IGZpbGw9IiMwMDAwMDAiIGZvbnQtZmFtaWx5PSJzYW5zLXNlcmlmIiBmb250LXNpemU9IjEzIiBsZW5ndGhBZGp1c3Q9InNwYWNpbmciIHRleHRMZW5ndGg9IjEzMCIgeD0iNzczIiB5PSIxOTAuMDE1NiI+JiMzNTgzMTsmIzI3NzE0OyYjMjU5MDM7JiMyMDE4NDsmIzMyNTkzOyYjMjA4NTE7JiMzNjgyNzsmIzM0ODkyOyYjMjU5MDM7JiMyMDE4NDs8L3RleHQ+PHBvbHlnb24gZmlsbD0iIzE4MTgxOCIgcG9pbnRzPSI3NjYsMjE3LjU1NDcsNzU2LDIyMS41NTQ3LDc2NiwyMjUuNTU0Nyw3NjIsMjIxLjU1NDciIHN0eWxlPSJzdHJva2U6IzE4MTgxODtzdHJva2Utd2lkdGg6MS4wOyIvPjxsaW5lIHN0eWxlPSJzdHJva2U6IzE4MTgxODtzdHJva2Utd2lkdGg6MS4wO3N0cm9rZS1kYXNoYXJyYXk6Mi4wLDIuMDsiIHgxPSI3NjAiIHgyPSIxMDQwIiB5MT0iMjIxLjU1NDciIHkyPSIyMjEuNTU0NyIvPjx0ZXh0IGZpbGw9IiMwMDAwMDAiIGZvbnQtZmFtaWx5PSJzYW5zLXNlcmlmIiBmb250LXNpemU9IjEzIiBmb250LXdlaWdodD0iYm9sZCIgbGVuZ3RoQWRqdXN0PSJzcGFjaW5nIiB0ZXh0TGVuZ3RoPSI3IiB4PSI3NzIiIHk9IjIxNy45Mjk3Ij41PC90ZXh0Pjx0ZXh0IGZpbGw9IiMwMDAwMDAiIGZvbnQtZmFtaWx5PSJzYW5zLXNlcmlmIiBmb250LXNpemU9IjEzIiBsZW5ndGhBZGp1c3Q9InNwYWNpbmciIHRleHRMZW5ndGg9Ijc4IiB4PSI3ODMiIHk9IjIxNy45Mjk3Ij4mIzM2ODIwOyYjMjIyMzg7JiMyNTkwMzsmIzIwMTg0OyYjMzI0Njc7JiMyNjUyNDs8L3RleHQ+PHBhdGggZD0iTTY2NiwyMzYuNTU0NyBMNzMwLDIzNi41NTQ3IEw3MzAsMjQyLjQ2ODggTDcyMCwyNTIuNDY4OCBMNjY2LDI1Mi40Njg4IEw2NjYsMjM2LjU1NDcgIiBmaWxsPSIjRUVFRUVFIiBzdHlsZT0ic3Ryb2tlOiMwMDAwMDA7c3Ryb2tlLXdpZHRoOjEuNTsiLz48cmVjdCBmaWxsPSJub25lIiBoZWlnaHQ9IjcxLjc0MjIiIHN0eWxlPSJzdHJva2U6IzAwMDAwMDtzdHJva2Utd2lkdGg6MS41OyIgd2lkdGg9IjMxOCIgeD0iNjY2IiB5PSIyMzYuNTU0NyIvPjx0ZXh0IGZpbGw9IiMwMDAwMDAiIGZvbnQtZmFtaWx5PSJzYW5zLXNlcmlmIiBmb250LXNpemU9IjEzIiBmb250LXdlaWdodD0iYm9sZCIgbGVuZ3RoQWRqdXN0PSJzcGFjaW5nIiB0ZXh0TGVuZ3RoPSIxOSIgeD0iNjgxIiB5PSIyNDkuODQzOCI+YWx0PC90ZXh0Pjx0ZXh0IGZpbGw9IiMwMDAwMDAiIGZvbnQtZmFtaWx5PSJzYW5zLXNlcmlmIiBmb250LXNpemU9IjExIiBmb250LXdlaWdodD0iYm9sZCIgbGVuZ3RoQWRqdXN0PSJzcGFjaW5nIiB0ZXh0TGVuZ3RoPSI1NiIgeD0iNzQ1IiB5PSIyNDguOTUzMSI+WyYjMjU5MDM7JiMyMDE4NDsmIzI1MTA0OyYjMjExNTE7XTwvdGV4dD48cG9seWdvbiBmaWxsPSIjMTgxODE4IiBwb2ludHM9Ijg4NywyNjguMzgyOCw4OTcsMjcyLjM4MjgsODg3LDI3Ni4zODI4LDg5MSwyNzIuMzgyOCIgc3R5bGU9InN0cm9rZTojMTgxODE4O3N0cm9rZS13aWR0aDoxLjA7Ii8+PGxpbmUgc3R5bGU9InN0cm9rZTojMTgxODE4O3N0cm9rZS13aWR0aDoxLjA7IiB4MT0iNzU1IiB4Mj0iODkzIiB5MT0iMjcyLjM4MjgiIHkyPSIyNzIuMzgyOCIvPjx0ZXh0IGZpbGw9IiMwMDAwMDAiIGZvbnQtZmFtaWx5PSJzYW5zLXNlcmlmIiBmb250LXNpemU9IjEzIiBmb250LXdlaWdodD0iYm9sZCIgbGVuZ3RoQWRqdXN0PSJzcGFjaW5nIiB0ZXh0TGVuZ3RoPSI3IiB4PSI3NjIiIHk9IjI2OC43NTc4Ij42PC90ZXh0Pjx0ZXh0IGZpbGw9IiMwMDAwMDAiIGZvbnQtZmFtaWx5PSJzYW5zLXNlcmlmIiBmb250LXNpemU9IjEzIiBsZW5ndGhBZGp1c3Q9InNwYWNpbmciIHRleHRMZW5ndGg9Ijc4IiB4PSI3NzMiIHk9IjI2OC43NTc4Ij4mIzIwNDQ1OyYjMjMzODQ7JiMyNTQyNDsmIzI3NDU0OyYjMzU3NjA7JiMyNDQwNTs8L3RleHQ+PHBvbHlnb24gZmlsbD0iIzE4MTgxOCIgcG9pbnRzPSI3NjYsMjk2LjI5NjksNzU2LDMwMC4yOTY5LDc2NiwzMDQuMjk2OSw3NjIsMzAwLjI5NjkiIHN0eWxlPSJzdHJva2U6IzE4MTgxODtzdHJva2Utd2lkdGg6MS4wOyIvPjxsaW5lIHN0eWxlPSJzdHJva2U6IzE4MTgxODtzdHJva2Utd2lkdGg6MS4wO3N0cm9rZS1kYXNoYXJyYXk6Mi4wLDIuMDsiIHgxPSI3NjAiIHgyPSI5MDMiIHkxPSIzMDAuMjk2OSIgeTI9IjMwMC4yOTY5Ii8+PHRleHQgZmlsbD0iIzAwMDAwMCIgZm9udC1mYW1pbHk9InNhbnMtc2VyaWYiIGZvbnQtc2l6ZT0iMTMiIGZvbnQtd2VpZ2h0PSJib2xkIiBsZW5ndGhBZGp1c3Q9InNwYWNpbmciIHRleHRMZW5ndGg9IjciIHg9Ijc3MiIgeT0iMjk2LjY3MTkiPjc8L3RleHQ+PHRleHQgZmlsbD0iIzAwMDAwMCIgZm9udC1mYW1pbHk9InNhbnMtc2VyaWYiIGZvbnQtc2l6ZT0iMTMiIGxlbmd0aEFkanVzdD0ic3BhY2luZyIgdGV4dExlbmd0aD0iNzgiIHg9Ijc4MyIgeT0iMjk2LjY3MTkiPiYjMzY4MjA7JiMyMjIzODsmIzIwNDQ1OyYjMjMzODQ7JiMzMjQ2NzsmIzI2NTI0OzwvdGV4dD48cG9seWdvbiBmaWxsPSIjMTgxODE4IiBwb2ludHM9IjQ3MywzMzEuMjEwOSw0NjMsMzM1LjIxMDksNDczLDMzOS4yMTA5LDQ2OSwzMzUuMjEwOSIgc3R5bGU9InN0cm9rZTojMTgxODE4O3N0cm9rZS13aWR0aDoxLjA7Ii8+PGxpbmUgc3R5bGU9InN0cm9rZTojMTgxODE4O3N0cm9rZS13aWR0aDoxLjA7c3Ryb2tlLWRhc2hhcnJheToyLjAsMi4wOyIgeDE9IjQ2NyIgeDI9Ijc0OSIgeTE9IjMzNS4yMTA5IiB5Mj0iMzM1LjIxMDkiLz48dGV4dCBmaWxsPSIjMDAwMDAwIiBmb250LWZhbWlseT0ic2Fucy1zZXJpZiIgZm9udC1zaXplPSIxMyIgZm9udC13ZWlnaHQ9ImJvbGQiIGxlbmd0aEFkanVzdD0ic3BhY2luZyIgdGV4dExlbmd0aD0iNyIgeD0iNDc5IiB5PSIzMzEuNTg1OSI+ODwvdGV4dD48dGV4dCBmaWxsPSIjMDAwMDAwIiBmb250LWZhbWlseT0ic2Fucy1zZXJpZiIgZm9udC1zaXplPSIxMyIgbGVuZ3RoQWRqdXN0PSJzcGFjaW5nIiB0ZXh0TGVuZ3RoPSI3OCIgeD0iNDkwIiB5PSIzMzEuNTg1OSI+JiMzNjgyMDsmIzIyMjM4OyYjMjU4MDU7JiMyMDMxNjsmIzMyNDY3OyYjMjY1MjQ7PC90ZXh0Pjxwb2x5Z29uIGZpbGw9IiMxODE4MTgiIHBvaW50cz0iMjU2LDM1OS4xMjUsMjQ2LDM2My4xMjUsMjU2LDM2Ny4xMjUsMjUyLDM2My4xMjUiIHN0eWxlPSJzdHJva2U6IzE4MTgxODtzdHJva2Utd2lkdGg6MS4wOyIvPjxsaW5lIHN0eWxlPSJzdHJva2U6IzE4MTgxODtzdHJva2Utd2lkdGg6MS4wO3N0cm9rZS1kYXNoYXJyYXk6Mi4wLDIuMDsiIHgxPSIyNTAiIHgyPSI0NTYiIHkxPSIzNjMuMTI1IiB5Mj0iMzYzLjEyNSIvPjx0ZXh0IGZpbGw9IiMwMDAwMDAiIGZvbnQtZmFtaWx5PSJzYW5zLXNlcmlmIiBmb250LXNpemU9IjEzIiBmb250LXdlaWdodD0iYm9sZCIgbGVuZ3RoQWRqdXN0PSJzcGFjaW5nIiB0ZXh0TGVuZ3RoPSI3IiB4PSIyNjIiIHk9IjM1OS41Ij45PC90ZXh0Pjx0ZXh0IGZpbGw9IiMwMDAwMDAiIGZvbnQtZmFtaWx5PSJzYW5zLXNlcmlmIiBmb250LXNpemU9IjEzIiBsZW5ndGhBZGp1c3Q9InNwYWNpbmciIHRleHRMZW5ndGg9Ijc4IiB4PSIyNzMiIHk9IjM1OS41Ij4mIzM2ODIwOyYjMjIyMzg7JiMyNTgwNTsmIzIwMzE2OyYjMzI0Njc7JiMyNjUyNDs8L3RleHQ+PHBvbHlnb24gZmlsbD0iIzE4MTgxOCIgcG9pbnRzPSIzMywzODcuMDM5MSwyMywzOTEuMDM5MSwzMywzOTUuMDM5MSwyOSwzOTEuMDM5MSIgc3R5bGU9InN0cm9rZTojMTgxODE4O3N0cm9rZS13aWR0aDoxLjA7Ii8+PGxpbmUgc3R5bGU9InN0cm9rZTojMTgxODE4O3N0cm9rZS13aWR0aDoxLjA7c3Ryb2tlLWRhc2hhcnJheToyLjAsMi4wOyIgeDE9IjI3IiB4Mj0iMjM5IiB5MT0iMzkxLjAzOTEiIHkyPSIzOTEuMDM5MSIvPjx0ZXh0IGZpbGw9IiMwMDAwMDAiIGZvbnQtZmFtaWx5PSJzYW5zLXNlcmlmIiBmb250LXNpemU9IjEzIiBmb250LXdlaWdodD0iYm9sZCIgbGVuZ3RoQWRqdXN0PSJzcGFjaW5nIiB0ZXh0TGVuZ3RoPSIxNCIgeD0iMzkiIHk9IjM4Ny40MTQxIj4xMDwvdGV4dD48dGV4dCBmaWxsPSIjMDAwMDAwIiBmb250LWZhbWlseT0ic2Fucy1zZXJpZiIgZm9udC1zaXplPSIxMyIgbGVuZ3RoQWRqdXN0PSJzcGFjaW5nIiB0ZXh0TGVuZ3RoPSI3OCIgeD0iNTciIHk9IjM4Ny40MTQxIj4mIzI2MTc0OyYjMzEwMzQ7JiMyNTgwNTsmIzIwMzE2OyYjMzI0Njc7JiMyNjUyNDs8L3RleHQ+PCEtLVNSQz1bWkxGREppOTA0Qnh0QVVRZTFyd1cxby1RNjZ2NmRzMjVETWJJc2dPazY2dUxPbTI1MjhBNlgxeTN5UTFIMEtFSzgwN1VYUjFSLVhPTU15Rk1qa2ZuUHNRX1J4dmxQYjJJZzRlb1NPWHJHSzBuZWtmV0xYek9SWVhlSTJUSUpEQUdHZTNjWS1QSnBzZ19NU3NFOXg2WkFlWDhnaEFqQWFITlBUYjYyS2VWTzNxYm5OMHFlU2MxLU5zaWdTVUlKUHhzZkZUR0VlNExpZWk4RmE1ZkdOMHdXeVlNZm80SEIyRkZCWHpQaVNJVWZyUXNSN01RVEZIa1BhT3FFdnVSM0lTLUR2Z2lhQlVra29rTEtpZzZ6QWhZN29pNmxwOEh3NU5QQ2F1VGw2TGxvNXVwaTE1dHd3QkFhUmd2bld1bW5YX1lVSllCSDVac3Bzb2o0REVuWlZMVHVRSzJUWmpZV25pXzgtenJHNnA1d1ZOTGZsbEltZ2d6blJYY0ppaHFWQjJTclBWaldYRFBLX29PWF9TOWFMMHJpb2dqanJwdVNPTXI2YThTWHU0WWNPMUpvZDhiVWQ0ZDA4SWV5Mi1GMjhqUGF4eEt0MGJyLXRIb09fX3RNU0lqNm1HNF9yQllhQlhBMDNXajBHSE9ZR1VGOE1KN05CQ2duU01hdUpWaGpvN3BVLUt4YVZfMVNqbGdsR1NScHBhLTRMWGpRanZfWDI3bnRwdTFdLS0+PC9nPjwvc3ZnPg==;" parent="1" vertex="1"><mxGeometry x="-112" y="2110" width="1104" height="488" as="geometry"/></mxCell></UserObject><UserObject label="" plantUmlData="{&#10;  &quot;data&quot;: &quot;@startuml\nautonumber\n\nactor 用户\nparticipant 前端页面\nparticipant UserController\nparticipant UserServiceImpl\nparticipant UserRepository\n\n用户 -&gt; 前端页面: 填写注册信息并点击“注册”按钮\nactivate 前端页面\n前端页面 -&gt; UserController: 发送注册请求 (userInfo)\nactivate UserController\nUserController -&gt; UserServiceImpl: 调用 register(userInfo) 方法\nactivate UserServiceImpl\nUserServiceImpl -&gt; UserRepository: 查询用户名是否已存在\nactivate UserRepository\nUserRepository --&gt; UserServiceImpl: 返回查询结果\ndeactivate UserRepository\nalt 用户名已存在\n  UserServiceImpl --&gt; UserController: 返回错误信息\nelse 用户名不存在\n  UserServiceImpl -&gt; UserServiceImpl: 对密码进行加密\n  UserServiceImpl -&gt; UserRepository: 保存用户信息\n  activate UserRepository\n  UserRepository --&gt; UserServiceImpl: 返回保存结果\n  deactivate UserRepository\n  UserServiceImpl --&gt; UserController: 返回操作结果\nend\ndeactivate UserServiceImpl\nUserController --&gt; 前端页面: 返回结果 (成功或错误信息)\ndeactivate UserController\nalt 注册成功\n  前端页面 --&gt; 用户: 提示注册成功，跳转到登录页面\nelse 注册失败\n  前端页面 --&gt; 用户: 显示错误信息\nend\ndeactivate 前端页面\n@enduml&quot;,&#10;  &quot;format&quot;: &quot;svg&quot;&#10;}" id="AG9e61MuKz-lgSlKQN2f-13"><mxCell style="shape=image;noLabel=1;verticalAlign=top;aspect=fixed;imageAspect=0;image=data:image/svg+xml,PD94bWwgdmVyc2lvbj0iMS4wIiBlbmNvZGluZz0idXMtYXNjaWkiIHN0YW5kYWxvbmU9Im5vIj8+PHN2ZyB4bWxucz0iaHR0cDovL3d3dy53My5vcmcvMjAwMC9zdmciIHhtbG5zOnhsaW5rPSJodHRwOi8vd3d3LnczLm9yZy8xOTk5L3hsaW5rIiBjb250ZW50U3R5bGVUeXBlPSJ0ZXh0L2NzcyIgaGVpZ2h0PSI2NDJweCIgcHJlc2VydmVBc3BlY3RSYXRpbz0ibm9uZSIgc3R5bGU9IndpZHRoOjk0OXB4O2hlaWdodDo2NDJweDtiYWNrZ3JvdW5kOiNGRkZGRkY7IiB2ZXJzaW9uPSIxLjEiIHZpZXdCb3g9IjAgMCA5NDkgNjQyIiB3aWR0aD0iOTQ5cHgiIHpvb21BbmRQYW49Im1hZ25pZnkiPjxkZWZzLz48Zz48cmVjdCBmaWxsPSIjRkZGRkZGIiBoZWlnaHQ9IjQ0My4zNDM4IiBzdHlsZT0ic3Ryb2tlOiMxODE4MTg7c3Ryb2tlLXdpZHRoOjEuMDsiIHdpZHRoPSIxMCIgeD0iMjYxIiB5PSIxMDkuODk4NCIvPjxyZWN0IGZpbGw9IiNGRkZGRkYiIGhlaWdodD0iMzA3LjkxNDEiIHN0eWxlPSJzdHJva2U6IzE4MTgxODtzdHJva2Utd2lkdGg6MS4wOyIgd2lkdGg9IjEwIiB4PSI0NzUiIHk9IjEzNy44MTI1Ii8+PHJlY3QgZmlsbD0iI0ZGRkZGRiIgaGVpZ2h0PSIyNjAuMDg1OSIgc3R5bGU9InN0cm9rZTojMTgxODE4O3N0cm9rZS13aWR0aDoxLjA7IiB3aWR0aD0iMTAiIHg9IjcwMSIgeT0iMTY1LjcyNjYiLz48cmVjdCBmaWxsPSIjRkZGRkZGIiBoZWlnaHQ9IjI3LjkxNDEiIHN0eWxlPSJzdHJva2U6IzE4MTgxODtzdHJva2Utd2lkdGg6MS4wOyIgd2lkdGg9IjEwIiB4PSI4NzEiIHk9IjE5My42NDA2Ii8+PHJlY3QgZmlsbD0iI0ZGRkZGRiIgaGVpZ2h0PSIyNy45MTQxIiBzdHlsZT0ic3Ryb2tlOiMxODE4MTg7c3Ryb2tlLXdpZHRoOjEuMDsiIHdpZHRoPSIxMCIgeD0iODcxIiB5PSIzNTQuOTg0NCIvPjxyZWN0IGZpbGw9Im5vbmUiIGhlaWdodD0iMTgyLjI1NzgiIHN0eWxlPSJzdHJva2U6IzAwMDAwMDtzdHJva2Utd2lkdGg6MS41OyIgd2lkdGg9IjUyOCIgeD0iNDE0IiB5PSIyMzYuNTU0NyIvPjxyZWN0IGZpbGw9Im5vbmUiIGhlaWdodD0iODUuNTE1NiIgc3R5bGU9InN0cm9rZTojMDAwMDAwO3N0cm9rZS13aWR0aDoxLjU7IiB3aWR0aD0iMzAxIiB4PSIxMCIgeT0iNDYwLjcyNjYiLz48bGluZSBzdHlsZT0ic3Ryb2tlOiMxODE4MTg7c3Ryb2tlLXdpZHRoOjAuNTtzdHJva2UtZGFzaGFycmF5OjUuMCw1LjA7IiB4MT0iMzciIHgyPSIzNyIgeTE9Ijc5Ljk4NDQiIHkyPSI1NjMuMjQyMiIvPjxsaW5lIHN0eWxlPSJzdHJva2U6IzE4MTgxODtzdHJva2Utd2lkdGg6MC41O3N0cm9rZS1kYXNoYXJyYXk6NS4wLDUuMDsiIHgxPSIyNjYiIHgyPSIyNjYiIHkxPSI3OS45ODQ0IiB5Mj0iNTYzLjI0MjIiLz48bGluZSBzdHlsZT0ic3Ryb2tlOiMxODE4MTg7c3Ryb2tlLXdpZHRoOjAuNTtzdHJva2UtZGFzaGFycmF5OjUuMCw1LjA7IiB4MT0iNDgwIiB4Mj0iNDgwIiB5MT0iNzkuOTg0NCIgeTI9IjU2My4yNDIyIi8+PGxpbmUgc3R5bGU9InN0cm9rZTojMTgxODE4O3N0cm9rZS13aWR0aDowLjU7c3Ryb2tlLWRhc2hhcnJheTo1LjAsNS4wOyIgeDE9IjcwNiIgeDI9IjcwNiIgeTE9Ijc5Ljk4NDQiIHkyPSI1NjMuMjQyMiIvPjxsaW5lIHN0eWxlPSJzdHJva2U6IzE4MTgxODtzdHJva2Utd2lkdGg6MC41O3N0cm9rZS1kYXNoYXJyYXk6NS4wLDUuMDsiIHgxPSI4NzYiIHgyPSI4NzYiIHkxPSI3OS45ODQ0IiB5Mj0iNTYzLjI0MjIiLz48dGV4dCBmaWxsPSIjMDAwMDAwIiBmb250LWZhbWlseT0ic2Fucy1zZXJpZiIgZm9udC1zaXplPSIxNCIgbGVuZ3RoQWRqdXN0PSJzcGFjaW5nIiB0ZXh0TGVuZ3RoPSIyOCIgeD0iMjAiIHk9Ijc4LjIzNDQiPiYjMjk5OTI7JiMyNTE0Mzs8L3RleHQ+PGVsbGlwc2UgY3g9IjM3IiBjeT0iMTMuNSIgZmlsbD0iI0UyRTJGMCIgcng9IjgiIHJ5PSI4IiBzdHlsZT0ic3Ryb2tlOiMxODE4MTg7c3Ryb2tlLXdpZHRoOjAuNTsiLz48cGF0aCBkPSJNMzcsMjEuNSBMMzcsNDguNSBNMjQsMjkuNSBMNTAsMjkuNSBNMzcsNDguNSBMMjQsNjMuNSBNMzcsNDguNSBMNTAsNjMuNSAiIGZpbGw9Im5vbmUiIHN0eWxlPSJzdHJva2U6IzE4MTgxODtzdHJva2Utd2lkdGg6MC41OyIvPjx0ZXh0IGZpbGw9IiMwMDAwMDAiIGZvbnQtZmFtaWx5PSJzYW5zLXNlcmlmIiBmb250LXNpemU9IjE0IiBsZW5ndGhBZGp1c3Q9InNwYWNpbmciIHRleHRMZW5ndGg9IjI4IiB4PSIyMCIgeT0iNTc1LjQ3NjYiPiYjMjk5OTI7JiMyNTE0Mzs8L3RleHQ+PGVsbGlwc2UgY3g9IjM3IiBjeT0iNTg1LjcyNjYiIGZpbGw9IiNFMkUyRjAiIHJ4PSI4IiByeT0iOCIgc3R5bGU9InN0cm9rZTojMTgxODE4O3N0cm9rZS13aWR0aDowLjU7Ii8+PHBhdGggZD0iTTM3LDU5My43MjY2IEwzNyw2MjAuNzI2NiBNMjQsNjAxLjcyNjYgTDUwLDYwMS43MjY2IE0zNyw2MjAuNzI2NiBMMjQsNjM1LjcyNjYgTTM3LDYyMC43MjY2IEw1MCw2MzUuNzI2NiAiIGZpbGw9Im5vbmUiIHN0eWxlPSJzdHJva2U6IzE4MTgxODtzdHJva2Utd2lkdGg6MC41OyIvPjxyZWN0IGZpbGw9IiNFMkUyRjAiIGhlaWdodD0iMjguOTg0NCIgcng9IjIuNSIgcnk9IjIuNSIgc3R5bGU9InN0cm9rZTojMTgxODE4O3N0cm9rZS13aWR0aDowLjU7IiB3aWR0aD0iNzAiIHg9IjIzMSIgeT0iNTAiLz48dGV4dCBmaWxsPSIjMDAwMDAwIiBmb250LWZhbWlseT0ic2Fucy1zZXJpZiIgZm9udC1zaXplPSIxNCIgbGVuZ3RoQWRqdXN0PSJzcGFjaW5nIiB0ZXh0TGVuZ3RoPSI1NiIgeD0iMjM4IiB5PSI3MC4yMzQ0Ij4mIzIxMDY5OyYjMzE0NzE7JiMzOTAyOTsmIzM4NzU0OzwvdGV4dD48cmVjdCBmaWxsPSIjRTJFMkYwIiBoZWlnaHQ9IjI4Ljk4NDQiIHJ4PSIyLjUiIHJ5PSIyLjUiIHN0eWxlPSJzdHJva2U6IzE4MTgxODtzdHJva2Utd2lkdGg6MC41OyIgd2lkdGg9IjcwIiB4PSIyMzEiIHk9IjU2Mi4yNDIyIi8+PHRleHQgZmlsbD0iIzAwMDAwMCIgZm9udC1mYW1pbHk9InNhbnMtc2VyaWYiIGZvbnQtc2l6ZT0iMTQiIGxlbmd0aEFkanVzdD0ic3BhY2luZyIgdGV4dExlbmd0aD0iNTYiIHg9IjIzOCIgeT0iNTgyLjQ3NjYiPiYjMjEwNjk7JiMzMTQ3MTsmIzM5MDI5OyYjMzg3NTQ7PC90ZXh0PjxyZWN0IGZpbGw9IiNFMkUyRjAiIGhlaWdodD0iMjguOTg0NCIgcng9IjIuNSIgcnk9IjIuNSIgc3R5bGU9InN0cm9rZTojMTgxODE4O3N0cm9rZS13aWR0aDowLjU7IiB3aWR0aD0iMTEyIiB4PSI0MjQiIHk9IjUwIi8+PHRleHQgZmlsbD0iIzAwMDAwMCIgZm9udC1mYW1pbHk9InNhbnMtc2VyaWYiIGZvbnQtc2l6ZT0iMTQiIGxlbmd0aEFkanVzdD0ic3BhY2luZyIgdGV4dExlbmd0aD0iOTgiIHg9IjQzMSIgeT0iNzAuMjM0NCI+VXNlckNvbnRyb2xsZXI8L3RleHQ+PHJlY3QgZmlsbD0iI0UyRTJGMCIgaGVpZ2h0PSIyOC45ODQ0IiByeD0iMi41IiByeT0iMi41IiBzdHlsZT0ic3Ryb2tlOiMxODE4MTg7c3Ryb2tlLXdpZHRoOjAuNTsiIHdpZHRoPSIxMTIiIHg9IjQyNCIgeT0iNTYyLjI0MjIiLz48dGV4dCBmaWxsPSIjMDAwMDAwIiBmb250LWZhbWlseT0ic2Fucy1zZXJpZiIgZm9udC1zaXplPSIxNCIgbGVuZ3RoQWRqdXN0PSJzcGFjaW5nIiB0ZXh0TGVuZ3RoPSI5OCIgeD0iNDMxIiB5PSI1ODIuNDc2NiI+VXNlckNvbnRyb2xsZXI8L3RleHQ+PHJlY3QgZmlsbD0iI0UyRTJGMCIgaGVpZ2h0PSIyOC45ODQ0IiByeD0iMi41IiByeT0iMi41IiBzdHlsZT0ic3Ryb2tlOiMxODE4MTg7c3Ryb2tlLXdpZHRoOjAuNTsiIHdpZHRoPSIxMjAiIHg9IjY0NiIgeT0iNTAiLz48dGV4dCBmaWxsPSIjMDAwMDAwIiBmb250LWZhbWlseT0ic2Fucy1zZXJpZiIgZm9udC1zaXplPSIxNCIgbGVuZ3RoQWRqdXN0PSJzcGFjaW5nIiB0ZXh0TGVuZ3RoPSIxMDYiIHg9IjY1MyIgeT0iNzAuMjM0NCI+VXNlclNlcnZpY2VJbXBsPC90ZXh0PjxyZWN0IGZpbGw9IiNFMkUyRjAiIGhlaWdodD0iMjguOTg0NCIgcng9IjIuNSIgcnk9IjIuNSIgc3R5bGU9InN0cm9rZTojMTgxODE4O3N0cm9rZS13aWR0aDowLjU7IiB3aWR0aD0iMTIwIiB4PSI2NDYiIHk9IjU2Mi4yNDIyIi8+PHRleHQgZmlsbD0iIzAwMDAwMCIgZm9udC1mYW1pbHk9InNhbnMtc2VyaWYiIGZvbnQtc2l6ZT0iMTQiIGxlbmd0aEFkanVzdD0ic3BhY2luZyIgdGV4dExlbmd0aD0iMTA2IiB4PSI2NTMiIHk9IjU4Mi40NzY2Ij5Vc2VyU2VydmljZUltcGw8L3RleHQ+PHJlY3QgZmlsbD0iI0UyRTJGMCIgaGVpZ2h0PSIyOC45ODQ0IiByeD0iMi41IiByeT0iMi41IiBzdHlsZT0ic3Ryb2tlOiMxODE4MTg7c3Ryb2tlLXdpZHRoOjAuNTsiIHdpZHRoPSIxMTIiIHg9IjgyMCIgeT0iNTAiLz48dGV4dCBmaWxsPSIjMDAwMDAwIiBmb250LWZhbWlseT0ic2Fucy1zZXJpZiIgZm9udC1zaXplPSIxNCIgbGVuZ3RoQWRqdXN0PSJzcGFjaW5nIiB0ZXh0TGVuZ3RoPSI5OCIgeD0iODI3IiB5PSI3MC4yMzQ0Ij5Vc2VyUmVwb3NpdG9yeTwvdGV4dD48cmVjdCBmaWxsPSIjRTJFMkYwIiBoZWlnaHQ9IjI4Ljk4NDQiIHJ4PSIyLjUiIHJ5PSIyLjUiIHN0eWxlPSJzdHJva2U6IzE4MTgxODtzdHJva2Utd2lkdGg6MC41OyIgd2lkdGg9IjExMiIgeD0iODIwIiB5PSI1NjIuMjQyMiIvPjx0ZXh0IGZpbGw9IiMwMDAwMDAiIGZvbnQtZmFtaWx5PSJzYW5zLXNlcmlmIiBmb250LXNpemU9IjE0IiBsZW5ndGhBZGp1c3Q9InNwYWNpbmciIHRleHRMZW5ndGg9Ijk4IiB4PSI4MjciIHk9IjU4Mi40NzY2Ij5Vc2VyUmVwb3NpdG9yeTwvdGV4dD48cmVjdCBmaWxsPSIjRkZGRkZGIiBoZWlnaHQ9IjQ0My4zNDM4IiBzdHlsZT0ic3Ryb2tlOiMxODE4MTg7c3Ryb2tlLXdpZHRoOjEuMDsiIHdpZHRoPSIxMCIgeD0iMjYxIiB5PSIxMDkuODk4NCIvPjxyZWN0IGZpbGw9IiNGRkZGRkYiIGhlaWdodD0iMzA3LjkxNDEiIHN0eWxlPSJzdHJva2U6IzE4MTgxODtzdHJva2Utd2lkdGg6MS4wOyIgd2lkdGg9IjEwIiB4PSI0NzUiIHk9IjEzNy44MTI1Ii8+PHJlY3QgZmlsbD0iI0ZGRkZGRiIgaGVpZ2h0PSIyNjAuMDg1OSIgc3R5bGU9InN0cm9rZTojMTgxODE4O3N0cm9rZS13aWR0aDoxLjA7IiB3aWR0aD0iMTAiIHg9IjcwMSIgeT0iMTY1LjcyNjYiLz48cmVjdCBmaWxsPSIjRkZGRkZGIiBoZWlnaHQ9IjI3LjkxNDEiIHN0eWxlPSJzdHJva2U6IzE4MTgxODtzdHJva2Utd2lkdGg6MS4wOyIgd2lkdGg9IjEwIiB4PSI4NzEiIHk9IjE5My42NDA2Ii8+PHJlY3QgZmlsbD0iI0ZGRkZGRiIgaGVpZ2h0PSIyNy45MTQxIiBzdHlsZT0ic3Ryb2tlOiMxODE4MTg7c3Ryb2tlLXdpZHRoOjEuMDsiIHdpZHRoPSIxMCIgeD0iODcxIiB5PSIzNTQuOTg0NCIvPjxwb2x5Z29uIGZpbGw9IiMxODE4MTgiIHBvaW50cz0iMjQ5LDEwNS44OTg0LDI1OSwxMDkuODk4NCwyNDksMTEzLjg5ODQsMjUzLDEwOS44OTg0IiBzdHlsZT0ic3Ryb2tlOiMxODE4MTg7c3Ryb2tlLXdpZHRoOjEuMDsiLz48bGluZSBzdHlsZT0ic3Ryb2tlOiMxODE4MTg7c3Ryb2tlLXdpZHRoOjEuMDsiIHgxPSIzNyIgeDI9IjI1NSIgeTE9IjEwOS44OTg0IiB5Mj0iMTA5Ljg5ODQiLz48dGV4dCBmaWxsPSIjMDAwMDAwIiBmb250LWZhbWlseT0ic2Fucy1zZXJpZiIgZm9udC1zaXplPSIxMyIgZm9udC13ZWlnaHQ9ImJvbGQiIGxlbmd0aEFkanVzdD0ic3BhY2luZyIgdGV4dExlbmd0aD0iNyIgeD0iNDQiIHk9IjEwNi4yNzM0Ij4xPC90ZXh0Pjx0ZXh0IGZpbGw9IiMwMDAwMDAiIGZvbnQtZmFtaWx5PSJzYW5zLXNlcmlmIiBmb250LXNpemU9IjEzIiBsZW5ndGhBZGp1c3Q9InNwYWNpbmciIHRleHRMZW5ndGg9IjE4MyIgeD0iNTUiIHk9IjEwNi4yNzM0Ij4mIzIyNjM1OyYjMjA4ODk7JiMyNzg4MDsmIzIwODc2OyYjMjA0NDk7JiMyNDY4NzsmIzI0MTgyOyYjMjg4NTc7JiMyMDk4NzsmIzgyMjA7JiMyNzg4MDsmIzIwODc2OyYjODIyMTsmIzI1MzUzOyYjMzgwNjI7PC90ZXh0Pjxwb2x5Z29uIGZpbGw9IiMxODE4MTgiIHBvaW50cz0iNDYzLDEzMy44MTI1LDQ3MywxMzcuODEyNSw0NjMsMTQxLjgxMjUsNDY3LDEzNy44MTI1IiBzdHlsZT0ic3Ryb2tlOiMxODE4MTg7c3Ryb2tlLXdpZHRoOjEuMDsiLz48bGluZSBzdHlsZT0ic3Ryb2tlOiMxODE4MTg7c3Ryb2tlLXdpZHRoOjEuMDsiIHgxPSIyNzEiIHgyPSI0NjkiIHkxPSIxMzcuODEyNSIgeTI9IjEzNy44MTI1Ii8+PHRleHQgZmlsbD0iIzAwMDAwMCIgZm9udC1mYW1pbHk9InNhbnMtc2VyaWYiIGZvbnQtc2l6ZT0iMTMiIGZvbnQtd2VpZ2h0PSJib2xkIiBsZW5ndGhBZGp1c3Q9InNwYWNpbmciIHRleHRMZW5ndGg9IjciIHg9IjI3OCIgeT0iMTM0LjE4NzUiPjI8L3RleHQ+PHRleHQgZmlsbD0iIzAwMDAwMCIgZm9udC1mYW1pbHk9InNhbnMtc2VyaWYiIGZvbnQtc2l6ZT0iMTMiIGxlbmd0aEFkanVzdD0ic3BhY2luZyIgdGV4dExlbmd0aD0iMTUxIiB4PSIyODkiIHk9IjEzNC4xODc1Ij4mIzIxNDU3OyYjMzY4NjU7JiMyNzg4MDsmIzIwODc2OyYjMzU4MzE7JiMyNzcxNDsgKHVzZXJJbmZvKTwvdGV4dD48cG9seWdvbiBmaWxsPSIjMTgxODE4IiBwb2ludHM9IjY4OSwxNjEuNzI2Niw2OTksMTY1LjcyNjYsNjg5LDE2OS43MjY2LDY5MywxNjUuNzI2NiIgc3R5bGU9InN0cm9rZTojMTgxODE4O3N0cm9rZS13aWR0aDoxLjA7Ii8+PGxpbmUgc3R5bGU9InN0cm9rZTojMTgxODE4O3N0cm9rZS13aWR0aDoxLjA7IiB4MT0iNDg1IiB4Mj0iNjk1IiB5MT0iMTY1LjcyNjYiIHkyPSIxNjUuNzI2NiIvPjx0ZXh0IGZpbGw9IiMwMDAwMDAiIGZvbnQtZmFtaWx5PSJzYW5zLXNlcmlmIiBmb250LXNpemU9IjEzIiBmb250LXdlaWdodD0iYm9sZCIgbGVuZ3RoQWRqdXN0PSJzcGFjaW5nIiB0ZXh0TGVuZ3RoPSI3IiB4PSI0OTIiIHk9IjE2Mi4xMDE2Ij4zPC90ZXh0Pjx0ZXh0IGZpbGw9IiMwMDAwMDAiIGZvbnQtZmFtaWx5PSJzYW5zLXNlcmlmIiBmb250LXNpemU9IjEzIiBsZW5ndGhBZGp1c3Q9InNwYWNpbmciIHRleHRMZW5ndGg9IjE4NiIgeD0iNTAzIiB5PSIxNjIuMTAxNiI+JiMzNTg0MzsmIzI5OTkyOyByZWdpc3Rlcih1c2VySW5mbykgJiMyNjA0MTsmIzI3ODYxOzwvdGV4dD48cG9seWdvbiBmaWxsPSIjMTgxODE4IiBwb2ludHM9Ijg1OSwxODkuNjQwNiw4NjksMTkzLjY0MDYsODU5LDE5Ny42NDA2LDg2MywxOTMuNjQwNiIgc3R5bGU9InN0cm9rZTojMTgxODE4O3N0cm9rZS13aWR0aDoxLjA7Ii8+PGxpbmUgc3R5bGU9InN0cm9rZTojMTgxODE4O3N0cm9rZS13aWR0aDoxLjA7IiB4MT0iNzExIiB4Mj0iODY1IiB5MT0iMTkzLjY0MDYiIHkyPSIxOTMuNjQwNiIvPjx0ZXh0IGZpbGw9IiMwMDAwMDAiIGZvbnQtZmFtaWx5PSJzYW5zLXNlcmlmIiBmb250LXNpemU9IjEzIiBmb250LXdlaWdodD0iYm9sZCIgbGVuZ3RoQWRqdXN0PSJzcGFjaW5nIiB0ZXh0TGVuZ3RoPSI3IiB4PSI3MTgiIHk9IjE5MC4wMTU2Ij40PC90ZXh0Pjx0ZXh0IGZpbGw9IiMwMDAwMDAiIGZvbnQtZmFtaWx5PSJzYW5zLXNlcmlmIiBmb250LXNpemU9IjEzIiBsZW5ndGhBZGp1c3Q9InNwYWNpbmciIHRleHRMZW5ndGg9IjEzMCIgeD0iNzI5IiB5PSIxOTAuMDE1NiI+JiMyNjU5NzsmIzM1ODEwOyYjMjk5OTI7JiMyNTE0MzsmIzIxNTE3OyYjMjYxNTk7JiMyMTU0MjsmIzI0MDUwOyYjMjMzODQ7JiMyMjMxMjs8L3RleHQ+PHBvbHlnb24gZmlsbD0iIzE4MTgxOCIgcG9pbnRzPSI3MjIsMjE3LjU1NDcsNzEyLDIyMS41NTQ3LDcyMiwyMjUuNTU0Nyw3MTgsMjIxLjU1NDciIHN0eWxlPSJzdHJva2U6IzE4MTgxODtzdHJva2Utd2lkdGg6MS4wOyIvPjxsaW5lIHN0eWxlPSJzdHJva2U6IzE4MTgxODtzdHJva2Utd2lkdGg6MS4wO3N0cm9rZS1kYXNoYXJyYXk6Mi4wLDIuMDsiIHgxPSI3MTYiIHgyPSI4NzUiIHkxPSIyMjEuNTU0NyIgeTI9IjIyMS41NTQ3Ii8+PHRleHQgZmlsbD0iIzAwMDAwMCIgZm9udC1mYW1pbHk9InNhbnMtc2VyaWYiIGZvbnQtc2l6ZT0iMTMiIGZvbnQtd2VpZ2h0PSJib2xkIiBsZW5ndGhBZGp1c3Q9InNwYWNpbmciIHRleHRMZW5ndGg9IjciIHg9IjcyOCIgeT0iMjE3LjkyOTciPjU8L3RleHQ+PHRleHQgZmlsbD0iIzAwMDAwMCIgZm9udC1mYW1pbHk9InNhbnMtc2VyaWYiIGZvbnQtc2l6ZT0iMTMiIGxlbmd0aEFkanVzdD0ic3BhY2luZyIgdGV4dExlbmd0aD0iNzgiIHg9IjczOSIgeT0iMjE3LjkyOTciPiYjMzY4MjA7JiMyMjIzODsmIzI2NTk3OyYjMzU4MTA7JiMzMjQ2NzsmIzI2NTI0OzwvdGV4dD48cGF0aCBkPSJNNDE0LDIzNi41NTQ3IEw0NzgsMjM2LjU1NDcgTDQ3OCwyNDIuNDY4OCBMNDY4LDI1Mi40Njg4IEw0MTQsMjUyLjQ2ODggTDQxNCwyMzYuNTU0NyAiIGZpbGw9IiNFRUVFRUUiIHN0eWxlPSJzdHJva2U6IzAwMDAwMDtzdHJva2Utd2lkdGg6MS41OyIvPjxyZWN0IGZpbGw9Im5vbmUiIGhlaWdodD0iMTgyLjI1NzgiIHN0eWxlPSJzdHJva2U6IzAwMDAwMDtzdHJva2Utd2lkdGg6MS41OyIgd2lkdGg9IjUyOCIgeD0iNDE0IiB5PSIyMzYuNTU0NyIvPjx0ZXh0IGZpbGw9IiMwMDAwMDAiIGZvbnQtZmFtaWx5PSJzYW5zLXNlcmlmIiBmb250LXNpemU9IjEzIiBmb250LXdlaWdodD0iYm9sZCIgbGVuZ3RoQWRqdXN0PSJzcGFjaW5nIiB0ZXh0TGVuZ3RoPSIxOSIgeD0iNDI5IiB5PSIyNDkuODQzOCI+YWx0PC90ZXh0Pjx0ZXh0IGZpbGw9IiMwMDAwMDAiIGZvbnQtZmFtaWx5PSJzYW5zLXNlcmlmIiBmb250LXNpemU9IjExIiBmb250LXdlaWdodD0iYm9sZCIgbGVuZ3RoQWRqdXN0PSJzcGFjaW5nIiB0ZXh0TGVuZ3RoPSI3OCIgeD0iNDkzIiB5PSIyNDguOTUzMSI+WyYjMjk5OTI7JiMyNTE0MzsmIzIxNTE3OyYjMjQwNTA7JiMyMzM4NDsmIzIyMzEyO108L3RleHQ+PHBvbHlnb24gZmlsbD0iIzE4MTgxOCIgcG9pbnRzPSI0OTYsMjY4LjM4MjgsNDg2LDI3Mi4zODI4LDQ5NiwyNzYuMzgyOCw0OTIsMjcyLjM4MjgiIHN0eWxlPSJzdHJva2U6IzE4MTgxODtzdHJva2Utd2lkdGg6MS4wOyIvPjxsaW5lIHN0eWxlPSJzdHJva2U6IzE4MTgxODtzdHJva2Utd2lkdGg6MS4wO3N0cm9rZS1kYXNoYXJyYXk6Mi4wLDIuMDsiIHgxPSI0OTAiIHgyPSI3MDAiIHkxPSIyNzIuMzgyOCIgeTI9IjI3Mi4zODI4Ii8+PHRleHQgZmlsbD0iIzAwMDAwMCIgZm9udC1mYW1pbHk9InNhbnMtc2VyaWYiIGZvbnQtc2l6ZT0iMTMiIGZvbnQtd2VpZ2h0PSJib2xkIiBsZW5ndGhBZGp1c3Q9InNwYWNpbmciIHRleHRMZW5ndGg9IjciIHg9IjUwMiIgeT0iMjY4Ljc1NzgiPjY8L3RleHQ+PHRleHQgZmlsbD0iIzAwMDAwMCIgZm9udC1mYW1pbHk9InNhbnMtc2VyaWYiIGZvbnQtc2l6ZT0iMTMiIGxlbmd0aEFkanVzdD0ic3BhY2luZyIgdGV4dExlbmd0aD0iNzgiIHg9IjUxMyIgeT0iMjY4Ljc1NzgiPiYjMzY4MjA7JiMyMjIzODsmIzM4MTY5OyYjMzU4MjM7JiMyMDQ0OTsmIzI0Njg3OzwvdGV4dD48bGluZSBzdHlsZT0ic3Ryb2tlOiMwMDAwMDA7c3Ryb2tlLXdpZHRoOjEuMDtzdHJva2UtZGFzaGFycmF5OjIuMCwyLjA7IiB4MT0iNDE0IiB4Mj0iOTQyIiB5MT0iMjgxLjM4MjgiIHkyPSIyODEuMzgyOCIvPjx0ZXh0IGZpbGw9IiMwMDAwMDAiIGZvbnQtZmFtaWx5PSJzYW5zLXNlcmlmIiBmb250LXNpemU9IjExIiBmb250LXdlaWdodD0iYm9sZCIgbGVuZ3RoQWRqdXN0PSJzcGFjaW5nIiB0ZXh0TGVuZ3RoPSI3OCIgeD0iNDE5IiB5PSIyOTEuNzgxMyI+WyYjMjk5OTI7JiMyNTE0MzsmIzIxNTE3OyYjMTk5ODE7JiMyMzM4NDsmIzIyMzEyO108L3RleHQ+PGxpbmUgc3R5bGU9InN0cm9rZTojMTgxODE4O3N0cm9rZS13aWR0aDoxLjA7IiB4MT0iNzExIiB4Mj0iNzUzIiB5MT0iMzE0LjA3MDMiIHkyPSIzMTQuMDcwMyIvPjxsaW5lIHN0eWxlPSJzdHJva2U6IzE4MTgxODtzdHJva2Utd2lkdGg6MS4wOyIgeDE9Ijc1MyIgeDI9Ijc1MyIgeTE9IjMxNC4wNzAzIiB5Mj0iMzI3LjA3MDMiLz48bGluZSBzdHlsZT0ic3Ryb2tlOiMxODE4MTg7c3Ryb2tlLXdpZHRoOjEuMDsiIHgxPSI3MTIiIHgyPSI3NTMiIHkxPSIzMjcuMDcwMyIgeTI9IjMyNy4wNzAzIi8+PHBvbHlnb24gZmlsbD0iIzE4MTgxOCIgcG9pbnRzPSI3MjIsMzIzLjA3MDMsNzEyLDMyNy4wNzAzLDcyMiwzMzEuMDcwMyw3MTgsMzI3LjA3MDMiIHN0eWxlPSJzdHJva2U6IzE4MTgxODtzdHJva2Utd2lkdGg6MS4wOyIvPjx0ZXh0IGZpbGw9IiMwMDAwMDAiIGZvbnQtZmFtaWx5PSJzYW5zLXNlcmlmIiBmb250LXNpemU9IjEzIiBmb250LXdlaWdodD0iYm9sZCIgbGVuZ3RoQWRqdXN0PSJzcGFjaW5nIiB0ZXh0TGVuZ3RoPSI3IiB4PSI3MTgiIHk9IjMxMC40NDUzIj43PC90ZXh0Pjx0ZXh0IGZpbGw9IiMwMDAwMDAiIGZvbnQtZmFtaWx5PSJzYW5zLXNlcmlmIiBmb250LXNpemU9IjEzIiBsZW5ndGhBZGp1c3Q9InNwYWNpbmciIHRleHRMZW5ndGg9IjkxIiB4PSI3MjkiIHk9IjMxMC40NDUzIj4mIzIzNTQ1OyYjMjM0OTQ7JiMzMDcyMTsmIzM2ODI3OyYjMzQ4OTI7JiMyMTE1MjsmIzIzNDk0OzwvdGV4dD48cG9seWdvbiBmaWxsPSIjMTgxODE4IiBwb2ludHM9Ijg1OSwzNTAuOTg0NCw4NjksMzU0Ljk4NDQsODU5LDM1OC45ODQ0LDg2MywzNTQuOTg0NCIgc3R5bGU9InN0cm9rZTojMTgxODE4O3N0cm9rZS13aWR0aDoxLjA7Ii8+PGxpbmUgc3R5bGU9InN0cm9rZTojMTgxODE4O3N0cm9rZS13aWR0aDoxLjA7IiB4MT0iNzExIiB4Mj0iODY1IiB5MT0iMzU0Ljk4NDQiIHkyPSIzNTQuOTg0NCIvPjx0ZXh0IGZpbGw9IiMwMDAwMDAiIGZvbnQtZmFtaWx5PSJzYW5zLXNlcmlmIiBmb250LXNpemU9IjEzIiBmb250LXdlaWdodD0iYm9sZCIgbGVuZ3RoQWRqdXN0PSJzcGFjaW5nIiB0ZXh0TGVuZ3RoPSI3IiB4PSI3MTgiIHk9IjM1MS4zNTk0Ij44PC90ZXh0Pjx0ZXh0IGZpbGw9IiMwMDAwMDAiIGZvbnQtZmFtaWx5PSJzYW5zLXNlcmlmIiBmb250LXNpemU9IjEzIiBsZW5ndGhBZGp1c3Q9InNwYWNpbmciIHRleHRMZW5ndGg9Ijc4IiB4PSI3MjkiIHk9IjM1MS4zNTk0Ij4mIzIwNDQ1OyYjMjMzODQ7JiMyOTk5MjsmIzI1MTQzOyYjMjA0NDk7JiMyNDY4Nzs8L3RleHQ+PHBvbHlnb24gZmlsbD0iIzE4MTgxOCIgcG9pbnRzPSI3MjIsMzc4Ljg5ODQsNzEyLDM4Mi44OTg0LDcyMiwzODYuODk4NCw3MTgsMzgyLjg5ODQiIHN0eWxlPSJzdHJva2U6IzE4MTgxODtzdHJva2Utd2lkdGg6MS4wOyIvPjxsaW5lIHN0eWxlPSJzdHJva2U6IzE4MTgxODtzdHJva2Utd2lkdGg6MS4wO3N0cm9rZS1kYXNoYXJyYXk6Mi4wLDIuMDsiIHgxPSI3MTYiIHgyPSI4NzUiIHkxPSIzODIuODk4NCIgeTI9IjM4Mi44OTg0Ii8+PHRleHQgZmlsbD0iIzAwMDAwMCIgZm9udC1mYW1pbHk9InNhbnMtc2VyaWYiIGZvbnQtc2l6ZT0iMTMiIGZvbnQtd2VpZ2h0PSJib2xkIiBsZW5ndGhBZGp1c3Q9InNwYWNpbmciIHRleHRMZW5ndGg9IjciIHg9IjcyOCIgeT0iMzc5LjI3MzQiPjk8L3RleHQ+PHRleHQgZmlsbD0iIzAwMDAwMCIgZm9udC1mYW1pbHk9InNhbnMtc2VyaWYiIGZvbnQtc2l6ZT0iMTMiIGxlbmd0aEFkanVzdD0ic3BhY2luZyIgdGV4dExlbmd0aD0iNzgiIHg9IjczOSIgeT0iMzc5LjI3MzQiPiYjMzY4MjA7JiMyMjIzODsmIzIwNDQ1OyYjMjMzODQ7JiMzMjQ2NzsmIzI2NTI0OzwvdGV4dD48cG9seWdvbiBmaWxsPSIjMTgxODE4IiBwb2ludHM9IjQ5Niw0MDYuODEyNSw0ODYsNDEwLjgxMjUsNDk2LDQxNC44MTI1LDQ5Miw0MTAuODEyNSIgc3R5bGU9InN0cm9rZTojMTgxODE4O3N0cm9rZS13aWR0aDoxLjA7Ii8+PGxpbmUgc3R5bGU9InN0cm9rZTojMTgxODE4O3N0cm9rZS13aWR0aDoxLjA7c3Ryb2tlLWRhc2hhcnJheToyLjAsMi4wOyIgeDE9IjQ5MCIgeDI9IjcwMCIgeTE9IjQxMC44MTI1IiB5Mj0iNDEwLjgxMjUiLz48dGV4dCBmaWxsPSIjMDAwMDAwIiBmb250LWZhbWlseT0ic2Fucy1zZXJpZiIgZm9udC1zaXplPSIxMyIgZm9udC13ZWlnaHQ9ImJvbGQiIGxlbmd0aEFkanVzdD0ic3BhY2luZyIgdGV4dExlbmd0aD0iMTQiIHg9IjUwMiIgeT0iNDA3LjE4NzUiPjEwPC90ZXh0Pjx0ZXh0IGZpbGw9IiMwMDAwMDAiIGZvbnQtZmFtaWx5PSJzYW5zLXNlcmlmIiBmb250LXNpemU9IjEzIiBsZW5ndGhBZGp1c3Q9InNwYWNpbmciIHRleHRMZW5ndGg9Ijc4IiB4PSI1MjAiIHk9IjQwNy4xODc1Ij4mIzM2ODIwOyYjMjIyMzg7JiMyNTgwNTsmIzIwMzE2OyYjMzI0Njc7JiMyNjUyNDs8L3RleHQ+PHBvbHlnb24gZmlsbD0iIzE4MTgxOCIgcG9pbnRzPSIyODIsNDQxLjcyNjYsMjcyLDQ0NS43MjY2LDI4Miw0NDkuNzI2NiwyNzgsNDQ1LjcyNjYiIHN0eWxlPSJzdHJva2U6IzE4MTgxODtzdHJva2Utd2lkdGg6MS4wOyIvPjxsaW5lIHN0eWxlPSJzdHJva2U6IzE4MTgxODtzdHJva2Utd2lkdGg6MS4wO3N0cm9rZS1kYXNoYXJyYXk6Mi4wLDIuMDsiIHgxPSIyNzYiIHgyPSI0NzkiIHkxPSI0NDUuNzI2NiIgeTI9IjQ0NS43MjY2Ii8+PHRleHQgZmlsbD0iIzAwMDAwMCIgZm9udC1mYW1pbHk9InNhbnMtc2VyaWYiIGZvbnQtc2l6ZT0iMTMiIGZvbnQtd2VpZ2h0PSJib2xkIiBsZW5ndGhBZGp1c3Q9InNwYWNpbmciIHRleHRMZW5ndGg9IjE0IiB4PSIyODgiIHk9IjQ0Mi4xMDE2Ij4xMTwvdGV4dD48dGV4dCBmaWxsPSIjMDAwMDAwIiBmb250LWZhbWlseT0ic2Fucy1zZXJpZiIgZm9udC1zaXplPSIxMyIgbGVuZ3RoQWRqdXN0PSJzcGFjaW5nIiB0ZXh0TGVuZ3RoPSIxNjIiIHg9IjMwNiIgeT0iNDQyLjEwMTYiPiYjMzY4MjA7JiMyMjIzODsmIzMyNDY3OyYjMjY1MjQ7ICgmIzI1MTA0OyYjMjExNTE7JiMyNTExMDsmIzM4MTY5OyYjMzU4MjM7JiMyMDQ0OTsmIzI0Njg3Oyk8L3RleHQ+PHBhdGggZD0iTTEwLDQ2MC43MjY2IEw3NCw0NjAuNzI2NiBMNzQsNDY2LjY0MDYgTDY0LDQ3Ni42NDA2IEwxMCw0NzYuNjQwNiBMMTAsNDYwLjcyNjYgIiBmaWxsPSIjRUVFRUVFIiBzdHlsZT0ic3Ryb2tlOiMwMDAwMDA7c3Ryb2tlLXdpZHRoOjEuNTsiLz48cmVjdCBmaWxsPSJub25lIiBoZWlnaHQ9Ijg1LjUxNTYiIHN0eWxlPSJzdHJva2U6IzAwMDAwMDtzdHJva2Utd2lkdGg6MS41OyIgd2lkdGg9IjMwMSIgeD0iMTAiIHk9IjQ2MC43MjY2Ii8+PHRleHQgZmlsbD0iIzAwMDAwMCIgZm9udC1mYW1pbHk9InNhbnMtc2VyaWYiIGZvbnQtc2l6ZT0iMTMiIGZvbnQtd2VpZ2h0PSJib2xkIiBsZW5ndGhBZGp1c3Q9InNwYWNpbmciIHRleHRMZW5ndGg9IjE5IiB4PSIyNSIgeT0iNDc0LjAxNTYiPmFsdDwvdGV4dD48dGV4dCBmaWxsPSIjMDAwMDAwIiBmb250LWZhbWlseT0ic2Fucy1zZXJpZiIgZm9udC1zaXplPSIxMSIgZm9udC13ZWlnaHQ9ImJvbGQiIGxlbmd0aEFkanVzdD0ic3BhY2luZyIgdGV4dExlbmd0aD0iNTYiIHg9Ijg5IiB5PSI0NzMuMTI1Ij5bJiMyNzg4MDsmIzIwODc2OyYjMjUxMDQ7JiMyMTE1MTtdPC90ZXh0Pjxwb2x5Z29uIGZpbGw9IiMxODE4MTgiIHBvaW50cz0iNDgsNDkyLjU1NDcsMzgsNDk2LjU1NDcsNDgsNTAwLjU1NDcsNDQsNDk2LjU1NDciIHN0eWxlPSJzdHJva2U6IzE4MTgxODtzdHJva2Utd2lkdGg6MS4wOyIvPjxsaW5lIHN0eWxlPSJzdHJva2U6IzE4MTgxODtzdHJva2Utd2lkdGg6MS4wO3N0cm9rZS1kYXNoYXJyYXk6Mi4wLDIuMDsiIHgxPSI0MiIgeDI9IjI2MCIgeTE9IjQ5Ni41NTQ3IiB5Mj0iNDk2LjU1NDciLz48dGV4dCBmaWxsPSIjMDAwMDAwIiBmb250LWZhbWlseT0ic2Fucy1zZXJpZiIgZm9udC1zaXplPSIxMyIgZm9udC13ZWlnaHQ9ImJvbGQiIGxlbmd0aEFkanVzdD0ic3BhY2luZyIgdGV4dExlbmd0aD0iMTQiIHg9IjU0IiB5PSI0OTIuOTI5NyI+MTI8L3RleHQ+PHRleHQgZmlsbD0iIzAwMDAwMCIgZm9udC1mYW1pbHk9InNhbnMtc2VyaWYiIGZvbnQtc2l6ZT0iMTMiIGxlbmd0aEFkanVzdD0ic3BhY2luZyIgdGV4dExlbmd0aD0iMTgyIiB4PSI3MiIgeT0iNDkyLjkyOTciPiYjMjU1NTI7JiMzMTAzNDsmIzI3ODgwOyYjMjA4NzY7JiMyNTEwNDsmIzIxMTUxOyYjNjUyOTI7JiMzNjMzOTsmIzM2NzE2OyYjMjEwNDA7JiMzMDMzMTsmIzI0NDA1OyYjMzkwMjk7JiMzODc1NDs8L3RleHQ+PGxpbmUgc3R5bGU9InN0cm9rZTojMDAwMDAwO3N0cm9rZS13aWR0aDoxLjA7c3Ryb2tlLWRhc2hhcnJheToyLjAsMi4wOyIgeDE9IjEwIiB4Mj0iMzExIiB5MT0iNTA1LjU1NDciIHkyPSI1MDUuNTU0NyIvPjx0ZXh0IGZpbGw9IiMwMDAwMDAiIGZvbnQtZmFtaWx5PSJzYW5zLXNlcmlmIiBmb250LXNpemU9IjExIiBmb250LXdlaWdodD0iYm9sZCIgbGVuZ3RoQWRqdXN0PSJzcGFjaW5nIiB0ZXh0TGVuZ3RoPSI1NiIgeD0iMTUiIHk9IjUxNS45NTMxIj5bJiMyNzg4MDsmIzIwODc2OyYjMjI4MzM7JiMzNjEzMztdPC90ZXh0Pjxwb2x5Z29uIGZpbGw9IiMxODE4MTgiIHBvaW50cz0iNDgsNTM0LjI0MjIsMzgsNTM4LjI0MjIsNDgsNTQyLjI0MjIsNDQsNTM4LjI0MjIiIHN0eWxlPSJzdHJva2U6IzE4MTgxODtzdHJva2Utd2lkdGg6MS4wOyIvPjxsaW5lIHN0eWxlPSJzdHJva2U6IzE4MTgxODtzdHJva2Utd2lkdGg6MS4wO3N0cm9rZS1kYXNoYXJyYXk6Mi4wLDIuMDsiIHgxPSI0MiIgeDI9IjI2MCIgeTE9IjUzOC4yNDIyIiB5Mj0iNTM4LjI0MjIiLz48dGV4dCBmaWxsPSIjMDAwMDAwIiBmb250LWZhbWlseT0ic2Fucy1zZXJpZiIgZm9udC1zaXplPSIxMyIgZm9udC13ZWlnaHQ9ImJvbGQiIGxlbmd0aEFkanVzdD0ic3BhY2luZyIgdGV4dExlbmd0aD0iMTQiIHg9IjU0IiB5PSI1MzQuNjE3MiI+MTM8L3RleHQ+PHRleHQgZmlsbD0iIzAwMDAwMCIgZm9udC1mYW1pbHk9InNhbnMtc2VyaWYiIGZvbnQtc2l6ZT0iMTMiIGxlbmd0aEFkanVzdD0ic3BhY2luZyIgdGV4dExlbmd0aD0iNzgiIHg9IjcyIiB5PSI1MzQuNjE3MiI+JiMyNjE3NDsmIzMxMDM0OyYjMzgxNjk7JiMzNTgyMzsmIzIwNDQ5OyYjMjQ2ODc7PC90ZXh0PjwhLS1TUkM9W2JQRjFKamowNDhSbFZlZXZtZTROb0E2TmRoWXN3V0V1T0xqUENkUmFFNFl6OUkyYjBJS1lCRzRiOFc2MmU4ZjRvcUJKRGFyM29Ca1dwN2Z6d1lqcW1uZ3l3eUdMNzZUdHpsamRfZnFuMnh4aDVEUlY0aXltcEFwbFVYMHFVZ21vQzdBY3ZyalBBc1N3Rmsxc0JSWVdPVlRkczNkTEJqeGFZVlZJVE5wRmpNcjFJNXd6OWp3NmJJTWh3cGJ4eGt1TG9SYnZJbVgtQzBtZjJJaWxEQUtDT0ZTMm9vdE14czZ2RWZycU1PZFl5NVVtRVNJRmV4allNdnhWNUpraWtYci1sZm9MUnNzT0ZqN0JMT0VQV2J3b3FEWno1MVBCYWlOZlc1cmxtYjkxdkFtd3h6cGJjOWRlTDB5Vms0Z182VTFOTXc4bHlDWHhBLXlKQnVPMkVuWW9faHhFTGdyQW4wX3FzQjRDaUVEcEphLWJScllsaUlSNS1YU1NWQ1RsSk1wdFRCSllqMXgyb2lBdzltcXlGOGU0SGRsaWc2c2lhSklXUVZsbU00TWkzcDNObW1CaGZMQk9RNzVBdlZTUW5Dd0o2M1p6TktpN0JZV1R3SDFmRUpXZnlTYVh4clBudnFJNHdNekxHd1VKWmYySW9iNGowNmJUMHBwVG8wV2laR0g4al84dmRoNnpzZEpTWmczNE1LbC1LN0FRcjU2VHNwQTliMzFPT2ZLd3hYb3BvZTd3QnlqOTBNS0xQWUNXcnFTLTVPdGVFb1M0ZlF6WVI3VmhtVGFWRFZsbEpQS0YtZHB5NUlqTkdNazR1X3JlUi15ZEdNUllzSk5fU1Z2VlJsRE1TRkw5cWJySGRfdTNdLS0+PC9nPjwvc3ZnPg==;" parent="1" vertex="1"><mxGeometry x="-151" y="950" width="949" height="642" as="geometry"/></mxCell></UserObject></root></mxGraphModel></diagram></mxfile>